<svg xmlns="http://www.w3.org/2000/svg" viewBox="0 0 500 375"><path d="M74.6.8C73.2 3 77.4 4.4 86.3 4.5c5.2.1 10.3.7 11.6 1.4s4.2 1.5 6.5 1.6l4.1.4-4.5-1.3c-2.5-.7-5.5-1.8-6.7-2.4-1.3-.7-4-.9-6.8-.5-3.5.4-4.9.2-5.6-.8-.5-.8-.9-.9-.9-.3 0 1.5-6.3.5-7.7-1.3-.6-.8-1.4-1-1.7-.5M400.2 3.7c-.2 3.5.1 4.3 1.6 4.3 1.1 0 1.3-.3.5-.8-.6-.4-1.3-2.3-1.6-4.2-.4-3.3-.4-3.3-.5.7M485.3 6.3l-2.9 3.3-15.5 1.2c-8.5.6-19.1 2.1-23.7 3.2s-10 2-12 2-4.3.4-5.1.9c-1.8 1.2 6.6.4 14.9-1.4 12.4-2.7 17.5-3.4 29.3-4.1 10.4-.6 11.7-.5 11.7 1 0 .9.4 1.6 1 1.6.5 0 .7-.7.3-1.6-.4-1 .8-3 3.3-5.5 2.1-2.1 3.3-3.9 2.7-3.9s-2.4 1.5-4 3.3M234 6.7c-1.6 2.1-2.5 2.4-5.1 1.9-2.4-.5-3.5-.1-5 1.7-1 1.2-1.8 2.7-1.9 3.4 0 .6-.5 1.3-1.2 1.5-.6.2.4 1 2.3 1.7s4.2 1.7 5.2 2.2 2.2.7 2.6.4c.5-.2 3.1.2 5.7 1 5.6 1.7 7.5 1.9 5.4.5-.8-.5-4-1.4-7-2-12-2.4-14.4-4.2-10-7.3 1.1-.8 1.7-1.7 1.4-2-.4-.3 1-.3 3 0 3 .5 4 .2 5.2-1.5.8-1.1 2.4-2.2 3.7-2.4l2.2-.3-2.3-.7c-1.6-.5-2.7 0-4.2 1.9M70.7 7.4c-.8 2 2.4 4.6 5.5 4.6 2.1 0 3.8-1.6 3.8-3.5C80 8 73.9 6 72.5 6c-.7 0-1.5.6-1.8 1.4M77 8.5c2.2 1.2 2.3 1.4.8 2-2.2.9-5.1-.1-4.3-1.5.4-.6-.1-.7-1.1-.3-1.2.4-1.5.3-1-.5.9-1.5 2.5-1.5 5.6.3M82.8 8.7c-2.9.7-2 4.3 1.4 5.6 1 .3 2 .1 2.4-.5s.3-.8-.3-.5c-.6.4-1.9 0-2.9-.8-1.6-1.2-1.7-1.6-.5-2.4 2-1.3 6.2 1.5 5.3 3.7-.5 1.4-.4 1.5 1.1.2 1.5-1.4 1.4-1.7-1.1-3.7C86.7 9 85.3 8.1 85 8.1c-.3.1-1.3.3-2.2.6M112 9c0 .5-1.8 1-4 1-3 0-3.8.3-3.4 1.4.7 1.7 6.2 4.2 7.2 3.2.7-.8 1.2-6.6.6-6.6-.2 0-.4.4-.4 1m-.5 2.9c1 1.8-1.5 2.2-3.7.7l-2.2-1.6h2.6c1.5 0 2.9.4 3.3.9M400.8 9.7c.6.2.9 1 .6 1.5-.4.7-.2.8.4.4.7-.4 1.2-.2 1.2.3 0 .6-.7 1.1-1.5 1.1s-1.5.6-1.5 1.4c0 1.1 2.2 1.6 8.8 2 4.8.4 10.2.8 12 1.1 1.9.2 3 0 2.7-.6-.4-.5-3.2-.9-6.3-.9s-8-.3-10.8-.6c-5-.6-5.1-.7-3.3-2.5 1.1-1.1 2.5-1.9 3.2-2 1.5-.1-3.3-1.7-5.3-1.7-1 0-1.1.1-.2.5M423.1 21.5c1.9 5.6 5.5 7.1 26.9 11.1 4.6.9 9.7 2.2 11.2 3 3.5 1.8 7.6 1.8 16.3-.2 3.9-.8 10.6-2.1 15-2.9 4.5-.7 6.5-1.3 4.5-1.4-1.9 0-5.3.4-7.5.8-2.2.5-7.6 1.6-12 2.6-8.3 1.7-10.1 1.7-20-.9-3.3-.9-10.5-2.5-16-3.7-8.7-1.9-16.5-5.2-16.5-7 0-.3-.7-1.4-1.5-2.5-1.4-1.8-1.4-1.7-.4 1.1M183.8 21.6c1.3.9 2.6 1.3 2.9 1 .4-.3 1.7.4 3 1.6s2.3 1.6 2.3 1c0-1.4-4.1-4.3-5.1-3.6-.4.2-1 0-1.4-.6-.3-.5-1.4-1-2.3-1-1.3 0-1.1.4.6 1.6M409 25c-.8.5-2.3.7-3.4.4-1-.3-2.8-.2-4 .3-2.5 1.2-13.5 4-22.8 5.8-6.8 1.4-10.2 2.8-12.5 5.1-1.6 1.5-1.7 4-.3 4.9 1.8 1.1 3.7 6.9 4.2 13.1 1 10.3 6.2 17.4 13.3 18 2.2.2 5.3.6 7 .9q3 .6 1.5-.3c-.8-.5-3.7-1.2-6.4-1.6-2.7-.3-6-1.3-7.2-2.1-3.3-2.1-7.4-11.2-7.4-16.2 0-4.2-1.5-8.8-4.2-12.6-1.1-1.6-.9-2.2 1.7-4.2 1.6-1.4 5.5-2.9 8.5-3.5s8.7-1.9 12.5-3c3.9-1.1 8.2-2 9.7-2s2.9-.4 3.3-1c.3-.5 1.8-.9 3.3-1 6-.1 9-.5 8.5-1.3-.6-1-3.5-.9-5.3.3M233.5 27c-2.8.7-2.7.7.7.5 3.8-.3 15.7 3.8 17 5.9.6.8.8.8.8 0 0-2.1 4.3-2.4 6.5-.5 1.2 1.2 3.4 1.9 5.7 1.9 2 0 5.1.5 7 1.1 10.2 3.2 14.3 4 24.5 4.6 11.9.7 13.7.3 16.9-4.4 1.3-1.9 1.3-2.1 0-2.1-.9 0-1.6.6-1.6 1.3s-1 2.1-2.1 3.1c-1.9 1.6-3.4 1.7-13.3 1.1-10-.6-14.2-1.3-24.4-4.6-1.7-.6-4.7-1.1-6.5-1.1-3.4-.1-8.1-3-6.9-4.3.4-.4-.3-.2-1.6.4-2.6 1.4-7.9.6-13.7-2-4.3-2-4.5-2-9-.9"/><path d="M396.2 35.1c-1.8.4-3.6 1-4 1.4s.4.4 1.7 0c6.2-1.9 16.1.3 16.1 3.6 0 1-.4 1.9-.9 1.9-1.3 0-2.2 4.3-1.1 5.4 1.3 1.3 1.3 4.9-.1 6.3-.6.6-1.3 4.1-1.5 7.7-.4 6.8-2.5 12.6-4.5 12.6-1.7 0 .4-25.1 2.5-30 1.3-3.1-1.8-5.3-8-5.6l-5.9-.3 5.4.9c2.9.4 5.8 1.3 6.3 1.8.7.7.6 3.3-.1 7.8-.5 3.8-1.3 11.2-1.7 16.5-.6 9.1-.6 9.6 1.4 10.1 1.7.5 2.4-.2 3.6-3.3.9-2.2 1.8-6.9 2-10.5.2-3.7.9-7.1 1.5-7.7 1.3-1.3 1.4-5.4.2-6.1-1-.7-.3-4.6.9-4.6.4 0 1-1.2 1.3-2.6.4-2-.1-2.7-2.1-3.5-4.8-1.8-9.7-2.5-13-1.8M359.3 46c3.9 1.2 5.6 3.8 5.7 8.5.1 8.4 4.6 16.7 10.8 19.9 3 1.5 17.2 3 17.2 1.8 0-.4-1.2-.8-2.7-.8-1.6-.1-4.9-.2-7.5-.3-4-.1-5.5-.7-8.7-3.7-5.1-4.6-8.1-10.7-8.1-16.8 0-5.4-3.2-9.7-7.2-9.5-2 .1-2 .2.5.9M66.5 55c-.4.6-.1 1 .4 1 .6 0 1.4 1.8 1.7 3.9.4 2.2 1.5 4.9 2.6 6.1s2.1 2.7 2.2 3.3c.1.7.4 1.6.7 2.2.3.5.4 5.5.2 11-1.5 38 .5 100.5 3.3 103.6.8.8 1.4 2.1 1.4 2.7 0 .7 1.2 1.2 2.6 1.2 2.3 0 2.5.2 1.4 1.5-.7.9-1 1.8-.6 2.2.3.4 1.3-.3 2.1-1.4 1.2-1.7 2.8-2.1 9-2.5 5.3-.2 7.9-.8 8.6-1.8 1.1-1.7.8-19.8-.4-21.8-.6-.8-3.7-1.2-9.7-1.2-8.7 0-9-.1-9.6-2.5-.3-1.3-.7-10.9-.7-21.2l-.2-18.8 8.5.3c9.1.4 11 1.4 11 5.9 0 1.5-.8 2.7-2.2 3.2-1.3.5-1.7 1-1.1 1.4 1.5.9 4.3-1.9 4.3-4.3 0-1-.4-3-.9-4.3-.9-2.3-1.5-2.5-10-2.9-5-.2-9.5-.8-10.1-1.4-1.8-1.8-2.1-17.5-.5-23.8 1.9-7.1 1.4-8.6-.6-1.9-1.3 4.6-1.7 21.7-.6 24.7.3.8.8 10.8 1.1 22.3.2 11.4.8 21.6 1.1 22.5.6 1.5 2.1 1.8 9.6 1.8 8.7 0 9 .1 9.9 2.6.6 1.4 1 6.1 1 10.4 0 9.6-.3 9.9-12.3 10.1-12 .3-12.3-.1-13.1-18.6-.4-7.7-1.1-22.8-1.7-33.5s-.8-25.4-.5-32.5c.4-7.2.8-16.9.9-21.7.1-4.7.4-8.8.7-9 .5-.4 12.7.2 40.5 2.1 15.9 1.1 40.7 4.3 47.6 6.2 4.4 1.1 5.6 2.4 6.2 6.4.4 2.8.4 2.8.6-.6 0-2-.5-4.1-1.1-4.7-4.5-3.6-41.2-8.2-79.6-9.9-10.1-.4-10.3-.5-11.3-3.1-.6-1.5-1.1-3.7-1.1-5 0-1.2-.4-2.4-.8-2.7-.8-.5-.6 2.5.5 6.8.7 2.5.5 2.8-1 2.5-1-.1-2-1.3-2.2-2.6-.1-1.3-1.2-3.2-2.3-4.4-1.8-1.9-2.4-4.3-2.3-8.5.1-1.5-2.5-2.5-3.2-1.3M57.6 60.5c1.7 4.3 1.3 7.2-1.6 10.6-1.8 2.2-1.9 2.3-1.9.4 0-1.1.4-3.9.8-6.3.5-2.3.5-4.2.1-4.2-.9 0-2.2 10.8-1.5 12 .9 1.5 3.5-.1 5.1-3.2 1.8-3.4 1.1-10-1.2-11.9-1.1-.9-1.1-.4.2 2.6M131.6 58.9c.3.3 3.8.6 7.7.7 4 .1 9 .6 11.2 1.2s6.8 1.3 10.3 1.6c6 .5 6.5.7 11.7 6.1 3 3.1 5.5 6.4 5.6 7.3 0 .9.3 1.2.5.6.7-1.7-2.5-6.5-7.3-10.8-3.6-3.2-4.9-3.8-10.5-4.2-3.5-.3-8.1-1-10.3-1.6-4.2-1.1-19.8-1.8-18.9-.9M49.6 60.9c-.4.5-.7 2.7-.8 4.8-.1 4.8-2 8.5-5.2 10.7-1.5.9-2.6 2.4-2.6 3.4 0 .9-.9 3.2-2 4.9-1.1 1.8-1.6 3.3-1.2 3.3 1 0 4.2-5.4 4.2-7.2 0-.7 1.3-2.4 3-3.8 3-2.5 6.8-10 5.1-10-.6 0-.6-1.2 0-3.2.9-3.2.6-4.8-.5-2.9M173.4 79.2c2.6 3 3.6 5.1 3.6 7.5 0 3.9 1.7 4.9 5.7 3.5l2.8-1.1-3.5.2c-2.7.2-3.5-.2-3.8-1.8-.8-5-1.3-6.3-4-9.3-4.3-4.7-4.9-3.9-.8 1M47.4 78.8c.4.6-.1 1.5-1 2-2.3 1.3-2.3 7.1 0 8.8 2.8 2 6 .3 6.4-3.5.2-1.8-.2-3.9-.9-4.7-1.5-1.9-5.4-4.1-4.5-2.6m4.6 6.8c0 2.8-3.1 4.9-4.8 3.2-1.5-1.5-1.5-6.1 0-7.6 1.6-1.6 4.8 1.3 4.8 4.4M335.6 85.2c-.3 1.8-.8 4.5-1.1 6.1-.3 1.5-1.2 5.5-2 9-.9 3.4-1.8 7.3-2.1 8.7-.6 2.5-2.4 7-5.1 12.2-.8 1.5-1.4 3.1-1.3 3.5.1 1.6-3.4 12.2-3.9 11.8-.3-.1-.6 1-.6 2.5s.3 2.6.8 2.3c.4-.2.7-1 .7-1.8 0-.7 1.1-4.5 2.4-8.4s2.2-7.1 1.9-7.1c-.2 0 .2-1.2 1-2.8 2.7-5.2 4.5-9.7 5.1-12.2 1.7-8.1 5.9-25.6 6.2-25.9.6-.7 25.6 12.3 26.1 13.6.4 1-4 18-7.2 27.8-.4 1.3-.1 1.1.8-.5 2-3.5 8.1-26.6 7.5-28.2-.6-1.5-24.6-13.8-27-13.8-1 0-1.8 1.2-2.2 3.2"/><path d="M30.7 93.7c-3.5 8.1-4 12.8-4 34.8.1 20.1.3 22.4 2.2 26.5 1.6 3.5 1.9 3.8 1.4 1.5-.3-1.7-1-3.6-1.6-4.3-1.5-1.9-1.3-44.6.2-50.2 5.6-20.8 11.2-11.5 15.7 26 1.3 11.5 1.6 19.1 1.1 36.6-.3 12.1-1.1 25.1-1.8 28.7-1.9 10.4-6.3 12.7-9.6 5-2.1-5-5.1-22.8-5.5-32.5-.2-4.3-.7-7.8-1.1-7.8-1.9 0 2.5 31.9 5.5 39.8 2.4 6.3 5.2 8 8.3 5.1 3.2-2.8 4.5-13.5 5.2-39.4.4-19.8.2-25.3-1.6-39.4-3.2-25-6-34.1-10.5-34.1-1.7 0-2.7 1-3.9 3.7M170.7 103.1c.1 6.3-.3 10-1.4 12.6-.9 2.1-1.8 5.1-2 6.7-.2 1.7-.8 4.7-1.4 6.9s-1.7 8.5-2.4 14.1c-.7 5.5-1.6 11.4-1.9 13.1-2 11.9-3 20.3-2.8 22.3.3 2.1.1 2.2-2 1.2-1.4-.7-.7.4 2 3 4.2 4.1 6.2 4.5 6.2 1.2 0-.9.5-2.4 1.1-3.2.8-1.1.9-.6.5 2-.3 1.9-.7 5.7-1 8.5-.2 2.7-.7 5.9-1.1 7-.5 1.7-.5 1.7.4.4 1.4-2.2 3.9-19.9 2.7-19.2-.5.4-.7-.9-.3-3.1.3-2.2.2-3.4-.4-3.1-.5.4-.9 1.3-.9 2.2 0 1.4-1.9 7.8-2.6 9.1-.1.2-1.1-.2-2.2-.9-2.3-1.4-2.2-3.7.3-19.4.9-5.5 2.2-14.8 3-20.8.8-5.9 2.6-15.1 4.1-20.5 2.8-9.9 4.3-24.8 2.7-27.6-.4-.8-.7 2.4-.6 7.5"/><path d="M32.2 103c.7 1.3 1.9 3 2.6 3.8.6.7 1.2 1.5 1.2 1.7s.7 3.9 1.5 8.2 1.5 10.1 1.5 13c0 2.8.5 5.5 1 5.8.7.4.9 7.6.6 21.3-.5 18.1-1.2 26.6-3.1 36.2-.4 1.8-.3 2.1.4 1 2.7-4.7 5.6-57.9 3.2-59.5-.6-.3-1.1-2.7-1.1-5.2s-.7-8.5-1.6-13.4c-1.3-7.2-2.2-9.6-4.6-12.2-2.3-2.5-2.7-2.7-1.6-.7M178.6 104.7c-.3 1-1 11.7-1.6 23.8-1 21.3-2.8 43.6-3.6 44.4-.2.2 1.4 2.5 3.4 5 2.1 2.5 4.8 6.1 6.1 7.8 2 3 2.7 3.3 7.1 3.3 2.7 0 5.2-.5 5.5-1 .8-1.3 1.2-6.1 2-25 .3-8 1-18.6 1.6-23.7.5-5.1.9-13.2.9-18.1v-8.9l-4.1-1.2c-2.2-.7-6.9-2.8-10.4-4.7-5.7-3.2-6.4-3.3-6.9-1.7m6.9 3.2c2.9 1.6 7.1 3.4 9.3 4.1l4.2 1.1v8.5c0 4.7-.4 12.6-.9 17.7-.6 5.1-1.3 15.7-1.6 23.7-1.2 26.4-.8 25-6.4 25-3.5 0-4.1-.5-9.5-7.6l-5.8-7.6 1.1-11.7c.9-9.8 3.1-47.9 3.1-54.2 0-2.5.4-2.4 6.5 1"/><path d="M190.2 123.7c-.1 6.1-.6 14.5-1.1 18.5-.6 4-1.2 13.8-1.5 21.8s-.8 16.5-1 19l-.5 4.5.9-4c.5-2.2 1.2-9.6 1.5-16.5s1-18.1 1.6-25 .9-16.3.7-21c-.4-8.3-.4-8.2-.6 2.7M239 108.9c-1.4 1.1-2.1 2-1.7 2.1.5 0 1.6-.7 2.4-1.6 1.3-1.3 3.2-1.5 10.2-1 4.7.3 9.1.5 9.6.6.6 0 5.1-.2 10-.4 7.8-.4 9.6-.2 13.5 1.7 6.8 3.3 8.1 6.9 8.6 23 .2 7.3 0 14.1-.5 15.2s-1.3 3.2-2 4.8c-1.7 4.2-10.5 7.7-22.1 8.7-5.2.5-13.1 1.2-17.5 1.6s-8.7 1.1-9.5 1.5c-1 .6-.5.8 1.5.5 1.7-.2 8.6-.9 15.5-1.6 16.7-1.4 21.8-2.4 27.6-5.2 3.9-1.9 5.1-3 5.8-5.8.5-1.9 1.3-3.8 1.8-4.1.9-.6.3-28.7-.6-29.6-.3-.4-.6-1.4-.6-2.4 0-2.2-4.9-8.1-6.1-7.4-.4.3-2.2-.1-3.8-1-2.3-1.1-5.1-1.4-11.8-1-4.8.3-9.2.5-9.8.5-.5-.1-4.8-.3-9.5-.6-7.6-.5-8.8-.4-11 1.5M33.4 125.6c-.9 3.4.4 36.2 1.6 42.9l.9 5-.5-6c-.2-3.3-.7-12.2-1.1-19.8l-.6-13.7 2.4-.1h2.4l-2.4-1c-2.1-.8-2.3-1.4-1.8-5.4.7-4.9.1-6-.9-1.9M368 143.3c0 .2-2.9 9.5-6.4 20.6-5.7 17.8-6.3 20.5-5.3 23.2.9 2.4.9 3.2-.1 3.8-.8.5-1.3 1.1-1.3 1.5.4 2.6-.2 3.9-1.9 4.3-1.1.3-2.3 1.7-2.6 3.2-.3 1.4-1.4 5.1-2.4 8.1-1.7 5.2-5.5 17.8-8.5 28-4.9 16.6-6.8 21.9-7.9 21.4-.6-.4 3.8 4.1 9.9 10 6 5.8 11.4 10.6 12 10.6.5 0-3.7-4.4-9.4-9.8l-10.3-9.7 4.1-14c7.2-24.2 9.2-30.9 10.1-33 .4-1.1 1.5-4.5 2.5-7.6 1.1-3.9 2.2-5.9 3.6-6.2 1.1-.3 1.9-1.4 1.9-2.5 0-1.2.5-2.4 1-2.7 1.3-.8 1.3-5.8 0-7.1-.6-.6.9-6.9 4.6-18.4 3-9.6 5.9-18.6 6.3-20s1.6-2.6 2.8-2.8c2.2-.3 24.6 9.9 27.6 12.5 2.6 2.4 2.1 6.2-2.9 20.6-2.5 7.3-5.1 15.2-5.9 17.7-.7 2.5-2 6.2-2.9 8.2-.9 2.1-1.6 5.5-1.6 7.7 0 2.4-.7 4.6-1.7 5.7-2.2 2.2-4 6.7-6.5 16.9-1.1 4.4-3.2 12-4.5 17-1.4 4.9-3.3 13.3-4.4 18.5-2.1 9.9-4.3 13.5-7.7 12.4-1.3-.5-1.4-.4-.3.4s1.1 1 0 1.5c-1 .4-.9.6.4.6.9.1 1.7-.4 1.7-.9 0-.6.7-1 1.5-1 2.1 0 3.2-2.6 5.4-13.1 1-5.2 3-13.2 4.3-17.9 1.4-4.7 3-11.4 3.7-15s2.1-8.2 3.2-10.3c1-2.1 1.9-4.4 1.9-5.3 0-.8.7-1.7 1.5-2 1.5-.6 3.1-6.5 2.6-9.6-.1-.9.5-3.4 1.5-5.5.9-2.1 2.2-5.8 2.9-8.3 1.7-5.5 4.2-12.8 5.5-15.5 1.8-3.8 5-16.2 5-19.2 0-3.9-1.8-5.4-12.5-10.3-5-2.3-10.4-4.8-12.2-5.6-2.7-1.2-8.3-2-8.3-1.1M83.1 168.9c-.7.5-1.2 2.2-1.1 3.7.1 1.6.2 4.8.1 7.2v4.3l6.2-.3 6.2-.3v-15l-5-.3c-2.7-.1-5.6.2-6.4.7m10.7 7.3.3 6.8H82.9l.7-3.4c.3-1.9.1-4.2-.4-5.2-1.9-3.5.3-5.5 5.6-5.2l4.7.3zM22.2 185.7c.4 3.2 1.3 6.8 1.8 8.1.6 1.3 1 3.6 1 5.2s.4 3.2 1 3.5c.6.4.4 1.9-.5 4.2-2 4.7-2 4.5 2 9.3 4.1 4.9 3.6 7.4-2 8.4-3.2.6-5.5 2.9-5.5 5.5 0 .6 1.5 1.8 3.3 2.6 2.7 1.4 2.9 1.4 1.3.1-1-.8-2.3-1.7-2.9-1.9-.5-.1-.7-1.3-.3-2.5.5-1.5 1.8-2.3 4.4-2.8 2-.4 4.2-1.1 4.9-1.6 1.8-1.5.5-6-2.9-9.5-2.9-3-3.1-3.4-1.8-6 1.7-3.4 1.8-4.5.9-5.8-.4-.6-.9-2.6-1.2-4.5-1.5-8.8-3.3-16.9-3.8-17.4-.3-.4-.2 2 .3 5.1M301.7 186.7c-.3.5-1.3 4.4-2.2 8.8-1 4.4-2.2 8.5-2.7 9.2s-.8 2.5-.7 4-.1 4.2-.5 6c-.5 2.3-.1 4.3 1.8 8 1.3 2.6 3.4 7.5 4.6 10.8 2 5.8 8.4 14.5 10.6 14.5.5 0 4 2.9 7.6 6.5 8.9 8.7 9.8 8.3 1.2-.5-3.7-3.9-7.3-7-8-7-2.8 0-12.4-14.8-12.4-19.2 0-.5-1.1-3.3-2.5-6-1.7-3.3-2.3-5.8-1.9-7.2.4-1.1.6-3.5.5-5.1-.1-1.7.3-3.9.8-5 1.1-2.1 5-18.5 4.5-18.5-.1 0-.5.3-.7.7M348 196.9c0 .5-.6 1.6-1.3 2.3-1.8 1.7-5.6 13.8-6.7 20.8-.5 3-2 9.7-3.4 14.9-1.4 5.1-2.6 10.1-2.5 11 0 1.3 1.8-4.8 6.8-23.6.5-1.8.7-3.4.4-3.7-.6-.6 4.7-17.6 5.5-17.6 1.3 0 3.2-3.9 2.2-4.5-.6-.3-1-.2-1 .4M52 209c0 .5-1.3 1.6-3 2.5-3.6 1.8-4.1 5.8-1 7.5 2.5 1.3 8-1.2 8.7-4.1.5-1.6 2.8-2.5 5.6-2 .5.1.6-.3.3-.8-.4-.5-1.7-.8-3-.5-1.4.2-3-.4-4.1-1.6-1.9-2.1-3.5-2.6-3.5-1m3.8 2.3c2.3 2.8-4.6 9-7.4 6.6-2.2-1.8-1.7-3.5 1.9-5.7 3.9-2.5 4.2-2.5 5.5-.9M192.5 221.3c-3.4 2.5-4.5 6.4-2.1 7.3 1.8.7 2.1 3 .6 3.9-.5.3-2.3-.1-4-1-1.6-.8-3-1.1-3-.6 0 1.4 5.3 2.9 8.2 2.4 1.4-.3 2.9 0 3.2.6 1.2 1.8 4.4 1.2 5.1-.9.3-1.1.3-2.4 0-3-.9-1.5-4.5-1.2-5.1.5-.9 2.1-2.4 1.9-2.4-.4 0-1-.7-2.1-1.5-2.5-2.3-.8-1.8-2.2 1.8-5.5 3.7-3.6 3.4-3.9-.8-.8m6.9 9.5c.8 1.3-1.1 3.5-2.3 2.8-1.6-1-1.4-3.6.3-3.6.8 0 1.7.4 2 .8M256.3 231.7c-.4.1-8.3.3-17.4.5-14.8.3-16.9.5-18.8 2.2-1.2 1.1-2.1 2.4-2.1 2.9 0 .6 1.2 0 2.6-1.4 2.8-2.6-.4-2.4 37.3-3.2 21-.5 20-.9 24.8 8.9 1.9 3.9 2.9 5.2 3.2 3.9.1-1-.4-2.2-1.2-2.7-.9-.4-1.8-2-2.2-3.6-.3-1.5-1.4-3.8-2.5-5.2-1.7-2.3-2.4-2.4-12.4-2.5-5.8 0-10.9.1-11.3.2M84.3 238.8c2.1 2.3 1.3 7.2-1.4 9.1-1.3.9-4 1.4-7.1 1.2-3.3-.2-5.8.3-7.4 1.4-3.5 2.3-2.5 2.9 1.5.9 2.2-1.1 4.8-1.5 7.7-1.1 4.1.4 4.7.2 7.4-3.1 1.9-2.3 2.6-3.8 1.9-4.3-.8-.5-.8-.8 0-1 1.4-.5-1.4-4.9-3.1-4.9-.6 0-.4.8.5 1.8M179.5 238c-.3.5-2.1 1-3.9 1-1.9 0-3.9.7-4.7 1.6-1.5 1.8-11.9 1.5-14.3-.5-.9-.8-2.4-1-3.8-.5-5.6 1.8-21.7 2.7-23.4 1.3-.7-.6-1.8-.8-2.4-.4-.5.3-1 0-1-.7 0-1-.2-1.1-.8 0-.5.7-1.6 1-2.4.7-.9-.4-1.8 0-2.1.9-.8 1.9-5.3 2.1-6 .3-.3-.8-1-.6-2.3.7-1.5 1.6-1.6 1.7-.1.7 1.1-.9 1.7-1 1.7-.2 0 1.6 7 1.4 7.6-.2q.45-1.35 4.2-.9c2 .3 6.5.4 10 .4 5.1-.1 6.2.2 6.2 1.6s.1 1.4 1.3-.2c.7-.9 2.4-1.7 3.7-1.8 1.4 0 3.8-.5 5.3-1.1 2.3-.8 3-.7 4.1.8.7 1 1.8 1.5 2.3 1.2.6-.4 3.2-.3 5.7.2 3.9.7 5 .5 7-1 1.3-1.1 3.6-1.9 5-1.9 1.5 0 3.5-.6 4.7-1.3 1.7-1 2.2-.9 3.2.4 1.2 1.6 2.6 1.6 6.5-.4 1.7-.8 2.8-.8 4.1 0 3 1.9 10.2 2.7 11.1 1.2.7-1 1.2-1 2.7.2 1.7 1.3 1.7 1.3.4-.4-.9-1.2-2.1-1.5-3.5-1.1-3 1-7.7.7-8.9-.5-1.5-1.5-6-1.4-7.5.1-1 1-1.7 1-3.2 0-2.4-1.5-5.7-1.6-6.5-.2M110 254c0 1.3-7.4 5-10 5-1.1 0-2.3-.6-2.6-1.3-1-2.6-12.9.1-14.9 3.4-.4.5-2.2.9-4 .7-1.9-.1-3.7.1-4.1.5-1.2 1.2-2.6.8-2.1-.6.3-.8.1-2-.4-2.8-.6-1-.9-.4-.9 1.9v3.3l5.5-.6c3.8-.4 7-1.6 9.9-3.5 4.3-2.9 7.7-3.3 10-1 2.5 2.5 10.3.3 14.7-4.1 1.5-1.5 1.6-1.9.4-1.9-.8 0-1.5.4-1.5 1M45 257.5c0 2.4.5 3.5 1.5 3.5.8 0 1.5-.6 1.5-1.4 0-.7.7-1.9 1.5-2.6 2.3-1.9 1.8-3-1.5-3-2.8 0-3 .3-3 3.5m4.4-1.7c-.6.4-1.6 1.6-2.2 2.7-1.1 1.9-1.1 1.8-1.2-.8 0-2.1.5-2.7 2.3-2.7 1.2 0 1.7.3 1.1.8M118 293c-1.9 4.6-3.9 5.7-9.2 5.2-2.7-.2-4.8-.9-4.8-1.4 0-.6.7-.8 1.5-.4.8.3 1.5.1 1.5-.4 0-.6-1.8-.9-4-.8-2.3.1-3.6.4-3 .8s.8 1.4.4 2.4c-.6 1.5-.9 1.2-2.2-1.3-1.6-3.3-3.5-3.2-3 .2.2 1.5-.9 2.9-3.9 5-2.4 1.5-4.3 3.3-4.3 3.8s.9 0 2-1.1 2.6-2 3.3-2c2.1 0 4.8-3.5 4.1-5.4-.3-.9-.3-1.6 0-1.6.4 0 1.2 1.4 1.8 3.1.9 2.6 1.2 2.9 2 1.5 1-1.8 9.7-2.3 12.7-.7 1.3.8 2.2.2 4.1-2.7 1.3-2 3-4.2 3.7-4.8 1.1-1 1.1-1.3-.1-1.7-.9-.4-1.8.5-2.6 2.3M359 302.2c0 .7 2.4 2.8 5.3 4.5 6.1 3.8 9.1 4 19.2 1.3 5-1.4 5.9-1.8 3-1.5-2.2.2-5.3.9-6.8 1.4-5.8 2.2-10.1 1.4-15.6-3-2.8-2.3-5.1-3.5-5.1-2.7M118.5 304.4c-5.3 1.9-5.9 2.6-3.6 4.3 3 2.1 2.6 4.1-1.1 5.2-2.9.8-3 .9-.8 1 5.2.1 7.1-3 3.7-6.1-1.9-1.7-1.9-1.8.8-2.8 1.6-.6 3.1-.7 3.4-.2.3.4 2 1.4 3.8 2.1 2.5 1 3.6 1 5.4 0 3.4-1.8 5.1-3.7 4-4.4-.6-.3-1.3 0-1.8.7-2.1 3.3-3.9 3.9-7.7 2.3-4.3-1.8-4.6-2.4-.8-1.7 1.5.2 2.4.2 2.1-.2-1.1-1.2-4.3-1.3-7.4-.2M55 307.3c0 1.3-.6 2.9-1.2 3.6-1.1 1.1-1 1.3.2.9.8-.3 1.8-1.8 2.1-3.4.4-1.6.7-2.2.8-1.4.1 1.2.3 1.2 1 .2.7-1.1 1-1 1.5.3.3.9.4 2.1 0 2.6-.3.5 1.1.9 3 .9s4.7.5 6.3 1.1c1.5.5 2.5.7 2.1.4-.6-.7 3.1-5 4.4-5 .3 0 .9-.3 1.3-.7.4-.3-.1-.5-1.2-.3-1 .2-2.1.4-2.5.4-.5.1-.8.7-.8 1.5 0 1.9-2.1 2.5-6.8 1.9-3.2-.4-4.2-1-4.6-2.9-.9-3.4-5.6-3.4-5.6-.1M79.4 312.8c.3.5-.1 1.2-.9 1.6-.8.3-1.5 1.2-1.5 2 0 1.5 4.5 2.7 6.7 1.9 1.6-.6 1.4-4.3-.2-4.4-.5-.1-1.8-.5-2.9-1.1q-1.8-1.05-1.2 0m4.6 2.8c0 1.6-2.1 2.3-4.5 1.4-1.8-.6-1.8-.7-.1-1.7 2.4-1.3 4.6-1.2 4.6.3M123.7 319.2c-.3 1.1.1 3 .9 4.2.7 1.1 1.5 3.6 1.6 5.6.1 3.2.1 3.1.7-1 .5-3.4.2-4.7-.9-5.3-.8-.4-.1-.5 1.5-.2 1.7.4 3.8 1.6 4.7 2.8 1 1.2 1.8 1.7 1.8 1.1s-1.3-2.5-3-4.2c-1.6-1.8-3-2.8-3-2.3s-.9 1.1-2 1.4c-1.7.4-1.9.1-1.4-1.9.3-1.3.4-2.4.1-2.4-.2 0-.7 1-1 2.2M346.8 324.3c1.1 1.3 1.1 1.6 0 2-.7.2-.5.3.4.2 1.8-.3 15.9 16 30.2 35 3.8 5 7.6 9.4 8.4 9.9.9.5 7.4 1.1 14.4 1.4 8.5.3 12.8.8 12.8 1.6.1.6.7-.2 1.3-1.8l1.3-2.9 2.2 2.8c1.3 1.6 2.2 2.2 2.2 1.3 0-.8-1-2.4-2.3-3.6-2.2-2.1-2.3-2.1-3.5-.2-1.1 1.7-2.3 2-10.1 2-17.4 0-16.9.2-26-11.9-11.1-14.8-29.3-36.4-31.1-36.9-1.3-.4-1.3-.3-.2 1.1M95.7 325.1c1 1.2 1 1.9 0 3.1-1.6 2.1-7.4 3-9.9 1.7-1.6-.8-2.4-.8-3.5.4-1.3 1.2-1.3 1.5.1 2 1.1.4 1.3.1.9-1-.5-1.3-.3-1.5 1.3-.8 1 .5 3.6.9 5.6.9 2 .1 4.3.7 4.9 1.3 1.8 1.8 4.3 1.6 6.8-.6 1.6-1.4 1.8-2.1.9-2.4-1-.4-1-.6.1-.6.9-.1.7-.8-.9-2.1-1.2-1.1-2.7-1.7-3.2-1.4s-1.7 0-2.6-.8c-1.5-1.1-1.5-1.1-.5.3m5.3 4.5c0 3-2.6 4.2-4.6 2.2-1.2-1.2-1.2-1.7.6-3.6 2.5-2.6 4-2.1 4 1.4M345 328.5c0 .6 5.7 8 12.6 16.5 7 8.5 15.2 18.8 18.2 22.8 3 3.9 5.6 7.2 5.9 7.2 1.5 0-5.6-9.5-27.1-36-8.5-10.5-9.6-11.7-9.6-10.5"/></svg>