<svg xmlns="http://www.w3.org/2000/svg" viewBox="0 0 500 375"><path d="M746 3742c-14-22 28-36 117-37 52-1 103-7 116-14s42-15 65-16l41-4-45 13c-25 7-55 18-67 24-13 7-40 9-68 5-35-4-49-2-56 8-5 8-9 9-9 3 0-15-63-5-77 13-6 8-14 10-17 5" style="--i:0" transform="matrix(.1 0 0 -.1 0 375)"/><path d="M4002 3713c-2-35 1-43 16-43 11 0 13 3 5 8-6 4-13 23-16 42-4 33-4 33-5-7" style="--i:1" transform="matrix(.1 0 0 -.1 0 375)"/><path d="m4853 3687-29-33-155-12c-85-6-191-21-237-32s-100-20-120-20-43-4-51-9c-18-12 66-4 149 14 124 27 175 34 293 41 104 6 117 5 117-10 0-9 4-16 10-16 5 0 7 7 3 16-4 10 8 30 33 55 21 21 33 39 27 39s-24-15-40-33" style="--i:2" transform="matrix(.1 0 0 -.1 0 375)"/><path d="M2340 3683c-16-21-25-24-51-19-24 5-35 1-50-17-10-12-18-27-19-34 0-6-5-13-12-15-6-2 4-10 23-17s42-17 52-22 22-7 26-4c5 2 31-2 57-10 56-17 75-19 54-5-8 5-40 14-70 20-120 24-144 42-100 73 11 8 17 17 14 20-4 3 10 3 30 0 30-5 40-2 52 15 8 11 24 22 37 24l22 3-23 7c-16 5-27 0-42-19" style="--i:3" transform="matrix(.1 0 0 -.1 0 375)"/><path d="M707 3676c-8-20 24-46 55-46 21 0 38 16 38 35 0 5-61 25-75 25-7 0-15-6-18-14m63-11c22-12 23-14 8-20-22-9-51 1-43 15 4 6-1 7-11 3-12-4-15-3-10 5 9 15 25 15 56-3" style="--i:4" transform="matrix(.1 0 0 -.1 0 375)"/><path d="M828 3663c-29-7-20-43 14-56 10-3 20-1 24 5s3 8-3 5c-6-4-19 0-29 8-16 12-17 16-5 24 20 13 62-15 53-37-5-14-4-15 11-2 15 14 14 17-11 37-15 13-29 22-32 22-3-1-13-3-22-6" style="--i:5" transform="matrix(.1 0 0 -.1 0 375)"/><path d="M1120 3660c0-5-18-10-40-10-30 0-38-3-34-14 7-17 62-42 72-32 7 8 12 66 6 66-2 0-4-4-4-10m-5-29c10-18-15-22-37-7l-22 16h26c15 0 29-4 33-9" style="--i:6" transform="matrix(.1 0 0 -.1 0 375)"/><path d="M4008 3653c6-2 9-10 6-15-4-7-2-8 4-4 7 4 12 2 12-3 0-6-7-11-15-11s-15-6-15-14c0-11 22-16 88-20 48-4 102-8 120-11 19-2 30 0 27 6-4 5-32 9-63 9s-80 3-108 6c-50 6-51 7-33 25 11 11 25 19 32 20 15 1-33 17-53 17-10 0-11-1-2-5" style="--i:7" transform="matrix(.1 0 0 -.1 0 375)"/><path d="M4231 3535c19-56 55-71 269-111 46-9 97-22 112-30 35-18 76-18 163 2 39 8 106 21 150 29 45 7 65 13 45 14-19 0-53-4-75-8-22-5-76-16-120-26-83-17-101-17-200 9-33 9-105 25-160 37-87 19-165 52-165 70 0 3-7 14-15 25-14 18-14 17-4-11" style="--i:8" transform="matrix(.1 0 0 -.1 0 375)"/><path d="M1838 3534c13-9 26-13 29-10 4 3 17-4 30-16s23-16 23-10c0 14-41 43-51 36-4-2-10 0-14 6-3 5-14 10-23 10-13 0-11-4 6-16" style="--i:9" transform="matrix(.1 0 0 -.1 0 375)"/><path d="M4090 3500c-8-5-23-7-34-4-10 3-28 2-40-3-25-12-135-40-228-58-68-14-102-28-125-51-16-15-17-40-3-49 18-11 37-69 42-131 10-103 62-174 133-180 22-2 53-6 70-9q30-6 15 3c-8 5-37 12-64 16-27 3-60 13-72 21-33 21-74 112-74 162 0 42-15 88-42 126-11 16-9 22 17 42 16 14 55 29 85 35s87 19 125 30c39 11 82 20 97 20s29 4 33 10c3 5 18 9 33 10 60 1 90 5 85 13-6 10-35 9-53-3" style="--i:10" transform="matrix(.1 0 0 -.1 0 375)"/><path d="M2335 3480c-28-7-27-7 7-5 38 3 157-38 170-59 6-8 8-8 8 0 0 21 43 24 65 5 12-12 34-19 57-19 20 0 51-5 70-11 102-32 143-40 245-46 119-7 137-3 169 44 13 19 13 21 0 21-9 0-16-6-16-13s-10-21-21-31c-19-16-34-17-133-11-100 6-142 13-244 46-17 6-47 11-65 11-34 1-81 30-69 43 4 4-3 2-16-4-26-14-79-6-137 20-43 20-45 20-90 9" style="--i:11" transform="matrix(.1 0 0 -.1 0 375)"/><path d="M3962 3399c-18-4-36-10-40-14s4-4 17 0c62 19 161-3 161-36 0-10-4-19-9-19-13 0-22-43-11-54 13-13 13-49-1-63-6-6-13-41-15-77-4-68-25-126-45-126-17 0 4 251 25 300 13 31-18 53-80 56l-59 3 54-9c29-4 58-13 63-18 7-7 6-33-1-78-5-38-13-112-17-165-6-91-6-96 14-101 17-5 24 2 36 33 9 22 18 69 20 105 2 37 9 71 15 77 13 13 14 54 2 61-10 7-3 46 9 46 4 0 10 12 13 26 4 20-1 27-21 35-48 18-97 25-130 18" style="--i:12" transform="matrix(.1 0 0 -.1 0 375)"/><path d="M3593 3290c39-12 56-38 57-85 1-84 46-167 108-199 30-15 172-30 172-18 0 4-12 8-27 8-16 1-49 2-75 3-40 1-55 7-87 37-51 46-81 107-81 168 0 54-32 97-72 95-20-1-20-2 5-9" style="--i:13" transform="matrix(.1 0 0 -.1 0 375)"/><path d="M665 3200c-4-6-1-10 4-10 6 0 14-18 17-39 4-22 15-49 26-61s21-27 22-33c1-7 4-16 7-22 3-5 4-55 2-110-15-380 5-1005 33-1036 8-8 14-21 14-27 0-7 12-12 26-12 23 0 25-2 14-15-7-9-10-18-6-22 3-4 13 3 21 14 12 17 28 21 90 25 53 2 79 8 86 18 11 17 8 198-4 218-6 8-37 12-97 12-87 0-90 1-96 25-3 13-7 109-7 212l-2 188 85-3c91-4 110-14 110-59 0-15-8-27-22-32-13-5-17-10-11-14 15-9 43 19 43 43 0 10-4 30-9 43-9 23-15 25-100 29-50 2-95 8-101 14-18 18-21 175-5 238 19 71 14 86-6 19-13-46-17-217-6-247 3-8 8-108 11-223 2-114 8-216 11-225 6-15 21-18 96-18 87 0 90-1 99-26 6-14 10-61 10-104 0-96-3-99-123-101-120-3-123 1-131 186-4 77-11 228-17 335s-8 254-5 325c4 72 8 169 9 217 1 47 4 88 7 90 5 4 127-2 405-21 159-11 407-43 476-62 44-11 56-24 62-64 4-28 4-28 6 6 0 20-5 41-11 47-45 36-412 82-796 99-101 4-103 5-113 31-6 15-11 37-11 50 0 12-4 24-8 27-8 5-6-25 5-68 7-25 5-28-10-25-10 1-20 13-22 26-1 13-12 32-23 44-18 19-24 43-23 85 1 15-25 25-32 13" style="--i:14" transform="matrix(.1 0 0 -.1 0 375)"/><path d="M576 3145c17-43 13-72-16-106-18-22-19-23-19-4 0 11 4 39 8 63 5 23 5 42 1 42-9 0-22-108-15-120 9-15 35 1 51 32 18 34 11 100-12 119-11 9-11 4 2-26" style="--i:15" transform="matrix(.1 0 0 -.1 0 375)"/><path d="M1316 3161c3-3 38-6 77-7 40-1 90-6 112-12s68-13 103-16c60-5 65-7 117-61 30-31 55-64 56-73 0-9 3-12 5-6 7 17-25 65-73 108-36 32-49 38-105 42-35 3-81 10-103 16-42 11-198 18-189 9" style="--i:16" transform="matrix(.1 0 0 -.1 0 375)"/><path d="M496 3141c-4-5-7-27-8-48-1-48-20-85-52-107-15-9-26-24-26-34 0-9-9-32-20-49-11-18-16-33-12-33 10 0 42 54 42 72 0 7 13 24 30 38 30 25 68 100 51 100-6 0-6 12 0 32 9 32 6 48-5 29" style="--i:17" transform="matrix(.1 0 0 -.1 0 375)"/><path d="M1734 2958c26-30 36-51 36-75 0-39 17-49 57-35l28 11-35-2c-27-2-35 2-38 18-8 50-13 63-40 93-43 47-49 39-8-10" style="--i:18" transform="matrix(.1 0 0 -.1 0 375)"/><path d="M474 2962c4-6-1-15-10-20-23-13-23-71 0-88 28-20 60-3 64 35 2 18-2 39-9 47-15 19-54 41-45 26m46-68c0-28-31-49-48-32-15 15-15 61 0 76 16 16 48-13 48-44" style="--i:19" transform="matrix(.1 0 0 -.1 0 375)"/><path d="M3356 2898c-3-18-8-45-11-61-3-15-12-55-20-90-9-34-18-73-21-87-6-25-24-70-51-122-8-15-14-31-13-35 1-16-34-122-39-118-3 1-6-10-6-25s3-26 8-23c4 2 7 10 7 18 0 7 11 45 24 84s22 71 19 71c-2 0 2 12 10 28 27 52 45 97 51 122 17 81 59 256 62 259 6 7 256-123 261-136 4-10-40-180-72-278-4-13-1-11 8 5 20 35 81 266 75 282-6 15-246 138-270 138-10 0-18-12-22-32" style="--i:20" transform="matrix(.1 0 0 -.1 0 375)"/><path d="M307 2813c-35-81-40-128-40-348 1-201 3-224 22-265 16-35 19-38 14-15-3 17-10 36-16 43-15 19-13 446 2 502 56 208 112 115 157-260 13-115 16-191 11-366-3-121-11-251-18-287-19-104-63-127-96-50-21 50-51 228-55 325-2 43-7 78-11 78-19 0 25-319 55-398 24-63 52-80 83-51 32 28 45 135 52 394 4 198 2 253-16 394-32 250-60 341-105 341-17 0-27-10-39-37" style="--i:21" transform="matrix(.1 0 0 -.1 0 375)"/><path d="M1707 2719c1-63-3-100-14-126-9-21-18-51-20-67-2-17-8-47-14-69s-17-85-24-141c-7-55-16-114-19-131-20-119-30-203-28-223 3-21 1-22-20-12-14 7-7-4 20-30 42-41 62-45 62-12 0 9 5 24 11 32 8 11 9 6 5-20-3-19-7-57-10-85-2-27-7-59-11-70-5-17-5-17 4-4 14 22 39 199 27 192-5-4-7 9-3 31 3 22 2 34-4 31-5-4-9-13-9-22 0-14-19-78-26-91-1-2-11 2-22 9-23 14-22 37 3 194 9 55 22 148 30 208 8 59 26 151 41 205 28 99 43 248 27 276-4 8-7-24-6-75" style="--i:22" transform="matrix(.1 0 0 -.1 0 375)"/><path d="M322 2720c7-13 19-30 26-38 6-7 12-15 12-17s7-39 15-82 15-101 15-130c0-28 5-55 10-58 7-4 9-76 6-213-5-181-12-266-31-362-4-18-3-21 4-10 27 47 56 579 32 595-6 3-11 27-11 52s-7 85-16 134c-13 72-22 96-46 122-23 25-27 27-16 7" style="--i:23" transform="matrix(.1 0 0 -.1 0 375)"/><path d="M1786 2703c-3-10-10-117-16-238-10-213-28-436-36-444-2-2 14-25 34-50 21-25 48-61 61-78 20-30 27-33 71-33 27 0 52 5 55 10 8 13 12 61 20 250 3 80 10 186 16 237 5 51 9 132 9 181v89l-41 12c-22 7-69 28-104 47-57 32-64 33-69 17m69-32c29-16 71-34 93-41l42-11v-85c0-47-4-126-9-177-6-51-13-157-16-237-12-264-8-250-64-250-35 0-41 5-95 76l-58 76 11 117c9 98 31 479 31 542 0 25 4 24 65-10" style="--i:24" transform="matrix(.1 0 0 -.1 0 375)"/><path d="M1902 2513c-1-61-6-145-11-185-6-40-12-138-15-218s-8-165-10-190l-5-45 9 40c5 22 12 96 15 165s10 181 16 250 9 163 7 210c-4 83-4 82-6-27" style="--i:25" transform="matrix(.1 0 0 -.1 0 375)"/><path d="M2390 2661c-14-11-21-20-17-21 5 0 16 7 24 16 13 13 32 15 102 10 47-3 91-5 96-6 6 0 51 2 100 4 78 4 96 2 135-17 68-33 81-69 86-230 2-73 0-141-5-152s-13-32-20-48c-17-42-105-77-221-87-52-5-131-12-175-16s-87-11-95-15c-10-6-5-8 15-5 17 2 86 9 155 16 167 14 218 24 276 52 39 19 51 30 58 58 5 19 13 38 18 41 9 6 3 287-6 296-3 4-6 14-6 24 0 22-49 81-61 74-4-3-22 1-38 10-23 11-51 14-118 10-48-3-92-5-98-5-5 1-48 3-95 6-76 5-88 4-110-15" style="--i:26" transform="matrix(.1 0 0 -.1 0 375)"/><path d="M334 2494c-9-34 4-362 16-429l9-50-5 60c-2 33-7 122-11 198l-6 137 24 1h24l-24 10c-21 8-23 14-18 54 7 49 1 60-9 19" style="--i:27" transform="matrix(.1 0 0 -.1 0 375)"/><path d="M3680 2317c0-2-29-95-64-206-57-178-63-205-53-232 9-24 9-32-1-38-8-5-13-11-13-15 4-26-2-39-19-43-11-3-23-17-26-32-3-14-14-51-24-81-17-52-55-178-85-280-49-166-68-219-79-214-6 4 38-41 99-100 60-58 114-106 120-106 5 0-37 44-94 98l-103 97 41 140c72 242 92 309 101 330 4 11 15 45 25 76 11 39 22 59 36 62 11 3 19 14 19 25 0 12 5 24 10 27 13 8 13 58 0 71-6 6 9 69 46 184 30 96 59 186 63 200s16 26 28 28c22 3 246-99 276-125 26-24 21-62-29-206-25-73-51-152-59-177-7-25-20-62-29-82-9-21-16-55-16-77 0-24-7-46-17-57-22-22-40-67-65-169-11-44-32-120-45-170-14-49-33-133-44-185-21-99-43-135-77-124-13 5-14 4-3-4s11-10 0-15c-10-4-9-6 4-6 9-1 17 4 17 9 0 6 7 10 15 10 21 0 32 26 54 131 10 52 30 132 43 179 14 47 30 114 37 150s21 82 32 103c10 21 19 44 19 53 0 8 7 17 15 20 15 6 31 65 26 96-1 9 5 34 15 55 9 21 22 58 29 83 17 55 42 128 55 155 18 38 50 162 50 192 0 39-18 54-125 103-50 23-104 48-122 56-27 12-83 20-83 11" style="--i:28" transform="matrix(.1 0 0 -.1 0 375)"/><path d="M831 2061c-7-5-12-22-11-37 1-16 2-48 1-72v-43l62 3 62 3v150l-50 3c-27 1-56-2-64-7m107-73 3-68H829l7 34c3 19 1 42-4 52-19 35 3 55 56 52l47-3z" style="--i:29" transform="matrix(.1 0 0 -.1 0 375)"/><path d="M222 1893c4-32 13-68 18-81 6-13 10-36 10-52s4-32 10-35c6-4 4-19-5-42-20-47-20-45 20-93 41-49 36-74-20-84-32-6-55-29-55-55 0-6 15-18 33-26 27-14 29-14 13-1-10 8-23 17-29 19-5 1-7 13-3 25 5 15 18 23 44 28 20 4 42 11 49 16 18 15 5 60-29 95-29 30-31 34-18 60 17 34 18 45 9 58-4 6-9 26-12 45-15 88-33 169-38 174-3 4-2-20 3-51" style="--i:30" transform="matrix(.1 0 0 -.1 0 375)"/><path d="M3017 1883c-3-5-13-44-22-88-10-44-22-85-27-92s-8-25-7-40-1-42-5-60c-5-23-1-43 18-80 13-26 34-75 46-108 20-58 84-145 106-145 5 0 40-29 76-65 89-87 98-83 12 5-37 39-73 70-80 70-28 0-124 148-124 192 0 5-11 33-25 60-17 33-23 58-19 72 4 11 6 35 5 51-1 17 3 39 8 50 11 21 50 185 45 185-1 0-5-3-7-7" style="--i:31" transform="matrix(.1 0 0 -.1 0 375)"/><path d="M3480 1781c0-5-6-16-13-23-18-17-56-138-67-208-5-30-20-97-34-149-14-51-26-101-25-110 0-13 18 48 68 236 5 18 7 34 4 37-6 6 47 176 55 176 13 0 32 39 22 45-6 3-10 2-10-4" style="--i:32" transform="matrix(.1 0 0 -.1 0 375)"/><path d="M520 1660c0-5-13-16-30-25-36-18-41-58-10-75 25-13 80 12 87 41 5 16 28 25 56 20 5-1 6 3 3 8-4 5-17 8-30 5-14-2-30 4-41 16-19 21-35 26-35 10m38-23c23-28-46-90-74-66-22 18-17 35 19 57 39 25 42 25 55 9" style="--i:33" transform="matrix(.1 0 0 -.1 0 375)"/><path d="M1925 1537c-34-25-45-64-21-73 18-7 21-30 6-39-5-3-23 1-40 10-16 8-30 11-30 6 0-14 53-29 82-24 14 3 29 0 32-6 12-18 44-12 51 9 3 11 3 24 0 30-9 15-45 12-51-5-9-21-24-19-24 4 0 10-7 21-15 25-23 8-18 22 18 55 37 36 34 39-8 8m69-95c8-13-11-35-23-28-16 10-14 36 3 36 8 0 17-4 20-8" style="--i:34" transform="matrix(.1 0 0 -.1 0 375)"/><path d="M2563 1433c-4-1-83-3-174-5-148-3-169-5-188-22-12-11-21-24-21-29 0-6 12 0 26 14 28 26-4 24 373 32 210 5 200 9 248-89 19-39 29-52 32-39 1 10-4 22-12 27-9 4-18 20-22 36-3 15-14 38-25 52-17 23-24 24-124 25-58 0-109-1-113-2" style="--i:35" transform="matrix(.1 0 0 -.1 0 375)"/><path d="M843 1362c21-23 13-72-14-91-13-9-40-14-71-12-33 2-58-3-74-14-35-23-25-29 15-9 22 11 48 15 77 11 41-4 47-2 74 31 19 23 26 38 19 43-8 5-8 8 0 10 14 5-14 49-31 49-6 0-4-8 5-18" style="--i:36" transform="matrix(.1 0 0 -.1 0 375)"/><path d="M1795 1370c-3-5-21-10-39-10-19 0-39-7-47-16-15-18-119-15-143 5-9 8-24 10-38 5-56-18-217-27-234-13-7 6-18 8-24 4-5-3-10 0-10 7 0 10-2 11-8 0-5-7-16-10-24-7-9 4-18 0-21-9-8-19-53-21-60-3-3 8-10 6-23-7-15-16-16-17-1-7 11 9 17 10 17 2 0-16 70-14 76 2q4.5 13.5 42 9c20-3 65-4 100-4 51 1 62-2 62-16s1-14 13 2c7 9 24 17 37 18 14 0 38 5 53 11 23 8 30 7 41-8 7-10 18-15 23-12 6 4 32 3 57-2 39-7 50-5 70 10 13 11 36 19 50 19 15 0 35 6 47 13 17 10 22 9 32-4 12-16 26-16 65 4 17 8 28 8 41 0 30-19 102-27 111-12 7 10 12 10 27-2 17-13 17-13 4 4-9 12-21 15-35 11-30-10-77-7-89 5-15 15-60 14-75-1-10-10-17-10-32 0-24 15-57 16-65 2" style="--i:37" transform="matrix(.1 0 0 -.1 0 375)"/><path d="M1100 1210c0-13-74-50-100-50-11 0-23 6-26 13-10 26-129-1-149-34-4-5-22-9-40-7-19 1-37-1-41-5-12-12-26-8-21 6 3 8 1 20-4 28-6 10-9 4-9-19v-33l55 6c38 4 70 16 99 35 43 29 77 33 100 10 25-25 103-3 147 41 15 15 16 19 4 19-8 0-15-4-15-10" style="--i:38" transform="matrix(.1 0 0 -.1 0 375)"/><path d="M450 1175c0-24 5-35 15-35 8 0 15 6 15 14 0 7 7 19 15 26 23 19 18 30-15 30-28 0-30-3-30-35m44 17c-6-4-16-16-22-27-11-19-11-18-12 8 0 21 5 27 23 27 12 0 17-3 11-8" style="--i:39" transform="matrix(.1 0 0 -.1 0 375)"/><path d="M1180 820c-19-46-39-57-92-52-27 2-48 9-48 14 0 6 7 8 15 4 8-3 15-1 15 4 0 6-18 9-40 8-23-1-36-4-30-8s8-14 4-24c-6-15-9-12-22 13-16 33-35 32-30-2 2-15-9-29-39-50-24-15-43-33-43-38s9 0 20 11 26 20 33 20c21 0 48 35 41 54-3 9-3 16 0 16 4 0 12-14 18-31 9-26 12-29 20-15 10 18 97 23 127 7 13-8 22-2 41 27 13 20 30 42 37 48 11 10 11 13-1 17-9 4-18-5-26-23" style="--i:40" transform="matrix(.1 0 0 -.1 0 375)"/><path d="M3590 728c0-7 24-28 53-45 61-38 91-40 192-13 50 14 59 18 30 15-22-2-53-9-68-14-58-22-101-14-156 30-28 23-51 35-51 27" style="--i:41" transform="matrix(.1 0 0 -.1 0 375)"/><path d="M1185 706c-53-19-59-26-36-43 30-21 26-41-11-52-29-8-30-9-8-10 52-1 71 30 37 61-19 17-19 18 8 28 16 6 31 7 34 2 3-4 20-14 38-21 25-10 36-10 54 0 34 18 51 37 40 44-6 3-13 0-18-7-21-33-39-39-77-23-43 18-46 24-8 17 15-2 24-2 21 2-11 12-43 13-74 2" style="--i:42" transform="matrix(.1 0 0 -.1 0 375)"/><path d="M550 677c0-13-6-29-12-36-11-11-10-13 2-9 8 3 18 18 21 34 4 16 7 22 8 14 1-12 3-12 10-2 7 11 10 10 15-3 3-9 4-21 0-26-3-5 11-9 30-9s47-5 63-11c15-5 25-7 21-4-6 7 31 50 44 50 3 0 9 3 13 7 4 3-1 5-12 3-10-2-21-4-25-4-5-1-8-7-8-15 0-19-21-25-68-19-32 4-42 10-46 29-9 34-56 34-56 1" style="--i:43" transform="matrix(.1 0 0 -.1 0 375)"/><path d="M794 622c3-5-1-12-9-16-8-3-15-12-15-20 0-15 45-27 67-19 16 6 14 43-2 44-5 1-18 5-29 11q-18 10.5-12 0m46-28c0-16-21-23-45-14-18 6-18 7-1 17 24 13 46 12 46-3" style="--i:44" transform="matrix(.1 0 0 -.1 0 375)"/><path d="M1237 558c-3-11 1-30 9-42 7-11 15-36 16-56 1-32 1-31 7 10 5 34 2 47-9 53-8 4-1 5 15 2 17-4 38-16 47-28 10-12 18-17 18-11s-13 25-30 42c-16 18-30 28-30 23s-9-11-20-14c-17-4-19-1-14 19 3 13 4 24 1 24-2 0-7-10-10-22" style="--i:45" transform="matrix(.1 0 0 -.1 0 375)"/><path d="M3468 507c11-13 11-16 0-20-7-2-5-3 4-2 18 3 159-160 302-350 38-50 76-94 84-99 9-5 74-11 144-14 85-3 128-8 128-16 1-6 7 2 13 18l13 29 22-28c13-16 22-22 22-13 0 8-10 24-23 36-22 21-23 21-35 2-11-17-23-20-101-20-174 0-169-2-260 119-111 148-293 364-311 369-13 4-13 3-2-11" style="--i:46" transform="matrix(.1 0 0 -.1 0 375)"/><path d="M957 499c10-12 10-19 0-31-16-21-74-30-99-17-16 8-24 8-35-4-13-12-13-15 1-20 11-4 13-1 9 10-5 13-3 15 13 8 10-5 36-9 56-9 20-1 43-7 49-13 18-18 43-16 68 6 16 14 18 21 9 24-10 4-10 6 1 6 9 1 7 8-9 21-12 11-27 17-32 14s-17 0-26 8c-15 11-15 11-5-3m53-45c0-30-26-42-46-22-12 12-12 17 6 36 25 26 40 21 40-14" style="--i:47" transform="matrix(.1 0 0 -.1 0 375)"/><path d="M3450 465c0-6 57-80 126-165 70-85 152-188 182-228 30-39 56-72 59-72 15 0-56 95-271 360-85 105-96 117-96 105" style="--i:48" transform="matrix(.1 0 0 -.1 0 375)"/></svg>