<?xml version='1.0' encoding='utf-8'?>
<svg xmlns="http://www.w3.org/2000/svg" version="1.0" width="800.000000pt" height="447.000000pt" viewBox="0 0 800.000000 447.000000" preserveAspectRatio="xMidYMid meet">
<metadata>
Created by potrace 1.16, written by Peter Selinger 2001-2019
</metadata>
<g transform="translate(0.000000,447.000000) scale(0.100000,-0.100000)" fill="#000000" stroke="none" filter="url(#wobble)">
<path d="M5929 4125 c-31 -17 -56 -52 -61 -86 -2 -16 -16 -30 -42 -43 -39 -20 -66 -63 -66 -108 0 -32 35 -86 68 -105 25 -15 29 -24 40 -102 8 -62 9 -98 1 -125 -9 -33 -8 -40 9 -52 11 -7 28 -37 38 -65 11 -31 33 -64 56 -85 33 -30 45 -34 92 -34 38 0 56 -4 59 -15 6 -15 -33 -93 -69 -137 -50 -61 -104 -204 -159 -423 -16 -60 -29 -111 -31 -113 -1 -2 -60 15 -130 37 -130 40 -276 81 -304 86 -8 1 -18 -2 -21 -7 -5 -7 -29 7 -171 103 -41 29 -208 75 -233 65 -19 -7 -19 -30 0 -46 8 -7 12 -16 9 -21 -9 -15 -34 -10 -56 11 -19 17 -30 19 -92 13 l-70 -6 22 28 c41 51 50 43 -212 194 -86 50 -168 91 -181 91 -16 0 -37 -16 -66 -50 -23 -27 -46 -47 -52 -43 -6 3 -7 1 -3 -6 4 -6 -9 -32 -31 -59 -42 -52 -54 -63 -63 -57 -4 2 -103 29 -221 58 -118 30 -221 58 -230 61 -13 6 -19 -11 -38 -93 -12 -55 -27 -104 -34 -109 -13 -10 -364 62 -381 78 -5 5 -4 33 4 68 11 53 15 60 45 70 72 27 87 88 20 80 -30 -3 -34 -2 -30 17 3 11 14 63 25 115 12 52 26 112 31 134 l10 39 52 -7 c60 -7 335 -70 343 -79 3 -3 -8 -69 -26 -147 -18 -78 -30 -143 -28 -145 2 -2 78 -23 168 -46 293 -73 311 -77 307 -65 -2 6 -10 11 -18 12 -8 0 -21 4 -29 7 -8 3 -28 8 -45 11 -16 2 -51 10 -77 17 -45 12 -48 14 -48 46 l0 34 160 -3 160 -3 0 40 c0 43 20 119 46 173 8 18 12 37 8 44 -4 7 -3 8 4 4 11 -7 59 50 55 65 -2 5 3 8 10 6 6 -1 11 4 9 11 -1 8 2 10 8 7 6 -4 19 0 28 9 10 8 44 28 77 43 54 25 71 28 177 29 64 0 115 -2 113 -6 -2 -3 22 -18 53 -33 202 -95 278 -338 177 -569 -5 -13 -3 -18 10 -18 11 0 15 5 11 15 -3 8 0 14 6 12 14 -2 47 95 47 141 l1 32 160 0 c136 0 160 2 160 15 0 13 -25 15 -161 15 -104 0 -158 -3 -154 -10 3 -5 3 -10 -2 -10 -4 0 -8 26 -9 58 -1 64 -39 176 -56 166 -7 -4 -8 -2 -4 5 9 13 -12 44 -24 36 -4 -3 -14 3 -21 13 -13 15 -12 16 4 3 35 -28 15 7 -27 47 -58 54 -148 100 -224 115 l-62 12 0 177 0 177 168 3 167 3 1 -55 c1 -72 45 -167 112 -240 52 -58 144 -116 164 -104 7 5 8 3 3 -6 -6 -10 -3 -12 13 -8 12 4 20 2 17 -2 -14 -22 164 -24 235 -3 97 29 220 124 220 169 0 19 -8 14 -52 -32 -32 -34 -76 -67 -117 -87 -62 -30 -73 -32 -171 -32 -99 0 -109 2 -172 33 -77 38 -159 120 -194 197 -13 27 -29 82 -35 122 l-12 72 -345 -2 -345 -2 -4 -40 c-17 -179 -125 -316 -291 -370 -41 -13 -72 -16 -140 -11 -120 8 -131 10 -125 19 2 4 0 7 -5 7 -5 0 -29 13 -53 29 -24 16 -48 27 -54 24 -5 -4 -7 -3 -3 2 4 4 -11 28 -33 54 -23 25 -50 63 -60 83 -22 42 -51 160 -47 186 3 16 -24 17 -345 20 -276 2 -348 0 -351 -10 -2 -7 -9 -42 -15 -78 -15 -79 -51 -155 -102 -211 -21 -23 -35 -47 -32 -52 3 -6 1 -7 -5 -3 -14 9 -115 -48 -104 -59 4 -4 3 -6 -3 -3 -5 3 -37 0 -70 -7 -74 -15 -171 -5 -238 25 -27 12 -51 19 -54 16 -18 -18 74 -65 98 -50 7 4 9 3 6 -4 -9 -13 64 -26 95 -17 19 6 21 5 11 -6 -10 -9 -13 -61 -13 -186 l0 -173 -137 0 c-128 1 -140 2 -165 23 -17 14 -31 38 -36 62 -5 25 -14 41 -25 43 -23 5 -22 -10 3 -38 11 -13 20 -24 20 -26 0 -9 -139 63 -140 72 0 7 19 9 52 6 64 -5 171 19 238 53 l50 25 -26 41 c-37 59 -54 154 -54 305 0 183 -19 229 -112 279 -130 69 -131 69 -218 73 -192 8 -303 -88 -386 -335 -36 -107 -40 -257 -8 -300 28 -37 86 -76 148 -98 40 -15 46 -20 30 -25 -10 -4 -57 -19 -104 -34 -97 -32 -187 -83 -225 -128 -14 -17 -39 -56 -54 -87 -29 -58 -81 -239 -81 -282 l0 -24 -23 27 c-36 42 -63 51 -134 44 -59 -6 -66 -5 -100 21 -29 22 -49 28 -103 31 -81 5 -104 -5 -183 -81 -53 -51 -61 -55 -119 -62 -100 -12 -130 -36 -147 -116 -6 -28 -16 -38 -64 -62 -83 -43 -110 -81 -109 -160 0 -55 -3 -65 -28 -92 -88 -93 -104 -167 -51 -234 27 -34 29 -42 22 -87 -7 -52 6 -102 37 -138 25 -27 87 -56 122 -56 16 0 30 -2 30 -5 0 -2 -11 -20 -23 -39 -106 -155 -294 -721 -351 -1056 -13 -74 -13 -89 1 -129 11 -33 12 -50 4 -68 -6 -13 -11 -33 -11 -45 0 -17 3 -18 15 -8 8 7 12 16 9 21 -3 5 0 18 6 29 9 17 15 18 31 10 114 -61 431 -120 646 -120 79 0 143 -4 143 -9 0 -4 -8 -19 -19 -32 -10 -13 -28 -40 -39 -59 -83 -144 -127 -219 -144 -243 -24 -33 -14 -52 10 -21 10 12 82 131 162 265 l145 244 200 2 c110 0 229 5 265 10 57 7 65 11 68 30 4 28 24 29 94 6 44 -14 61 -15 120 -5 80 14 148 16 148 4 0 -5 -46 -24 -102 -42 -114 -36 -158 -69 -158 -117 0 -39 32 -68 101 -92 31 -10 71 -27 90 -37 l34 -19 -175 -6 c-189 -6 -224 -14 -269 -63 -34 -37 -20 -43 18 -7 43 41 112 54 276 56 77 0 145 3 150 5 6 2 36 -9 67 -24 72 -34 161 -38 211 -8 l32 19 52 -25 51 -25 76 33 76 33 0 61 c0 58 2 64 30 84 l30 23 0 -58 1 -58 75 -34 75 -34 58 28 58 27 33 -23 c42 -31 105 -31 147 1 33 23 72 89 92 152 7 20 21 48 32 62 l20 26 40 -20 c61 -32 210 -26 253 9 8 7 31 0 71 -19 78 -37 171 -68 270 -89 l79 -17 9 -39 c28 -139 272 -193 396 -89 l28 23 109 -15 c152 -21 523 -30 665 -15 123 13 284 45 336 66 30 13 38 12 85 -10 142 -65 411 -92 523 -52 104 36 167 136 145 232 l-8 35 42 -8 c53 -9 111 -9 158 1 33 7 37 5 40 -15 3 -20 15 -25 108 -44 139 -30 315 -52 477 -60 l131 -7 28 -51 c42 -79 176 -321 180 -325 2 -2 7 -2 10 2 3 3 -27 65 -68 138 -40 73 -74 136 -76 139 -1 4 17 10 41 13 171 24 279 127 407 392 62 128 177 432 166 442 -3 3 -13 -11 -22 -33 -79 -192 -239 -449 -354 -565 -113 -116 -140 -124 -395 -123 -203 1 -364 18 -542 59 l-73 17 0 106 c0 59 3 123 6 143 l6 36 127 12 c299 28 536 62 548 79 7 8 34 70 59 136 175 453 227 567 299 658 53 68 107 99 182 103 75 5 80 15 7 15 -176 -1 -261 -125 -474 -693 -34 -92 -64 -166 -66 -164 -6 6 25 245 47 357 25 135 62 276 96 365 47 126 124 265 146 265 12 0 253 120 303 151 l31 19 65 -68 c35 -37 78 -87 95 -112 93 -137 169 -350 206 -580 2 -14 5 0 6 31 3 124 -98 413 -192 551 l-25 36 56 7 c37 4 76 1 110 -8 48 -13 53 -13 50 2 -4 19 -88 43 -102 30 -16 -15 -36 -10 -36 9 0 14 2 15 10 2 6 -10 10 46 10 168 l0 184 60 -7 c51 -6 60 -5 60 9 0 13 -12 16 -58 16 -32 0 -63 -5 -69 -11 -8 -8 -13 -8 -17 0 -4 7 -42 11 -92 11 -70 0 -84 -3 -84 -16 0 -13 14 -15 90 -13 49 2 93 0 96 -4 4 -4 2 -7 -4 -7 -9 0 -12 -47 -12 -170 l0 -170 -36 0 c-21 0 -33 -4 -29 -10 3 -5 3 -10 -2 -10 -4 0 -28 23 -52 51 -23 27 -60 61 -81 75 -28 19 -41 36 -49 67 -6 27 -7 43 0 45 23 9 38 36 44 80 4 26 17 76 31 112 62 170 70 262 27 328 -18 27 -38 45 -57 50 -23 6 -30 14 -32 37 -4 40 -51 80 -116 100 -44 13 -66 14 -128 4 -64 -9 -86 -8 -140 6 -88 23 -140 14 -179 -30 -48 -55 -53 -135 -11 -180 18 -19 18 -24 5 -60 -8 -22 -14 -67 -15 -100 0 -48 -7 -76 -35 -134 -19 -40 -35 -78 -35 -86 0 -7 13 -18 29 -24 28 -12 28 -14 33 -105 3 -50 10 -101 16 -113 7 -12 32 -29 57 -39 40 -15 54 -15 97 -5 28 6 52 10 53 9 2 -2 7 -30 13 -63 l10 -59 -47 -59 c-25 -33 -63 -82 -83 -110 -20 -27 -42 -53 -48 -57 -7 -4 -11 -10 -10 -14 1 -7 -122 -208 -125 -204 -1 2 3 55 8 118 15 172 -2 318 -53 461 -31 86 -37 115 -28 126 17 21 3 245 -26 408 -27 149 -72 332 -106 429 -13 40 -17 63 -10 70 5 5 10 18 10 28 0 17 13 18 166 18 151 0 165 -1 163 -17 -5 -58 2 -193 11 -188 6 3 10 50 10 106 l0 99 159 0 c119 0 160 3 163 12 3 7 8 -13 11 -44 8 -63 42 -164 59 -174 7 -5 8 -2 4 7 -4 8 -1 6 7 -3 28 -34 26 -17 -6 50 -28 60 -31 76 -31 157 1 114 7 186 15 173 4 -5 17 12 30 39 48 98 147 176 258 203 53 12 178 10 214 -5 12 -5 17 -2 17 9 0 34 -153 46 -250 19 -64 -18 -176 -84 -172 -102 1 -7 -2 -10 -7 -7 -15 10 -62 -59 -55 -80 4 -14 3 -15 -4 -6 -7 10 -12 8 -24 -10 -21 -32 -47 -111 -55 -165 l-6 -43 -164 0 -164 0 3 175 c2 133 0 176 -9 180 -21 7 -18 -338 2 -355 18 -15 10 -31 -10 -24 -8 4 -12 10 -9 15 3 5 -65 9 -159 9 l-165 0 -11 66 c-7 36 -23 89 -37 118 -32 67 -106 152 -123 142 -16 -10 36 -68 53 -59 6 3 8 3 4 -2 -4 -4 7 -32 24 -62 35 -63 58 -146 58 -215 0 -27 5 -48 11 -48 5 0 7 -5 3 -11 -4 -6 -22 14 -44 48 -39 61 -109 131 -156 156 -16 9 -48 38 -72 66 -24 28 -49 51 -56 51 -8 0 -21 18 -30 40 -20 49 -20 60 -2 60 7 0 24 9 38 19 24 19 24 19 88 -15 39 -20 68 -30 73 -25 12 12 -70 64 -103 65 -25 1 -26 3 -22 45 3 33 11 50 32 68 48 40 46 130 -3 172 -12 10 -14 18 -7 31 18 33 11 95 -13 131 -27 40 -60 59 -104 59 -22 0 -33 5 -33 14 0 8 -16 28 -35 45 -30 26 -44 31 -89 31 -38 0 -61 -6 -77 -19 -22 -18 -24 -18 -53 0 -36 22 -100 24 -137 4z m316 -15 c17 -11 42 -33 55 -50 18 -23 31 -30 58 -30 27 0 42 -8 69 -37 35 -36 35 -38 29 -99 -6 -56 -4 -66 19 -100 31 -46 27 -85 -16 -129 -22 -23 -29 -41 -29 -70 0 -33 -6 -44 -32 -62 -24 -17 -36 -20 -50 -12 -29 15 -32 35 -9 58 45 45 34 143 -17 162 -34 13 -76 -5 -91 -37 -17 -37 -32 -25 -56 42 l-21 59 -61 -3 c-54 -3 -63 -1 -73 17 -14 27 -43 27 -78 1 -15 -11 -44 -23 -64 -26 -31 -6 -41 -2 -62 21 -54 58 -40 135 31 172 29 15 39 28 44 54 11 50 50 79 108 79 26 0 56 -7 67 -15 24 -18 48 -19 64 -1 10 14 32 21 69 25 7 0 28 -8 46 -19z m-4210 -82 c22 -11 61 -31 87 -44 97 -50 116 -102 116 -319 1 -136 21 -235 56 -274 14 -16 10 -19 -57 -45 -93 -36 -237 -49 -237 -21 0 11 5 15 15 11 26 -10 89 22 113 58 46 67 62 129 62 236 0 106 -20 182 -62 235 l-21 27 -28 -54 c-38 -70 -107 -132 -175 -157 -68 -26 -79 -26 -111 -1 -33 26 -49 25 -78 -5 -47 -46 -19 -145 41 -145 21 0 24 -5 24 -34 0 -30 23 -117 45 -168 6 -15 2 -15 -62 -1 -85 19 -190 71 -217 106 -66 89 7 394 125 522 71 77 153 108 264 99 33 -3 78 -14 100 -26z m1056 -86 l164 3 -3 -177 c-2 -119 1 -178 8 -178 6 0 10 60 10 175 l0 175 134 0 c74 0 141 3 150 6 13 5 16 -2 16 -39 0 -53 38 -160 53 -150 6 3 7 1 3 -5 -16 -26 111 -171 136 -156 7 4 8 3 4 -4 -10 -16 108 -70 169 -78 l50 -6 0 -179 0 -179 -96 0 c-73 0 -98 -3 -102 -14 -5 -11 15 -14 101 -15 74 -1 102 2 92 9 -13 8 -13 10 2 10 26 0 30 30 26 218 -2 95 1 172 5 172 5 0 5 -5 1 -11 -14 -23 90 -3 157 29 77 37 173 118 165 139 -3 8 -1 11 4 8 22 -14 90 149 90 216 l0 29 145 0 145 0 0 -175 c0 -133 3 -175 13 -176 6 -1 -15 -5 -48 -9 -57 -8 -162 -47 -192 -72 -11 -9 -12 -13 -1 -20 9 -6 6 -7 -8 -3 -16 4 -29 -3 -53 -30 -17 -20 -28 -41 -25 -47 4 -7 2 -8 -4 -4 -14 8 -45 -39 -71 -109 -23 -63 -36 -139 -21 -130 5 3 10 1 10 -4 0 -7 -52 -11 -154 -11 -146 0 -155 -1 -161 -20 -3 -11 -11 -20 -17 -20 -6 0 -8 -10 -4 -26 6 -21 4 -25 -11 -21 -10 3 -58 15 -108 27 -49 12 -91 23 -93 25 -1 1 11 62 27 136 31 137 30 162 -6 173 -53 16 -335 76 -357 76 -37 0 -51 -29 -77 -153 -21 -100 -24 -108 -48 -113 -72 -16 -98 -32 -179 -108 -60 -58 -163 -134 -337 -250 l-250 -166 -17 22 c-10 13 -22 28 -27 34 -5 7 -8 20 -6 30 2 11 4 88 4 172 l1 152 168 1 c92 1 158 4 147 7 l-20 5 20 8 c11 4 -54 8 -147 8 l-168 1 0 183 0 182 48 2 c53 2 146 38 137 53 -3 5 0 7 8 5 18 -8 119 75 112 93 -2 7 -1 11 4 7 20 -12 84 106 96 175 13 75 14 90 4 90 -6 0 -7 5 -3 11 5 8 8 8 14 0 5 -9 55 -11 171 -9z m1646 -14 c-3 -8 -6 -5 -6 6 -1 11 2 17 5 13 3 -3 4 -12 1 -19z m-1150 -55 c-3 -10 -5 -4 -5 12 0 17 2 24 5 18 2 -7 2 -21 0 -30z m-1441 -75 c26 -57 29 -73 28 -168 -1 -113 -17 -168 -70 -237 -40 -53 -118 -53 -198 2 -20 14 -39 25 -42 25 -13 0 44 -85 75 -112 25 -23 34 -39 36 -66 1 -21 6 -60 10 -87 6 -40 4 -53 -8 -63 -34 -28 -145 51 -206 147 -44 68 -42 72 30 64 36 -3 60 -2 57 3 -38 80 -49 109 -56 159 -6 33 -8 63 -5 68 2 4 -7 7 -21 7 -37 0 -66 33 -66 74 0 60 53 88 84 45 12 -18 21 -20 53 -15 101 19 217 105 245 181 6 19 15 35 19 35 3 0 19 -28 35 -62z m3863 0 c19 -23 67 -29 108 -15 19 7 23 3 37 -46 23 -80 76 -117 90 -62 9 36 49 60 75 45 49 -26 34 -124 -21 -142 -10 -4 -9 -13 4 -41 10 -21 22 -37 26 -37 12 0 55 -118 49 -134 -3 -6 -50 -50 -105 -96 -82 -70 -101 -91 -106 -120 -4 -20 -12 -42 -17 -50 -8 -11 -9 -7 -4 14 3 16 6 59 6 95 0 54 4 67 21 79 23 17 68 107 68 137 -1 17 -3 16 -22 -8 -34 -46 -97 -80 -148 -81 -63 -1 -96 23 -127 92 -14 32 -32 64 -40 73 -10 12 -15 54 -18 140 l-4 124 44 19 c25 10 45 22 45 27 0 16 21 9 39 -13z m-3139 -26 c0 -5 -7 -17 -15 -28 -14 -18 -14 -17 -4 9 12 27 19 34 19 19z m1247 -238 c-3 -3 -12 -4 -19 -1 -8 3 -5 6 6 6 11 1 17 -2 13 -5z m1456 -11 c-7 -2 -19 -2 -25 0 -7 3 -2 5 12 5 14 0 19 -2 13 -5z m-3086 -130 c-3 -10 -5 -4 -5 12 0 17 2 24 5 18 2 -7 2 -21 0 -30z m3961 -53 l33 -40 -43 -47 c-53 -60 -190 -193 -197 -193 -3 0 -16 26 -29 58 l-22 57 47 40 c27 21 75 67 108 101 33 33 62 62 65 62 3 1 20 -16 38 -38z m-4482 -4 c10 -8 15 -18 11 -22 -4 -4 -17 2 -29 14 -25 25 -13 30 18 8z m4214 1 c0 -2 -9 -14 -20 -27 -19 -22 -20 -22 -20 -3 0 11 3 23 7 26 7 7 33 10 33 4z m-4450 -59 c0 -24 88 -130 141 -169 42 -32 59 -39 88 -37 49 4 59 35 39 117 -8 34 -13 63 -10 66 2 2 31 -10 64 -26 69 -35 203 -159 314 -292 116 -138 112 -127 73 -194 -31 -53 -180 -213 -197 -213 -4 1 -23 15 -44 33 l-36 32 11 52 c14 69 -7 243 -27 222 -2 -2 0 -29 6 -59 17 -94 6 -174 -38 -277 l-39 -93 -95 -1 c-52 -1 -161 -4 -243 -8 l-147 -6 0 32 c0 22 6 33 19 38 23 7 28 32 37 183 5 80 3 112 -5 112 -7 0 -11 -25 -12 -67 -1 -38 -4 -99 -8 -138 l-6 -70 -45 -12 c-52 -13 -149 -16 -239 -7 -52 6 -61 10 -55 23 19 40 16 111 -5 144 -27 44 -26 64 4 198 31 140 78 242 135 293 82 74 320 166 320 124z m4882 -80 c25 -26 60 -71 76 -100 82 -145 182 -602 182 -833 0 -76 -2 -83 -27 -107 -87 -81 -356 -147 -548 -136 -96 6 -137 25 -173 78 l-22 33 57 28 c111 54 199 152 328 362 70 115 86 169 21 71 -84 -126 -279 -305 -387 -354 -121 -54 -341 12 -584 175 -115 78 -175 127 -175 145 0 6 12 39 26 73 15 34 30 72 35 84 l8 22 93 -25 c51 -14 174 -52 273 -84 164 -54 180 -58 189 -42 30 53 194 289 252 360 69 87 148 154 202 173 18 6 32 15 32 19 0 5 -21 2 -46 -7 -83 -28 -183 -135 -333 -352 l-71 -104 0 84 c0 136 27 315 52 344 4 5 8 -1 8 -15 0 -47 15 -7 16 44 2 57 22 126 37 126 5 0 7 -14 3 -31 -3 -17 -6 -47 -6 -66 0 -19 -4 -32 -9 -28 -17 10 -23 -15 -7 -30 8 -8 17 -28 21 -45 l7 -31 33 21 c40 25 41 25 48 -1 l6 -21 29 21 c16 11 76 69 133 129 l104 108 35 -20 c19 -11 56 -42 82 -68z m-2285 20 c-3 -8 -6 -5 -6 6 -1 11 2 17 5 13 3 -3 4 -12 1 -19z m2400 0 c-3 -8 -6 -5 -6 6 -1 11 2 17 5 13 3 -3 4 -12 1 -19z m-3397 -22 c0 -26 -7 -30 -72 -41 -21 -3 -38 -10 -38 -15 0 -13 1 -13 98 9 69 16 82 17 82 4 0 -7 -28 -27 -62 -42 -43 -20 -70 -40 -86 -64 -13 -20 -38 -41 -55 -48 -23 -8 -27 -13 -15 -16 26 -6 55 13 90 60 l31 42 -8 -35 c-5 -19 -9 -50 -9 -68 -1 -30 -5 -34 -50 -47 -27 -8 -54 -15 -60 -15 -6 0 -76 -67 -154 -150 -183 -191 -379 -359 -404 -344 -4 3 -5 16 -2 29 8 32 -27 52 -63 36 -36 -17 -39 -14 -13 14 38 40 17 51 -72 36 -40 -6 -88 -17 -106 -23 -28 -11 -35 -10 -52 8 -20 19 -19 20 40 78 33 33 74 82 92 109 l31 48 37 -36 38 -37 258 172 c180 121 284 198 345 255 61 58 98 86 125 93 55 14 54 14 54 -12z m2727 -88 c-34 -86 -46 -158 -54 -323 -7 -158 -19 -201 -56 -189 -59 18 -68 24 -63 42 3 9 19 71 37 137 17 66 45 158 61 205 31 87 87 204 95 196 3 -3 -6 -33 -20 -68z m-3565 -4 l-6 -29 -7 25 c-4 14 -7 -37 -8 -113 -1 -90 3 -136 9 -132 6 3 10 -4 10 -17 0 -26 2 -28 -82 77 -31 39 -88 104 -126 145 -39 41 -68 77 -66 79 2 3 10 -1 16 -7 15 -15 232 -17 223 -2 -3 6 1 10 9 10 9 0 16 8 17 18 0 14 2 13 9 -4 4 -11 5 -33 2 -50z m2137 -49 c105 -60 191 -114 191 -119 0 -12 -180 -234 -194 -239 -16 -6 -401 221 -398 235 7 25 191 240 202 236 5 -2 94 -52 199 -113z m2108 63 c-2 -13 -4 -5 -4 17 -1 22 1 32 4 23 2 -10 2 -28 0 -40z m710 5 c-3 -10 -5 -4 -5 12 0 17 2 24 5 18 2 -7 2 -21 0 -30z m-1263 -47 c-10 -8 -20 -13 -21 -12 -1 1 3 22 9 46 l12 45 10 -33 c8 -27 6 -35 -10 -46z m-2274 -50 c71 -10 71 -10 71 -132 0 -74 3 -111 12 -116 9 -6 8 -8 -3 -8 -13 0 -13 -1 0 -10 9 -6 10 -10 3 -10 -6 0 -14 4 -17 9 -9 15 -105 -7 -172 -39 -63 -31 -74 -43 -54 -55 10 -6 63 29 55 36 -2 2 6 5 18 6 12 0 47 8 77 17 69 20 132 20 201 0 71 -21 120 -47 165 -86 36 -32 64 -44 64 -28 0 17 -107 99 -155 120 -60 26 -133 41 -141 29 -17 -29 -24 4 -24 116 0 69 1 125 3 125 1 0 36 -9 77 -20 41 -11 85 -20 98 -20 16 0 22 -6 22 -24 0 -13 6 -28 13 -34 6 -5 94 -58 194 -116 165 -96 233 -124 233 -96 0 5 13 7 29 4 16 -4 32 -1 35 5 9 14 46 14 46 0 0 -12 27 -9 103 12 28 7 36 14 29 21 -8 8 -28 8 -69 0 -32 -6 -79 -13 -105 -15 -47 -4 -47 -4 -30 17 78 99 83 103 106 99 15 -3 22 -11 22 -26 -1 -18 13 -29 69 -55 39 -19 74 -40 78 -48 10 -18 31 -18 24 0 -3 8 -1 17 6 19 7 2 -6 10 -28 17 -58 18 -135 59 -135 70 0 11 51 4 103 -16 41 -15 87 -19 87 -6 0 26 -54 44 -62 20 -3 -8 -11 -5 -24 8 -10 10 -31 19 -46 20 -83 1 -108 5 -108 15 0 6 24 10 65 8 36 -1 68 0 71 4 4 3 19 -3 34 -15 22 -16 38 -19 64 -15 27 4 34 3 29 -9 -4 -11 2 -13 26 -8 21 5 31 3 31 -6 0 -7 -8 -10 -20 -7 -21 5 -28 -7 -10 -18 16 -10 50 5 50 21 0 7 -23 25 -50 39 -45 23 -70 48 -59 60 2 2 49 -9 104 -24 87 -23 110 -35 173 -83 40 -31 81 -60 92 -63 24 -8 24 -12 4 -61 -9 -22 -20 -49 -25 -61 -8 -21 -10 -21 -37 -8 -24 13 -222 41 -227 33 -1 -2 3 -46 8 -98 l10 -95 169 3 c159 3 170 2 199 -18 l30 -22 -41 -20 c-22 -11 -40 -26 -40 -33 0 -21 -54 -28 -156 -20 -89 6 -154 1 -154 -13 0 -8 260 -6 301 2 24 5 28 0 53 -56 14 -34 25 -62 23 -62 -1 -1 -27 -13 -57 -29 -30 -15 -95 -36 -143 -47 -104 -24 -97 -23 -97 -7 0 7 25 25 56 41 68 33 62 46 -23 47 -67 1 -103 -7 -103 -23 0 -5 7 -7 16 -4 24 9 124 20 124 13 0 -4 -17 -15 -39 -26 -57 -30 -67 -71 -16 -71 53 0 173 32 229 61 54 28 59 29 71 12 12 -16 22 -16 139 -5 69 6 160 19 202 27 138 29 123 11 -44 -49 -139 -51 -163 -63 -168 -83 -4 -15 7 -62 30 -126 94 -265 132 -361 149 -371 13 -8 31 -6 79 11 l61 23 51 -53 c28 -29 69 -61 91 -71 22 -10 55 -27 73 -38 l33 -20 -22 -24 -21 -23 23 -33 c108 -155 326 -378 448 -459 l81 -54 -182 -18 c-225 -22 -229 -23 -235 -48 -4 -12 -11 -18 -22 -15 -96 29 -250 56 -286 51 l-42 -7 -22 87 c-38 151 -84 213 -201 269 l-65 31 -193 0 c-171 0 -193 2 -198 17 -16 51 -121 108 -199 108 -29 0 -36 6 -71 65 -21 36 -59 86 -85 112 l-47 46 19 31 c25 41 24 66 -3 106 -29 42 -83 70 -150 79 -51 6 -52 7 -65 51 -17 56 -10 100 26 165 52 93 47 144 -16 167 -37 13 -40 20 -18 38 8 7 15 20 15 30 0 21 -42 41 -60 30 -10 -6 -7 -10 13 -15 31 -8 32 -13 9 -40 -13 -16 -28 -20 -62 -19 -37 1 -38 0 -7 -3 20 -2 37 -7 37 -11 -1 -13 -88 -102 -100 -102 -17 0 -300 104 -300 110 0 3 34 36 75 73 l75 69 110 -31 c118 -33 130 -35 130 -23 0 9 -203 64 -237 65 -15 0 -39 -15 -62 -37 l-37 -36 -90 1 c-101 2 -135 -9 -168 -54 -18 -25 -21 -42 -20 -133 l1 -104 -31 0 c-62 -1 -156 -64 -156 -105 0 -7 -28 -17 -71 -24 -39 -6 -120 -27 -180 -47 -100 -32 -113 -34 -147 -23 -52 17 -138 15 -199 -5 -93 -31 -140 -114 -97 -174 15 -21 13 -25 -34 -77 -27 -31 -64 -82 -83 -115 -32 -55 -37 -59 -70 -60 -75 0 -180 -56 -199 -105 -9 -22 -12 -23 -197 -27 -167 -4 -195 -7 -248 -28 -94 -37 -159 -108 -228 -254 -48 -99 -60 -117 -75 -111 -86 37 -181 43 -312 20 -112 -20 -138 -19 -136 2 1 16 -30 25 -266 73 l-58 11 21 40 c19 39 22 40 57 34 80 -13 185 43 323 173 82 77 176 188 237 280 31 46 34 56 23 73 -10 17 -9 23 11 40 13 11 48 33 79 49 31 16 70 45 87 64 l31 36 52 -31 c89 -52 86 -54 231 194 98 170 125 223 119 239 -4 13 -61 52 -139 97 -73 42 -132 79 -132 82 0 13 74 18 128 8 31 -6 85 -9 120 -7 l62 4 0 -91 c0 -83 13 -228 25 -282 3 -15 1 -23 -7 -23 -7 0 -37 -11 -65 -25 l-53 -24 0 -99 0 -99 75 -36 74 -36 70 32 70 32 1 105 0 106 -62 27 c-35 15 -68 27 -74 27 -7 0 -16 37 -23 88 -13 102 -15 352 -3 352 5 0 16 16 25 36 10 20 27 38 37 41 11 3 20 10 20 15 0 6 -7 8 -15 4 -9 -3 -15 0 -15 9 0 19 14 19 30 0 10 -12 17 -11 48 10 l37 25 1075 0 1074 0 34 52 c33 53 92 163 92 173 0 3 -4 5 -9 5 -5 0 -23 -29 -40 -65 -20 -42 -36 -63 -43 -59 -7 4 -8 3 -4 -5 5 -7 -3 -29 -18 -51 l-26 -39 -1062 -1 c-584 0 -1059 2 -1057 4 2 2 31 25 64 52 33 26 107 94 164 151 56 57 105 103 107 103 2 0 3 -6 2 -12 -4 -18 60 -47 131 -60 l61 -12 0 -103 c0 -64 4 -103 10 -103 7 0 10 37 8 102 l-3 103 87 21 c95 25 131 40 123 54 -3 5 0 12 6 16 8 4 9 3 5 -4 -14 -24 8 -11 61 34 30 26 52 49 49 52 -3 2 -14 -1 -23 -9 -17 -13 -17 -13 -3 6 8 11 -4 4 -26 -16 -96 -84 -206 -125 -314 -116 -69 6 -165 38 -165 55 0 5 23 34 51 63 41 44 63 58 116 75 l65 21 174 -38 c96 -21 186 -39 201 -39 33 0 40 12 62 110 10 41 19 80 21 87 3 8 19 6 57 -7 29 -10 73 -21 98 -24z m3450 -150 c92 -1 143 -6 160 -15 41 -22 69 -52 80 -86 7 -22 22 -36 50 -49 31 -14 42 -25 50 -54 17 -64 11 -128 -22 -229 -18 -54 -39 -129 -48 -168 -14 -65 -17 -70 -44 -73 -30 -4 -71 26 -81 59 -7 21 12 62 25 54 7 -4 11 26 11 89 0 54 -68 92 -117 66 -34 -19 -44 -53 -54 -184 -9 -126 -31 -208 -71 -255 l-20 -24 -15 21 c-13 18 -22 21 -62 16 -26 -3 -55 -7 -64 -10 -9 -3 -31 2 -47 11 -36 18 -51 62 -51 154 l0 64 38 -5 c20 -3 55 -18 77 -32 30 -21 48 -26 70 -22 42 8 91 65 110 128 21 65 32 198 17 198 -19 0 -72 58 -72 80 0 38 -25 51 -123 62 -87 10 -95 13 -111 38 -19 34 -20 88 -1 113 7 10 28 30 47 44 29 22 39 24 83 17 28 -4 111 -8 185 -8z m-6437 -17 c20 -5 37 -13 37 -17 0 -4 13 -15 29 -25 24 -14 43 -16 98 -11 64 6 70 5 101 -21 20 -17 32 -36 32 -52 0 -14 11 -47 25 -75 28 -55 29 -76 11 -127 -13 -37 -36 -53 -36 -26 0 22 -38 75 -54 75 -7 0 -24 -17 -37 -37 -18 -29 -35 -41 -69 -51 -69 -20 -87 -33 -113 -82 -24 -46 -67 -69 -67 -35 0 9 -15 22 -34 30 -50 21 -90 5 -110 -45 -21 -52 -11 -94 29 -128 58 -49 55 -103 -11 -164 -33 -32 -37 -41 -40 -94 -3 -51 -7 -63 -33 -86 -27 -24 -38 -27 -96 -27 -62 1 -79 -4 -182 -53 -44 -21 -135 25 -173 89 -20 34 -21 44 -13 91 9 50 8 55 -18 90 -46 60 -33 123 47 222 33 40 36 49 32 92 -4 35 0 56 13 77 17 28 87 81 107 81 18 0 47 43 57 83 12 50 46 73 125 82 66 8 63 6 138 76 80 73 129 90 205 68z m2957 -123 c0 -2 -7 -7 -16 -10 -8 -3 -12 -2 -9 4 6 10 25 14 25 6z m-612 -33 c-10 -2 -26 -2 -35 0 -10 3 -2 5 17 5 19 0 27 -2 18 -5z m3947 -62 c36 -6 40 -10 48 -46 6 -29 17 -45 40 -60 40 -25 44 -53 23 -149 -20 -89 -47 -133 -92 -152 -33 -14 -36 -13 -69 12 -25 18 -53 28 -101 34 -36 5 -71 13 -77 19 -8 8 -2 30 20 78 22 47 33 89 37 136 3 37 11 85 17 106 l12 40 51 -6 c28 -3 69 -9 91 -12z m-1999 -30 c97 -12 133 -26 127 -51 -3 -11 11 -31 44 -58 l48 -42 -154 0 -153 0 6 23 c4 12 8 27 9 33 2 5 13 23 25 38 12 16 22 32 22 36 0 17 -38 -3 -51 -27 l-14 -25 -6 23 c-11 39 -10 59 4 59 6 0 48 -4 93 -9z m-2978 -101 c4 0 13 5 19 11 12 12 53 -4 53 -20 0 -20 -71 -41 -138 -41 l-70 0 26 59 26 60 38 -35 c21 -19 42 -34 46 -34z m-1053 20 c10 -19 15 -58 15 -117 0 -51 6 -105 15 -128 19 -54 18 -72 -4 -78 -12 -3 -24 -24 -36 -61 -21 -65 -59 -112 -100 -122 -40 -10 -124 20 -173 62 -23 19 -42 30 -42 22 1 -19 38 -100 57 -120 12 -14 13 -23 3 -52 -14 -43 -33 -46 -100 -15 -95 43 -103 76 -35 142 43 42 45 48 45 101 0 51 -2 57 -30 71 -50 26 -66 87 -34 133 27 38 104 21 104 -24 0 -18 23 -18 59 1 17 8 35 30 45 55 16 41 23 46 106 71 36 11 49 22 63 52 10 20 20 37 23 37 2 0 10 -13 19 -30z m1345 -15 c-7 -9 -32 -20 -56 -26 -57 -15 -56 -29 1 -29 l46 0 -7 -47 c-3 -27 -6 -58 -5 -70 0 -12 -4 -25 -9 -28 -6 -3 -10 -11 -10 -16 0 -6 5 -7 10 -4 6 3 10 2 10 -4 0 -24 -78 -32 -165 -17 -74 13 -91 13 -132 1 -25 -8 -50 -12 -55 -9 -5 3 -19 -1 -31 -9 -23 -15 -219 -64 -372 -93 -123 -24 -329 -25 -370 -3 -67 37 -94 98 -102 238 -6 87 -5 94 11 88 33 -13 181 -18 229 -9 l47 9 0 -38 0 -39 50 0 c28 0 175 5 328 10 l277 11 69 35 c67 35 161 62 220 63 24 1 27 -1 16 -14z m-1276 -152 c-7 -111 -8 -116 -20 -83 -20 55 -18 170 4 190 9 10 18 16 20 15 2 -2 0 -56 -4 -122z m1346 103 c0 -17 -17 -31 -48 -41 -22 -6 -23 -5 -17 17 10 31 10 31 37 17 21 -11 22 -11 9 4 -12 15 -11 17 3 17 9 0 16 -6 16 -14z m4904 -28 c9 -12 16 -36 16 -53 0 -40 -34 -95 -60 -95 -11 0 -20 -4 -20 -10 0 -5 9 -10 20 -10 11 0 20 -4 20 -9 0 -16 52 -72 74 -81 23 -8 54 -97 39 -110 -14 -13 -289 -150 -300 -150 -22 0 -21 49 3 70 12 12 37 51 54 87 28 57 34 82 41 177 4 61 8 121 8 132 1 32 39 74 66 74 13 0 31 -10 39 -22z m-4934 -37 c0 -12 -29 -35 -36 -28 -11 10 5 37 21 37 8 0 15 -4 15 -9z m3117 -99 c76 -39 162 -72 186 -72 9 0 17 -4 17 -8 0 -10 -247 -43 -317 -42 -36 0 -53 4 -53 13 0 7 -16 45 -35 86 -19 40 -35 74 -35 77 0 2 17 12 37 22 l37 19 50 -32 c28 -18 79 -46 113 -63z m-3146 31 c-8 -15 -10 -15 -11 -2 0 17 10 32 18 25 2 -3 -1 -13 -7 -23z m3768 -20 c-46 -49 -92 -89 -96 -83 -1 3 -9 -5 -17 -16 -18 -26 -70 -49 -91 -40 -27 10 -16 32 23 45 20 8 75 42 122 77 46 35 86 61 89 58 2 -2 -11 -21 -30 -41z m-5028 -29 c13 -68 45 -113 98 -138 81 -37 302 -24 536 33 44 11 81 18 83 16 8 -7 -28 -72 -52 -94 -31 -29 -88 -40 -221 -40 -172 -1 -416 46 -440 84 -7 11 -16 61 -20 110 -7 94 1 109 16 29z m6586 -31 c-3 -10 -5 -4 -5 12 0 17 2 24 5 18 2 -7 2 -21 0 -30z m-5571 -83 c160 -92 173 -103 158 -128 -6 -9 -59 -100 -119 -202 -59 -102 -115 -193 -125 -203 -17 -18 -22 -16 -146 56 -146 85 -156 99 -105 151 51 53 64 124 20 113 -25 -7 -25 -6 14 55 19 29 57 95 87 146 29 50 58 92 65 92 7 0 75 -36 151 -80z m-225 8 c-15 -24 -54 -89 -86 -146 -44 -78 -68 -110 -101 -132 -55 -39 -76 -66 -104 -137 -13 -32 -34 -73 -47 -91 l-25 -33 24 -29 c12 -16 46 -55 75 -88 l52 -59 -79 -105 c-92 -122 -216 -250 -305 -314 -126 -90 -182 -96 -305 -32 -76 39 -81 44 -76 67 4 14 9 60 12 101 7 85 -4 139 -88 430 -27 96 -52 184 -55 195 -7 23 56 -57 182 -235 108 -152 156 -210 171 -210 12 0 120 81 295 220 79 63 99 85 127 140 69 134 195 341 227 373 20 20 36 48 40 70 7 36 32 54 77 56 15 1 13 -6 -11 -41z m-807 -37 c5 -7 -3 -26 -17 -45 -43 -55 -117 -223 -140 -314 -23 -94 -27 -104 -34 -84 -3 7 -33 47 -67 90 -34 43 -65 86 -69 95 -4 10 1 45 10 77 15 57 17 59 42 52 14 -4 45 -7 69 -7 35 0 48 7 77 35 19 19 43 59 53 88 11 29 27 59 38 67 17 12 20 11 25 -14 3 -15 9 -33 13 -40z m2954 63 l23 -7 -27 -28 c-20 -21 -25 -32 -17 -40 12 -12 297 -119 318 -119 7 0 36 25 64 56 44 51 53 56 78 49 37 -9 63 -33 63 -58 0 -12 -16 -52 -36 -90 -33 -63 -36 -76 -32 -131 3 -34 8 -69 13 -78 6 -15 2 -18 -19 -18 -15 0 -43 -7 -64 -15 -81 -34 -109 -90 -74 -149 l20 -34 -81 -54 -82 -54 -56 28 c-68 34 -196 68 -256 68 l-43 0 0 75 0 74 38 7 c199 36 202 214 3 243 l-46 6 -3 92 c-3 108 11 147 61 168 33 15 115 19 155 9z m1865 -52 c12 -45 26 -68 56 -95 37 -33 103 -143 194 -322 20 -38 50 -93 66 -122 l31 -52 -30 17 c-27 15 -32 15 -40 2 -8 -13 -12 -11 -27 10 -10 14 -31 55 -46 92 -26 62 -54 96 -114 138 -14 10 -40 69 -78 175 -31 88 -63 170 -71 182 -12 20 -12 22 9 26 12 2 25 5 28 6 3 0 13 -25 22 -57z m-68 6 c18 -39 115 -304 115 -312 0 -4 -13 3 -29 15 -63 46 -71 -21 -11 -92 57 -68 54 -82 -27 -113 -170 -63 -207 -76 -223 -76 -13 0 -35 50 -99 226 -45 124 -81 235 -79 246 2 17 32 32 158 79 85 31 161 58 168 58 7 1 19 -14 27 -31z m879 -125 c51 -154 60 -228 52 -427 l-6 -170 -51 -78 -52 -78 -36 21 c-20 11 -104 69 -188 128 l-152 106 -77 145 c-43 80 -101 188 -130 240 -28 52 -51 96 -50 97 0 1 24 -3 51 -9 139 -27 520 51 576 118 6 8 15 14 19 14 5 0 24 -48 44 -107z m-5420 26 c105 -22 347 -31 394 -15 21 7 23 5 18 -12 -6 -17 -47 -94 -81 -150 -6 -9 -35 -61 -65 -115 -32 -59 -67 -107 -85 -120 -30 -21 -43 -31 -80 -64 -11 -10 -41 -34 -65 -53 -25 -19 -50 -42 -57 -50 -7 -8 -13 -11 -13 -7 0 4 -10 -2 -22 -14 -13 -11 -42 -34 -65 -50 -36 -25 -43 -27 -43 -13 0 10 -3 14 -6 11 -4 -4 -24 17 -45 46 -21 28 -44 59 -52 67 -8 8 -26 35 -40 60 -14 25 -35 55 -46 67 -19 20 -20 27 -10 80 6 32 15 62 20 68 5 5 9 19 9 32 0 20 29 89 83 198 11 22 31 50 44 61 22 20 26 21 64 7 23 -7 87 -23 143 -34z m-537 -34 c9 -25 -4 -29 -17 -6 -7 15 -7 21 0 21 6 0 13 -7 17 -15z m-178 -89 c18 -22 112 -58 137 -53 22 4 26 -2 48 -77 103 -342 146 -517 146 -595 0 -76 -19 -164 -51 -236 -26 -61 -23 -57 -42 -49 -18 7 -26 42 -63 279 -63 414 -133 549 -297 580 -57 11 -44 -9 15 -23 69 -16 116 -55 155 -128 44 -81 68 -177 113 -451 22 -128 42 -242 45 -252 4 -14 45 -26 208 -60 111 -24 233 -50 271 -58 l69 -15 -7 -90 c-11 -150 -9 -146 -75 -155 -31 -4 -157 -8 -281 -8 -181 1 -238 4 -290 18 -89 24 -147 55 -180 97 -67 84 -163 318 -201 490 -35 153 -41 104 -9 -70 82 -439 153 -560 363 -614 42 -11 51 -17 49 -32 -2 -11 -6 -21 -9 -24 -13 -13 -344 -3 -433 14 -194 35 -342 79 -390 116 -22 16 -25 26 -24 77 1 99 92 463 178 711 53 155 85 230 144 344 55 106 56 107 118 138 48 24 75 30 123 30 91 0 141 32 141 89 0 24 12 27 29 7z m1231 -10 c0 -8 -17 -35 -39 -61 -32 -39 -40 -56 -43 -103 -3 -32 -9 -65 -13 -74 -4 -11 -3 -18 4 -18 5 0 15 18 22 39 l12 40 56 -31 c31 -18 58 -33 60 -35 11 -8 -69 -77 -119 -103 -30 -15 -63 -37 -73 -48 -19 -21 -19 -20 -74 44 l-55 65 20 22 c11 12 30 47 41 77 30 80 52 107 122 156 69 48 79 51 79 30z m2115 -30 c79 -33 99 -96 45 -146 -112 -104 -386 -28 -325 90 36 70 179 98 280 56z m-1458 -77 l28 -11 -57 -29 -56 -29 -61 28 -61 28 50 21 50 21 6 -39 c4 -21 11 -39 16 -39 6 0 8 18 3 46 l-6 45 30 -16 c17 -8 43 -20 58 -26z m3540 -31 c35 -23 51 -46 84 -116 23 -48 47 -94 55 -102 11 -13 4 -24 -48 -78 -53 -55 -63 -61 -77 -49 -9 7 -41 26 -73 41 -62 31 -148 111 -133 124 8 7 120 52 130 52 1 0 10 -20 19 -45 10 -25 22 -45 27 -45 12 0 12 3 -6 36 -8 16 -15 50 -15 77 0 41 -5 53 -40 91 -22 24 -40 53 -40 65 l0 23 38 -23 c20 -12 56 -36 79 -51z m-2333 -68 c18 -11 56 -24 84 -31 l52 -11 0 -74 0 -74 -43 0 c-61 0 -192 -35 -257 -68 l-56 -28 -82 53 c-81 52 -83 54 -67 75 21 32 19 90 -5 121 l-21 26 83 26 c46 15 121 35 168 44 l85 18 14 -28 c7 -16 28 -38 45 -49z m-1359 43 l55 -27 0 -84 c0 -94 2 -93 -82 -51 l-38 19 0 85 c0 47 2 85 5 85 2 0 29 -12 60 -27z m195 -56 l0 -83 -55 -27 c-31 -15 -58 -27 -60 -27 -3 0 -5 37 -5 83 l0 83 53 26 c28 15 55 27 60 27 4 1 7 -36 7 -82z m4472 7 c-75 -151 -155 -499 -169 -737 -3 -59 -9 -110 -13 -112 -4 -3 -55 -12 -113 -20 l-106 -16 -49 25 c-110 56 -341 274 -466 440 l-57 76 93 100 c51 55 94 100 96 100 3 0 93 -62 201 -139 108 -76 210 -145 227 -154 30 -15 32 -15 52 6 11 12 53 74 94 137 41 63 110 170 153 237 44 67 81 121 83 119 2 -2 -10 -30 -26 -62z m-3743 -9 c30 -15 71 -60 71 -77 0 -35 -36 -79 -83 -103 -146 -72 -346 14 -287 125 13 25 68 57 116 69 50 13 146 6 183 -14z m1392 -5 c141 -72 78 -200 -98 -200 -114 0 -203 56 -203 128 0 25 61 80 98 88 15 3 32 7 37 10 23 8 131 -9 166 -26z m-1278 -221 c45 -29 84 -53 85 -55 2 -1 -15 -20 -39 -41 -51 -46 -89 -123 -89 -182 0 -35 -3 -42 -16 -37 -9 3 -84 6 -168 6 l-152 0 -17 39 c-14 31 -30 46 -69 65 -29 14 -60 26 -70 26 -10 0 -18 4 -18 8 0 18 65 110 112 158 l50 52 46 -20 c59 -27 173 -22 223 10 19 11 35 21 37 21 1 1 39 -22 85 -50z m1158 3 c47 -3 82 1 120 13 l53 18 51 -56 c28 -31 63 -78 78 -105 l26 -48 -46 -12 c-62 -17 -99 -45 -114 -87 l-13 -35 -152 0 c-84 0 -159 -3 -168 -6 -13 -5 -16 1 -16 28 0 61 -30 128 -82 182 -34 35 -44 52 -36 57 7 4 44 28 83 52 l69 45 41 -20 c23 -12 68 -23 106 -26z m-523 13 c133 -32 257 -117 301 -207 28 -59 28 -146 1 -204 -44 -90 -173 -179 -307 -210 -90 -21 -250 -21 -332 1 -306 79 -420 320 -236 499 50 49 148 100 231 120 79 19 263 20 342 1z m-1115 -231 c49 -25 66 -44 73 -80 20 -110 -173 -196 -314 -139 -173 70 -51 258 156 239 30 -2 68 -12 85 -20z m2124 -9 c57 -26 93 -71 93 -116 0 -93 -170 -144 -298 -89 -105 45 -133 123 -67 186 62 58 170 66 272 19z m543 -126 c70 -33 125 -81 151 -131 11 -21 30 -78 43 -128 l24 -89 -54 -20 c-75 -29 -168 -76 -183 -95 -7 -9 -11 -22 -8 -30 3 -8 -1 -20 -9 -26 -21 -18 -17 -32 20 -67 23 -23 43 -33 65 -33 17 0 31 -4 31 -9 0 -20 36 -20 110 -1 118 30 127 29 135 -23 14 -90 -32 -173 -114 -210 -98 -43 -305 -32 -479 25 l-94 31 31 24 c55 43 31 113 -39 113 -63 0 -93 -67 -49 -111 11 -11 19 -22 17 -23 -7 -7 -169 -45 -238 -58 -104 -18 -607 -18 -758 1 -97 12 -112 16 -106 30 15 33 15 98 1 134 -21 48 -86 94 -156 108 l-56 12 3 142 3 142 72 7 c84 7 143 24 221 62 38 18 59 24 68 17 7 -5 61 -45 120 -88 l107 -78 -25 -36 c-46 -69 -24 -155 55 -208 45 -31 94 -43 169 -43 144 0 237 89 203 193 -7 19 -20 42 -31 52 -18 16 -18 18 15 60 43 57 83 141 91 194 6 39 8 41 43 41 76 1 171 71 171 127 l0 25 188 -4 c177 -3 190 -4 242 -29z m-3010 6 c0 -9 7 -30 16 -46 18 -35 101 -79 151 -79 27 0 34 -4 39 -27 12 -55 48 -137 87 -195 l39 -59 -21 -23 c-40 -43 -40 -121 -1 -164 20 -22 20 -22 2 -42 -11 -12 -31 -52 -46 -90 -32 -80 -56 -114 -96 -135 -37 -19 -65 -19 -98 1 -27 15 -27 16 -24 123 l4 108 -76 33 -76 33 -75 -33 c-70 -30 -75 -35 -75 -63 0 -29 -33 -77 -52 -77 -4 0 -8 13 -8 29 0 26 -7 31 -70 60 -39 17 -75 31 -80 31 -6 0 -42 -16 -80 -35 l-70 -35 0 -95 c0 -77 3 -97 15 -102 14 -5 13 -7 -3 -19 -58 -40 -162 -23 -272 46 -36 22 -87 47 -115 55 -86 25 -110 55 -89 110 8 21 61 47 149 73 39 12 78 27 89 35 14 11 28 11 63 3 39 -9 47 -8 59 8 7 10 18 15 23 11 17 -10 51 4 51 21 0 8 7 14 15 14 21 0 30 27 17 53 -5 12 -13 30 -16 40 -3 9 -21 25 -41 34 -19 9 -35 20 -35 25 0 24 118 243 147 273 94 96 150 113 381 114 149 1 172 -1 172 -14z m794 -37 c12 -34 36 -69 70 -104 l53 -52 -111 -79 c-61 -44 -116 -83 -123 -87 -7 -3 -38 1 -69 10 -70 20 -154 14 -222 -16 l-47 -21 -23 28 c-30 36 -90 158 -98 201 -6 28 -4 32 14 32 12 0 46 9 76 20 55 21 116 76 116 105 0 13 28 15 173 15 l172 0 19 -52z m1346 42 c0 -18 63 -81 101 -100 20 -11 56 -22 78 -26 38 -6 40 -8 34 -33 -14 -60 -35 -105 -77 -171 l-45 -69 -43 24 c-62 34 -143 42 -222 21 l-63 -17 -121 88 -122 88 35 30 c48 41 83 92 96 137 l10 38 169 0 c103 0 170 -4 170 -10z m-3705 -145 c32 -19 62 -36 69 -39 8 -3 8 -7 0 -13 -6 -4 -13 -16 -17 -25 -8 -21 -38 -23 -105 -7 -26 7 -48 13 -50 14 -7 6 11 34 19 29 5 -3 9 -2 7 3 -2 9 12 73 17 73 1 0 28 -16 60 -35z m2565 -96 c67 -33 170 -59 238 -59 l42 0 0 -143 0 -144 -54 -12 c-69 -15 -133 -62 -155 -111 -15 -36 -18 -38 -51 -33 -91 14 -350 104 -350 122 0 3 8 11 18 18 25 15 52 74 52 111 0 16 -12 46 -26 67 -14 21 -22 41 -17 46 16 15 228 168 234 169 4 0 35 -14 69 -31z m-3089 -191 c49 -95 122 -144 251 -170 35 -6 64 -13 66 -14 6 -4 -28 -64 -36 -64 -5 0 -12 4 -17 8 -6 5 -36 17 -67 26 -68 21 -140 66 -173 110 -26 35 -85 174 -85 203 0 19 4 13 61 -99z m6936 85 c-26 -60 -111 -220 -144 -272 -38 -59 -112 -135 -153 -156 -35 -18 -150 -55 -171 -55 -10 0 -25 13 -34 30 -19 37 -19 37 8 38 83 0 220 64 278 129 60 68 176 227 203 281 20 39 30 43 13 5z m-5569 -47 c45 -22 82 -43 82 -48 0 -13 -18 -9 -63 14 -36 18 -127 48 -149 48 -5 0 -8 -4 -8 -9 0 -5 24 -15 53 -21 93 -20 231 -100 173 -100 -8 0 -50 15 -93 34 -88 39 -153 54 -153 37 0 -6 10 -11 23 -11 24 0 185 -64 201 -80 6 -6 3 -12 -8 -16 -11 -4 -49 6 -94 24 -92 37 -132 48 -132 34 0 -5 12 -12 28 -15 15 -3 54 -18 87 -33 74 -34 52 -44 -41 -18 -58 15 -73 16 -150 4 -70 -11 -94 -11 -128 -1 -22 7 -55 15 -72 18 -31 5 -32 6 -26 46 4 23 6 56 7 72 l0 30 95 17 c54 9 136 16 190 14 87 -1 102 -5 178 -40z m1366 9 c80 -38 100 -127 44 -191 -46 -52 -108 -77 -193 -78 -221 -2 -270 202 -68 279 52 20 167 15 217 -10z m1547 -12 c83 -47 109 -115 69 -180 -60 -100 -266 -105 -358 -10 -55 57 -59 128 -9 175 64 60 205 68 298 15z m1272 10 c117 -26 127 -30 123 -48 -3 -11 -6 -55 -6 -97 l0 -77 -37 -10 c-54 -15 -97 -14 -180 6 -70 16 -73 16 -158 -7 -62 -17 -89 -20 -97 -12 -8 8 0 15 27 26 58 24 124 46 140 46 8 0 15 5 15 10 0 15 -21 12 -86 -11 -32 -12 -81 -30 -108 -39 -48 -18 -76 -17 -76 1 0 15 136 77 196 90 30 7 54 17 54 22 0 15 -54 1 -149 -39 -107 -45 -141 -52 -141 -30 0 18 110 76 210 112 52 18 59 23 35 23 -16 0 -66 -15 -110 -35 -99 -44 -115 -49 -115 -35 0 24 250 130 310 131 14 0 83 -12 153 -27z m-3506 -225 c29 -13 53 -26 53 -29 0 -18 -35 -17 -57 1 -26 20 -89 29 -78 10 3 -5 16 -10 29 -10 12 0 30 -6 39 -12 15 -12 14 -14 -11 -28 -25 -15 -31 -14 -92 11 l-65 28 55 25 c68 31 64 31 127 4z m1416 -10 c23 -7 61 -31 84 -54 39 -37 43 -45 43 -88 0 -26 -7 -60 -16 -75 -51 -87 -205 -119 -312 -65 -107 53 -131 152 -55 228 60 60 164 81 256 54z m-1766 -44 l58 -26 -60 -27 c-49 -23 -64 -26 -87 -17 -33 12 -27 19 31 39 27 9 39 17 32 22 -7 4 -34 -4 -60 -17 -37 -18 -54 -21 -70 -14 -11 5 -21 12 -21 15 0 7 90 49 107 50 7 1 38 -11 70 -25z m421 -117 c-3 -41 -3 -41 -22 31 -18 71 -18 73 0 87 18 13 19 11 22 -31 2 -25 2 -64 0 -87z m-166 78 c13 -8 18 -27 20 -77 2 -36 0 -69 -4 -73 -3 -3 -29 3 -57 16 l-51 21 0 79 0 78 38 -17 c20 -10 45 -22 54 -27z m133 -68 c9 -32 15 -60 13 -61 -9 -5 -99 -46 -101 -46 -1 0 0 38 3 85 5 79 7 87 30 99 29 14 27 16 55 -77z m-536 9 c-25 -98 -31 -116 -39 -116 -6 0 -10 39 -10 90 l0 89 29 -16 c25 -15 27 -20 20 -47z m3219 55 c23 -14 10 -61 -21 -79 -28 -17 -29 -16 -53 11 -28 33 -29 40 -8 61 17 17 61 21 82 7z m-3004 -34 c0 -9 -1 -42 -2 -72 -2 -54 -3 -55 -44 -75 -65 -31 -68 -30 -68 53 l0 73 48 21 c53 24 67 24 66 0z m-162 -7 c21 -10 23 -17 23 -95 0 -47 -1 -85 -2 -85 -1 0 -22 10 -47 21 l-44 22 14 33 c8 18 14 44 14 58 0 24 9 56 16 56 2 0 13 -5 26 -10z" />
<path d="M3145 3566 c-66 -21 -128 -57 -118 -67 11 -11 45 -1 38 11 -3 5 3 8 12 8 10 -1 42 7 72 16 43 15 70 17 140 12 126 -10 129 -10 125 -17 -2 -4 14 -11 36 -17 60 -15 48 2 -22 33 -51 22 -81 28 -153 31 -54 2 -106 -2 -130 -10z m98 -3 c-7 -2 -19 -2 -25 0 -7 3 -2 5 12 5 14 0 19 -2 13 -5z" />
<path d="M2999 3493 c-1 -5 -1 -12 0 -16 1 -5 -3 -6 -8 -3 -12 8 -43 -23 -36 -35 4 -5 -1 -6 -9 -3 -17 7 -22 -11 -6 -21 12 -7 93 69 83 78 -9 9 -23 9 -24 0z" />
<path d="M2907 3402 c-43 -47 -102 -232 -77 -240 14 -5 13 -49 -2 -54 -8 -3 -6 -23 6 -74 20 -82 31 -103 45 -89 7 7 4 31 -9 74 -33 106 -21 215 36 320 34 63 35 101 1 63z m-60 -184 c-3 -8 -6 -5 -6 6 -1 11 2 17 5 13 3 -3 4 -12 1 -19z" />
<path d="M2525 2750 c4 -6 10 -8 15 -5 4 3 10 1 12 -4 1 -5 9 -3 16 5 11 12 8 14 -18 14 -19 0 -29 -4 -25 -10z" />
<path d="M1747 3631 c12 -11 23 -26 26 -33 2 -7 8 -10 12 -6 11 11 -23 58 -42 58 -14 0 -14 -3 4 -19z" />
<path d="M6280 3679 c-6 -11 -10 -30 -7 -42 3 -21 4 -21 11 -2 4 11 12 28 17 37 11 22 11 28 -1 28 -5 0 -14 -9 -20 -21z" />
<path d="M4480 3057 c-11 -18 -20 -40 -20 -50 0 -9 -10 -25 -21 -35 -66 -53 -88 -75 -84 -82 3 -4 42 -29 87 -54 l82 -47 30 30 c17 16 41 34 54 40 13 7 22 21 22 35 0 13 11 39 24 58 27 40 35 30 -82 96 l-73 41 -19 -32z m99 -33 c36 -20 67 -37 69 -39 1 -1 -4 -15 -12 -31 -8 -16 -17 -37 -20 -46 -4 -15 -15 -11 -76 24 -38 22 -70 47 -70 55 0 17 28 73 37 73 3 0 36 -16 72 -36z m-48 -106 c64 -37 70 -43 54 -52 -10 -6 -29 -21 -42 -33 l-23 -22 -70 41 c-38 22 -70 44 -70 48 0 5 69 60 77 60 0 0 34 -19 74 -42z" />
<path d="M5035 2780 c3 -5 8 -10 11 -10 2 0 4 5 4 10 0 6 -5 10 -11 10 -5 0 -7 -4 -4 -10z" />
<path d="M5020 2720 c0 -15 21 -23 32 -12 6 6 2 11 -11 15 -12 3 -21 1 -21 -3z" />
<path d="M4721 2594 c-1 -91 2 -113 14 -118 13 -5 15 12 15 112 0 70 -4 111 -9 103 -7 -11 -9 -11 -14 0 -3 8 -6 -36 -6 -97z" />
<path d="M4971 2614 c-19 -41 -48 -96 -65 -122 l-32 -47 108 0 108 0 0 30 c0 17 -3 61 -7 98 -5 57 -10 70 -27 77 -17 7 -18 9 -3 9 23 1 22 21 -2 21 -11 0 -25 2 -33 5 -8 3 -25 -21 -47 -71z m70 27 c23 -11 25 -18 27 -83 2 -39 4 -76 5 -82 1 -7 -27 -12 -81 -14 -46 -2 -82 1 -80 5 23 50 43 83 50 83 4 0 8 6 8 12 0 18 34 98 40 95 3 -1 16 -8 31 -16z" />
<path d="M3686 2633 c-23 -23 -34 -43 -31 -52 3 -9 3 -12 -1 -8 -9 9 -54 -56 -54 -77 0 -28 19 -17 39 22 11 21 40 61 65 89 40 44 48 63 26 63 -4 0 -23 -17 -44 -37z m28 2 c-4 -8 -11 -15 -16 -15 -6 0 -5 6 2 15 7 8 14 15 16 15 2 0 1 -7 -2 -15z" />
<path d="M4310 2593 c0 -2 11 -19 24 -36 13 -18 27 -42 31 -54 5 -19 35 -34 35 -18 0 20 -31 75 -40 70 -5 -3 -7 0 -4 8 3 8 -1 19 -8 23 -15 10 -38 14 -38 7z" />
<path d="M2845 2551 c-8 -14 25 -78 41 -78 18 0 18 0 -6 47 -22 42 -25 46 -35 31z" />
<path d="M4780 2384 c-25 -25 -70 -64 -100 -87 -73 -54 -81 -62 -45 -44 39 19 164 125 183 155 22 34 11 27 -38 -24z" />
<path d="M4807 2366 c-32 -33 -81 -78 -109 -98 -29 -21 -47 -38 -41 -38 31 0 227 181 212 194 -2 2 -30 -24 -62 -58z" />
<path d="M5093 2380 c0 -30 2 -43 4 -27 2 15 2 39 0 55 -2 15 -4 2 -4 -28z" />
<path d="M5123 2385 c0 -27 2 -38 4 -22 2 15 2 37 0 50 -2 12 -4 0 -4 -28z" />
<path d="M2650 2384 c0 -3 31 -51 69 -107 74 -108 170 -222 179 -212 3 3 -10 22 -29 43 -54 57 -111 130 -163 210 -44 67 -56 81 -56 66z" />
<path d="M2620 2375 c0 -4 33 -57 74 -119 70 -104 176 -232 176 -212 0 5 -19 30 -42 56 -59 64 -67 75 -138 181 -68 103 -70 106 -70 94z" />
<path d="M5070 2303 c-14 -9 -39 -26 -57 -37 -18 -11 -40 -38 -50 -59 -17 -39 -17 -39 8 -58 13 -10 33 -19 44 -19 28 0 105 37 105 50 0 6 -16 2 -37 -9 -99 -49 -114 -30 -23 28 34 22 57 42 53 44 -5 3 -35 -12 -67 -34 -32 -21 -62 -39 -67 -39 -23 0 -4 20 46 51 81 49 91 57 84 63 -3 4 -30 -9 -59 -29 -29 -20 -55 -33 -57 -31 -6 6 73 63 98 71 10 4 19 11 19 16 0 13 -11 11 -40 -8z" />
<path d="M5120 2290 c0 -5 5 -10 10 -10 6 0 10 5 10 10 0 6 -4 10 -10 10 -5 0 -10 -4 -10 -10z" />
<path d="M5130 2250 c0 -5 6 -10 14 -10 8 0 18 5 21 10 3 6 -3 10 -14 10 -12 0 -21 -4 -21 -10z" />
<path d="M5143 2110 c0 -30 2 -43 4 -27 2 15 2 39 0 55 -2 15 -4 2 -4 -28z" />
<path d="M5113 2105 c0 -27 2 -38 4 -22 2 15 2 37 0 50 -2 12 -4 0 -4 -28z" />
<path d="M2932 2057 c-29 -16 -18 -29 13 -15 19 8 34 5 81 -16 31 -14 55 -28 53 -30 -2 -2 -29 -15 -59 -28 l-55 -25 -60 28 -59 29 33 11 c20 7 29 15 23 21 -6 6 -23 2 -46 -8 l-36 -18 0 -101 0 -101 65 -32 c36 -18 72 -32 79 -32 8 0 44 14 80 31 l66 31 0 102 0 102 -65 32 c-73 36 -80 37 -113 19z m10 -128 c21 -11 46 -5 96 20 23 12 44 21 47 21 8 0 6 -133 -3 -147 -4 -6 -31 -23 -60 -38 l-54 -27 -51 22 c-77 33 -77 33 -77 122 l0 79 43 -22 c23 -12 50 -25 59 -30z" />
<path d="M5053 2015 l-73 -34 0 -108 0 -109 80 -36 80 -36 57 27 c32 16 68 31 81 35 21 7 22 12 22 117 l0 110 -77 34 c-42 20 -78 33 -81 30 -8 -8 -1 -12 66 -43 l62 -28 -65 -28 -65 -28 -66 28 -66 29 61 28 c34 15 61 32 61 37 0 13 7 15 -77 -25z m50 -101 c26 -14 27 -16 27 -105 0 -50 -4 -89 -8 -87 -4 2 -33 14 -65 27 l-57 25 0 92 0 93 38 -16 c20 -8 49 -22 65 -29z m172 -46 c-4 -46 -9 -86 -12 -90 -6 -11 -95 -49 -101 -44 -9 10 -3 159 7 169 6 6 11 7 11 2 0 -6 3 -6 8 0 10 14 65 44 81 45 10 0 12 -16 6 -82z" />
<path d="M5130 1996 c0 -14 5 -26 10 -26 6 0 10 9 10 19 0 11 -4 23 -10 26 -6 4 -10 -5 -10 -19z" />
<path d="M790 2355 c0 -3 8 -13 19 -24 10 -10 21 -25 23 -32 3 -8 9 -11 13 -7 10 9 -26 68 -42 68 -7 0 -13 -2 -13 -5z" />
<path d="M7446 2408 c-18 -25 -21 -58 -6 -58 6 0 10 9 10 20 0 11 9 25 20 32 23 15 26 28 6 28 -8 0 -22 -10 -30 -22z" />
<path d="M2132 2073 c2 -14 8 -28 14 -30 7 -2 9 8 6 27 -5 37 -25 40 -20 3z" />
<path d="M2232 2060 c-19 -32 -13 -47 8 -20 11 14 20 28 20 33 0 14 -15 7 -28 -13z" />
<path d="M2036 2021 c-6 -9 41 -37 49 -29 3 3 -6 13 -19 22 -14 8 -27 12 -30 7z" />
<path d="M2111 1994 c-43 -55 -11 -134 54 -134 47 0 64 8 81 42 31 61 -6 118 -77 118 -29 0 -43 -6 -58 -26z m103 -5 c59 -46 5 -137 -65 -109 -65 27 -44 125 27 129 6 1 23 -8 38 -20z" />
<path d="M2293 1983 c-13 -2 -23 -9 -23 -15 0 -5 7 -7 16 -4 9 3 22 6 30 6 8 0 14 5 14 10 0 6 -3 9 -7 9 -5 -1 -18 -4 -30 -6z" />
<path d="M2038 1913 c-10 -2 -18 -9 -18 -15 0 -5 7 -7 16 -4 9 3 22 6 30 6 9 0 12 5 9 10 -6 10 -9 11 -37 3z" />
<path d="M2260 1892 c0 -14 48 -43 54 -34 3 5 -8 16 -25 26 -16 9 -29 13 -29 8z" />
<path d="M2101 1834 c-13 -30 -14 -34 -3 -34 13 0 33 48 23 54 -4 3 -13 -6 -20 -20z" />
<path d="M2196 1813 c8 -32 12 -39 19 -31 9 8 -6 58 -16 58 -5 0 -6 -12 -3 -27z" />
<path d="M1155 2008 c-16 -17 -24 -27 -16 -23 9 6 12 4 7 -4 -4 -6 -11 -9 -16 -6 -5 3 -24 -4 -42 -14 -18 -11 -58 -27 -88 -35 -45 -12 -50 -15 -25 -17 l30 -1 -30 -8 c-21 -5 -24 -8 -9 -9 33 -2 115 30 107 41 -3 7 -1 8 6 4 17 -11 79 31 97 66 21 40 15 42 -21 6z" />
<path d="M5819 2021 c-23 -23 -29 -39 -29 -70 0 -46 -1 -45 34 -31 15 5 26 17 26 28 0 38 46 56 70 27 10 -12 9 -24 -8 -63 -19 -45 -20 -96 -2 -107 5 -3 19 -1 33 4 19 7 23 15 20 34 -3 13 2 38 11 55 42 80 4 152 -79 152 -38 0 -52 -5 -76 -29z m119 3 c39 -27 45 -59 22 -111 -11 -25 -20 -57 -20 -70 0 -15 -5 -23 -12 -20 -16 5 -15 52 2 93 25 58 -8 106 -61 89 -11 -4 -27 -22 -35 -41 -15 -35 -34 -46 -34 -19 0 30 26 68 55 81 40 18 56 17 83 -2z" />
<path d="M5925 1770 c-4 -12 -1 -27 5 -35 27 -33 78 -5 65 35 -4 14 -15 20 -35 20 -20 0 -31 -6 -35 -20z m52 -6 c7 -18 -17 -38 -31 -24 -11 11 -1 40 14 40 6 0 13 -7 17 -16z" />
<path d="M3871 1465 c-181 -41 -291 -146 -292 -279 -4 -274 506 -389 758 -172 126 109 107 284 -40 381 -111 72 -288 102 -426 70z m264 -20 c186 -48 296 -173 264 -300 -24 -94 -144 -188 -277 -216 -90 -18 -244 -7 -320 23 -213 87 -273 261 -133 391 26 25 63 53 82 63 97 50 270 68 384 39z" />
<path d="M3990 1209 c0 -148 0 -151 -20 -138 -10 8 -46 33 -80 57 -33 24 -60 38 -60 33 0 -16 162 -132 176 -127 25 10 164 117 164 127 0 12 -17 3 -97 -56 l-63 -46 0 150 c0 94 -4 151 -10 151 -6 0 -10 -57 -10 -151z" />
<path d="M0 3955 c0 -12 34 -14 228 -12 l227 2 -3 -40 c-5 -54 36 -167 61 -171 14 -2 17 2 11 14 -32 76 -45 119 -50 167 l-7 55 -233 0 c-198 0 -234 -2 -234 -15z" />
<path d="M1285 3958 c-2 -7 -7 -35 -10 -63 -4 -27 -15 -72 -26 -99 -10 -27 -15 -54 -12 -59 3 -6 1 -7 -5 -3 -7 4 -12 4 -12 -1 0 -4 -14 -23 -30 -42 -16 -18 -27 -37 -24 -42 3 -5 0 -8 -8 -7 -7 2 -12 -3 -10 -10 1 -8 -2 -11 -7 -8 -5 3 -20 -3 -34 -14 -14 -11 -56 -32 -94 -46 -59 -23 -79 -25 -153 -22 -110 6 -183 36 -253 103 -29 27 -55 50 -59 50 -3 0 -10 4 -15 9 -5 5 -2 6 6 1 9 -5 12 -3 9 5 -4 14 -38 23 -38 10 0 -29 134 -154 157 -146 9 4 11 1 7 -6 -5 -8 -2 -9 9 -5 10 4 16 2 14 -5 -3 -16 111 -50 151 -46 17 2 32 0 32 -4 0 -4 -4 -8 -10 -8 -6 0 -10 -65 -10 -175 l0 -175 -159 0 c-132 0 -160 -3 -165 -15 -5 -13 18 -15 167 -15 115 0 167 4 157 10 -12 8 -9 10 13 10 15 0 27 -4 27 -10 0 -6 61 -10 163 -10 l164 0 -5 -30 c-5 -38 27 -145 41 -131 7 7 6 24 -1 53 -35 136 -12 286 59 377 10 13 16 28 12 34 -3 5 -1 7 5 3 6 -3 19 5 30 19 11 14 25 25 32 25 6 0 9 4 6 9 -3 5 2 8 12 7 9 0 16 5 14 12 -1 8 2 11 8 7 5 -3 19 -1 30 5 23 12 28 42 5 34 -8 -4 -12 -10 -9 -15 3 -5 -1 -6 -8 -4 -18 7 -108 -53 -108 -72 0 -8 -4 -12 -9 -9 -8 5 -30 -23 -75 -97 -10 -16 -15 -35 -12 -43 3 -8 2 -12 -4 -9 -18 11 -40 -113 -25 -147 4 -11 3 -18 -4 -18 -6 0 -11 5 -11 10 0 6 -60 10 -160 10 l-160 0 0 178 0 177 61 12 c33 6 86 24 116 39 63 30 148 107 138 124 -3 6 -1 9 6 8 29 -7 109 195 95 240 -5 16 7 17 156 17 120 0 162 3 165 13 4 9 -34 12 -166 12 -129 0 -173 -3 -176 -12z m-48 -910 c-3 -7 -5 -2 -5 12 0 14 2 19 5 13 2 -7 2 -19 0 -25z" />
<path d="M6493 3954 c0 -13 14 -15 86 -12 l86 3 1 -55 c0 -39 8 -73 28 -115 36 -74 66 -116 79 -108 6 3 7 2 4 -4 -16 -25 136 -132 169 -119 8 3 12 2 9 -3 -6 -11 12 -17 78 -27 34 -4 47 -3 47 6 0 10 3 10 15 0 22 -18 98 -4 173 31 34 17 62 34 62 40 0 5 6 9 13 9 21 0 90 77 82 91 -5 7 -4 10 2 6 14 -9 46 40 39 59 -3 7 -1 13 5 11 12 -2 49 105 49 145 0 14 -5 28 -10 30 -6 2 69 3 165 3 l175 0 0 -182 c0 -158 2 -182 15 -177 13 5 15 35 15 183 l0 177 60 -4 c51 -4 60 -2 60 12 0 15 -24 16 -254 16 l-253 -1 -6 -66 c-6 -64 -42 -160 -73 -195 -9 -9 -13 -22 -8 -30 4 -7 4 -10 -1 -6 -4 4 -27 -9 -49 -30 -23 -21 -69 -52 -101 -68 -55 -26 -69 -29 -165 -29 -96 0 -110 2 -165 30 -33 16 -64 31 -70 34 -5 2 -3 -4 5 -15 14 -18 14 -18 -2 -5 -10 7 -16 17 -13 21 2 4 -12 22 -31 41 -64 61 -124 180 -124 246 0 13 -4 22 -8 19 -5 -3 -6 8 -4 25 l4 29 -94 0 c-79 0 -95 -3 -95 -16z m1380 -14 c-3 -11 -7 -20 -9 -20 -2 0 -4 9 -4 20 0 11 4 20 9 20 5 0 7 -9 4 -20z m-1135 -215 c-3 -3 -9 2 -12 12 -6 14 -5 15 5 6 7 -7 10 -15 7 -18z m172 -155 c8 -5 11 -10 5 -10 -5 0 -17 5 -25 10 -8 5 -10 10 -5 10 6 0 17 -5 25 -10z" />
<path d="M89 3898 c-7 -80 2 -318 12 -318 5 0 9 74 9 180 0 100 -4 180 -9 180 -5 0 -11 -19 -12 -42z" />
<path d="M20 3572 c-40 -18 -12 -27 83 -27 93 0 107 -3 161 -30 33 -16 81 -50 108 -73 26 -24 48 -41 48 -37 0 4 7 2 15 -5 22 -18 19 4 -3 23 -10 10 -22 14 -27 10 -4 -5 -5 -3 -2 3 9 16 -61 77 -79 70 -8 -3 -13 0 -11 6 4 23 -113 61 -198 64 -44 1 -87 0 -95 -4z" />
<path d="M5500 3325 c0 -102 3 -184 8 -184 19 3 33 -2 27 -11 -4 -7 50 -10 154 -10 l161 0 0 -27 c0 -39 53 -189 65 -185 14 4 10 27 -15 97 -31 87 -25 215 15 303 29 66 27 94 -5 52 -25 -33 -43 -86 -34 -101 4 -7 3 -9 -4 -5 -7 4 -13 -13 -17 -49 l-7 -55 -165 0 -164 0 3 175 c2 133 0 176 -9 180 -10 3 -13 -37 -13 -180z m367 -227 c-2 -18 -4 -6 -4 27 0 33 2 48 4 33 2 -15 2 -42 0 -60z" />
<path d="M420 3396 c0 -4 9 -19 20 -34 83 -113 80 -329 -6 -463 -16 -24 -27 -48 -25 -54 1 -5 -1 -7 -5 -3 -10 11 -35 -12 -27 -26 3 -6 3 -8 -1 -5 -4 4 -33 -9 -64 -27 -78 -47 -123 -59 -224 -59 -47 0 -81 -3 -75 -7 8 -5 7 -8 -3 -9 -20 -2 38 -16 70 -18 20 0 22 1 10 9 -12 8 -10 10 8 10 13 0 20 -4 17 -10 -8 -14 10 -12 73 4 60 16 140 56 191 95 48 36 134 169 128 198 -2 12 0 20 4 17 13 -8 19 54 16 151 -3 76 -9 101 -35 159 -18 38 -35 66 -39 63 -3 -4 -12 -2 -20 4 -7 6 -13 8 -13 5z m87 -158 c-3 -8 -6 -5 -6 6 -1 11 2 17 5 13 3 -3 4 -12 1 -19z" />
<path d="M3574 3325 c-6 -23 0 -45 10 -34 10 12 15 59 6 59 -5 0 -12 -11 -16 -25z" />
<path d="M3460 3321 c0 -5 9 -19 20 -32 22 -28 28 -6 6 24 -14 18 -26 22 -26 8z" />
<path d="M3658 3266 c-10 -7 -18 -16 -18 -20 0 -12 18 -6 41 14 28 22 6 28 -23 6z" />
<path d="M3496 3249 c-21 -16 -26 -29 -26 -64 0 -35 5 -48 26 -64 31 -24 81 -27 110 -6 19 13 27 12 73 -5 28 -11 51 -16 51 -11 0 5 -19 16 -42 23 -41 14 -43 17 -49 63 -9 79 -82 112 -143 64z m124 -39 c24 -58 -37 -115 -95 -88 -34 15 -49 58 -34 91 24 53 106 52 129 -3z" />
<path d="M3390 3221 c0 -10 50 -25 58 -16 8 7 1 11 -30 19 -16 3 -28 2 -28 -3z" />
<path d="M3660 3162 c0 -11 49 -26 58 -17 8 7 0 12 -31 20 -16 4 -27 3 -27 -3z" />
<path d="M3433 3118 c-20 -10 -32 -28 -18 -28 12 0 55 24 55 32 0 10 -9 9 -37 -4z" />
<path d="M5500 2951 l0 -180 -27 -4 c-24 -3 -23 -4 8 -6 19 0 40 -6 45 -11 6 -6 31 -12 56 -13 25 -1 44 -5 42 -8 -6 -10 45 -21 58 -13 7 4 8 3 4 -4 -4 -7 -1 -13 6 -14 7 0 18 -2 23 -2 6 -1 16 -5 23 -9 6 -5 12 -4 12 0 0 23 -123 72 -185 75 l-45 1 0 178 c0 108 -4 180 -10 184 -7 4 -10 -56 -10 -174z" />
<path d="M860 3005 c0 -87 3 -105 15 -105 12 0 15 18 15 105 0 87 -3 105 -15 105 -12 0 -15 -18 -15 -105z" />
<path d="M3610 3092 c0 -19 19 -52 30 -52 15 0 12 12 -10 40 -11 14 -20 19 -20 12z" />
<path d="M3517 3053 c-5 -27 -2 -41 7 -32 11 10 17 59 8 59 -5 0 -12 -12 -15 -27z" />
<path d="M7626 2786 c3 -9 11 -16 16 -16 13 0 5 23 -10 28 -7 2 -10 -2 -6 -12z" />
<path d="M7660 2769 c0 -5 4 -9 9 -9 4 0 20 -11 34 -24 56 -52 297 -56 297 -5 0 18 -3 18 -22 7 -14 -8 -58 -13 -113 -12 -76 0 -99 4 -147 26 -32 15 -58 23 -58 17z m97 -45 c-3 -3 -12 -4 -19 -1 -8 3 -5 6 6 6 11 1 17 -2 13 -5z" />
<path d="M6960 2751 c-41 -13 -90 -41 -90 -52 0 -6 -4 -7 -10 -4 -5 3 -10 -1 -10 -9 0 -21 -1 -21 65 14 31 17 63 30 71 30 8 0 14 7 14 15 0 16 -3 17 -40 6z" />
<path d="M88 2510 l3 -170 -46 0 c-25 0 -45 -4 -45 -9 0 -12 54 -21 58 -10 2 6 11 4 20 -3 9 -7 13 -8 9 -2 -4 7 0 17 8 24 20 17 22 340 3 340 -10 0 -12 -39 -10 -170z" />
<path d="M7852 2518 c2 -118 6 -162 16 -166 9 -3 12 34 12 162 0 142 -2 166 -15 166 -13 0 -15 -22 -13 -162z" />
<path d="M124 2325 c19 -19 75 -19 100 0 18 14 14 15 -48 15 -60 0 -66 -2 -52 -15z" />
<path d="M95 2293 c-12 -27 -8 -336 5 -328 5 3 11 1 15 -5 8 -12 -10 -13 -33 -1 -19 9 -82 -5 -82 -18 0 -5 40 -8 90 -8 66 1 90 5 90 14 0 7 -10 13 -22 13 -45 0 -47 7 -50 185 -2 123 -6 164 -13 148z" />
<path d="M6960 1929 c0 -5 5 -9 11 -9 5 0 8 -4 4 -9 -7 -13 78 -30 86 -18 12 17 19 -26 19 -116 0 -119 18 -104 22 18 l3 90 50 6 c70 9 95 18 95 35 0 15 -24 12 -78 -7 -35 -13 -113 -11 -165 5 -26 8 -47 10 -47 5z m67 -25 c-3 -3 -12 -4 -19 -1 -8 3 -5 6 6 6 11 1 17 -2 13 -5z m73 -14 c0 -5 -4 -10 -10 -10 -5 0 -10 5 -10 10 0 6 5 10 10 10 6 0 10 -4 10 -10z" />
<path d="M6970 1529 c0 -5 5 -7 10 -4 6 3 10 8 10 11 0 2 -4 4 -10 4 -5 0 -10 -5 -10 -11z" />
<path d="M2 1109 c6 -27 82 -38 92 -14 4 10 -1 15 -17 14 -12 0 -35 3 -50 7 -21 5 -27 3 -25 -7z" />
</g>
<defs><filter id="wobble"><feTurbulence type="turbulence" baseFrequency="0.015" numOctaves="3" seed="1"><animate attributeName="baseFrequency" values="0.015;0.02;0.015" dur="10s" repeatCount="indefinite" /></feTurbulence><feDisplacementMap scale="2" in="SourceGraphic" /></filter></defs></svg>