<svg xmlns="http://www.w3.org/2000/svg" viewBox="0 0 800 524"><path d="M225 5200c22-4 72-14 110-23 39-9 97-21 130-28 33-6 114-24 180-39 66-16 134-31 150-34 17-3 84-17 150-31 225-48 499-106 915-191 228-47 537-110 685-140 149-31 401-82 560-115 804-164 756-158 935-120 143 31 179 29 375-17 94-22 222-51 285-63 67-14 120-30 127-39 7-8 13-10 13-4 0 21-24 30-140 53-63 13-191 41-285 63-196 46-232 48-375 17-147-31-204-28-440 19-316 64-757 154-1055 216-148 30-457 93-685 140-416 85-690 143-915 191-66 14-133 28-150 31-16 3-86 18-155 34s-172 39-230 51-118 25-134 30-43 8-60 8c-28-1-27-2 9-9" style="--i:0" transform="matrix(.1 0 0 -.1 0 524)"/><path d="M5 4994c11-5 509-96 1575-290 772-140 996-180 1753-314 247-44 453-82 458-85 14-9 11-51-6-65-11-9-57-5-222 23-114 20-530 90-923 156s-796 134-895 151c-373 64-592 99-665 105-41 3-93 12-115 20-60 21-896 166-946 164-13 0 120-25 296-54 466-79 605-105 650-120 22-8 74-17 115-20 73-6 292-41 665-105 99-17 486-82 860-145s786-133 915-155 240-40 247-40c32 0 55 56 35 86-4 7-164 40-357 73-657 116-2118 380-3020 546-380 69-447 81-420 69" style="--i:1" transform="matrix(.1 0 0 -.1 0 524)"/><path d="M7870 4839c-68-11-127-22-131-27-4-4-29-395-55-869-47-841-49-862-69-865-11-2-98-2-192 0l-173 3v53c0 30 13 332 30 672 45 958 45 944 30 944-20 0-893-129-985-145-44-8-119-20-167-26-87-11-87-11-92-42-5-33-22-634-32-1112-3-148-7-280-10-292-4-22-9-23-142-26l-137-3 170-2c94-1 180-5 193-8 23-6 23-7 16-149-5-102-4-144 5-149 7-5 11-48 11-126 0-135-8-122 90-135 71-8 820-65 867-65 50 0 49-1 59 140 3 58 11 114 17 125 5 10 12 53 14 95 2 41 6 113 9 159l6 84 397-5c218-3 320-2 226 1l-170 6-3 36c-5 59 88 1683 97 1692 5 5 60 16 122 24 63 9 118 20 124 24 5 5 7 8 5 8-3-1-61-10-130-20m-563-226c-34-755-71-1528-72-1530-4-7-1063 14-1138 22l-62 7 2 101c2 56 7 264 13 462 5 198 13 473 16 612 4 138 10 257 14 263 3 6 53 17 111 24 57 8 133 20 169 26 88 16 899 137 929 139l24 1zm-239-1539 122-6-5-107c-10-176-12-195-23-221-5-14-13-76-17-138-6-87-11-115-22-119-25-10-905 58-955 73-16 5-18 19-18 119 0 65-4 116-10 120-11 7-13 92-4 212l7 82 401-5c221-2 456-7 524-10" style="--i:2" transform="matrix(.1 0 0 -.1 0 524)"/><path d="M4681 4522c81-21 154-43 163-51 9-7 16-24 16-36 0-13 7-25 15-29 8-3 15-1 15 4 0 6-4 10-10 10-5 0-10 11-10 24s-7 29-15 36c-16 13-276 81-304 79-9-1 50-17 130-37" style="--i:3" transform="matrix(.1 0 0 -.1 0 524)"/><path d="M5400 4465c-151-23-328-50-392-60-64-9-125-23-135-30-17-13-18-51-23-632l-5-618-85-6-85-5 88-2c48-1 87 1 87 6 0 4 57 4 127 0 71-3 156-6 191-7l62-1v-103c0-56-5-118-11-137s-12-69-13-110c-4-114-7-120-69-120-29 0-108 6-177 14s-168 17-220 21c-134 10-170 33-170 109 0 30-4 35-31 41-17 4-33 5-35 2-3-2 9-7 26-10 25-5 30-11 30-34 1-81 41-108 180-118 52-4 151-13 220-21s150-14 182-14c68 0 71 5 72 120 1 41 6 82 11 90s11 71 14 140l6 125 235-3c129-1 240 1 246 5 7 6 15 177 23 538 6 292 14 605 18 698l6 167-49-1c-27-1-173-20-324-44m356-132c-3-93-11-400-17-683s-12-521-15-528c-4-13-260-11-687 4l-179 7 4 608c3 524 5 610 18 623 15 15 747 133 839 135l44 1z" style="--i:4" transform="matrix(.1 0 0 -.1 0 524)"/><path d="M4255 4293c-162-25-293-50-298-56-12-17 2-961 14-966 18-6 60-56 65-78 4-13 10-23 15-23s9-6 9-12c0-7 6-25 14-40s22-53 31-85 21-60 26-63 10-17 11-30c2-18-3-26-24-34-40-14-47 0-33 69l6 30-15-32c-8-18-19-33-24-33-15 0-31 22-25 36 9 25-25 64-55 64-16 0-37 7-48 15-10 8-31 15-45 15-15 0-45 6-67 14-62 22-71 10-87-114-7-58-13-124-13-147-1-24-3-47-7-52-3-6 8-26 25-45s33-44 35-55c3-18 44-81 52-81 9 0 0 21-19 45-12 16-24 37-25 47-2 11-16 33-31 49-21 23-27 38-24 60 3 18 8 26 16 22 6-4 5 0-2 9-26 32 19 291 45 264 3-3 0-12-7-21-7-8-9-15-5-15s13 7 19 15c9 11 19 12 56 3 25-6 59-17 77-24 17-8 43-14 57-14s26-5 26-11c0-5-4-7-10-4-5 3-10 2-10-4 0-5 5-13 10-16 6-3 10-1 10 6s3 9 7 5 8-24 8-44c0-34 2-37 28-34 20 2 27-2 27-14 0-11-6-15-20-11-11 3-23 1-26-4s-11-9-17-8c-49 6-78-3-89-26-9-19-19-25-47-26l-36-2 35-6c31-5 37-3 52 21 10 16 23 28 30 28 65 2 176 14 191 21 9 6 17 16 17 24s3 14 8 14c32-5 41 22 25 79-5 21-11 23-44 20-34-3-39-1-39 17-1 11-9 38-20 60s-19 46-20 53c0 6-4 12-10 12-5 0-10 5-10 10 0 18-45 79-61 83-14 4-17 42-22 298-10 414-9 657 2 664 13 7 593 95 632 95h29l-2-592-3-592-32-8c-25-7-33-14-32-31 0-21 1-21 8-2 5 11 20 22 37 25l29 5 3 603 2 602-47-1c-27-1-178-21-338-46m-69-1287c8-35 2-59-18-62-12-1-18 4-18 17 0 10-4 19-9 19-10 0-21 36-13 44 3 3 16 6 28 6 17 0 25-7 30-24" style="--i:5" transform="matrix(.1 0 0 -.1 0 524)"/><path d="M504 4025c-4-8-2-46 2-83 7-54 13-67 28-70 11-2 26-10 34-18 7-8 21-14 31-14 9 0 23-6 30-12 11-10 13-10 7 0-5 8 0 12 13 12 10 0 22-6 24-12q6-15 6 0c1 9 12 11 39 8 28-5 31-4 12 2-14 5-52 10-85 11-41 1-64 6-72 17-6 9-20 17-30 18-14 2-20 16-27 65-5 37-5 66 0 71 10 10 375-18 412-31 19-7 22-16 22-64 0-65-10-73-76-58-25 6-46 7-49 4-4-8 32-14 90-15l40-1 3 64c2 35-1 68-6 73-9 9-67 15-375 43-56 5-68 4-73-10" style="--i:6" transform="matrix(.1 0 0 -.1 0 524)"/><path d="M1753 3879c1-40 6-53 22-61 11-6 22-15 25-19 9-13 120-67 120-58 0 4 7 15 16 23 13 13 13 16 1 16-8 0-26 10-41 21-15 12-29 19-32 16s9-15 25-27c17-12 31-25 31-30 0-13-92 28-113 51-10 10-23 19-30 19s-14 12-15 26c-1 20 2 25 13 20 20-7 19 4-2 20-10 7-15 15-11 19 10 11 310-17 313-29 2-6 6-33 8-59 5-55-14-75-38-39-9 12-31 22-61 27-26 3-54 9-63 12-14 4-14 3-1-6 8-6 34-13 58-17 26-4 48-14 55-25 13-21 56-26 58-6 3 25-3 122-8 127s-238 28-295 29l-37 1z" style="--i:7" transform="matrix(.1 0 0 -.1 0 524)"/><path d="M3536 3894c-9-25-7-83 4-105 8-14 21-19 55-19h45v60c0 56-2 61-26 70-38 15-71 12-78-6m75-4c15-8 19-22 19-60 0-50 0-50-33-50-18 0-38 5-45 12-13 13-17 90-5 101 10 10 42 8 64-3" style="--i:8" transform="matrix(.1 0 0 -.1 0 524)"/><path d="M600 3880c-18-6-11-7 25-7 60 1 120-10 149-27 13-8 32-10 51-5 29 7 29 7-7 6-20 0-42 4-50 10-26 21-126 35-168 23" style="--i:9" transform="matrix(.1 0 0 -.1 0 524)"/><path d="M525 3790c-9-15 4-212 15-231 5-8 6 11 2 46-4 33-7 87-7 120v60l90-3c171-6 329-22 337-35 16-25 8-87-13-108-19-19-22-19-38-5-9 8-46 18-83 22-54 5-72 3-93-10-21-14-34-15-73-7-104 22-109 23-68 7 70-26 114-30 143-11 20 14 38 16 89 10 36-4 68-13 75-21 8-9 21-13 35-10 13 4 26 1 30-5 12-20 17-239 5-239-6 0-11-10-10-22 0-22 1-22 8-3l8 20 6-20c3-11 5 42 3 118-1 82-7 142-13 148-8 8-8 20-1 41 9 26 6 103-4 113-3 4-148 16-350 30-59 4-88 2-93-5" style="--i:10" transform="matrix(.1 0 0 -.1 0 524)"/><path d="M2035 3703c50-8 55-18 55-109v-84h-139c-120 0-140-2-145-16s-4-15 8-5c9 8 56 11 147 9l134-3 1-128c1-70 4-131 8-134 8-8 8-66 0-87s-26-20-75 3c-28 14-37 16-29 5 7-7 20-14 29-15s5-4-9-8c-18-6-9-8 32-8 38-1 58 3 62 12 2 7 0 134-6 282-11 294-11 295-72 292l-31-2z" style="--i:11" transform="matrix(.1 0 0 -.1 0 524)"/><path d="M665 3548c-16-5-50-10-75-11l-45-2-3-67c-2-38 1-68 5-68s6-23 4-52c-4-66 9-238 18-238 4 0 4 24 0 53-4 28-8 75-8 102l-1 51 213-4c116-2 214-6 216-8s6-49 9-104l5-100h-66c-55 0-68 3-76 19-6 10-7 21-4 25 3 3 0 6-8 7-9 0-6 4 6 10 17 8 16 8-7 4-15-3-30-1-33 5-3 5-11 10-17 10s-1-8 10-19c12-10 18-22 14-26-4-5-2-5 5-1 10 6 33-21 33-38 0-3-68-6-151-6H557l8-42c4-24 10-72 14-108l6-65 215 3c118 1 218 6 222 10 7 7-2 189-18 370l-6 62H832c-92 0-190 3-219 6-49 6-52 8-51 36 1 35 2 35 90 42 60 5 69 3 78-14 6-11 18-20 27-20 15 0 15 2-2 13-24 18-8 27 41 23 45-3 82-23 90-48 3-10 9-18 14-18 4 0 3 11-3 24-13 27-69 58-91 50-7-3-20 2-29 10-9 10-17 12-19 5-2-6-48-12-106-15l-103-5 3 58 3 58 35 1c19 0 54 6 77 13 23 6 55 9 70 5 22-4 25-3 13 5-18 13-45 13-85-1m348-550c3-51 2-96-2-100-4-5-99-9-211-10l-205-3-6 60c-4 33-10 77-14 97l-7 37 148 4c82 1 181 4 220 5l71 2z" style="--i:12" transform="matrix(.1 0 0 -.1 0 524)"/><path d="M610 2906c0-2 7-7 16-10 8-3 12-2 9 4-6 10-25 14-25 6" style="--i:13" transform="matrix(.1 0 0 -.1 0 524)"/><path d="M707 3512c11-9 23-26 25-36 1-11 8-21 15-23 14-5-14 58-31 69-22 15-30 7-9-10" style="--i:14" transform="matrix(.1 0 0 -.1 0 524)"/><path d="M825 3523c-11-3-27-11-35-18s-22-14-29-17c-12-3-12-6 2-11 11-4 20 0 27 13 15 28 89 37 131 16 18-9 34-14 37-11s-11 12-31 20c-36 15-64 17-102 8" style="--i:15" transform="matrix(.1 0 0 -.1 0 524)"/><path d="M1776 3308c5-229 10-347 15-352 2-2 22-6 44-9 26-4 35-3 25 3-8 5-11 12-7 16s15 0 25-9c23-21 70-21 96-2 15 11 23 12 40 3 11-7 36-13 53-15 38-3 53 17 53 71 0 28-4 36-17 35-11 0-13-3-5-6 14-6 16-47 2-73-11-21-51-22-86-2-17 9-25 8-40-3-25-19-64-19-93 1-17 12-26 13-34 5-34-34-57 2-57 90v39l68 2c118 3 130 0 167-40 19-20 35-46 35-57 0-16 2-17 10-5 10 17 6 25-39 75l-33 38-99-1c-72-1-101 2-104 11-2 6-5 50-8 95-3 67-1 85 11 90 8 3 22 1 31-5 9-5 23-7 31-5 9 3-4 11-30 17l-45 11v71c0 39-3 74-6 77s-4-71-3-166" style="--i:16" transform="matrix(.1 0 0 -.1 0 524)"/><path d="M4142 3303c-13-3-25-10-27-16-3-7-1-64 5-127l9-115-4 118-4 118 25 9c14 6 72 10 129 10h103l6-77c4-43 8-92 11-110 4-35-6-47-47-57-17-4-28-13-28-23 0-9-8-25-17-35-15-17-15-18-1-13 9 4 21 20 27 36 6 19 17 29 30 29 30 0 51 27 46 58-2 15-7 66-11 115l-6 87-111-1c-62-1-122-4-135-6" style="--i:17" transform="matrix(.1 0 0 -.1 0 524)"/><path d="M4432 3230c3-34 12-55 26-67s30-53 48-125c15-59 25-110 22-113s-34-3-70 1c-57 6-64 9-64 28 1 19-4 21-44 18-28-2-53-11-67-25-13-11-23-16-24-11 0 5-5-2-11-16l-10-25-13 28c-11 28-12 27-11-20 0-26 2-40 4-30 2 9 7 17 12 17 4 0 25 16 46 35 22 19 46 35 54 35s26 3 39 7c22 6 23 4 17-23-4-16-8-33-9-37-1-5 8-13 21-18s22-5 22 1-9 10-21 10-17 4-13 11c4 8 30 9 80 4 73-7 74-6 74 17-1 49-58 229-79 249-14 13-21 32-21 54 0 30 3 35 25 35 21 0 26-8 44-67 49-167 62-230 52-257-6-14-7-26-2-26 4 0 7-12 5-27-3-26-3-26 4-4 15 48 4 134-34 261l-37 130h-70z" style="--i:18" transform="matrix(.1 0 0 -.1 0 524)"/><path d="M4275 3192c3-33 26-114 36-126 9-10-15 86-26 104-4 6 0 19 9 29 14 15 14 17-3 18-13 1-17-5-16-25" style="--i:19" transform="matrix(.1 0 0 -.1 0 524)"/><path d="M1905 3180c-3-5-24-10-45-10s-41-3-43-7c-7-12 86-2 101 10 9 7 16 7 24-1 7-7 19-12 28-12 9 1 6 6-10 15-30 17-47 19-55 5" style="--i:20" transform="matrix(.1 0 0 -.1 0 524)"/><path d="M596 3121c-2-3 38-6 90-6 61 0 85 3 67 8-32 8-152 7-157-2" style="--i:21" transform="matrix(.1 0 0 -.1 0 524)"/><path d="M4216 3034c-11-28-6-64 7-64 19 0 57 43 57 63 0 23-55 24-64 1m54-2c0-5-11-19-25-32l-25-23v25c0 13 3 28 7 31 9 10 43 9 43-1" style="--i:22" transform="matrix(.1 0 0 -.1 0 524)"/><path d="M4884 2864c-16-7-39-24-52-39-24-28-45-27-87 1-11 8-29 14-42 14-12 0-34 5-48 12-16 7-29 8-35 2s-3-10 8-12c60-6 99-16 112-27 14-13 48-20 81-17 9 1 21 13 28 25 22 41 57 46 141 21 53-17 83-32 103-54 15-17 27-26 27-21 0 13-51 73-57 67-3-3-17 0-32 6-70 27-117 34-147 22" style="--i:23" transform="matrix(.1 0 0 -.1 0 524)"/><path d="M4230 2845c-6-7-26-16-45-19-19-4-35-12-35-18s7-7 18-3c9 4 26 10 37 13 11 2 25 9 31 14 7 5 38 6 70 4 33-3 48-3 34 0s-42 9-62 14c-27 5-40 4-48-5" style="--i:24" transform="matrix(.1 0 0 -.1 0 524)"/><path d="M5542 2260c-28-12-40-39-21-51 17-11 130-12 144-1 18 12 11 33-15 47-28 16-74 18-108 5m102-15c29-22 9-35-54-35-66 0-81 11-48 34 28 20 77 20 102 1" style="--i:25" transform="matrix(.1 0 0 -.1 0 524)"/><path d="M1845 2241c-24-5-31-12-33-35-5-40 9-50 63-42 46 7 46 7 43 44-3 40-16 46-73 33m63-33c3-24-1-28-33-34-40-7-59 4-53 32 3 18 39 34 68 31 8-1 16-14 18-29" style="--i:26" transform="matrix(.1 0 0 -.1 0 524)"/><path d="M1623 2210c-15-6-23-18-23-32 0-43 13-51 69-43l51 7v39c0 39 0 39-37 38-21 0-48-4-60-9m87-29c0-26-4-30-40-36-45-8-60-2-60 25 0 24 26 39 68 40 29 0 32-3 32-29" style="--i:27" transform="matrix(.1 0 0 -.1 0 524)"/><path d="M5433 1980c54-10 60-24 7-16-31 4-40 3-30-4 23-15 80-13 80 4 0 15-31 26-70 25-18-1-14-3 13-9" style="--i:28" transform="matrix(.1 0 0 -.1 0 524)"/></svg>