<svg version="1.0" xmlns="http://www.w3.org/2000/svg" viewBox="0 0 800.000000 524.000000"
 preserveAspectRatio="xMidYMid meet"><style>@keyframes wobble{0%,100%{transform:translate(0,0) rotate(0deg)}25%{transform:translate(2px,-1.5px) rotate(0.3deg)}50%{transform:translate(-1.5px,2px) rotate(-0.3deg)}75%{transform:translate(-2px,-1px) rotate(0.15deg)}}.wobble{animation:wobble 8s ease-in-out infinite}@media(prefers-reduced-motion:reduce){.wobble{animation:none}}</style>
<metadata>
Created by potrace 1.16, written by Peter Selinger 2001-2019
</metadata>
<g class="wobble"><g transform="translate(0.000000,524.000000) scale(0.100000,-0.100000)"
fill="#000000" stroke="none">
<path d="M1901 5236 c2 -2 20 -6 39 -10 25 -4 31 -3 20 4 -14 9 -69 15 -59 6z"/>
<path d="M4698 5233 c6 -2 18 -2 25 0 6 3 1 5 -13 5 -14 0 -19 -2 -12 -5z"/>
<path d="M72 5225 c4 -5 108 -29 173 -41 44 -8 350 -74 520 -113 99 -22 196
-43 215 -46 19 -3 64 -13 100 -21 36 -8 117 -26 180 -39 63 -13 198 -42 300
-64 102 -21 201 -41 220 -44 19 -3 82 -15 140 -27 58 -12 116 -24 130 -26 14
-3 43 -10 65 -15 22 -5 191 -41 375 -79 184 -38 367 -76 405 -85 39 -8 140
-29 225 -46 85 -16 207 -41 270 -55 233 -51 334 -72 464 -95 27 -4 50 -10 52
-11 3 -4 15 -661 18 -981 l1 -179 -61 7 c-44 4 -63 3 -71 -7 -18 -21 -43 -100
-43 -136 0 -18 -6 -35 -14 -38 -9 -3 -16 -33 -21 -87 -5 -45 -9 -84 -10 -87
-1 -3 -5 -37 -9 -76 -7 -65 -6 -74 19 -120 36 -64 48 -77 39 -40 -5 21 -4 27
5 22 6 -4 11 -2 11 3 0 6 -7 11 -15 11 -8 0 -15 6 -15 13 0 7 -9 21 -21 30
-11 10 -18 21 -15 24 3 4 14 -1 24 -11 11 -9 40 -18 68 -20 27 -2 67 -7 89
-11 36 -7 39 -7 27 8 -8 9 -10 22 -6 28 5 8 3 9 -5 5 -7 -5 -10 -15 -7 -23 4
-9 2 -11 -7 -6 -6 4 -20 8 -30 8 -10 0 -22 7 -27 15 -7 11 -10 12 -10 2 0 -17
-72 -10 -78 7 -2 6 -8 9 -13 5 -5 -3 -12 2 -15 10 -9 23 27 269 41 285 10 10
20 11 47 2 19 -6 50 -13 67 -16 18 -2 38 -8 44 -13 7 -5 25 -12 41 -16 l29 -7
-7 50 c-7 53 9 141 26 141 6 0 7 -7 4 -16 -3 -9 -8 -34 -11 -57 l-5 -42 11 43
c6 23 14 42 19 42 5 0 4 -14 -1 -32 -13 -47 -10 -58 6 -23 l15 30 -5 -30 c-3
-16 -8 -41 -11 -55 -3 -19 -1 -17 8 7 7 17 17 35 22 40 11 10 -2 -33 -21 -72
-18 -35 -25 -108 -11 -99 6 4 7 -2 3 -16 -5 -16 -4 -20 4 -15 8 5 10 -1 5 -19
-5 -23 -3 -25 33 -29 24 -2 15 -4 -29 -5 -36 -1 -75 -5 -85 -8 -15 -5 -15 -4
-3 5 13 9 12 11 -6 11 -13 0 -24 -8 -27 -19 -4 -15 2 -20 32 -25 53 -9 111 -7
111 3 0 5 9 11 21 14 15 4 19 2 15 -8 -6 -16 58 -29 110 -23 29 3 49 38 22 38
-10 0 -12 12 -9 48 3 26 6 39 9 30 2 -10 8 -18 13 -18 5 0 8 4 6 8 -1 4 15 23
36 41 22 20 37 42 37 56 0 18 7 24 39 29 l38 6 -5 122 c-2 68 -5 123 -6 124 0
0 -61 -1 -135 -4 l-133 -4 3 -127 c4 -115 3 -126 -14 -129 -16 -3 -17 -1 -7
17 8 16 8 21 -1 21 -6 0 -8 7 -5 16 4 12 2 15 -9 10 -18 -6 -19 -2 -4 26 10
18 9 20 -6 14 -14 -5 -16 -2 -12 15 4 15 2 19 -9 15 -12 -4 -14 -1 -9 14 4 14
2 20 -9 20 -10 0 -13 6 -9 17 5 13 2 15 -11 10 -14 -6 -16 -3 -11 13 5 16 2
20 -19 20 l-26 0 -1 475 c-1 261 -2 481 -3 487 -1 8 21 16 59 21 33 4 179 26
324 48 145 21 272 39 282 39 18 0 19 -20 19 -605 l0 -605 -35 0 c-34 0 -35 -1
-36 -37 0 -21 -4 -47 -9 -58 -7 -17 -9 -16 -9 11 -1 16 -12 68 -26 115 -13 46
-25 92 -25 102 0 13 -8 17 -35 17 -28 0 -35 -4 -35 -19 0 -43 14 -84 30 -88
12 -3 26 -39 51 -129 18 -68 38 -124 45 -124 7 0 13 33 17 90 3 49 9 95 13
101 7 12 226 9 508 -7 l115 -7 4 -101 3 -101 2 106 2 106 -77 7 c-42 3 -126 6
-186 6 l-110 0 6 626 c4 345 8 629 10 631 4 3 348 56 742 114 77 12 144 22
149 22 10 2 10 -46 -8 -838 -7 -302 -11 -552 -9 -554 2 -2 5 -2 7 0 3 2 9 213
15 469 6 256 14 565 17 687 8 248 5 259 -50 249 -17 -3 -107 -17 -201 -31
-381 -57 -637 -95 -640 -95 -2 0 -6 17 -8 38 l-4 37 -1 -42 c-3 -69 -12 -69
-292 -5 -339 78 -403 92 -408 87 -3 -3 2 -5 11 -5 9 0 17 -4 17 -9 0 -5 -21
-11 -47 -14 -27 -2 -86 -12 -133 -21 -101 -21 -185 -16 -352 20 -40 9 -104 22
-143 29 -38 7 -203 40 -365 73 -558 115 -826 171 -1115 231 -159 33 -337 70
-395 82 -58 12 -195 41 -305 65 -110 23 -236 49 -280 58 -44 8 -172 36 -285
61 -113 25 -239 52 -280 61 -41 8 -148 31 -237 50 -156 33 -202 40 -191 29z
m4298 -765 c269 -60 418 -90 443 -90 l27 0 -2 -437 c-1 -241 -4 -520 -6 -621
l-3 -183 -86 3 -86 3 -3 604 c-2 340 -7 608 -12 613 -10 10 -678 -85 -690 -97
-4 -4 -9 -122 -12 -263 l-6 -257 -2 351 -2 351 53 7 c28 3 77 11 107 17 83 17
153 26 170 23 8 -2 58 -13 110 -24z m-433 -772 c-3 -8 -6 -5 -6 6 -1 11 2 17
5 13 3 -3 4 -12 1 -19z m10 -170 c-2 -13 -4 -5 -4 17 -1 22 1 32 4 23 2 -10 2
-28 0 -40z m0 -210 c-2 -29 -3 -6 -3 52 0 58 1 81 3 53 2 -29 2 -77 0 -105z
m423 -123 c0 -62 -4 -105 -10 -105 -5 0 -9 8 -8 18 1 9 0 35 -1 57 -1 33 -4
37 -12 22 -5 -9 -7 -21 -4 -26 9 -16 -7 -92 -19 -88 -10 3 -11 60 -1 143 1 13
-2 24 -6 24 -5 0 -9 -20 -9 -45 0 -25 -4 -45 -10 -45 -5 0 -10 23 -10 50 0 47
-11 63 -26 39 -3 -6 -1 -15 6 -19 9 -6 6 -11 -11 -20 l-23 -13 24 -9 c20 -7
22 -11 10 -19 -13 -8 -13 -10 -1 -18 8 -5 19 -7 26 -5 8 3 10 -5 7 -26 -5 -38
-22 -50 -22 -16 0 14 -5 26 -10 26 -6 0 -8 -11 -4 -25 4 -15 2 -25 -5 -25 -6
0 -13 11 -17 25 -3 14 -10 22 -15 20 -4 -3 -6 -12 -2 -20 3 -8 3 -21 0 -29 -5
-12 -12 -13 -35 -4 -26 10 -30 18 -36 62 -3 28 -6 77 -6 108 l0 57 83 4 c45 1
97 4 115 5 l32 2 0 -105z m-463 64 c24 1 52 -3 63 -9 17 -9 18 -14 9 -32 -7
-12 -12 -50 -13 -85 -1 -66 -5 -71 -48 -54 -13 5 -53 18 -90 28 -38 10 -68 23
-68 29 0 6 7 34 15 62 17 55 38 75 70 65 11 -3 39 -5 62 -4z m571 -25 c8 -26
8 -34 -1 -31 -13 4 -29 67 -17 67 3 0 12 -16 18 -36z m-412 -160 c-5 -18 -3
-24 5 -19 8 5 9 0 4 -16 -4 -13 -12 -25 -16 -27 -5 -2 -9 -19 -9 -38 0 -21 4
-33 10 -29 6 3 10 19 10 36 0 31 6 35 30 19 9 -6 11 -10 3 -10 -14 0 -6 -28
13 -47 10 -10 16 -7 28 19 20 39 20 44 1 28 -21 -17 -31 -5 -14 17 12 15 12
16 -3 10 -20 -7 -21 -6 -12 17 4 10 18 16 39 16 33 0 33 0 37 -55 3 -53 2 -54
-21 -48 -20 5 -23 3 -18 -11 4 -10 7 -22 7 -28 0 -7 5 -6 14 1 10 9 16 9 21 1
4 -6 4 -14 1 -17 -3 -4 1 -15 11 -25 15 -17 15 -18 0 -18 -30 0 -32 1 -30 20
2 11 -5 21 -17 25 -11 4 -18 11 -15 16 4 5 2 9 -4 9 -5 0 -12 -4 -15 -8 -3 -5
-22 -9 -44 -10 l-38 -2 -2 73 c-3 68 9 127 24 127 3 0 3 -12 0 -26z m224 -18
c0 -2 3 -11 6 -20 3 -9 1 -16 -6 -16 -6 0 -8 6 -5 13 4 6 -9 -6 -29 -28 -19
-22 -37 -37 -39 -35 -2 3 -2 24 1 48 4 40 5 42 38 42 19 0 34 -2 34 -4z m-135
-186 c-3 -5 -15 -10 -26 -10 -10 0 -19 5 -19 10 0 6 12 10 26 10 14 0 23 -4
19 -10z"/>
<path d="M4165 3090 c3 -5 11 -10 16 -10 6 0 7 5 4 10 -3 6 -11 10 -16 10 -6
0 -7 -4 -4 -10z"/>
<path d="M3900 3221 c0 -4 11 -6 25 -3 14 2 25 6 25 8 0 2 -11 4 -25 4 -14 0
-25 -4 -25 -9z"/>
<path d="M4060 2920 c0 -5 5 -10 10 -10 6 0 10 5 10 10 0 6 -4 10 -10 10 -5 0
-10 -4 -10 -10z"/>
<path d="M1310 5220 c8 -5 26 -10 39 -10 32 0 24 6 -19 14 -25 4 -31 3 -20 -4z"/>
<path d="M1395 5201 c11 -4 36 -11 55 -15 24 -4 29 -3 15 3 -11 4 -36 11 -55
15 -24 4 -29 3 -15 -3z"/>
<path d="M2055 5200 c19 -8 73 -14 64 -6 -2 2 -22 6 -44 9 -28 5 -34 4 -20 -3z"/>
<path d="M4755 5191 c6 -5 51 -26 100 -46 50 -19 113 -45 140 -56 81 -33 37
-5 -55 35 -105 46 -198 80 -185 67z"/>
<path d="M7820 5154 c-96 -18 -185 -34 -197 -34 -13 0 -23 -5 -23 -10 0 -6 10
-8 23 -6 12 3 74 15 137 26 220 39 240 44 240 52 0 4 -1 8 -2 7 -2 0 -82 -16
-178 -35z"/>
<path d="M1498 5173 c7 -3 16 -2 19 1 4 3 -2 6 -13 5 -11 0 -14 -3 -6 -6z"/>
<path d="M1578 5153 c7 -3 16 -2 19 1 4 3 -2 6 -13 5 -11 0 -14 -3 -6 -6z"/>
<path d="M1618 5143 c7 -3 16 -2 19 1 4 3 -2 6 -13 5 -11 0 -14 -3 -6 -6z"/>
<path d="M1658 5133 c6 -2 18 -2 25 0 6 3 1 5 -13 5 -14 0 -19 -2 -12 -5z"/>
<path d="M2308 5133 c7 -3 16 -2 19 1 4 3 -2 6 -13 5 -11 0 -14 -3 -6 -6z"/>
<path d="M7535 5100 c-22 -4 -132 -23 -245 -43 -113 -20 -293 -52 -400 -72
-107 -20 -217 -40 -245 -45 -27 -5 -124 -23 -215 -40 -340 -63 -343 -63 -385
-46 -21 9 -40 14 -43 12 -4 -5 1 -8 163 -75 155 -65 150 -61 153 -124 l3 -55
-48 -7 c-34 -4 -62 -1 -93 10 -129 46 -154 55 -157 52 -2 -2 28 -16 67 -32 38
-15 70 -32 70 -36 0 -4 -23 -10 -50 -14 -40 -6 -51 -11 -55 -28 -2 -12 -9
-179 -15 -372 -32 -1101 -32 -1081 -16 -1064 2 2 7 130 10 284 3 154 8 318 11
365 2 47 7 213 10 370 3 157 8 317 11 355 l6 71 156 22 c87 12 366 53 622 91
256 38 466 68 468 66 3 -2 -7 -233 -43 -970 -8 -165 -17 -361 -20 -435 -3 -74
-8 -163 -11 -197 -3 -38 -2 -63 4 -63 10 0 17 86 27 310 20 447 55 1226 58
1282 2 36 0 72 -4 80 -7 11 -57 6 -271 -26 -145 -21 -276 -40 -293 -42 -53 -7
-238 -34 -295 -43 -30 -5 -74 -12 -97 -15 l-43 -6 0 49 c0 42 -4 53 -26 70
-15 12 -32 21 -38 21 -6 0 -42 16 -80 34 l-70 33 35 6 c19 3 57 10 84 16 28 5
113 21 190 35 77 14 228 41 335 61 107 20 256 47 330 60 74 13 196 36 270 51
74 14 154 28 178 31 23 3 45 10 48 14 3 5 2 8 -3 8 -4 -1 -26 -5 -48 -9z"/>
<path d="M1880 5077 c14 -7 44 -14 65 -14 33 -1 36 0 15 6 -14 5 -43 11 -65
15 -38 7 -39 6 -15 -7z"/>
<path d="M4116 5065 c4 -8 10 -15 15 -15 4 0 6 7 3 15 -4 8 -10 15 -15 15 -4
0 -6 -7 -3 -15z"/>
<path d="M1985 5050 c-8 -12 20 -24 35 -15 6 3 8 11 5 16 -8 12 -32 12 -40 -1z"/>
<path d="M3290 5018 c-74 -22 -164 -47 -200 -56 -54 -13 -61 -17 -40 -22 14
-4 32 -4 40 0 8 4 93 29 188 55 94 27 172 52 172 57 0 12 -15 9 -160 -34z"/>
<path d="M5682 5030 c0 -19 2 -27 5 -17 2 9 2 25 0 35 -3 9 -5 1 -5 -18z"/>
<path d="M2062 5035 c15 -9 39 -16 53 -17 14 -1 25 -5 25 -9 0 -4 44 -15 98
-24 53 -10 102 -21 107 -25 6 -3 29 -12 53 -18 23 -7 59 -17 80 -23 21 -6 51
-12 67 -12 17 -1 32 -5 35 -8 5 -7 51 -18 95 -23 11 -1 33 -8 48 -14 18 -8 40
-9 60 -4 l32 8 -30 8 c-18 5 -31 4 -33 -3 -2 -7 -8 -6 -17 2 -13 13 -58 25
-400 107 -93 22 -195 47 -226 55 -69 19 -82 18 -47 0z"/>
<path d="M0 5009 c0 -10 19 -15 100 -29 36 -6 110 -20 165 -30 55 -11 141 -27
190 -36 50 -9 135 -24 190 -34 311 -58 1632 -297 2180 -395 143 -25 332 -59
420 -75 88 -16 241 -43 340 -60 99 -17 187 -33 196 -36 11 -3 18 -18 21 -44 5
-56 10 -56 -332 0 -129 21 -313 50 -408 65 -116 19 -169 31 -160 37 9 6 5 7
-11 2 -31 -8 -327 38 -303 48 9 4 -3 5 -28 2 -34 -3 -40 -2 -25 6 15 7 7 8
-30 5 -37 -4 -45 -3 -30 5 15 7 5 8 -35 5 -39 -4 -49 -3 -35 4 15 7 7 9 -30 6
-40 -4 -45 -3 -25 5 22 9 21 9 -9 5 -19 -3 -57 -2 -85 2 -48 7 -49 7 -21 15
24 6 23 6 -10 3 -22 -3 -89 3 -150 12 -89 14 -104 19 -80 25 21 5 17 6 -16 2
-25 -2 -85 2 -135 10 -49 9 -190 32 -314 51 -124 20 -272 45 -330 56 -58 10
-148 25 -200 33 -126 20 -937 155 -972 162 -16 3 -28 1 -28 -5 0 -5 8 -9 18
-9 9 0 46 -5 82 -11 64 -12 235 -40 275 -45 11 -2 34 -6 50 -10 17 -3 44 -9
60 -11 17 -3 41 -7 55 -10 14 -2 72 -12 130 -20 58 -9 164 -27 235 -40 72 -13
144 -26 160 -29 17 -2 50 -7 75 -11 25 -4 81 -13 125 -21 44 -8 96 -16 115
-18 19 -3 69 -11 110 -19 41 -8 108 -20 147 -26 40 -6 106 -16 145 -22 40 -6
147 -24 238 -39 149 -25 250 -42 335 -56 17 -2 55 -9 85 -14 30 -5 84 -14 120
-19 36 -5 133 -21 215 -36 83 -15 177 -30 210 -35 33 -4 148 -22 255 -40 107
-18 267 -44 355 -59 88 -15 174 -24 190 -21 28 5 30 8 33 54 2 31 -2 54 -11
65 -8 9 -17 23 -20 31 -4 10 -6 7 -6 -7 -1 -13 -5 -23 -11 -23 -5 0 -10 10
-10 23 0 16 -3 19 -9 8 -10 -16 -27 -14 -211 18 -63 11 -182 31 -265 46 -201
34 -193 32 -198 58 l-4 22 -2 -22 c-2 -33 -21 -28 -22 5 -2 23 -2 24 -6 5 -2
-13 -8 -23 -12 -23 -5 0 -84 14 -177 30 -93 17 -245 44 -339 60 -93 17 -206
37 -250 45 -44 8 -91 16 -105 17 -18 2 -26 10 -28 26 -3 22 -5 22 -16 6 -15
-20 9 -23 -431 55 -226 40 -310 56 -570 105 -71 13 -149 27 -172 31 -38 6 -43
10 -44 33 -2 25 -2 25 -6 4 -4 -21 -8 -23 -46 -18 -39 6 -208 35 -322 56 -27
5 -99 19 -160 30 -60 11 -146 27 -190 35 -44 8 -101 18 -127 23 -27 5 -48 6
-48 1z"/>
<path d="M3355 4979 c-14 -6 -8 -7 22 -3 38 5 43 3 56 -22 l14 -27 -1 31 c-1
30 -3 32 -36 31 -19 0 -44 -5 -55 -10z"/>
<path d="M3467 4973 c-4 -3 -7 -13 -7 -21 0 -12 3 -12 15 -2 8 7 15 16 15 21
0 11 -14 12 -23 2z"/>
<path d="M3492 4957 c-9 -10 3 -13 56 -13 66 0 122 -18 106 -34 -13 -11 -67
-22 -61 -13 3 5 -3 9 -13 9 -14 0 -16 -3 -8 -13 15 -19 -2 -16 -24 4 -19 17
-24 8 -9 -16 6 -9 18 -11 42 -5 19 4 41 8 49 9 8 1 25 7 38 14 35 19 13 37
-68 55 -84 19 -95 20 -108 3z"/>
<path d="M3390 4956 c0 -2 7 -7 16 -10 8 -3 12 -2 9 4 -6 10 -25 14 -25 6z"/>
<path d="M3201 4929 c-1 -15 6 -29 14 -33 12 -4 13 -2 7 12 -5 9 -12 24 -15
32 -3 9 -6 4 -6 -11z"/>
<path d="M3312 4917 c9 -9 24 -14 32 -11 9 4 16 1 16 -6 0 -8 9 -10 26 -6 17
5 23 3 19 -4 -7 -11 5 -13 29 -4 29 11 16 21 -36 28 -29 4 -64 10 -78 13 -23
6 -24 5 -8 -10z"/>
<path d="M3455 4889 c-12 -19 5 -23 22 -6 16 16 16 17 1 17 -9 0 -20 -5 -23
-11z"/>
<path d="M3496 4885 c-3 -9 0 -15 9 -15 8 0 15 7 15 15 0 8 -4 15 -9 15 -5 0
-11 -7 -15 -15z"/>
<path d="M930 4870 c0 -5 5 -10 11 -10 5 0 7 5 4 10 -3 6 -8 10 -11 10 -2 0
-4 -4 -4 -10z"/>
<path d="M7856 4849 c-66 -10 -124 -23 -128 -27 -9 -9 -20 -180 -53 -772 -9
-157 -20 -359 -25 -450 -28 -463 -29 -505 -20 -514 6 -6 10 -6 10 0 0 7 56
1028 87 1594 l8 135 110 17 c61 9 120 17 133 17 12 1 22 6 22 11 0 12 3 12
-144 -11z"/>
<path d="M5 4855 c25 -10 799 -135 809 -131 7 3 7 5 -2 5 -6 1 -185 30 -397
66 -340 58 -444 73 -410 60z"/>
<path d="M2805 4850 c-13 -5 -14 -9 -5 -9 8 0 24 4 35 9 13 5 14 9 5 9 -8 0
-24 -4 -35 -9z"/>
<path d="M4817 4830 c3 -11 7 -20 9 -20 2 0 4 9 4 20 0 11 -4 20 -9 20 -5 0
-7 -9 -4 -20z"/>
<path d="M2870 4826 c0 -2 7 -7 16 -10 8 -3 12 -2 9 4 -6 10 -25 14 -25 6z"/>
<path d="M3028 4803 c7 -3 16 -2 19 1 4 3 -2 6 -13 5 -11 0 -14 -3 -6 -6z"/>
<path d="M5830 4790 c8 -5 22 -9 30 -9 10 0 8 3 -5 9 -27 12 -43 12 -25 0z"/>
<path d="M5727 4782 c8 -5 -41 -18 -115 -31 -70 -12 -185 -33 -257 -47 -71
-13 -231 -42 -355 -64 -124 -22 -266 -47 -317 -56 -57 -10 -114 -14 -150 -11
-36 4 15 -12 137 -43 107 -27 197 -47 199 -45 5 6 -5 9 -134 44 -60 16 -105
30 -98 30 10 1 105 18 318 56 17 3 66 12 110 20 44 8 143 26 220 40 163 31
162 31 240 43 33 6 94 17 135 26 89 19 130 20 130 4 0 -6 3 -9 6 -6 3 4 22 0
41 -8 19 -9 37 -13 40 -10 5 5 -41 27 -111 52 -43 16 -57 18 -39 6z"/>
<path d="M3118 4763 c6 -2 18 -2 25 0 6 3 1 5 -13 5 -14 0 -19 -2 -12 -5z"/>
<path d="M3248 4733 c7 -3 16 -2 19 1 4 3 -2 6 -13 5 -11 0 -14 -3 -6 -6z"/>
<path d="M3310 4720 c14 -4 34 -8 45 -8 16 0 15 2 -5 8 -14 4 -34 8 -45 8 -16
0 -15 -2 5 -8z"/>
<path d="M860 4711 c65 -16 106 -21 89 -11 -8 5 -40 11 -70 14 -43 4 -47 4
-19 -3z"/>
<path d="M4126 4703 c-4 -9 -2 -21 4 -27 7 -7 10 -2 10 17 0 31 -5 34 -14 10z"/>
<path d="M4230 4710 c20 -13 33 -13 25 0 -3 6 -14 10 -23 10 -15 0 -15 -2 -2
-10z"/>
<path d="M5905 4710 c27 -12 43 -12 25 0 -8 5 -22 9 -30 9 -10 0 -8 -3 5 -9z"/>
<path d="M3380 4707 c0 -7 150 -40 156 -34 2 2 -22 9 -53 16 -32 7 -68 15 -80
18 -13 3 -23 3 -23 0z"/>
<path d="M5970 4685 c14 -8 30 -14 35 -14 6 0 -1 6 -15 14 -14 8 -29 14 -35
14 -5 0 1 -6 15 -14z"/>
<path d="M1055 4680 c23 -10 442 -81 471 -79 15 1 -189 38 -461 83 -23 4 -26
3 -10 -4z"/>
<path d="M2150 4653 c0 -11 7 -20 15 -20 12 0 12 3 3 16 -7 9 -14 18 -15 20
-2 2 -3 -5 -3 -16z"/>
<path d="M3570 4660 c14 -4 34 -8 45 -8 16 0 15 2 -5 8 -14 4 -34 8 -45 8 -16
0 -15 -2 5 -8z"/>
<path d="M3648 4643 c7 -3 16 -2 19 1 4 3 -2 6 -13 5 -11 0 -14 -3 -6 -6z"/>
<path d="M3688 4633 c7 -3 16 -2 19 1 4 3 -2 6 -13 5 -11 0 -14 -3 -6 -6z"/>
<path d="M3728 4623 c7 -3 16 -2 19 1 4 3 -2 6 -13 5 -11 0 -14 -3 -6 -6z"/>
<path d="M3760 4611 c0 -5 9 -7 20 -4 11 3 20 7 20 9 0 2 -9 4 -20 4 -11 0
-20 -4 -20 -9z"/>
<path d="M3830 4600 c14 -4 34 -8 45 -8 16 0 15 2 -5 8 -14 4 -34 8 -45 8 -16
0 -15 -2 5 -8z"/>
<path d="M4000 4590 c200 -50 653 -150 658 -145 3 3 3 5 0 5 -4 0 -82 18 -175
40 -92 22 -220 51 -283 65 -63 14 -142 32 -176 40 -33 8 -69 15 -80 14 -10 0
15 -9 56 -19z"/>
<path d="M1575 4590 c17 -4 44 -8 60 -8 25 0 24 2 -10 9 -51 10 -92 10 -50 -1z"/>
<path d="M3915 4580 c11 -5 27 -9 35 -9 9 0 8 4 -5 9 -11 5 -27 9 -35 9 -9 0
-8 -4 5 -9z"/>
<path d="M1683 4573 c9 -2 23 -2 30 0 6 3 -1 5 -18 5 -16 0 -22 -2 -12 -5z"/>
<path d="M1743 4563 c9 -2 23 -2 30 0 6 3 -1 5 -18 5 -16 0 -22 -2 -12 -5z"/>
<path d="M1803 4553 c9 -2 23 -2 30 0 6 3 -1 5 -18 5 -16 0 -22 -2 -12 -5z"/>
<path d="M1863 4543 c9 -2 23 -2 30 0 6 3 -1 5 -18 5 -16 0 -22 -2 -12 -5z"/>
<path d="M1918 4533 c6 -2 18 -2 25 0 6 3 1 5 -13 5 -14 0 -19 -2 -12 -5z"/>
<path d="M4138 4523 c7 -3 16 -2 19 1 4 3 -2 6 -13 5 -11 0 -14 -3 -6 -6z"/>
<path d="M2043 4513 c9 -2 23 -2 30 0 6 3 -1 5 -18 5 -16 0 -22 -2 -12 -5z"/>
<path d="M2103 4503 c9 -2 23 -2 30 0 6 3 -1 5 -18 5 -16 0 -22 -2 -12 -5z"/>
<path d="M2158 4493 c6 -2 18 -2 25 0 6 3 1 5 -13 5 -14 0 -19 -2 -12 -5z"/>
<path d="M2288 4473 c7 -3 16 -2 19 1 4 3 -2 6 -13 5 -11 0 -14 -3 -6 -6z"/>
<path d="M2768 4393 c7 -3 16 -2 19 1 4 3 -2 6 -13 5 -11 0 -14 -3 -6 -6z"/>
<path d="M22 4268 c-14 -14 -16 -38 -3 -38 16 0 22 18 9 24 -7 3 16 3 52 0 42
-4 69 -11 77 -22 12 -14 13 -14 13 1 0 10 8 17 20 17 13 0 20 -7 20 -20 0 -11
-4 -20 -10 -20 -5 0 -10 6 -10 13 0 9 -2 9 -8 -1 -6 -9 -21 -10 -53 -4 -24 4
-60 5 -79 2 -30 -5 -24 -7 40 -15 105 -13 172 -12 177 2 9 25 -37 50 -105 57
-37 4 -81 9 -98 11 -17 2 -36 -1 -42 -7z m228 -53 c0 -8 -7 -15 -15 -15 -8 0
-15 7 -15 15 0 8 7 15 15 15 8 0 15 -7 15 -15z"/>
<path d="M553 4273 c9 -2 25 -2 35 0 9 3 1 5 -18 5 -19 0 -27 -2 -17 -5z"/>
<path d="M728 4253 c7 -3 16 -2 19 1 4 3 -2 6 -13 5 -11 0 -14 -3 -6 -6z"/>
<path d="M284 4235 c-4 -9 -4 -19 0 -22 3 -4 6 -1 6 5 0 16 27 15 33 0 4 -10
6 -10 6 0 1 17 21 15 21 -3 0 -8 7 -15 16 -15 14 0 14 2 3 16 -12 15 -10 16
19 10 17 -3 46 -9 62 -12 44 -8 38 -30 -9 -32 -30 -1 -41 2 -44 16 -4 15 -5
15 -6 -2 -1 -12 -6 -16 -17 -12 -9 3 -34 9 -57 12 -31 5 -39 4 -31 -5 13 -14
166 -29 193 -19 12 4 21 4 21 -1 0 -9 152 -30 239 -34 33 -2 47 2 55 16 17 27
-14 45 -92 52 -37 3 -93 9 -124 13 -71 10 -99 -2 -32 -13 27 -5 56 -9 64 -9 8
-1 21 -5 28 -9 7 -5 12 -3 12 3 0 6 8 9 18 7 9 -3 38 -8 64 -12 26 -3 49 -12
52 -20 4 -12 -7 -14 -67 -9 -40 3 -88 8 -107 11 -19 2 -50 4 -68 4 -23 -1 -32
3 -30 11 8 22 -37 47 -93 53 -30 3 -71 8 -92 11 -28 3 -39 0 -43 -11z"/>
<path d="M1389 4223 c0 -4 -2 -15 -4 -24 -7 -37 11 -44 112 -45 54 -1 141 -7
193 -13 52 -6 234 -27 405 -47 170 -19 310 -36 311 -37 3 -4 24 -606 24 -696
0 -61 3 -92 10 -85 9 9 -4 625 -16 741 -6 58 -7 59 -94 68 -30 3 -118 12 -195
21 -77 8 -205 21 -285 29 -80 8 -176 19 -214 24 -38 6 -72 10 -75 9 -39 -4
-59 4 -65 27 -4 17 -14 25 -29 26 -12 0 -34 3 -49 5 -16 3 -28 1 -29 -3z m41
-24 c0 -8 4 -8 15 1 17 14 35 5 35 -17 0 -11 -6 -14 -22 -9 -13 3 -31 6 -40 6
-10 0 -18 7 -18 15 0 8 7 15 15 15 8 0 15 -5 15 -11z"/>
<path d="M1110 4216 c0 -10 28 -13 41 -5 10 6 7 9 -13 9 -16 0 -28 -2 -28 -4z"/>
<path d="M1186 4211 c-4 -5 3 -7 14 -4 23 6 26 13 6 13 -8 0 -17 -4 -20 -9z"/>
<path d="M1230 4200 c0 -5 12 -10 28 -9 24 0 25 1 7 9 -27 12 -35 12 -35 0z"/>
<path d="M1308 4183 c12 -2 30 -2 40 0 9 3 -1 5 -23 4 -22 0 -30 -2 -17 -4z"/>
<path d="M720 4170 c0 -5 5 -10 11 -10 5 0 7 5 4 10 -3 6 -8 10 -11 10 -2 0
-4 -4 -4 -10z"/>
<path d="M158 4073 c7 -3 16 -2 19 1 4 3 -2 6 -13 5 -11 0 -14 -3 -6 -6z"/>
<path d="M2770 3980 c-2 -58 -4 -116 -5 -130 -1 -21 -6 -25 -32 -24 -18 0 -30
-4 -27 -8 8 -13 51 -9 63 6 8 9 11 54 8 137 l-3 124 -4 -105z"/>
<path d="M0 3824 c0 -154 3 -233 10 -229 5 3 10 2 10 -4 0 -5 -5 -11 -12 -13
-14 -5 -3 -38 13 -38 8 0 8 4 -1 15 -9 10 -9 15 -1 15 6 0 11 9 11 20 0 11 -3
20 -7 20 -5 0 -10 72 -12 160 l-3 160 73 1 74 2 -64 8 c-35 4 -68 6 -73 3 -4
-3 -8 6 -8 20 0 29 7 30 122 20 98 -10 74 -23 -29 -17 -49 3 -86 3 -83 0 3 -3
30 -6 60 -8 65 -3 80 -7 80 -23 0 -6 10 -12 21 -13 12 -1 27 -7 33 -13 8 -8 4
-10 -14 -6 -60 12 -182 17 -175 6 3 -5 28 -10 56 -10 28 0 49 -5 49 -11 0 -7
-20 -8 -57 -5 -38 4 -51 3 -38 -3 11 -5 81 -12 155 -15 74 -4 140 -12 145 -17
7 -8 -6 -10 -42 -7 -28 1 -49 0 -46 -4 7 -12 91 -9 99 3 4 7 29 9 73 5 40 -3
61 -2 52 3 -8 5 -54 12 -103 16 -48 4 -88 11 -88 17 0 5 15 6 32 3 52 -9 167
-12 162 -4 -2 4 -58 10 -124 14 -66 4 -120 12 -120 17 0 9 49 6 150 -8 27 -3
31 -2 18 6 -9 5 -58 13 -110 16 -51 4 -100 11 -108 16 -16 9 177 1 215 -9 16
-4 17 -3 8 7 -6 7 -9 19 -5 28 4 11 1 14 -10 10 -8 -4 -21 -2 -29 3 -9 6 7 9
47 9 37 0 65 -5 72 -12 5 -7 12 -37 14 -66 3 -29 11 -59 17 -65 9 -9 11 -3 7
28 -3 22 -8 68 -11 103 -6 61 -6 63 17 58 13 -3 116 -13 231 -22 l207 -17 1
-71 c0 -72 6 -116 14 -125 3 -2 5 5 5 16 0 18 5 20 53 17 54 -3 49 0 -15 11
-61 10 -44 22 20 14 84 -10 265 -18 217 -9 -22 4 -89 11 -150 14 -60 4 -114
12 -120 18 -7 7 5 9 37 6 25 -1 44 0 41 5 -2 4 -22 7 -44 7 -21 0 -39 4 -39 9
0 5 15 7 33 6 17 -2 40 -3 50 -4 9 -1 17 -8 17 -16 0 -11 11 -15 48 -13 l47 1
-42 4 c-24 2 -43 9 -43 15 0 7 15 9 40 5 22 -3 38 -2 35 3 -3 4 -45 11 -94 15
l-89 7 -6 38 c-7 43 -11 45 -106 55 -36 4 -78 9 -95 11 -16 2 -90 7 -162 10
l-133 7 0 -27 0 -27 -77 5 c-43 2 -88 5 -100 5 -13 1 -23 6 -23 12 0 8 16 9
52 5 29 -4 50 -4 46 0 -13 12 -301 35 -312 24 -7 -7 4 -10 32 -10 24 0 42 -5
42 -11 0 -7 -9 -9 -22 -5 -13 3 -33 6 -45 6 -14 0 -23 6 -23 15 0 9 -9 15 -25
15 l-25 0 0 -236z m40 216 c0 -5 -7 -10 -15 -10 -8 0 -15 5 -15 10 0 6 7 10
15 10 8 0 15 -4 15 -10z m229 -15 c10 -10 -6 -12 -61 -8 -32 3 -58 10 -58 16
0 9 108 2 119 -8z m-159 -14 c54 -10 45 -13 -30 -11 -30 1 -59 6 -64 11 -12
11 30 11 94 0z m220 -23 c10 -6 -7 -7 -49 -4 -35 3 -77 6 -92 6 -16 0 -29 4
-29 9 0 12 150 2 170 -11z m44 -29 c12 -11 -18 -11 -103 -3 -33 4 -61 10 -61
15 0 10 152 -1 164 -12z m-114 -81 c10 -6 4 -8 -19 -4 -18 3 -49 6 -68 6 -20
0 -32 4 -28 10 7 11 92 2 115 -12z"/>
<path d="M2575 4040 c-3 -5 -1 -10 4 -10 6 0 11 5 11 10 0 6 -2 10 -4 10 -3 0
-8 -4 -11 -10z"/>
<path d="M2517 4019 c7 -7 15 -10 18 -7 3 3 -2 9 -12 12 -14 6 -15 5 -6 -5z"/>
<path d="M2394 3930 c0 -52 1 -74 3 -47 2 26 2 68 0 95 -2 26 -3 4 -3 -48z"/>
<path d="M410 3960 c0 -13 40 -13 60 0 11 7 5 10 -22 10 -21 0 -38 -4 -38 -10z"/>
<path d="M1739 3939 c-7 -4 -10 -21 -7 -38 5 -34 -7 -40 -38 -16 -10 8 -38 15
-61 15 -25 0 -43 5 -43 11 0 8 -4 8 -12 2 -8 -6 -39 -7 -83 -2 -110 13 -115
12 -114 -13 1 -19 2 -20 6 -5 4 16 12 18 46 13 23 -3 87 -9 142 -12 63 -4 104
-12 113 -20 7 -8 19 -14 27 -14 15 0 25 -22 25 -56 0 -13 4 -24 9 -24 5 0 8
23 6 51 -3 42 -1 50 11 45 9 -3 41 -8 72 -11 46 -4 50 -3 22 4 -19 5 -51 12
-72 15 -30 6 -57 30 -45 42 2 2 73 -3 158 -11 85 -8 162 -15 172 -15 11 0 17
-8 17 -21 0 -14 -5 -19 -15 -16 -8 4 -17 2 -20 -3 -4 -6 3 -10 14 -10 19 0 21
-6 21 -57 1 -49 3 -55 13 -41 7 9 29 18 48 21 l34 4 -37 1 c-31 2 -38 6 -38
23 0 18 5 21 35 17 19 -2 35 0 35 4 0 4 -15 8 -34 8 -37 0 -53 22 -41 59 8 26
-3 29 -157 41 -73 6 -148 12 -166 13 -18 2 -37 0 -43 -4z"/>
<path d="M1423 3933 c15 -2 37 -2 50 0 12 2 0 4 -28 4 -27 0 -38 -2 -22 -4z"/>
<path d="M1613 3923 c9 -2 23 -2 30 0 6 3 -1 5 -18 5 -16 0 -22 -2 -12 -5z"/>
<path d="M1180 3910 c0 -5 5 -10 11 -10 5 0 7 5 4 10 -3 6 -8 10 -11 10 -2 0
-4 -4 -4 -10z"/>
<path d="M3520 3847 l0 -76 38 -10 c52 -15 66 -14 87 9 14 16 17 30 12 76 -3
31 -8 59 -12 62 -3 3 -32 8 -65 10 l-60 4 0 -75z m93 53 c27 0 27 -1 27 -65
l0 -65 -45 0 c-51 0 -53 2 -58 77 -5 59 -1 66 28 59 11 -3 32 -6 48 -6z"/>
<path d="M1223 3903 c9 -2 25 -2 35 0 9 3 1 5 -18 5 -19 0 -27 -2 -17 -5z"/>
<path d="M1192 3879 c7 -5 36 -8 63 -8 60 1 50 6 -23 12 -32 2 -48 1 -40 -4z"/>
<path d="M1425 3883 c17 -2 35 -10 40 -17 6 -8 46 -15 100 -19 50 -4 106 -9
125 -13 26 -4 31 -3 20 5 -8 6 -36 11 -62 11 -29 0 -48 5 -48 11 0 8 13 10 38
6 22 -4 31 -3 22 2 -15 9 -153 20 -145 12 3 -2 22 -7 42 -11 35 -7 34 -8 -19
-9 -53 -1 -76 10 -45 22 6 3 -13 5 -43 5 -30 -1 -41 -3 -25 -5z"/>
<path d="M535 3870 c-3 -5 1 -10 9 -10 9 0 16 5 16 10 0 6 -4 10 -9 10 -6 0
-13 -4 -16 -10z"/>
<path d="M653 3865 c48 -8 92 -17 97 -20 6 -4 10 -2 10 3 0 16 -31 24 -115 28
l-80 4 88 -15z"/>
<path d="M850 3855 c50 -16 100 -20 100 -6 0 5 -10 9 -22 8 -13 0 -45 3 -73 6
l-50 7 45 -15z"/>
<path d="M1381 3848 c1 -16 3 -18 6 -6 2 9 16 19 31 21 24 4 24 4 -5 6 -28 1
-33 -2 -32 -21z"/>
<path d="M1904 3856 c-10 -8 -30 -13 -44 -12 -14 2 -18 1 -10 -1 41 -13 29
-23 -25 -23 -38 0 -55 -4 -46 -9 11 -7 11 -9 0 -13 -10 -3 -7 -8 9 -17 20 -11
23 -10 20 6 -4 25 42 29 84 6 18 -9 42 -18 53 -19 11 -1 37 -5 58 -9 33 -7 37
-6 37 14 0 14 -6 21 -20 21 -13 0 -18 -5 -14 -15 4 -8 1 -15 -5 -15 -6 0 -11
5 -11 10 0 6 -13 10 -30 10 -20 0 -30 5 -30 15 0 8 -5 15 -11 15 -5 0 -7 -4
-4 -10 3 -5 1 -10 -4 -10 -6 0 -11 9 -11 20 0 24 23 26 100 6 30 -8 61 -11 69
-7 9 6 3 11 -20 16 -51 12 -51 13 -89 15 l-35 3 35 7 35 7 -36 2 c-19 0 -44
-5 -55 -13z"/>
<path d="M55 3850 c19 -8 173 -14 164 -6 -2 2 -44 6 -94 9 -55 4 -82 2 -70 -3z"/>
<path d="M1770 3850 c0 -5 7 -10 15 -10 8 0 15 5 15 10 0 6 -7 10 -15 10 -8 0
-15 -4 -15 -10z"/>
<path d="M550 3832 c0 -10 7 -12 23 -8 12 3 28 6 35 6 6 0 12 5 12 10 0 6 -16
10 -35 8 -22 -1 -35 -7 -35 -16z"/>
<path d="M640 3841 c0 -5 7 -11 15 -15 8 -3 15 -1 15 3 0 5 -7 11 -15 15 -8 3
-15 1 -15 -3z"/>
<path d="M40 3828 c0 -4 24 -7 53 -7 54 1 49 5 -15 11 -21 2 -38 0 -38 -4z"/>
<path d="M1455 3833 c28 -2 55 -9 60 -15 7 -8 3 -9 -14 -5 -14 3 -20 2 -15 -3
5 -5 50 -11 99 -13 50 -3 79 -1 65 3 -14 5 -46 8 -72 9 -36 1 -48 5 -48 16 0
12 -13 15 -62 13 -61 -2 -61 -2 -13 -5z"/>
<path d="M1550 3828 c0 -5 26 -7 58 -7 61 1 55 6 -15 11 -24 2 -43 0 -43 -4z"/>
<path d="M760 3820 c14 -4 51 -8 83 -9 31 -1 57 -5 57 -11 0 -12 -239 -2 -255
11 -6 4 -36 6 -65 4 -30 -2 -61 -4 -67 -5 -7 0 -13 -7 -13 -16 0 -12 -7 -14
-27 -10 -45 8 -460 27 -430 19 9 -2 17 -9 17 -14 0 -5 -8 -10 -17 -10 -10 -1
11 -7 47 -15 l65 -13 -63 2 c-34 1 -62 -1 -62 -5 0 -5 11 -8 25 -8 34 0 32
-18 -3 -23 -15 -2 1 -5 35 -6 41 -1 67 -6 77 -17 9 -9 38 -19 64 -24 39 -6 26
-8 -73 -11 -66 -1 -96 -4 -67 -6 29 -2 50 -8 47 -13 -3 -5 -26 -7 -50 -3 -25
3 -45 2 -45 -3 0 -11 -1 -11 138 -14 56 -2 106 0 109 4 3 3 -15 6 -40 6 -26 0
-47 5 -47 10 0 11 59 14 84 4 9 -3 16 -12 16 -20 0 -10 13 -14 45 -14 25 0 45
-4 45 -9 0 -6 -15 -8 -32 -6 -82 10 -308 13 -303 5 4 -6 57 -11 118 -11 73 -1
102 -4 82 -9 l-30 -8 33 -1 c17 0 32 3 32 9 0 5 24 8 53 7 47 -2 52 0 55 21 3
22 10 25 72 23 32 -1 33 0 11 9 -13 6 -33 10 -45 9 -57 -5 -156 2 -156 11 0 6
28 11 63 12 56 1 57 2 15 5 -27 2 -48 9 -48 14 0 7 21 9 57 5 51 -5 55 -4 37
9 -18 14 -18 14 5 10 13 -2 31 0 40 5 12 7 2 10 -34 11 -27 0 -59 2 -70 3 -11
1 -50 3 -87 4 -40 1 -68 6 -68 13 0 10 102 7 248 -7 28 -2 52 -1 52 4 0 4 -8
8 -17 8 -18 1 -230 14 -308 19 -22 2 -52 3 -67 4 -16 1 -28 5 -28 10 0 6 29 8
68 5 205 -13 356 -25 358 -27 1 -1 4 -22 8 -47 l6 -45 -50 3 c-32 3 -50 0 -50
-7 0 -6 19 -11 45 -11 42 0 44 -1 54 -37 6 -21 11 -50 11 -65 l0 -27 -112 5
c-62 2 -153 6 -203 8 -49 3 -106 1 -125 -4 -19 -4 -27 -8 -16 -9 12 -1 16 -6
12 -16 -4 -12 4 -15 46 -15 28 0 48 -3 45 -7 -4 -4 -31 -6 -60 -5 -50 2 -51 1
-27 -13 l25 -14 -29 -1 c-16 0 -27 -2 -25 -4 6 -7 157 -15 272 -16 54 0 96 -4
93 -9 -3 -4 -86 -6 -186 -3 -107 3 -180 1 -180 -5 0 -5 16 -7 35 -5 19 2 47 0
62 -4 24 -7 20 -9 -32 -14 -56 -6 -54 -7 33 -8 58 -1 92 -6 92 -13 0 -7 -31
-9 -90 -7 -49 2 -86 0 -82 -3 11 -11 235 -18 257 -9 15 6 7 9 -28 9 -30 1 -46
5 -42 11 4 7 43 9 104 6 53 -2 112 -1 131 4 19 4 27 8 17 9 -25 1 -68 31 -61
42 3 5 -9 9 -25 9 -17 0 -31 5 -31 10 0 7 22 9 63 6 52 -4 56 -4 22 4 -22 5
-73 9 -112 9 -45 1 -73 5 -73 12 0 7 32 9 103 4 56 -4 107 -8 112 -8 10 -2 23
-83 17 -104 -3 -9 -30 -13 -89 -13 -50 0 -82 -4 -78 -9 3 -6 44 -9 90 -8 60 1
86 -2 90 -10 3 -10 -40 -14 -193 -15 l-197 -3 193 -2 192 -3 1 -38 c1 -20 3
-46 4 -57 10 -78 14 -255 6 -255 -5 0 -12 10 -15 23 -3 12 -23 34 -45 50 -34
24 -48 27 -115 27 -44 0 -76 4 -76 10 0 6 -15 10 -32 10 -25 0 -29 -3 -18 -10
11 -7 -1 -10 -40 -11 -30 0 -64 -4 -75 -9 -13 -6 1 -7 38 -3 38 4 57 2 57 -5
0 -6 -25 -13 -57 -15 l-58 -3 58 -2 c80 -3 72 -22 -10 -22 -97 0 -73 -9 30
-11 48 -1 87 -5 87 -10 0 -5 -42 -10 -92 -10 -51 -1 -81 -4 -65 -6 34 -5 36
-23 1 -23 -39 0 -28 -35 11 -36 55 -2 60 -7 15 -14 -43 -7 -42 -7 23 -8 40 -1
67 -6 67 -13 0 -7 -24 -9 -70 -7 -39 2 -70 0 -70 -4 0 -7 72 -13 113 -9 9 1
17 -2 17 -8 0 -5 -28 -12 -63 -14 l-62 -3 68 -2 c54 -2 67 1 67 13 0 12 13 15
61 15 35 0 58 4 54 9 -3 6 -28 7 -55 4 -34 -4 -50 -2 -50 6 0 7 22 11 60 11
33 0 60 -4 60 -10 0 -6 28 -9 68 -8 l67 2 -62 3 c-85 5 -82 25 3 22 36 -1 69
2 72 8 4 6 17 13 30 17 18 6 22 4 22 -14 0 -42 18 -60 60 -60 23 0 40 -5 40
-11 0 -8 4 -8 13 -1 7 6 85 12 180 14 92 1 167 6 167 10 0 5 6 8 13 8 9 0 12
11 9 35 -4 35 -4 35 37 35 54 0 53 18 -1 23 -24 2 25 4 109 5 92 1 154 6 158
12 5 8 -42 9 -148 5 -147 -6 -155 -5 -159 13 -5 17 1 20 41 25 80 9 161 8 161
-1 0 -5 -41 -10 -92 -11 -51 -1 -94 -4 -97 -6 -8 -8 243 -3 274 6 21 6 15 6
-22 3 -34 -4 -53 -2 -53 4 0 6 19 13 43 15 23 2 -25 4 -108 4 l-150 0 -3 26
c-2 17 1 27 9 27 10 0 10 3 1 12 -7 7 -12 26 -12 43 l0 31 120 -1 c66 -1 120
2 120 7 0 5 -46 9 -102 8 -148 -2 -144 -2 -145 20 -2 19 5 20 165 21 92 1 174
1 182 0 11 -1 12 0 2 7 -7 4 -88 8 -181 7 l-169 0 -6 50 c-12 105 -13 105 47
106 28 1 42 4 30 6 -13 2 -23 9 -23 14 0 6 9 7 20 4 11 -4 20 -2 20 4 0 6 -21
11 -49 11 l-50 0 -7 46 c-5 34 -3 48 7 55 11 7 11 9 -2 9 -11 0 -16 9 -15 29
1 26 4 29 40 29 21 1 41 3 44 6 3 3 -13 6 -36 6 -22 0 -44 5 -48 11 -6 10 9
10 241 -6 37 -3 52 -1 40 4 -11 5 -76 11 -145 15 -117 6 -139 12 -140 39 0 4
29 7 65 6 36 -1 65 -6 65 -11 0 -6 -22 -8 -50 -6 -28 1 -50 0 -50 -3 0 -9 339
-23 347 -15 4 3 -21 6 -54 6 -104 0 -183 11 -183 26 0 11 -18 14 -70 14 l-70
0 0 34 c0 19 6 36 13 39 6 2 -10 7 -38 11 -27 4 -54 15 -60 23 -8 10 -35 16
-91 18 -51 2 -70 1 -54 -5z m10 -41 c107 -6 196 -12 196 -13 1 0 5 -49 8 -107
l6 -106 -82 4 c-142 6 -189 13 -195 30 -3 8 0 19 8 24 8 5 11 9 7 9 -3 0 -14
3 -24 7 -13 5 -16 3 -11 -9 7 -21 -3 -31 -18 -18 -7 6 -21 7 -31 3 -14 -5 -9
-9 22 -19 38 -12 38 -12 -39 -13 -54 -1 -79 3 -82 12 -2 6 -6 58 -10 114 l-6
103 28 -5 c15 -2 116 -10 223 -16z m-590 -23 c0 -3 -4 -8 -10 -11 -5 -3 -10
-1 -10 4 0 6 5 11 10 11 6 0 10 -2 10 -4z m79 -32 c2 -2 2 -6 -1 -9 -8 -8
-168 7 -168 15 0 8 161 1 169 -6z m51 -4 c0 -5 -9 -10 -20 -10 -11 0 -20 5
-20 10 0 6 9 10 20 10 11 0 20 -4 20 -10z m58 -7 c-10 -2 -26 -2 -35 0 -10 3
-2 5 17 5 19 0 27 -2 18 -5z m-78 -23 c10 -7 -4 -8 -45 -4 -33 3 -62 8 -64 10
-9 9 95 3 109 -6z m-100 -50 c0 -5 -9 -10 -20 -10 -11 0 -20 5 -20 10 0 6 9
10 20 10 11 0 20 -4 20 -10z m200 -10 c0 -11 -69 -10 -76 2 -3 4 13 8 35 8 23
0 41 -4 41 -10z m306 -81 c109 0 139 -3 152 -15 10 -11 17 -12 22 -4 4 7 28
10 61 8 l54 -3 3 -103 3 -103 -28 6 c-15 3 -113 6 -217 6 -105 0 -193 2 -198
5 -4 3 -5 11 -1 19 6 17 46 20 74 5 11 -6 19 -7 19 -1 0 5 10 7 22 3 14 -3 19
-2 14 6 -4 7 -3 12 3 12 6 0 8 7 5 15 -8 19 -24 20 -24 1 0 -11 -7 -13 -30 -6
-19 6 -28 5 -24 -1 3 -6 -5 -7 -23 -3 -46 11 -50 24 -7 24 21 0 46 5 54 10 10
6 -2 8 -37 3 l-51 -6 -4 63 c-3 64 -1 73 14 64 5 -3 70 -5 144 -5z m-486 -29
c0 -5 -24 -10 -54 -10 -30 0 -58 5 -61 10 -4 6 17 10 54 10 34 0 61 -4 61 -10z
m262 0 c21 0 38 -5 38 -10 0 -7 -16 -9 -42 -6 -24 3 -89 5 -145 5 -71 1 -103
5 -103 13 0 8 29 9 107 5 58 -4 123 -7 145 -7z m-272 -30 c0 -5 -4 -10 -10
-10 -5 0 -10 5 -10 10 0 6 5 10 10 10 6 0 10 -4 10 -10z m80 0 c0 -5 -16 -10
-35 -10 -19 0 -35 5 -35 10 0 6 16 10 35 10 19 0 35 -4 35 -10z m100 -31 c0
-7 -35 -9 -102 -5 -57 3 -118 6 -136 6 -18 0 -31 3 -29 8 8 11 267 3 267 -9z
m680 -39 c0 -5 -11 -10 -25 -10 -14 0 -25 5 -25 10 0 6 11 10 25 10 14 0 25
-4 25 -10z m-732 -10 c12 0 22 -3 22 -7 0 -5 -38 -7 -85 -5 -48 2 -83 7 -80
13 3 5 32 7 63 4 31 -2 67 -4 80 -5z m132 -9 c0 -8 -90 -3 -99 5 -2 2 19 4 47
4 29 0 52 -4 52 -9z m541 -133 c1 -29 3 -77 5 -105 l3 -53 -59 7 c-37 3 -70 1
-88 -6 -22 -9 -43 -9 -98 2 -72 14 -160 12 -181 -5 -13 -11 -14 -9 -18 32 -1
14 -5 60 -9 103 l-8 77 226 0 226 0 1 -52z m15 -258 c2 -47 6 -94 9 -106 4
-20 0 -21 -138 -27 -78 -4 -179 -7 -224 -7 l-83 0 0 34 c0 19 -3 42 -7 51 -5
15 -1 16 28 10 19 -4 36 -11 37 -16 2 -5 10 -9 18 -9 24 0 -18 35 -46 38 -33
3 -37 9 -43 64 l-6 48 212 3 c117 1 218 2 225 2 10 0 15 -23 18 -85z m-716 40
c0 -5 -16 -10 -35 -10 -19 0 -35 5 -35 10 0 6 16 10 35 10 19 0 35 -4 35 -10z
m45 0 c-3 -5 -13 -10 -21 -10 -8 0 -14 5 -14 10 0 6 9 10 21 10 11 0 17 -4 14
-10z m95 0 c-20 -13 -80 -13 -80 0 0 6 21 10 48 10 34 0 43 -3 32 -10z m40
-20 c0 -5 -17 -10 -39 -10 -21 0 -59 -3 -85 -6 -30 -5 -46 -3 -46 4 0 7 29 12
73 15 39 1 78 4 85 5 6 1 12 -2 12 -8z m-210 -10 c0 -5 -9 -10 -20 -10 -11 0
-20 5 -20 10 0 6 9 10 20 10 11 0 20 -4 20 -10z m30 0 c0 -5 -4 -10 -10 -10
-5 0 -10 5 -10 10 0 6 5 10 10 10 6 0 10 -4 10 -10z m215 -20 c4 -7 -34 -9
-117 -8 -89 1 -108 3 -68 7 101 11 178 12 185 1z m-145 -30 c0 -5 -21 -10 -46
-10 -25 0 -43 3 -41 8 8 11 87 14 87 2z m145 0 c-3 -5 3 -10 14 -10 12 0 21
-4 21 -10 0 -5 -26 -10 -57 -11 -32 -1 -79 -3 -105 -5 -26 -2 -50 0 -53 6 -4
6 24 10 79 10 47 0 86 4 86 9 0 5 -27 7 -60 4 -41 -4 -60 -2 -60 6 0 7 24 11
71 11 44 0 68 -4 64 -10z m-245 -8 c0 -4 -27 -8 -60 -7 -33 0 -60 3 -60 8 0 4
27 7 60 7 33 0 60 -4 60 -8z m50 -22 c0 -5 -11 -10 -25 -10 -14 0 -25 5 -25
10 0 6 11 10 25 10 14 0 25 -4 25 -10z m-61 -4 c-7 -7 -149 -10 -156 -3 -3 4
31 7 77 7 46 0 81 -2 79 -4z m241 -16 c0 -6 -41 -10 -102 -10 -57 0 -113 -3
-125 -6 -14 -4 -23 -2 -23 4 0 7 38 12 103 15 56 1 112 4 125 5 12 1 22 -2 22
-8z m-260 -10 c0 -5 -11 -10 -25 -10 -14 0 -25 5 -25 10 0 6 11 10 25 10 14 0
25 -4 25 -10z"/>
<path d="M590 3694 c60 -8 128 -8 123 -1 -2 4 -37 6 -76 6 -40 -1 -61 -3 -47
-5z"/>
<path d="M730 3696 c0 -2 18 -6 40 -8 22 -2 40 0 40 4 0 5 -18 8 -40 8 -22 0
-40 -2 -40 -4z"/>
<path d="M838 3693 c12 -2 30 -2 40 0 9 3 -1 5 -23 4 -22 0 -30 -2 -17 -4z"/>
<path d="M571 3676 c2 -2 20 -6 39 -10 25 -4 31 -3 20 4 -14 9 -69 15 -59 6z"/>
<path d="M860 3670 c0 -6 17 -10 37 -10 43 0 41 5 -4 13 -19 4 -33 2 -33 -3z"/>
<path d="M554 3652 c4 -7 15 -12 24 -13 14 0 13 -2 -3 -9 -19 -8 -19 -9 3 -9
13 -1 22 5 22 14 0 8 -4 15 -9 15 -5 0 -17 3 -27 7 -12 4 -15 3 -10 -5z"/>
<path d="M713 3652 c15 -2 27 -10 27 -17 0 -11 15 -14 64 -12 50 2 68 -2 84
-17 29 -26 49 -17 25 12 -11 14 -31 23 -50 25 -18 1 -33 4 -33 7 0 3 -33 5
-73 6 -39 0 -60 -2 -44 -4z"/>
<path d="M615 3630 c-4 -6 7 -10 24 -10 17 0 31 5 31 10 0 6 -11 10 -24 10
-14 0 -28 -4 -31 -10z"/>
<path d="M937 3610 c3 -11 9 -17 14 -14 14 8 10 34 -5 34 -9 0 -12 -7 -9 -20z"/>
<path d="M715 3590 c-3 -5 1 -10 9 -10 8 0 18 5 21 10 3 6 -1 10 -9 10 -8 0
-18 -4 -21 -10z"/>
<path d="M628 3533 c7 -3 16 -2 19 1 4 3 -2 6 -13 5 -11 0 -14 -3 -6 -6z"/>
<path d="M695 3530 c3 -6 15 -10 27 -10 18 0 19 -4 14 -35 -5 -25 -3 -35 6
-35 7 0 13 10 13 23 1 12 4 31 8 43 7 19 3 21 -33 22 -25 1 -39 -2 -35 -8z"/>
<path d="M580 3520 c-9 -6 -10 -10 -3 -10 6 0 15 5 18 10 8 12 4 12 -15 0z"/>
<path d="M779 3506 c-20 -26 -14 -46 14 -46 20 0 20 0 1 14 -19 14 -19 15 0
29 10 8 15 16 10 19 -5 3 -16 -4 -25 -16z"/>
<path d="M920 3512 c19 -10 39 -16 43 -14 14 7 -27 31 -53 32 -23 0 -22 -2 10
-18z"/>
<path d="M835 3511 c3 -5 1 -12 -4 -16 -12 -7 -3 -35 11 -35 5 0 6 9 3 20 -4
11 -2 20 4 20 6 0 11 -4 11 -10 0 -5 6 -10 14 -10 8 0 16 -7 20 -15 3 -8 16
-14 28 -14 l23 2 -22 4 c-13 2 -23 11 -23 19 0 8 -6 14 -14 14 -7 0 -19 7 -26
15 -13 16 -35 21 -25 6z"/>
<path d="M650 3450 c8 -5 24 -9 35 -9 l20 0 -20 9 c-11 5 -27 9 -35 9 -13 1
-13 0 0 -9z"/>
<path d="M795 3438 c-61 -13 -55 -19 14 -12 45 4 61 3 57 -5 -4 -7 1 -11 13
-11 30 0 15 27 -17 32 -15 2 -45 0 -67 -4z"/>
<path d="M930 3410 c0 -5 9 -10 21 -10 11 0 17 5 14 10 -3 6 -13 10 -21 10 -8
0 -14 -4 -14 -10z"/>
<path d="M722 3398 c5 -13 42 -23 121 -31 55 -5 60 5 15 27 -25 13 -33 14 -39
4 -7 -10 -11 -10 -21 0 -16 16 -81 16 -76 0z"/>
<path d="M906 3378 c3 -4 15 -8 26 -8 12 0 18 3 14 7 -10 10 -46 11 -40 1z"/>
<path d="M769 3196 c-2 -3 -44 -6 -92 -7 -57 -2 -92 -8 -99 -16 -13 -16 -14
-16 53 -3 29 6 87 11 127 11 40 1 72 2 70 4 -7 5 -55 14 -59 11z"/>
<path d="M850 3191 c0 -6 5 -11 10 -11 6 0 10 -5 10 -11 0 -7 -10 -9 -27 -4
-21 5 -25 3 -17 -5 6 -6 40 -12 75 -14 68 -2 89 1 89 15 0 4 -7 6 -16 2 -19
-7 -65 17 -57 30 3 6 1 7 -6 3 -9 -6 -9 -11 0 -22 8 -9 8 -14 1 -14 -6 0 -16
8 -21 18 -6 9 -11 13 -11 8 0 -5 -7 -3 -15 4 -10 9 -15 9 -15 1z"/>
<path d="M920 3040 c-8 -5 -27 -10 -42 -10 -16 0 -28 -4 -28 -10 0 -14 67 -13
76 1 4 6 19 9 36 5 21 -4 28 -2 26 7 -6 15 -48 20 -68 7z"/>
<path d="M635 3021 c19 -9 113 -15 104 -7 -2 2 -31 6 -64 10 -40 4 -53 3 -40
-3z"/>
<path d="M605 3000 c3 -5 11 -10 16 -10 6 0 7 5 4 10 -3 6 -11 10 -16 10 -6 0
-7 -4 -4 -10z"/>
<path d="M818 2993 c7 -3 16 -2 19 1 4 3 -2 6 -13 5 -11 0 -14 -3 -6 -6z"/>
<path d="M708 2983 c7 -3 16 -2 19 1 4 3 -2 6 -13 5 -11 0 -14 -3 -6 -6z"/>
<path d="M778 2983 c7 -3 16 -2 19 1 4 3 -2 6 -13 5 -11 0 -14 -3 -6 -6z"/>
<path d="M935 2980 c-3 -6 1 -7 9 -4 18 7 21 14 7 14 -6 0 -13 -4 -16 -10z"/>
<path d="M700 2970 c-37 -6 -40 -7 -13 -8 17 -1 38 -5 46 -8 8 -3 17 2 20 10
4 9 3 15 -1 14 -4 0 -27 -4 -52 -8z"/>
<path d="M813 2963 c15 -2 27 -9 27 -14 0 -5 9 -9 20 -9 11 0 20 4 20 9 0 9
-52 22 -79 20 -9 -1 -4 -4 12 -6z"/>
<path d="M898 2963 c7 -3 16 -2 19 1 4 3 -2 6 -13 5 -11 0 -14 -3 -6 -6z"/>
<path d="M930 2950 c0 -5 4 -10 9 -10 6 0 13 5 16 10 3 6 -1 10 -9 10 -9 0
-16 -4 -16 -10z"/>
<path d="M770 2939 c11 -8 3 -9 -31 -4 -25 3 -56 1 -70 -5 -22 -9 -21 -10 13
-7 20 1 34 -1 31 -5 -2 -5 8 -5 24 -1 41 10 101 7 117 -6 9 -8 16 -8 20 -2 4
6 -9 13 -29 17 -19 3 -38 10 -41 15 -3 5 -15 9 -27 9 -18 0 -19 -2 -7 -11z"/>
<path d="M898 2944 c-4 -3 0 -13 8 -21 12 -12 22 -13 47 -5 l32 10 -37 1 c-20
1 -38 6 -40 12 -2 5 -6 7 -10 3z"/>
<path d="M617 2899 c7 -7 15 -10 18 -7 3 3 -2 9 -12 12 -14 6 -15 5 -6 -5z"/>
<path d="M760 2900 c-12 -8 -9 -10 12 -10 15 0 30 5 33 10 8 13 -25 13 -45 0z"/>
<path d="M660 2896 c0 -2 7 -7 16 -10 8 -3 12 -2 9 4 -6 10 -25 14 -25 6z"/>
<path d="M2403 3715 c0 -66 3 -194 7 -285 l6 -165 1 130 c0 72 -3 200 -7 285
l-6 155 -1 -120z"/>
<path d="M228 3813 c17 -2 47 -2 65 0 17 2 3 4 -33 4 -36 0 -50 -2 -32 -4z"/>
<path d="M1380 3793 c0 -21 3 -24 9 -13 6 8 8 17 5 21 -2 5 15 10 38 12 l43 4
-47 1 c-46 2 -48 1 -48 -25z"/>
<path d="M2218 3813 c12 -2 30 -2 40 0 9 3 -1 5 -23 4 -22 0 -30 -2 -17 -4z"/>
<path d="M1948 3803 c6 -2 18 -2 25 0 6 3 1 5 -13 5 -14 0 -19 -2 -12 -5z"/>
<path d="M2348 3803 c6 -2 18 -2 25 0 6 3 1 5 -13 5 -14 0 -19 -2 -12 -5z"/>
<path d="M1418 3788 c9 -9 110 -14 118 -6 3 4 -24 8 -60 10 -36 1 -62 0 -58
-4z"/>
<path d="M2158 3793 c12 -2 32 -2 45 0 12 2 2 4 -23 4 -25 0 -35 -2 -22 -4z"/>
<path d="M2269 3787 c5 -5 24 -7 42 -5 33 3 33 4 -8 8 -23 3 -39 2 -34 -3z"/>
<path d="M1550 3779 c0 -4 16 -9 35 -11 19 -2 35 -1 35 3 0 4 -16 9 -35 11
-19 2 -35 1 -35 -3z"/>
<path d="M1820 3776 c0 -4 19 -15 43 -26 23 -10 33 -18 22 -17 -11 2 -25 6
-31 9 -13 8 -55 5 -72 -6 -7 -4 -19 -5 -27 -2 -8 3 -15 2 -15 -2 0 -4 80 -14
178 -21 97 -7 178 -13 178 -14 1 -1 4 -75 7 -164 3 -112 1 -163 -6 -163 -7 0
-7 -4 1 -12 7 -7 12 -18 12 -26 0 -11 -29 -13 -162 -11 -97 2 -166 8 -170 14
-4 5 -8 22 -8 38 0 21 5 27 23 27 12 0 40 7 62 15 43 17 42 17 -57 -1 -25 -4
-29 -3 -18 5 10 7 11 11 3 11 -7 0 -13 4 -13 8 0 5 28 6 63 4 34 -2 59 -2 56
2 -3 3 -29 8 -58 10 -29 3 -56 7 -59 11 -12 11 -8 45 5 45 7 0 13 -6 13 -14 0
-14 29 -30 38 -21 3 3 0 5 -6 5 -7 0 -12 7 -12 16 0 14 16 16 139 12 77 -2
137 0 135 4 -3 5 -77 8 -165 8 l-159 0 0 95 c0 76 -3 95 -14 95 -15 0 -15 -3
0 -89 7 -41 -5 -50 -66 -52 -38 -1 -41 -2 -20 -9 17 -6 1 -8 -53 -8 -43 0 -80
5 -84 11 -4 7 13 8 50 3 32 -3 57 -2 57 2 0 5 -8 9 -17 9 -111 -1 -213 5 -213
11 0 5 75 7 168 6 l167 -2 -170 8 c-93 4 -172 6 -174 4 -2 -2 -1 -10 2 -19 5
-11 21 -15 62 -15 30 0 55 -4 55 -8 0 -5 -25 -7 -55 -4 -61 5 -72 -9 -35 -41
11 -9 20 -13 20 -8 0 6 13 6 32 0 41 -11 47 -11 28 1 -13 8 -13 10 1 10 9 0
19 -7 23 -15 4 -12 -6 -15 -52 -17 l-57 -2 53 -3 c28 -2 52 -8 52 -13 0 -5 -8
-7 -17 -3 -13 4 -15 3 -8 -5 6 -5 61 -12 123 -14 62 -2 104 0 95 4 -10 3 -55
7 -101 7 -52 1 -81 5 -77 11 5 9 182 5 212 -5 13 -4 17 -101 6 -157 l-5 -28
-161 -1 c-89 0 -156 -3 -149 -6 6 -2 10 -8 7 -13 -6 -10 34 -25 42 -16 4 3 -1
6 -10 6 -9 0 -17 5 -17 10 0 11 182 14 193 4 3 -3 3 -12 0 -20 -4 -11 -31 -14
-120 -14 -63 0 -112 3 -110 8 3 4 1 16 -4 27 -7 16 -8 14 -5 -10 3 -29 4 -30
64 -33 34 -2 62 -7 62 -12 0 -6 45 -10 105 -10 95 0 105 -2 105 -18 0 -10 3
-22 6 -25 4 -4 8 -44 9 -89 3 -87 12 -141 24 -134 4 3 4 31 0 63 -4 32 -8 70
-8 86 l-1 27 175 0 175 0 0 30 c0 29 10 36 48 31 6 -1 12 3 12 10 0 7 -9 9
-24 5 -14 -3 -28 -2 -31 4 -4 6 18 11 57 12 l63 1 -65 7 c-63 6 -61 7 34 8 55
1 96 5 93 9 -4 3 -29 5 -57 4 -32 -1 -50 3 -50 10 0 7 10 9 25 7 13 -3 22 -1
19 3 -7 11 -101 12 -108 1 -3 -5 8 -6 25 -4 17 3 29 0 29 -7 0 -6 -16 -11 -35
-11 -32 0 -35 3 -35 29 0 15 -3 49 -6 74 l-7 46 79 4 79 3 -77 2 c-70 2 -78 4
-78 21 0 16 8 21 48 24 l47 3 -47 2 c-47 2 -48 3 -49 35 0 17 -1 53 -2 79 l-2
47 40 4 40 4 -45 3 -45 3 45 7 45 7 -42 1 c-41 2 -43 4 -43 32 0 31 -30 99
-44 100 -4 0 -6 -6 -3 -14 7 -18 -13 -26 -68 -26 -31 0 -47 5 -54 18 -6 9 -11
11 -11 5 0 -18 -20 -16 -20 1 0 7 -10 16 -22 19 -13 3 -33 9 -45 12 -13 4 -23
4 -23 1z m-70 -252 l0 -46 -101 5 c-56 4 -104 9 -107 12 -3 3 42 6 99 6 57 1
94 4 81 6 -12 2 -20 8 -18 12 3 3 -5 7 -17 7 -209 2 -277 6 -277 13 0 6 60 8
153 5 100 -4 147 -2 138 4 -14 10 -12 11 42 21 4 0 7 -20 7 -45z m-142 -11
c-10 -2 -28 -2 -40 0 -13 2 -5 4 17 4 22 1 32 -1 23 -4z m502 -235 c-1 -18 2
-62 5 -97 l7 -64 -109 9 c-135 10 -171 10 -205 0 l-28 -8 0 80 c0 44 -3 87 -6
96 -5 14 13 16 165 16 l172 0 -1 -32z m-350 -39 c0 -26 -4 -38 -11 -34 -6 4
-54 7 -107 7 l-97 1 65 8 c36 4 83 12 105 17 l40 10 -42 1 c-24 0 -43 5 -43
10 0 6 19 12 43 14 23 2 43 4 45 5 1 1 2 -16 2 -39z"/>
<path d="M1860 3296 c0 -9 30 -14 35 -6 4 6 -3 10 -14 10 -12 0 -21 -2 -21 -4z"/>
<path d="M2056 3275 c4 -8 16 -15 27 -15 20 0 20 0 1 15 -25 19 -35 19 -28 0z"/>
<path d="M1833 3266 c-4 -7 -17 -16 -28 -19 -20 -5 -20 -5 1 -6 26 -1 61 23
46 33 -6 3 -14 0 -19 -8z"/>
<path d="M1911 3271 c-11 -7 -11 -10 0 -15 8 -3 2 -4 -13 -1 -16 3 -28 1 -28
-5 0 -6 30 -9 75 -8 41 0 75 5 75 10 0 5 -19 8 -42 7 -29 -2 -42 1 -40 9 2 14
-8 15 -27 3z"/>
<path d="M2035 3250 c3 -5 13 -10 21 -10 8 0 12 5 9 10 -3 6 -13 10 -21 10 -8
0 -12 -4 -9 -10z"/>
<path d="M1864 3195 c21 -16 32 -13 21 4 -3 6 -14 11 -23 11 -15 -1 -15 -2 2
-15z"/>
<path d="M1940 3200 c0 -6 7 -10 15 -10 8 0 15 2 15 4 0 2 -7 6 -15 10 -8 3
-15 1 -15 -4z"/>
<path d="M1980 3206 c0 -2 8 -10 18 -17 15 -13 16 -12 3 4 -13 16 -21 21 -21
13z"/>
<path d="M2020 3196 c0 -8 61 -12 66 -4 3 4 -11 8 -30 8 -20 0 -36 -2 -36 -4z"/>
<path d="M1910 3165 c0 -11 7 -15 23 -13 12 2 22 8 22 13 0 6 -10 11 -22 13
-16 2 -23 -2 -23 -13z"/>
<path d="M1433 3763 c15 -2 25 -8 22 -12 -2 -5 8 -6 23 -3 24 5 24 6 7 13 -11
4 -33 7 -50 7 l-30 -1 28 -4z"/>
<path d="M2223 3763 c15 -2 39 -2 55 0 15 2 2 4 -28 4 -30 0 -43 -2 -27 -4z"/>
<path d="M1528 3753 c6 -2 18 -2 25 0 6 3 1 5 -13 5 -14 0 -19 -2 -12 -5z"/>
<path d="M2338 3753 c7 -3 16 -2 19 1 4 3 -2 6 -13 5 -11 0 -14 -3 -6 -6z"/>
<path d="M1433 3723 c15 -2 37 -2 50 0 12 2 0 4 -28 4 -27 0 -38 -2 -22 -4z"/>
<path d="M1548 3713 c6 -2 18 -2 25 0 6 3 1 5 -13 5 -14 0 -19 -2 -12 -5z"/>
<path d="M1645 3710 c33 -4 64 -3 70 2 5 4 -22 7 -60 7 l-70 -2 60 -7z"/>
<path d="M1428 3698 c9 -8 160 -13 168 -5 3 3 -35 7 -85 9 -49 2 -87 0 -83 -4z"/>
<path d="M1140 3690 c0 -5 11 -10 25 -10 14 0 25 5 25 10 0 6 -11 10 -25 10
-14 0 -25 -4 -25 -10z"/>
<path d="M31 3686 c10 -8 129 -13 123 -5 -3 5 -33 9 -66 9 -34 0 -59 -2 -57
-4z"/>
<path d="M1201 3686 c7 -8 139 -10 146 -3 3 4 -29 7 -72 7 -43 0 -76 -2 -74
-4z"/>
<path d="M1390 3681 c0 -6 6 -11 13 -11 55 -1 228 -12 252 -15 20 -3 25 -2 15
4 -8 5 -71 11 -139 15 -68 4 -128 9 -132 12 -5 3 -9 0 -9 -5z"/>
<path d="M1611 3686 c9 -9 119 -13 113 -5 -3 5 -30 9 -61 9 -31 0 -54 -2 -52
-4z"/>
<path d="M1493 3643 c26 -2 68 -2 95 0 26 2 4 3 -48 3 -52 0 -74 -1 -47 -3z"/>
<path d="M1390 3627 c3 -3 68 -8 145 -12 77 -4 137 -4 134 -1 -7 7 -286 20
-279 13z"/>
<path d="M2223 3623 c9 -2 23 -2 30 0 6 3 -1 5 -18 5 -16 0 -22 -2 -12 -5z"/>
<path d="M2206 3602 c-3 -5 1 -9 9 -9 8 0 12 4 9 9 -3 4 -7 8 -9 8 -2 0 -6 -4
-9 -8z"/>
<path d="M2268 3593 c17 -2 47 -2 65 0 17 2 3 4 -33 4 -36 0 -50 -2 -32 -4z"/>
<path d="M3382 3570 c0 -19 2 -27 5 -17 2 9 2 25 0 35 -3 9 -5 1 -5 -18z"/>
<path d="M83 3573 c15 -2 37 -2 50 0 12 2 0 4 -28 4 -27 0 -38 -2 -22 -4z"/>
<path d="M2173 3573 c26 -2 67 -2 90 0 23 2 2 3 -48 3 -49 0 -68 -1 -42 -3z"/>
<path d="M363 3563 c20 -2 54 -2 75 0 20 2 3 4 -38 4 -41 0 -58 -2 -37 -4z"/>
<path d="M1058 3543 c7 -3 16 -2 19 1 4 3 -2 6 -13 5 -11 0 -14 -3 -6 -6z"/>
<path d="M1 3488 c2 -35 3 -37 6 -13 3 17 9 36 15 43 8 9 6 12 -6 12 -12 0
-16 -9 -15 -42z"/>
<path d="M1036 3462 c-7 -13 293 -22 322 -10 9 4 -37 7 -104 7 -67 1 -141 4
-166 7 -28 4 -48 2 -52 -4z"/>
<path d="M1410 3465 c0 -7 39 -12 49 -5 7 4 -1 7 -18 8 -17 0 -31 -1 -31 -3z"/>
<path d="M1933 3449 c-31 -11 -29 -23 2 -15 18 5 25 2 25 -9 0 -8 5 -15 11
-15 5 0 8 4 5 9 -6 9 3 7 81 -17 24 -7 30 -7 27 3 -3 6 -31 18 -62 25 -31 7
-59 16 -62 20 -3 4 -15 4 -27 -1z"/>
<path d="M1400 3438 c0 -5 26 -9 58 -10 l57 -1 -55 -6 c-42 -5 -56 -10 -58
-23 -2 -10 2 -18 8 -18 5 0 9 6 8 13 -2 8 15 13 55 15 33 2 55 7 52 13 -4 5
11 9 34 9 49 0 55 -17 9 -23 -21 -2 -9 -5 32 -7 55 -3 47 -5 -50 -10 l-115 -6
155 -1 c85 0 143 2 128 4 -16 2 -28 9 -28 14 0 5 -18 9 -40 9 -51 0 -53 18 -2
22 20 2 -27 6 -106 9 -78 2 -142 1 -142 -3z"/>
<path d="M1124 3428 c-3 -4 52 -8 122 -10 69 -2 128 0 131 5 2 4 -29 7 -69 8
-40 0 -97 2 -126 2 -30 1 -56 -1 -58 -5z"/>
<path d="M2228 3433 c6 -2 18 -2 25 0 6 3 1 5 -13 5 -14 0 -19 -2 -12 -5z"/>
<path d="M2210 3408 c0 -5 37 -7 83 -7 85 2 75 6 -26 11 -31 2 -57 0 -57 -4z"/>
<path d="M1125 3402 c9 -10 137 -12 153 -3 9 5 -21 8 -72 9 -48 0 -84 -3 -81
-6z"/>
<path d="M1890 3400 c-19 -6 -14 -7 22 -6 25 0 44 4 41 8 -5 10 -29 9 -63 -2z"/>
<path d="M2148 3403 c12 -2 30 -2 40 0 9 3 -1 5 -23 4 -22 0 -30 -2 -17 -4z"/>
<path d="M1313 3393 c9 -2 25 -2 35 0 9 3 1 5 -18 5 -19 0 -27 -2 -17 -5z"/>
<path d="M1838 3383 c-24 -6 -23 -23 2 -23 11 0 20 7 20 15 0 8 -1 14 -2 14
-2 -1 -11 -3 -20 -6z"/>
<path d="M1955 3370 c-3 -6 -1 -10 5 -10 6 0 9 -4 6 -9 -3 -5 5 -11 18 -13 28
-6 26 11 -4 30 -12 7 -21 8 -25 2z"/>
<path d="M2038 3373 c-10 -2 -18 -11 -18 -19 0 -11 7 -13 28 -8 34 8 36 10 27
23 -6 11 -9 12 -37 4z"/>
<path d="M1409 3368 c0 -2 -2 -15 -3 -30 -1 -21 3 -28 16 -28 10 0 18 -4 18
-9 0 -10 43 -7 61 5 8 4 9 3 5 -4 -9 -16 7 -15 22 0 8 8 12 8 12 1 0 -14 182
-12 187 2 2 6 -9 10 -24 11 -286 4 -280 3 -286 24 -5 18 0 20 49 20 41 0 54
-4 54 -15 0 -8 8 -15 18 -14 10 0 12 3 5 6 -29 11 -10 23 37 23 30 0 50 -4 50
-11 0 -7 -14 -10 -35 -7 -19 2 -35 1 -35 -3 0 -4 27 -9 60 -11 33 -1 60 0 60
5 0 4 -9 7 -20 7 -25 0 -26 17 -2 23 9 3 -43 5 -115 6 -73 0 -133 0 -134 -1z"/>
<path d="M105 3330 l-30 -8 27 -1 c15 0 30 4 33 9 3 6 5 9 3 9 -2 -1 -16 -5
-33 -9z"/>
<path d="M1703 3333 c9 -2 23 -2 30 0 6 3 -1 5 -18 5 -16 0 -22 -2 -12 -5z"/>
<path d="M5860 3310 c0 -5 15 -10 33 -10 24 0 28 3 17 10 -20 13 -50 13 -50 0z"/>
<path d="M42 3290 c0 -14 2 -19 5 -12 2 6 2 18 0 25 -3 6 -5 1 -5 -13z"/>
<path d="M73 3304 c4 -4 40 -6 82 -5 46 1 75 -2 75 -9 0 -6 -33 -10 -82 -11
-46 -1 -75 -3 -65 -6 9 -2 17 -8 17 -13 0 -5 -8 -11 -17 -13 -10 -3 12 -5 50
-6 37 0 67 -4 67 -8 0 -5 -21 -7 -47 -6 -26 1 -54 -2 -62 -7 -13 -8 -11 -10 9
-11 l25 -1 -25 -8 c-28 -9 -14 -12 45 -11 22 1 47 -3 55 -9 11 -8 -4 -10 -58
-8 -39 2 -72 0 -72 -4 0 -5 32 -8 70 -8 40 0 70 -4 70 -10 0 -6 -29 -10 -66
-10 -56 0 -65 -2 -62 -17 2 -10 16 -20 33 -24 17 -4 39 -10 49 -14 13 -6 17
-5 12 3 -4 6 4 12 21 15 16 2 -2 5 -39 6 -38 0 -68 5 -68 11 0 5 68 9 167 9
128 1 170 4 182 15 9 8 25 16 36 19 11 2 -6 5 -37 6 -71 1 -78 21 -8 21 59 0
90 21 90 62 l0 28 -90 0 c-57 0 -90 4 -90 11 0 6 31 9 89 7 49 -2 87 0 85 4
-3 5 -105 8 -226 8 -122 0 -218 -3 -215 -6z m257 -14 c0 -5 -20 -10 -45 -10
-25 0 -45 5 -45 10 0 6 20 10 45 10 25 0 45 -4 45 -10z m54 -29 c3 -4 -57 -8
-134 -9 -77 0 -140 4 -140 9 0 11 267 12 274 0z m126 0 c0 -11 -95 -9 -106 2
-4 4 18 7 49 7 32 0 57 -4 57 -9z m0 -28 c0 -5 -57 -7 -127 -5 -188 4 -199 9
-25 11 83 0 152 -2 152 -6z m-163 -27 c3 -3 -45 -5 -108 -5 -69 1 -98 4 -74 8
51 8 173 6 182 -3z m119 3 c3 -5 -20 -9 -51 -9 -31 0 -54 4 -51 8 7 12 95 12
102 1z m-206 -29 c0 -5 -9 -10 -20 -10 -11 0 -20 5 -20 10 0 6 9 10 20 10 11
0 20 -4 20 -10z m100 0 c11 -7 0 -10 -37 -10 -29 0 -53 5 -53 10 0 13 70 13
90 0z m66 -29 c-8 -12 -206 -14 -206 -2 0 5 48 10 106 10 61 1 103 -3 100 -8z"/>
<path d="M1500 3248 c0 -11 72 -10 89 1 9 6 -4 9 -37 8 -29 -1 -52 -5 -52 -9z"/>
<path d="M2293 3253 c9 -2 23 -2 30 0 6 3 -1 5 -18 5 -16 0 -22 -2 -12 -5z"/>
<path d="M2444 3135 c0 -71 1 -99 3 -62 2 37 2 96 0 130 -2 34 -3 4 -3 -68z"/>
<path d="M2424 3100 c0 -80 2 -112 3 -72 2 39 2 105 0 145 -1 39 -3 7 -3 -73z"/>
<path d="M1044 3208 c-3 -4 16 -8 42 -8 26 0 44 3 40 7 -10 11 -76 11 -82 1z"/>
<path d="M1142 3214 c8 -7 88 -8 95 0 4 3 -18 6 -47 6 -29 0 -51 -3 -48 -6z"/>
<path d="M1254 3209 c-6 -11 38 -15 81 -8 46 7 40 10 -28 12 -27 1 -51 -1 -53
-4z"/>
<path d="M1411 3159 c2 -40 7 -53 21 -57 10 -2 18 -8 18 -13 0 -5 8 -9 18 -9
15 0 15 2 2 11 -11 8 -9 9 10 3 14 -4 51 -6 82 -5 34 1 58 -3 58 -9 0 -6 -37
-10 -96 -10 -73 0 -94 3 -88 13 6 9 4 9 -7 -1 -9 -8 -12 -34 -11 -84 3 -70 10
-96 19 -70 3 8 26 11 71 10 53 -1 58 -2 22 -5 -90 -8 -56 -18 43 -13 106 6
127 11 127 36 0 8 5 14 10 14 14 0 13 37 -1 42 -8 3 -5 10 6 22 17 16 13 17
-91 15 -60 -1 -125 -4 -144 -7 l-35 -6 35 -7 35 -6 -40 -2 c-34 -1 -41 2 -42
19 -2 19 5 20 125 21 70 0 136 4 147 9 13 6 3 7 -27 3 -33 -4 -48 -2 -48 6 0
6 15 11 33 12 50 2 82 13 85 32 3 13 -4 17 -35 18 l-38 2 35 7 c24 5 -2 8 -85
11 l-120 3 90 6 c94 7 91 13 -6 11 -42 0 -58 3 -63 14 -4 11 -21 15 -61 15
l-56 0 2 -51z m104 31 c4 -6 -13 -10 -45 -10 -32 0 -49 4 -45 10 3 6 24 10 45
10 21 0 42 -4 45 -10z m-50 -30 c-38 -7 -38 -7 18 -9 42 -1 57 -5 57 -15 0
-11 10 -13 39 -9 23 3 41 1 45 -6 5 -8 -23 -11 -96 -11 l-103 0 -2 30 c-2 29
-1 30 40 29 l42 -2 -40 -7z m178 -17 c-18 -2 -48 -2 -65 0 -18 2 -4 4 32 4 36
0 50 -2 33 -4z m57 -21 c0 -5 -13 -9 -30 -10 -16 0 -30 4 -30 9 0 5 14 9 30 9
17 0 30 -4 30 -8z m40 -2 c0 -5 -7 -10 -15 -10 -8 0 -15 5 -15 10 0 6 7 10 15
10 8 0 15 -4 15 -10z m-155 -90 c-3 -5 -21 -10 -38 -10 -24 0 -28 3 -17 10 20
13 63 13 55 0z m65 6 c0 -2 -11 -6 -25 -8 -14 -3 -25 -1 -25 3 0 5 11 9 25 9
14 0 25 -2 25 -4z m45 -6 c-3 -5 -12 -7 -20 -3 -21 7 -19 13 6 13 11 0 18 -4
14 -10z m-95 -20 c0 -6 -35 -9 -87 -8 l-88 2 80 6 c44 3 83 7 88 8 4 1 7 -2 7
-8z m70 0 c0 -5 -13 -10 -30 -10 -16 0 -30 5 -30 10 0 6 14 10 30 10 17 0 30
-4 30 -10z m40 -20 c0 -6 -31 -10 -72 -10 -40 0 -104 -3 -143 -6 -50 -5 -67
-4 -60 4 6 7 60 13 130 15 66 1 126 4 133 5 6 1 12 -2 12 -8z m-110 -31 c0 -5
-18 -9 -40 -9 -22 0 -40 4 -40 8 0 4 18 8 40 9 22 1 40 -2 40 -8z m90 0 c0 -6
-10 -10 -22 -9 -36 3 -45 -1 -23 -10 15 -7 9 -9 -25 -9 -42 0 -43 1 -22 12 12
7 19 16 16 20 -4 4 11 7 34 7 23 0 42 -5 42 -11z m-197 -6 c-13 -2 -33 -2 -45
0 -13 2 -3 4 22 4 25 0 35 -2 23 -4z"/>
<path d="M1465 3130 c-25 -11 1 -11 35 0 20 6 21 8 5 8 -11 0 -29 -3 -40 -8z"/>
<path d="M2293 3203 c15 -2 37 -2 50 0 12 2 0 4 -28 4 -27 0 -38 -2 -22 -4z"/>
<path d="M1203 3103 c37 -2 97 -2 135 0 37 2 6 3 -68 3 -74 0 -105 -1 -67 -3z"/>
<path d="M5234 3101 c11 -17 -4 -222 -15 -215 -5 3 -9 1 -9 -5 0 -5 6 -12 13
-15 10 -5 10 -7 0 -12 -9 -4 -13 -38 -13 -121 l0 -115 -37 6 c-21 3 -155 17
-298 31 -143 14 -272 28 -287 31 -17 4 -28 2 -28 -4 0 -6 15 -12 33 -14 17 -2
31 -7 31 -13 -13 -85 -13 -98 -5 -80 5 11 12 33 16 49 l6 28 97 -7 c154 -10
424 -35 431 -39 3 -2 15 0 27 4 16 6 24 22 32 67 15 78 28 233 31 370 l1 43
388 -4 c213 -2 404 -4 425 -5 l37 -1 0 -157 c0 -206 18 -191 22 20 l3 157 -55
0 c-30 0 -235 3 -454 7 -312 5 -397 4 -392 -6z m-7 -368 c-2 -21 -4 -6 -4 32
0 39 2 55 4 38 2 -18 2 -50 0 -70z"/>
<path d="M358 3083 c34 -2 88 -2 120 0 31 2 3 3 -63 3 -66 0 -92 -1 -57 -3z"/>
<path d="M1985 3080 c-3 -5 1 -10 9 -10 9 0 16 5 16 10 0 6 -4 10 -9 10 -6 0
-13 -4 -16 -10z"/>
<path d="M2023 3075 c0 -8 6 -15 13 -15 7 0 18 -16 25 -35 11 -29 18 -35 41
-35 26 0 28 -2 18 -20 -8 -15 -8 -20 1 -20 6 0 13 9 16 20 4 15 14 20 37 20
47 1 150 12 156 17 3 2 -39 3 -93 1 -53 -2 -97 0 -97 5 0 4 29 7 65 7 36 0 65
3 65 8 0 4 -33 5 -72 4 -40 -2 -69 0 -65 4 4 4 56 11 115 15 l107 7 -108 -1
c-84 -1 -111 3 -118 14 -6 10 -9 1 -9 -28 0 -44 -7 -52 -27 -32 -9 9 -9 16 0
31 10 15 9 21 -3 28 -23 15 -37 11 -17 -4 14 -11 15 -15 4 -19 -9 -3 -19 4
-26 19 -12 27 -28 32 -28 9z"/>
<path d="M6147 2969 c-2 -68 -10 -190 -18 -271 -15 -164 -13 -171 44 -174 17
-1 52 -4 77 -7 25 -3 77 -9 115 -12 39 -3 88 -8 110 -10 22 -3 87 -7 145 -10
212 -11 286 -16 350 -25 72 -11 174 -9 187 4 4 4 11 40 15 79 4 40 14 133 22
207 8 74 15 172 15 216 l1 82 32 4 c18 3 62 4 98 3 267 -11 660 -15 660 -7 0
18 -77 22 -442 22 l-368 0 0 -53 c0 -98 -13 -267 -20 -267 -8 0 -3 252 5 303
l5 27 -148 0 c-81 0 -312 3 -513 7 l-367 6 -5 -124z m820 95 l191 -6 -5 -292
c-3 -160 -6 -292 -8 -294 -2 -2 -58 1 -126 7 -68 5 -294 22 -501 38 l-378 27
0 31 c0 46 20 415 26 460 l4 40 303 -2 c166 -1 388 -5 494 -9z m213 -379 c0
-30 -4 -55 -10 -55 -11 0 -14 69 -4 94 11 27 14 18 14 -39z"/>
<path d="M3760 3061 c-6 -12 -9 -32 -7 -44 4 -19 4 -18 6 5 2 44 16 40 18 -5
1 -23 6 -53 12 -67 9 -21 10 -18 6 20 -4 34 -3 39 4 20 6 -16 9 -19 10 -8 1 9
9 22 19 28 15 10 14 11 -5 7 -25 -6 -32 8 -9 16 19 8 57 -3 50 -14 -5 -10 -4
-10 36 -14 14 -1 39 -5 55 -9 23 -5 25 -4 10 3 -14 7 -15 10 -5 11 12 0 11 3
-3 11 -9 6 -26 7 -37 4 -14 -4 -22 -1 -26 10 -4 9 -13 14 -22 10 -16 -6 -83
14 -93 29 -4 5 -12 -1 -19 -13z m43 -29 c-20 -21 -28 -20 -20 3 4 8 13 15 22
15 13 0 12 -3 -2 -18z m144 -18 c-3 -3 -12 -4 -19 -1 -8 3 -5 6 6 6 11 1 17
-2 13 -5z"/>
<path d="M3988 3035 c-3 -14 -1 -28 4 -31 4 -3 6 -10 3 -15 -4 -5 -2 -9 4 -9
6 0 7 15 4 38 -7 47 -9 49 -15 17z"/>
<path d="M3520 3034 c0 -8 5 -12 10 -9 6 3 10 10 10 16 0 5 -4 9 -10 9 -5 0
-10 -7 -10 -16z"/>
<path d="M80 3030 c0 -5 5 -10 10 -10 6 0 10 5 10 10 0 6 -4 10 -10 10 -5 0
-10 -4 -10 -10z"/>
<path d="M3478 2955 c-33 -171 -33 -158 0 -224 17 -32 37 -87 43 -120 7 -34
17 -61 22 -61 4 0 6 8 3 18 -2 9 -8 33 -11 52 -4 19 -22 67 -40 105 l-33 70
19 100 c11 55 18 111 17 125 -2 14 -11 -15 -20 -65z"/>
<path d="M2328 3023 c7 -3 16 -2 19 1 4 3 -2 6 -13 5 -11 0 -14 -3 -6 -6z"/>
<path d="M3546 3021 c-3 -5 1 -12 10 -15 10 -4 13 -13 9 -28 -5 -20 -4 -21 5
-6 8 13 8 23 0 38 -12 22 -16 24 -24 11z"/>
<path d="M3820 2990 c0 -5 7 -7 15 -4 8 4 15 8 15 10 0 2 -7 4 -15 4 -8 0 -15
-4 -15 -10z"/>
<path d="M3512 2970 c0 -14 2 -19 5 -12 2 6 2 18 0 25 -3 6 -5 1 -5 -13z"/>
<path d="M3761 2974 c0 -11 3 -14 6 -6 3 7 2 16 -1 19 -3 4 -6 -2 -5 -13z"/>
<path d="M3839 2971 c-19 -16 -24 -28 -23 -66 1 -28 -2 -41 -7 -33 -7 11 -9
10 -9 -1 0 -7 -6 -11 -15 -8 -8 4 -17 2 -20 -3 -4 -6 16 -10 48 -10 l54 0 0
55 c-1 34 -5 54 -12 52 -11 -4 -11 -21 0 -52 7 -20 6 -20 -9 -1 -21 27 -20 41
6 66 28 25 18 26 -13 1z m11 -98 c0 -7 -4 -13 -10 -13 -5 0 -10 3 -10 8 0 4
-3 18 -6 32 -6 24 -6 25 9 5 9 -11 17 -26 17 -32z"/>
<path d="M3915 2980 c-4 -6 1 -7 11 -3 12 5 15 3 9 -6 -6 -10 -2 -11 16 -6 23
7 23 7 4 -8 -19 -15 -19 -15 8 -28 20 -9 24 -15 15 -21 -8 -5 -2 -7 17 -7 17
0 24 3 18 6 -7 2 -13 11 -13 19 0 7 -6 11 -14 8 -8 -3 -17 0 -22 7 -4 7 -3 10
3 6 6 -4 13 0 17 8 6 16 2 20 -36 29 -15 3 -30 2 -33 -4z"/>
<path d="M1840 2971 c0 -5 10 -12 23 -14 16 -3 14 -5 -10 -6 -17 0 -35 -6 -38
-12 -5 -7 5 -8 29 -4 29 6 36 4 36 -9 0 -16 24 -20 99 -16 19 1 37 -4 42 -12
6 -9 9 -9 9 -1 0 12 -17 27 -35 29 -5 0 -24 2 -42 2 -17 1 -45 13 -61 27 -31
26 -52 32 -52 16z"/>
<path d="M1991 2970 c-17 -10 44 -54 65 -46 9 3 25 1 37 -6 24 -13 160 -12
262 2 38 5 4 6 -96 3 -137 -4 -157 -3 -162 11 -4 9 -13 16 -22 16 -8 0 -15 5
-15 10 0 6 -5 10 -11 10 -8 0 -9 -4 0 -13 20 -25 -2 -27 -24 -3 -13 15 -27 21
-34 16z"/>
<path d="M4355 2973 c-42 -4 -55 -10 -85 -42 -35 -37 -47 -61 -31 -61 16 0 61
27 54 33 -11 11 19 37 43 37 40 0 31 -36 -12 -50 -40 -14 -38 -22 7 -27 24 -2
30 0 25 12 -4 10 1 15 14 15 11 0 20 -4 20 -10 0 -5 8 -10 18 -10 14 0 15 2 2
10 -13 9 -13 10 0 11 8 1 2 5 -15 9 -21 6 -5 8 52 7 44 -1 79 1 76 6 -2 4 -35
7 -74 7 -38 0 -69 3 -69 7 0 4 10 17 22 30 12 13 17 22 12 21 -5 -1 -31 -3
-59 -5z"/>
<path d="M3745 2936 c3 -22 8 -42 10 -45 9 -8 4 43 -6 64 -6 15 -7 9 -4 -19z"/>
<path d="M5731 2944 c0 -11 3 -14 6 -6 3 7 2 16 -1 19 -3 4 -6 -2 -5 -13z"/>
<path d="M3771 2940 c0 -8 4 -24 9 -35 5 -13 9 -14 9 -5 0 8 -4 24 -9 35 -5
13 -9 14 -9 5z"/>
<path d="M3502 2920 c0 -14 2 -19 5 -12 2 6 2 18 0 25 -3 6 -5 1 -5 -13z"/>
<path d="M3605 2929 c-4 -6 -5 -12 -2 -15 2 -3 7 2 10 11 7 17 1 20 -8 4z"/>
<path d="M3891 2903 c1 -35 1 -36 9 -11 4 14 11 31 15 37 3 6 -1 11 -9 11 -12
0 -16 -10 -15 -37z"/>
<path d="M4678 2923 c12 -2 30 -2 40 0 9 3 -1 5 -23 4 -22 0 -30 -2 -17 -4z"/>
<path d="M4920 2926 c0 -2 8 -10 18 -17 15 -13 16 -12 3 4 -13 16 -21 21 -21
13z"/>
<path d="M1797 2914 c7 -3 10 -11 7 -18 -4 -10 6 -13 40 -12 50 1 61 13 21 21
-49 10 -80 14 -68 9z"/>
<path d="M4810 2910 c0 -5 5 -10 10 -10 6 0 10 5 10 10 0 6 -4 10 -10 10 -5 0
-10 -4 -10 -10z"/>
<path d="M4997 2912 c-5 -7 -2 -19 7 -28 19 -18 108 -21 146 -5 20 9 15 10
-27 5 -32 -3 -53 -2 -53 4 0 5 -9 12 -20 15 -11 3 -20 1 -20 -4 0 -16 -18 -9
-22 9 -3 12 -6 14 -11 4z"/>
<path d="M5078 2913 c7 -3 16 -2 19 1 4 3 -2 6 -13 5 -11 0 -14 -3 -6 -6z"/>
<path d="M1503 2902 c-42 -1 -73 -7 -73 -13 0 -7 -30 -9 -80 -7 -44 2 -80 0
-80 -4 0 -5 48 -7 108 -7 116 1 381 15 345 17 -13 1 -23 6 -23 11 0 9 -52 10
-197 3z"/>
<path d="M3567 2896 c-10 -25 -9 -28 5 -20 8 5 9 2 5 -10 -4 -10 -7 -23 -7
-29 0 -7 -4 -6 -10 3 -6 9 -10 10 -10 3 0 -6 4 -15 10 -18 10 -6 44 64 35 73
-3 3 -5 -1 -6 -9 0 -8 -3 -6 -8 5 -7 18 -8 18 -14 2z"/>
<path d="M3935 2900 c3 -5 8 -10 11 -10 2 0 4 5 4 10 0 6 -5 10 -11 10 -5 0
-7 -4 -4 -10z"/>
<path d="M4550 2899 c0 -7 -18 -9 -52 -5 -36 4 -45 3 -28 -3 14 -5 38 -9 55
-10 18 -1 26 -4 19 -11 -5 -5 -71 -10 -146 -12 -81 -2 -133 -7 -128 -12 12
-12 85 -13 198 -2 81 7 92 6 92 -8 0 -9 -8 -16 -18 -16 -11 0 -90 -7 -178 -15
-87 -9 -168 -15 -179 -14 -11 1 -33 0 -50 -1 -26 -2 -25 -3 12 -9 23 -4 77 -4
120 1 43 4 124 10 181 13 99 5 102 5 102 -16 0 -16 -5 -20 -20 -16 -11 3 -20
1 -20 -3 0 -5 9 -12 20 -15 11 -3 20 -15 20 -26 0 -10 5 -19 10 -19 6 0 10 42
10 105 0 63 -4 105 -10 105 -5 0 -10 -5 -10 -11z"/>
<path d="M4640 2893 c0 -10 8 -11 28 -7 37 9 38 11 2 16 -21 3 -30 0 -30 -9z"/>
<path d="M4750 2901 c-34 -6 -34 -11 3 -24 10 -4 16 -3 12 2 -3 5 5 11 17 13
13 2 19 6 13 9 -5 3 -26 3 -45 0z"/>
<path d="M4870 2899 c0 -5 5 -7 10 -4 6 3 10 8 10 11 0 2 -4 4 -10 4 -5 0 -10
-5 -10 -11z"/>
<path d="M5410 2885 c0 -14 4 -25 9 -25 4 0 6 11 3 25 -2 14 -6 25 -8 25 -2 0
-4 -11 -4 -25z"/>
<path d="M4830 2873 c-10 -23 -13 -25 -19 -11 -4 13 -10 15 -21 8 -8 -5 -10
-10 -5 -11 6 0 1 -4 -10 -9 -16 -7 -11 -9 21 -9 37 -1 43 2 48 25 9 36 2 40
-14 7z"/>
<path d="M5805 2890 c-3 -6 1 -7 9 -4 18 7 21 14 7 14 -6 0 -13 -4 -16 -10z"/>
<path d="M3607 2855 c-24 -50 -20 -58 4 -12 11 22 19 41 17 43 -3 2 -12 -12
-21 -31z"/>
<path d="M3978 2883 c6 -2 18 -2 25 0 6 3 1 5 -13 5 -14 0 -19 -2 -12 -5z"/>
<path d="M7511 2874 c0 -11 3 -14 6 -6 3 7 2 16 -1 19 -3 4 -6 -2 -5 -13z"/>
<path d="M7626 2882 c-2 -4 -1 -14 5 -22 7 -12 9 -10 9 8 0 23 -5 28 -14 14z"/>
<path d="M1137 2869 c7 -7 15 -10 18 -7 3 3 -2 9 -12 12 -14 6 -15 5 -6 -5z"/>
<path d="M1178 2873 c7 -3 16 -2 19 1 4 3 -2 6 -13 5 -11 0 -14 -3 -6 -6z"/>
<path d="M4687 2873 c-13 -13 -7 -21 13 -16 11 3 20 9 20 14 0 10 -24 12 -33
2z"/>
<path d="M4903 2873 c-7 -2 -13 -13 -13 -24 0 -10 -4 -19 -10 -19 -5 0 -10 5
-10 12 0 18 -26 -12 -35 -39 -5 -19 -2 -23 14 -23 12 0 21 5 21 10 0 6 -4 10
-10 10 -5 0 -10 5 -10 10 0 21 30 9 31 -12 l0 -23 10 23 c5 13 12 21 16 19 5
-3 8 10 9 29 0 19 0 34 0 33 -1 0 -7 -3 -13 -6z"/>
<path d="M4966 2861 c-13 -14 -22 -18 -26 -10 -5 7 -9 5 -14 -6 -5 -14 -1 -16
27 -10 39 9 40 9 35 30 -3 15 -5 15 -22 -4z"/>
<path d="M4590 2859 c0 -9 12 -20 45 -44 19 -13 19 -14 -5 -9 -21 4 -22 3 -5
-5 25 -11 31 -7 37 22 4 20 1 23 -14 19 -10 -2 -18 0 -18 6 0 5 -9 12 -20 15
-11 3 -20 1 -20 -4z"/>
<path d="M5001 2843 c-1 -18 -7 -23 -27 -23 -15 0 -23 -4 -18 -11 3 -6 17 -8
30 -5 16 4 24 2 24 -6 0 -9 3 -8 10 2 12 19 13 43 1 35 -5 -3 -12 3 -14 12 -4
14 -5 13 -6 -4z"/>
<path d="M5150 2849 c0 -6 -6 -9 -14 -6 -11 4 -12 -2 -3 -36 5 -23 9 -52 8
-64 -1 -28 7 -29 25 -5 20 26 17 59 -6 65 -33 8 -24 30 10 25 36 -5 39 5 5 20
-18 8 -25 8 -25 1z m20 -79 c0 -5 -2 -10 -4 -10 -3 0 -8 5 -11 10 -3 6 -1 10
4 10 6 0 11 -4 11 -10z"/>
<path d="M378 2843 c7 -3 16 -2 19 1 4 3 -2 6 -13 5 -11 0 -14 -3 -6 -6z"/>
<path d="M578 2833 c6 -2 18 -2 25 0 6 3 1 5 -13 5 -14 0 -19 -2 -12 -5z"/>
<path d="M628 2833 c7 -3 16 -2 19 1 4 3 -2 6 -13 5 -11 0 -14 -3 -6 -6z"/>
<path d="M4688 2820 c-25 -28 -23 -30 22 -30 35 0 40 3 39 23 0 12 -3 16 -6
10 -7 -18 -31 -16 -35 2 -2 13 -6 12 -20 -5z"/>
<path d="M5047 2820 c-3 -13 0 -20 9 -20 19 0 18 -10 -3 -25 -15 -11 -11 -13
25 -17 23 -2 42 -1 42 2 0 3 -15 22 -34 43 -30 34 -34 36 -39 17z"/>
<path d="M3761 2826 c2 -2 39 -7 82 -11 53 -5 77 -3 77 4 0 7 -30 11 -82 11
-45 0 -79 -2 -77 -4z"/>
<path d="M4040 2810 c8 -5 31 -10 50 -10 26 0 31 3 20 10 -8 5 -31 10 -50 10
-26 0 -31 -3 -20 -10z"/>
<path d="M7413 2805 c-3 -9 -3 -19 1 -22 3 -4 6 1 6 10 0 8 6 18 13 20 9 4 9
6 -1 6 -7 1 -15 -6 -19 -14z"/>
<path d="M3608 2789 c-10 -10 -13 -21 -8 -24 5 -3 14 4 20 16 15 27 10 30 -12
8z"/>
<path d="M3781 2794 c0 -11 3 -14 6 -6 3 7 2 16 -1 19 -3 4 -6 -2 -5 -13z"/>
<path d="M5761 2794 c0 -11 3 -14 6 -6 3 7 2 16 -1 19 -3 4 -6 -2 -5 -13z"/>
<path d="M7506 2801 c-4 -7 -5 -15 -2 -18 9 -9 19 4 14 18 -4 11 -6 11 -12 0z"/>
<path d="M4770 2781 c0 -10 9 -21 20 -24 11 -3 20 -1 20 4 0 5 -7 9 -15 9 -9
0 -12 6 -9 15 4 8 1 15 -5 15 -6 0 -11 -8 -11 -19z"/>
<path d="M4800 2790 c0 -5 5 -10 10 -10 6 0 10 5 10 10 0 6 -4 10 -10 10 -5 0
-10 -4 -10 -10z"/>
<path d="M7455 2790 c3 -5 8 -10 11 -10 2 0 4 5 4 10 0 6 -5 10 -11 10 -5 0
-7 -4 -4 -10z"/>
<path d="M7675 2790 c-3 -5 -1 -10 4 -10 6 0 11 5 11 10 0 6 -2 10 -4 10 -3 0
-8 -4 -11 -10z"/>
<path d="M7790 2779 c0 -5 5 -7 10 -4 6 3 10 8 10 11 0 2 -4 4 -10 4 -5 0 -10
-5 -10 -11z"/>
<path d="M3640 2765 c-12 -15 -12 -17 -1 -10 11 6 13 4 7 -11 -5 -14 -4 -16 4
-8 7 7 10 20 8 29 -3 17 -4 17 -18 0z"/>
<path d="M7961 2764 c0 -11 3 -14 6 -6 3 7 2 16 -1 19 -3 4 -6 -2 -5 -13z"/>
<path d="M4720 2760 c0 -5 -19 -10 -42 -10 -50 0 -47 -8 5 -12 26 -1 36 -6 33
-15 -4 -9 4 -13 27 -12 24 1 27 3 12 7 -13 5 -20 15 -19 30 1 12 -3 22 -7 22
-5 0 -9 -4 -9 -10z"/>
<path d="M4008 2743 c6 -2 18 -2 25 0 6 3 1 5 -13 5 -14 0 -19 -2 -12 -5z"/>
<path d="M4110 2734 c0 -8 5 -12 10 -9 6 3 10 10 10 16 0 5 -4 9 -10 9 -5 0
-10 -7 -10 -16z"/>
<path d="M5065 2739 c7 -10 55 -18 55 -9 0 4 -13 10 -29 12 -17 2 -28 1 -26
-3z"/>
<path d="M3938 2733 c6 -2 18 -2 25 0 6 3 1 5 -13 5 -14 0 -19 -2 -12 -5z"/>
<path d="M4761 2736 c11 -9 99 -15 99 -6 0 6 -23 10 -52 10 -28 0 -49 -2 -47
-4z"/>
<path d="M3576 2713 c-6 -14 -5 -15 5 -6 7 7 10 15 7 18 -3 3 -9 -2 -12 -12z"/>
<path d="M3820 2720 l-25 -8 25 -2 c21 -2 20 -4 -10 -11 -29 -6 -25 -7 20 -4
l55 4 -40 -15 -40 -14 38 6 c24 3 37 2 33 -4 -4 -6 3 -8 16 -5 19 4 20 3 8 -6
-9 -7 -10 -11 -3 -11 23 0 25 21 2 28 l-24 6 25 7 25 7 -25 2 c-23 1 -24 2 -5
10 14 7 8 8 -20 4 -30 -4 -36 -3 -25 5 17 12 6 13 -30 1z"/>
<path d="M4598 2723 c7 -3 16 -2 19 1 4 3 -2 6 -13 5 -11 0 -14 -3 -6 -6z"/>
<path d="M7625 2719 c-11 -16 -1 -19 13 -3 7 8 8 14 3 14 -5 0 -13 -5 -16 -11z"/>
<path d="M3605 2709 c-4 -6 -5 -12 -2 -15 2 -3 7 2 10 11 7 17 1 20 -8 4z"/>
<path d="M4668 2713 c6 -2 18 -2 25 0 6 3 1 5 -13 5 -14 0 -19 -2 -12 -5z"/>
<path d="M7400 2704 c0 -8 5 -12 10 -9 6 4 8 11 5 16 -9 14 -15 11 -15 -7z"/>
<path d="M3636 2702 c-3 -5 1 -9 9 -9 8 0 12 4 9 9 -3 4 -7 8 -9 8 -2 0 -6 -4
-9 -8z"/>
<path d="M4793 2703 c9 -2 23 -2 30 0 6 3 -1 5 -18 5 -16 0 -22 -2 -12 -5z"/>
<path d="M4850 2700 c8 -5 20 -10 25 -10 6 0 3 5 -5 10 -8 5 -19 10 -25 10 -5
0 -3 -5 5 -10z"/>
<path d="M5077 2690 c3 -11 7 -20 9 -20 2 0 4 9 4 20 0 11 -4 20 -9 20 -5 0
-7 -9 -4 -20z"/>
<path d="M5100 2706 c0 -2 13 -6 29 -8 17 -2 28 -1 25 4 -5 8 -54 12 -54 4z"/>
<path d="M7670 2700 c0 -5 5 -10 11 -10 5 0 7 5 4 10 -3 6 -8 10 -11 10 -2 0
-4 -4 -4 -10z"/>
<path d="M7715 2690 c3 -5 10 -10 16 -10 5 0 9 5 9 10 0 6 -7 10 -16 10 -8 0
-12 -4 -9 -10z"/>
<path d="M7578 2673 c7 -3 16 -2 19 1 4 3 -2 6 -13 5 -11 0 -14 -3 -6 -6z"/>
<path d="M3626 2634 c-36 -39 -76 -101 -58 -90 15 9 105 126 97 126 -3 0 -21
-16 -39 -36z"/>
<path d="M3789 2657 c12 -8 35 -12 50 -10 23 3 23 2 6 -6 -19 -9 -19 -10 3
-10 14 -1 21 -5 16 -12 -4 -7 0 -9 14 -5 15 5 22 2 25 -11 3 -13 5 -10 6 7 1
28 -26 42 -104 54 -37 6 -38 5 -16 -7z"/>
<path d="M4111 2518 c0 -87 2 -158 7 -158 7 0 5 252 -2 295 -2 11 -4 -51 -5
-137z"/>
<path d="M3770 2627 c0 -14 4 -28 9 -31 4 -3 7 6 5 20 -3 35 -14 43 -14 11z"/>
<path d="M3807 2624 c-11 -11 3 -24 26 -23 15 0 17 2 7 6 -8 3 -18 10 -21 15
-3 4 -8 5 -12 2z"/>
<path d="M895 2601 c-6 -5 -21 -11 -35 -14 l-25 -4 26 -2 c15 0 32 6 39 14 14
16 10 21 -5 6z"/>
<path d="M3871 2601 c-7 -5 -10 -14 -7 -20 5 -7 -2 -11 -18 -11 -36 0 -36 -37
0 -46 19 -5 22 -9 12 -15 -7 -5 -8 -9 -3 -9 22 0 30 17 31 63 0 26 0 47 0 47
-1 0 -7 -4 -15 -9z m-4 -56 c0 -8 -6 -15 -14 -15 -7 0 -13 7 -13 15 0 8 6 15
13 15 8 0 14 -7 14 -15z"/>
<path d="M3747 2533 c8 -66 15 -68 12 -5 -2 28 -6 52 -11 52 -4 0 -5 -21 -1
-47z"/>
<path d="M3898 2489 c2 -71 0 -89 -10 -83 -8 5 -8 1 2 -10 13 -16 12 -20 -5
-32 -18 -13 -18 -14 6 -14 l24 0 -3 115 c-2 63 -6 115 -10 115 -4 0 -6 -41 -4
-91z"/>
<path d="M5363 2533 c15 -2 39 -2 55 0 15 2 2 4 -28 4 -30 0 -43 -2 -27 -4z"/>
<path d="M5620 2510 c96 -10 198 -19 227 -19 88 -1 83 9 84 -185 0 -105 4
-163 9 -151 14 33 12 321 -2 333 -7 5 -85 15 -173 22 -266 20 -330 20 -145 0z"/>
<path d="M4590 2504 c0 -8 5 -12 10 -9 6 4 8 11 5 16 -9 14 -15 11 -15 -7z"/>
<path d="M5408 2503 c7 -3 16 -2 19 1 4 3 -2 6 -13 5 -11 0 -14 -3 -6 -6z"/>
<path d="M5518 2493 c12 -2 32 -2 45 0 12 2 2 4 -23 4 -25 0 -35 -2 -22 -4z"/>
<path d="M3805 2480 c-3 -5 -1 -10 4 -10 6 0 11 5 11 10 0 6 -2 10 -4 10 -3 0
-8 -4 -11 -10z"/>
<path d="M5658 2483 c6 -2 18 -2 25 0 6 3 1 5 -13 5 -14 0 -19 -2 -12 -5z"/>
<path d="M5563 2473 c15 -2 37 -2 50 0 12 2 0 4 -28 4 -27 0 -38 -2 -22 -4z"/>
<path d="M5738 2473 c12 -2 32 -2 45 0 12 2 2 4 -23 4 -25 0 -35 -2 -22 -4z"/>
<path d="M3750 2429 c0 -22 4 -38 8 -35 8 5 4 76 -4 76 -2 0 -4 -18 -4 -41z"/>
<path d="M5886 2455 c6 -15 -29 -97 -55 -127 -8 -10 -11 -18 -7 -18 3 0 -5
-22 -19 -49 -18 -34 -41 -58 -75 -79 -28 -17 -50 -36 -50 -43 0 -6 14 -1 33
11 17 12 40 24 49 27 18 5 148 250 148 278 0 8 -7 15 -15 15 -8 0 -12 -6 -9
-15z"/>
<path d="M3791 2433 c0 -25 1 -26 9 -8 12 27 12 35 0 35 -5 0 -10 -12 -9 -27z"/>
<path d="M4567 2363 c-40 -231 -45 -244 -93 -235 -24 4 -33 -11 -14 -23 18
-11 79 23 84 47 2 13 14 79 26 148 12 69 23 133 25 143 2 9 0 17 -4 17 -4 0
-15 -44 -24 -97z"/>
<path d="M4470 2430 c-9 -6 -10 -10 -3 -10 6 0 15 5 18 10 8 12 4 12 -15 0z"/>
<path d="M3345 2410 c-85 -11 -147 -30 -153 -48 -3 -11 2 -10 25 1 79 41 472
51 510 14 3 -3 2 -14 -1 -25 -5 -15 -25 -23 -89 -36 -45 -9 -101 -16 -124 -16
-25 0 -43 -5 -43 -11 0 -12 97 -4 154 12 17 5 44 9 61 9 65 1 85 54 33 85 -28
16 -54 20 -168 21 -74 2 -167 -1 -205 -6z"/>
<path d="M4072 2400 c0 -14 2 -19 5 -12 2 6 2 18 0 25 -3 6 -5 1 -5 -13z"/>
<path d="M4338 2403 c7 -3 16 -2 19 1 4 3 -2 6 -13 5 -11 0 -14 -3 -6 -6z"/>
<path d="M4238 2383 c7 -3 16 -2 19 1 4 3 -2 6 -13 5 -11 0 -14 -3 -6 -6z"/>
<path d="M4188 2373 c6 -2 18 -2 25 0 6 3 1 5 -13 5 -14 0 -19 -2 -12 -5z"/>
<path d="M4430 2370 c-20 -6 -21 -8 -5 -8 11 0 34 4 50 8 27 7 27 8 5 8 -14 0
-36 -4 -50 -8z"/>
<path d="M4071 2354 c0 -11 3 -14 6 -6 3 7 2 16 -1 19 -3 4 -6 -2 -5 -13z"/>
<path d="M3764 2324 c-3 -19 -11 -31 -18 -28 -6 2 -50 -3 -96 -12 -47 -9 -102
-18 -122 -21 -21 -3 -38 -9 -38 -14 0 -5 12 -6 28 -4 15 3 68 -3 117 -13 50
-11 97 -17 105 -13 8 3 -10 9 -40 13 -141 20 -154 31 -47 41 35 3 70 7 78 9 9
2 13 -5 12 -22 l-2 -25 10 27 c12 32 21 36 102 44 52 5 66 3 80 -11 9 -9 17
-12 17 -7 0 6 3 18 7 28 6 15 1 16 -48 11 -30 -4 -73 -11 -97 -16 -36 -7 -43
-6 -40 7 2 8 16 17 33 19 42 6 42 10 1 15 -34 4 -36 2 -42 -28z"/>
<path d="M4355 2355 c-5 -1 -70 -13 -142 -26 l-133 -22 0 -119 0 -119 38 7
c20 4 93 20 162 36 69 16 145 33 169 39 61 13 59 15 -9 14 -32 0 -58 -4 -57
-9 1 -5 -4 -11 -10 -13 -8 -3 -13 4 -13 16 0 22 24 28 93 23 17 -1 26 2 22 8
-3 5 -32 9 -63 7 -54 -2 -57 -3 -62 -31 -3 -16 -12 -30 -20 -31 -8 -2 -53 -10
-98 -20 -46 -9 -96 -18 -111 -20 l-27 -4 1 92 c0 51 3 97 7 103 10 16 54 11
50 -5 -2 -9 3 -11 13 -7 9 3 23 6 31 6 8 0 14 8 14 18 0 15 14 21 73 32 73 13
125 29 97 29 -8 -1 -19 -2 -25 -4z m-155 -45 c0 -5 -7 -10 -16 -10 -8 0 -12 5
-9 10 3 6 10 10 16 10 5 0 9 -4 9 -10z"/>
<path d="M3203 2333 c4 -3 5 -8 2 -13 -3 -4 6 -10 18 -12 15 -3 24 0 24 9 0 7
-6 13 -13 13 -7 0 -18 2 -26 3 -7 2 -10 2 -5 0z"/>
<path d="M3278 2313 c12 -2 30 -2 40 0 9 3 -1 5 -23 4 -22 0 -30 -2 -17 -4z"/>
<path d="M4038 2303 c6 -2 18 -2 25 0 6 3 1 5 -13 5 -14 0 -19 -2 -12 -5z"/>
<path d="M3266 2290 c5 -5 23 -10 39 -12 17 -2 -89 -22 -235 -46 -146 -24
-276 -45 -290 -48 -14 -2 -43 -6 -65 -10 -62 -8 -445 -70 -705 -114 -371 -62
-598 -99 -835 -136 -121 -19 -230 -40 -242 -46 -21 -10 -23 -18 -23 -92 0 -45
5 -88 11 -96 7 -11 9 13 7 80 l-2 94 34 8 c19 4 100 17 180 28 80 12 179 27
220 35 100 19 336 57 380 62 19 2 80 12 135 22 55 11 122 22 148 26 27 4 59 8
70 11 53 10 664 109 892 144 33 5 85 14 115 20 30 6 96 18 145 26 50 9 99 17
110 19 11 2 35 4 53 4 20 1 32 6 32 15 0 10 -21 13 -91 14 -50 0 -87 -4 -83
-8z"/>
<path d="M3905 2280 c-4 -6 -28 -8 -58 -5 -37 3 -45 2 -27 -4 14 -5 39 -9 55
-10 34 -1 63 13 47 23 -6 3 -14 2 -17 -4z"/>
<path d="M5175 2280 c-11 -5 -69 -14 -128 -21 -59 -7 -110 -16 -113 -21 -4 -6
12 -7 37 -4 192 24 218 29 223 42 3 8 4 14 3 13 -1 0 -11 -4 -22 -9z"/>
<path d="M5542 2278 c-7 -7 -12 -9 -12 -4 0 4 -13 -6 -30 -22 -16 -17 -30 -33
-30 -36 0 -9 33 7 51 25 28 28 74 33 116 12 20 -10 38 -23 40 -29 5 -15 -69
-26 -113 -18 -39 7 -87 -2 -79 -16 3 -5 54 -9 113 -8 59 1 101 3 94 6 -6 2
-12 8 -12 14 0 6 7 8 15 4 13 -5 13 -2 -1 25 -24 48 -121 78 -152 47z"/>
<path d="M3775 2259 c-4 -6 -5 -12 -2 -15 2 -3 7 2 10 11 7 17 1 20 -8 4z"/>
<path d="M3940 2211 c0 -38 -4 -61 -12 -64 -8 -3 -6 -6 5 -6 12 -1 17 -9 17
-29 0 -27 -2 -28 -56 -28 -56 -1 -74 -12 -73 -44 0 -9 4 -6 9 7 8 19 15 21 69
19 l61 -3 0 98 c0 54 -4 101 -10 104 -6 4 -10 -16 -10 -54z"/>
<path d="M5206 2261 c-3 -5 2 -11 12 -14 9 -2 25 -8 35 -12 10 -4 17 -3 17 5
0 6 -4 9 -9 6 -5 -3 -14 1 -21 9 -14 17 -26 19 -34 6z"/>
<path d="M1820 2247 c-18 -9 -26 -22 -28 -48 -5 -54 14 -65 85 -48 l58 14 0
45 0 45 -45 3 c-25 1 -56 -4 -70 -11z m100 -37 c0 -31 -4 -40 -17 -40 -10 0
-35 -3 -56 -7 l-38 -6 3 39 c3 38 4 39 48 45 25 3 48 7 53 7 4 1 7 -16 7 -38z"/>
<path d="M4133 2235 c0 -8 4 -12 9 -9 4 3 8 9 8 15 0 5 -4 9 -8 9 -5 0 -9 -7
-9 -15z"/>
<path d="M5560 2246 c0 -2 18 -6 39 -8 22 -2 37 0 35 4 -5 8 -74 11 -74 4z"/>
<path d="M1629 2227 c-39 -10 -49 -21 -49 -59 0 -42 24 -59 73 -52 70 9 87 22
87 64 0 58 -25 69 -111 47z m91 -47 c0 -37 -2 -40 -29 -40 -16 0 -42 -3 -59
-6 -29 -6 -30 -5 -30 34 -1 40 0 41 36 45 87 9 82 11 82 -33z"/>
<path d="M5103 2233 c9 -2 23 -2 30 0 6 3 -1 5 -18 5 -16 0 -22 -2 -12 -5z"/>
<path d="M5156 2231 c-3 -4 6 -6 19 -3 14 2 25 6 25 8 0 8 -39 4 -44 -5z"/>
<path d="M3535 2220 c17 -4 41 -8 55 -8 23 -1 23 0 5 8 -11 5 -36 8 -55 8
l-35 0 30 -8z"/>
<path d="M4947 2208 c-9 -6 -8 -8 3 -8 8 0 74 -7 145 -15 72 -8 150 -18 175
-20 25 -3 73 -10 108 -16 35 -7 65 -9 68 -6 8 7 -26 13 -231 41 -231 32 -253
34 -268 24z"/>
<path d="M5177 2209 c7 -7 15 -10 18 -7 3 3 -2 9 -12 12 -14 6 -15 5 -6 -5z"/>
<path d="M3500 2168 c0 -49 5 -47 14 5 4 23 3 37 -4 37 -5 0 -10 -19 -10 -42z"/>
<path d="M4125 2200 c3 -5 13 -10 21 -10 8 0 12 5 9 10 -3 6 -13 10 -21 10 -8
0 -12 -4 -9 -10z"/>
<path d="M5248 2193 c7 -3 16 -2 19 1 4 3 -2 6 -13 5 -11 0 -14 -3 -6 -6z"/>
<path d="M5508 2163 c7 -3 16 -2 19 1 4 3 -2 6 -13 5 -11 0 -14 -3 -6 -6z"/>
<path d="M5588 2163 c6 -2 18 -2 25 0 6 3 1 5 -13 5 -14 0 -19 -2 -12 -5z"/>
<path d="M5640 2160 c0 -5 7 -10 15 -10 8 0 15 5 15 10 0 6 -7 10 -15 10 -8 0
-15 -4 -15 -10z"/>
<path d="M3320 2144 c-41 -7 -109 -20 -150 -29 -41 -8 -127 -24 -190 -36 -63
-11 -146 -27 -185 -34 -38 -8 -133 -26 -210 -40 -77 -14 -212 -39 -300 -56
-215 -40 -281 -52 -550 -99 -126 -23 -275 -49 -330 -60 -55 -10 -116 -21 -135
-23 -42 -5 -191 -34 -275 -52 -49 -11 -54 -13 -25 -14 19 0 78 8 130 19 52 12
129 25 170 31 41 5 107 16 145 24 118 24 272 52 555 100 47 8 96 17 110 20 14
3 50 10 80 15 30 5 89 15 130 24 41 8 197 38 345 66 149 28 329 62 400 76 341
67 389 74 404 56 13 -16 13 -16 7 1 -3 10 -6 21 -6 23 0 7 -41 3 -120 -12z"/>
<path d="M5726 2129 c-28 -15 -35 -23 -26 -29 8 -5 19 -3 27 5 7 8 22 17 33
20 11 3 20 11 20 16 0 13 -10 11 -54 -12z"/>
<path d="M3732 2115 c-11 -12 -10 -15 3 -15 8 0 15 7 15 15 0 18 -2 18 -18 0z"/>
<path d="M5648 2123 c7 -3 16 -2 19 1 4 3 -2 6 -13 5 -11 0 -14 -3 -6 -6z"/>
<path d="M4023 2085 c0 -22 2 -30 4 -17 2 12 2 30 0 40 -3 9 -5 -1 -4 -23z"/>
<path d="M3502 2090 c0 -14 2 -19 5 -12 2 6 2 18 0 25 -3 6 -5 1 -5 -13z"/>
<path d="M5868 2103 c7 -3 16 -2 19 1 4 3 -2 6 -13 5 -11 0 -14 -3 -6 -6z"/>
<path d="M4330 2092 c0 -14 11 -21 26 -15 21 8 17 23 -6 23 -11 0 -20 -4 -20
-8z"/>
<path d="M4287 2083 c-4 -3 -7 -14 -7 -23 0 -12 -21 -21 -85 -35 -77 -17 -85
-21 -85 -41 0 -16 4 -22 15 -18 8 3 13 11 12 17 -1 7 6 11 16 11 9 -1 17 2 17
7 0 5 8 9 18 9 24 0 87 23 105 38 13 11 20 10 41 -3 33 -22 33 -15 1 19 -24
26 -36 31 -48 19z"/>
<path d="M5730 2050 c-19 -16 -42 -30 -50 -31 -9 0 -11 -2 -3 -5 12 -5 53 18
87 48 33 30 3 19 -34 -12z"/>
<path d="M4376 2061 c-4 -5 3 -7 14 -4 23 6 26 13 6 13 -8 0 -17 -4 -20 -9z"/>
<path d="M4160 2050 c-8 -5 -11 -12 -8 -16 10 -9 38 3 38 16 0 12 -10 13 -30
0z"/>
<path d="M3851 2046 c2 -2 18 -6 34 -10 22 -5 26 -4 15 4 -14 9 -59 15 -49 6z"/>
<path d="M4105 2041 c-6 -11 9 -23 19 -14 9 9 7 23 -3 23 -6 0 -12 -4 -16 -9z"/>
<path d="M3920 2026 c0 -10 9 -16 21 -16 24 0 21 23 -4 28 -10 2 -17 -3 -17
-12z"/>
<path d="M3975 2020 c-7 -11 30 -32 39 -23 11 11 6 21 -14 26 -11 3 -22 1 -25
-3z"/>
<path d="M3835 2011 c3 -6 22 -11 42 -11 44 0 41 5 -10 14 -27 5 -37 4 -32 -3z"/>
<path d="M4040 2010 c8 -5 24 -9 35 -9 l20 0 -20 9 c-11 5 -27 9 -35 9 -13 1
-13 0 0 -9z"/>
<path d="M5570 2000 c0 -11 2 -20 4 -20 2 0 6 9 9 20 3 11 1 20 -4 20 -5 0 -9
-9 -9 -20z"/>
<path d="M4410 2006 c0 -2 7 -7 16 -10 8 -3 12 -2 9 4 -6 10 -25 14 -25 6z"/>
<path d="M5365 2001 c-13 -6 3 -10 53 -15 55 -6 72 -11 72 -22 0 -13 -8 -14
-42 -9 -24 4 -46 13 -50 19 -5 8 -8 7 -8 -2 0 -7 -4 -11 -8 -8 -4 2 -14 1 -22
-4 -9 -6 3 -11 36 -16 86 -14 109 -12 112 13 2 13 -4 25 -15 31 -26 13 -105
21 -128 13z"/>
<path d="M5545 1958 c2 -21 0 -40 -5 -43 -11 -7 -50 -92 -50 -110 0 -27 17 -7
24 27 3 17 13 39 21 48 17 19 39 83 25 75 -5 -3 -11 5 -13 17 -2 13 -3 6 -2
-14z"/>
<path d="M5591 1963 c-6 -21 -11 -41 -11 -46 0 -4 -11 -24 -24 -45 -41 -61
-38 -74 14 -79 25 -2 61 -8 80 -13 43 -12 70 -13 70 -2 0 4 -8 8 -17 8 -10 0
-50 6 -90 13 -78 14 -79 17 -43 71 19 29 45 118 37 126 -3 3 -10 -11 -16 -33z"/>
<path d="M4011 1976 c2 -2 22 -6 44 -10 29 -5 36 -4 25 3 -13 10 -79 16 -69 7z"/>
<path d="M3307 1959 c6 -6 36 -13 65 -15 l53 -3 -49 9 c-26 5 -55 11 -65 15
-12 5 -13 3 -4 -6z"/>
<path d="M4585 1960 c27 -12 43 -12 25 0 -8 5 -22 9 -30 9 -10 0 -8 -3 5 -9z"/>
<path d="M3515 1950 l-40 -7 40 -1 c22 0 51 4 65 8 l25 8 -25 0 c-14 -1 -43
-4 -65 -8z"/>
<path d="M4638 1953 c7 -3 16 -2 19 1 4 3 -2 6 -13 5 -11 0 -14 -3 -6 -6z"/>
<path d="M4695 1940 c17 -4 41 -8 55 -8 22 0 22 1 -5 8 -16 4 -41 8 -55 8 -22
0 -22 -1 5 -8z"/>
<path d="M4798 1923 c6 -2 18 -2 25 0 6 3 1 5 -13 5 -14 0 -19 -2 -12 -5z"/>
<path d="M4848 1913 c7 -3 16 -2 19 1 4 3 -2 6 -13 5 -11 0 -14 -3 -6 -6z"/>
<path d="M4893 1903 c9 -2 23 -2 30 0 6 3 -1 5 -18 5 -16 0 -22 -2 -12 -5z"/>
<path d="M5050 1880 c63 -10 163 -27 221 -39 59 -11 113 -21 120 -20 19 1 -76
27 -125 34 -23 3 -90 14 -151 25 -60 11 -126 19 -145 19 -19 -1 17 -9 80 -19z"/>
<path d="M679 1846 c-2 -2 -49 -11 -104 -20 -55 -9 -122 -21 -150 -26 -27 -5
-95 -16 -150 -24 -221 -32 -275 -43 -275 -54 0 -5 62 2 138 15 75 13 148 25
162 28 51 7 228 36 310 50 47 8 97 15 112 15 15 0 30 5 33 10 6 10 -67 15 -76
6z"/>
<path d="M760 1740 c0 -46 3 -80 6 -77 9 8 9 146 0 154 -3 4 -6 -31 -6 -77z"/>
<path d="M5515 1770 c-3 -5 -1 -10 4 -10 6 0 11 5 11 10 0 6 -2 10 -4 10 -3 0
-8 -4 -11 -10z"/>
<path d="M5744 1759 c-2 -4 14 -9 36 -11 22 -2 40 -1 40 3 0 9 -70 17 -76 8z"/>
<path d="M5458 1738 c-2 -17 -9 -22 -26 -21 -12 2 -22 -2 -22 -7 0 -6 13 -10
29 -10 24 0 29 5 33 30 3 17 1 30 -3 30 -4 0 -9 -10 -11 -22z"/>
<path d="M5494 1738 c-12 -18 -11 -55 1 -55 5 0 10 15 10 34 0 37 -1 38 -11
21z"/>
<path d="M5886 1730 c10 -9 92 -26 84 -17 -3 3 -25 10 -49 16 -24 5 -39 6 -35
1z"/>
<path d="M5985 1711 c6 -5 37 -13 70 -15 56 -5 57 -5 13 3 -25 5 -57 12 -70
16 -16 5 -20 4 -13 -4z"/>
<path d="M5401 1681 c-15 -10 -8 -41 9 -41 5 0 9 3 9 8 -4 22 3 32 21 32 18 0
25 -10 21 -32 -2 -13 17 -9 21 4 10 30 -47 50 -81 29z"/>
<path d="M6121 1686 c2 -2 24 -6 49 -9 30 -4 38 -3 25 3 -19 8 -83 14 -74 6z"/>
<path d="M660 1655 c-30 -7 -190 -36 -355 -66 -165 -29 -302 -54 -304 -56 -13
-9 10 -11 44 -3 28 6 42 5 47 -3 6 -9 8 -9 8 0 0 15 104 37 138 29 21 -5 24
-4 12 5 -12 8 -8 9 18 5 20 -4 31 -2 27 4 -3 6 4 10 17 11 34 1 74 8 158 26
41 8 102 19 135 24 62 8 166 38 130 37 -11 0 -45 -6 -75 -13z"/>
<path d="M960 1661 c8 -6 23 -11 33 -11 10 0 15 -4 12 -10 -3 -6 1 -7 9 -4 24
9 19 24 -8 24 -13 0 -33 3 -43 6 -15 5 -15 4 -3 -5z"/>
<path d="M5505 1660 c-3 -5 -1 -10 4 -10 6 0 11 5 11 10 0 6 -2 10 -4 10 -3 0
-8 -4 -11 -10z"/>
<path d="M6270 1656 c0 -8 61 -12 66 -4 3 4 -11 8 -30 8 -20 0 -36 -2 -36 -4z"/>
<path d="M6430 1630 c19 -13 30 -13 30 0 0 6 -10 10 -22 10 -19 0 -20 -2 -8
-10z"/>
<path d="M960 1620 c-9 -6 -10 -10 -3 -10 6 0 15 5 18 10 8 12 4 12 -15 0z"/>
<path d="M5398 1611 c-4 -14 -4 -29 -1 -35 4 -6 6 -95 4 -199 l-3 -188 34 3
33 3 1 115 2 115 -13 -105 c-6 -58 -10 -108 -8 -112 2 -5 -4 -8 -14 -8 -17 0
-18 11 -15 173 3 173 -7 288 -20 238z"/>
<path d="M688 1613 c7 -3 16 -2 19 1 4 3 -2 6 -13 5 -11 0 -14 -3 -6 -6z"/>
<path d="M900 1610 c-18 -12 -2 -12 25 0 13 6 15 9 5 9 -8 0 -22 -4 -30 -9z"/>
<path d="M6493 1613 c9 -2 25 -2 35 0 9 3 1 5 -18 5 -19 0 -27 -2 -17 -5z"/>
<path d="M815 1600 l-30 -8 30 0 c17 0 39 3 50 8 l20 9 -20 -1 c-11 0 -33 -4
-50 -8z"/>
<path d="M6570 1600 c8 -5 22 -10 30 -10 13 0 13 1 0 10 -8 5 -22 10 -30 10
-13 0 -13 -1 0 -10z"/>
<path d="M640 1596 c0 -2 18 -6 40 -8 22 -2 40 0 40 4 0 5 -18 8 -40 8 -22 0
-40 -2 -40 -4z"/>
<path d="M743 1593 c9 -2 23 -2 30 0 6 3 -1 5 -18 5 -16 0 -22 -2 -12 -5z"/>
<path d="M6620 1592 c0 -5 15 -12 33 -15 17 -3 41 -8 52 -11 11 -4 7 0 -10 8
-47 21 -75 28 -75 18z"/>
<path d="M5462 1545 c0 -16 2 -22 5 -12 2 9 2 23 0 30 -3 6 -5 -1 -5 -18z"/>
<path d="M6798 1543 c7 -3 16 -2 19 1 4 3 -2 6 -13 5 -11 0 -14 -3 -6 -6z"/>
<path d="M5457 1475 c7 -49 13 -58 13 -19 0 16 -5 36 -10 44 -6 10 -7 2 -3
-25z"/>
<path d="M6935 1470 c-3 -5 -1 -10 4 -10 6 0 11 5 11 10 0 6 -2 10 -4 10 -3 0
-8 -4 -11 -10z"/>
<path d="M7178 1473 c12 -2 32 -2 45 0 12 2 2 4 -23 4 -25 0 -35 -2 -22 -4z"/>
<path d="M7084 1448 l-19 -23 23 19 c21 18 27 26 19 26 -2 0 -12 -10 -23 -22z"/>
<path d="M7315 1456 c39 -7 88 -16 110 -20 l40 -6 -44 14 c-24 8 -74 17 -110
20 l-66 5 70 -13z"/>
<path d="M6885 1440 c-10 -11 -13 -20 -8 -20 13 0 38 29 31 35 -3 3 -13 -4
-23 -15z"/>
<path d="M7480 1431 c8 -5 40 -11 72 -15 31 -3 64 -9 74 -13 11 -4 15 -2 11 4
-4 6 -30 14 -59 18 -98 14 -114 15 -98 6z"/>
<path d="M6835 1399 c-4 -5 -18 -14 -31 -19 -13 -5 -24 -14 -24 -20 0 -9 47
15 60 31 3 3 12 9 20 12 12 4 12 6 -2 6 -9 1 -20 -4 -23 -10z"/>
<path d="M7720 1394 c127 -24 273 -45 277 -40 3 3 -10 7 -28 10 -19 3 -88 14
-154 26 -67 11 -132 20 -145 19 -14 -1 9 -7 50 -15z"/>
<path d="M6980 1369 c0 -5 5 -7 10 -4 6 3 10 8 10 11 0 2 -4 4 -10 4 -5 0 -10
-5 -10 -11z"/>
<path d="M6945 1340 c-16 -17 -16 -20 -3 -15 9 4 19 13 22 21 7 19 2 18 -19
-6z"/>
<path d="M6729 1319 c-19 -16 -25 -25 -14 -20 31 16 59 40 54 46 -3 2 -21 -9
-40 -26z"/>
<path d="M6882 1288 c-19 -16 -32 -31 -30 -33 2 -2 19 10 37 26 19 16 32 31
30 33 -2 3 -19 -9 -37 -26z"/>
<path d="M6660 1275 c-7 -8 -19 -15 -26 -15 -8 0 -14 -7 -14 -15 0 -8 -5 -15
-10 -15 -6 0 -33 -17 -60 -37 -27 -21 -60 -46 -74 -56 -14 -10 -26 -23 -26
-28 0 -6 28 11 63 38 34 26 73 56 87 65 44 30 95 77 84 78 -6 0 -17 -7 -24
-15z"/>
<path d="M6805 1226 c-29 -16 -98 -77 -109 -95 -6 -9 4 -5 21 9 61 49 89 71
103 80 22 13 8 19 -15 6z"/>
<path d="M5485 1220 c3 -5 8 -10 11 -10 2 0 4 5 4 10 0 6 -5 10 -11 10 -5 0
-7 -4 -4 -10z"/>
<path d="M5383 1160 c-10 -17 -6 -50 7 -50 14 0 21 18 10 25 -22 14 -8 25 31
25 41 0 41 -1 37 -32 -5 -28 -4 -29 9 -13 27 37 17 53 -36 57 -36 2 -52 -1
-58 -12z"/>
<path d="M6330 1039 c-58 -38 -113 -76 -123 -84 -9 -8 -20 -15 -23 -15 -3 0
-38 -21 -77 -47 -40 -27 -76 -50 -82 -52 -5 -2 -36 -21 -67 -43 -31 -21 -62
-38 -67 -38 -6 0 -11 -4 -11 -9 0 -5 -12 -12 -26 -15 -14 -4 -24 -12 -22 -18
7 -19 28 -21 28 -4 0 9 5 16 11 16 6 0 31 14 56 30 24 17 48 30 54 30 5 0 9 5
9 10 0 6 6 10 13 10 7 0 22 7 32 15 11 8 37 28 59 45 21 16 43 30 48 30 5 0
33 18 63 40 30 22 58 40 62 40 5 0 40 23 78 51 39 28 77 55 85 59 8 5 13 11
10 13 -3 3 -52 -26 -110 -64z"/>
<path d="M6635 1100 c-3 -5 1 -10 10 -10 9 0 13 5 10 10 -3 6 -8 10 -10 10 -2
0 -7 -4 -10 -10z"/>
<path d="M5347 1087 c-3 -8 -1 -20 4 -28 5 -9 9 -9 9 -2 0 6 3 18 6 27 3 9 2
16 -4 16 -5 0 -12 -6 -15 -13z"/>
<path d="M5505 1071 c-3 -6 -2 -11 3 -11 5 0 12 -13 16 -30 3 -16 11 -30 17
-30 8 0 7 5 -2 16 -10 13 -10 17 2 25 10 6 10 9 2 9 -7 0 -12 5 -10 11 3 15
-19 23 -28 10z"/>
<path d="M6591 1060 c-15 -13 -18 -20 -9 -20 8 0 23 9 33 20 23 26 7 25 -24 0z"/>
<path d="M5441 1034 c0 -11 3 -14 6 -6 3 7 2 16 -1 19 -3 4 -6 -2 -5 -13z"/>
<path d="M5330 1026 c0 -7 -13 -27 -30 -44 -16 -18 -30 -37 -30 -43 0 -7 9 0
21 15 11 14 27 26 35 26 8 0 14 6 14 14 0 8 3 21 6 30 3 9 1 16 -5 16 -6 0
-11 -6 -11 -14z"/>
<path d="M6540 1024 c0 -5 -12 -17 -27 -26 -16 -10 -23 -18 -17 -18 18 0 60
37 52 46 -5 4 -8 3 -8 -2z"/>
<path d="M5478 1003 c13 -3 22 -12 22 -22 0 -9 9 -53 19 -97 11 -43 22 -92 26
-108 3 -15 8 -26 11 -23 3 3 -6 53 -20 113 -15 59 -25 108 -24 110 3 2 204
-227 226 -257 11 -16 3 -22 -80 -64 -113 -57 -178 -97 -178 -109 0 -5 -8 -15
-17 -22 -34 -24 -6 -24 29 0 20 13 46 27 58 31 13 4 19 12 16 21 -3 9 0 14 7
13 20 -4 65 12 78 27 6 8 15 11 20 8 5 -3 9 2 9 10 0 9 9 16 21 16 11 0 17 5
14 10 -3 6 3 10 13 10 17 0 32 18 32 39 0 37 -250 302 -284 300 -20 -2 -20 -2
2 -6z"/>
<path d="M5449 978 c-7 -172 -6 -408 1 -408 6 0 10 81 10 210 0 116 -2 210 -5
210 -3 0 -5 -6 -6 -12z"/>
<path d="M5566 968 c27 -33 116 -128 137 -146 9 -9 17 -24 17 -34 0 -11 7 -18
18 -18 10 0 13 3 6 8 -6 4 -14 16 -18 27 -6 22 -158 185 -171 185 -5 0 0 -10
11 -22z"/>
<path d="M6453 957 c-4 -7 -21 -18 -37 -25 -16 -7 -26 -15 -23 -18 6 -7 42 11
76 37 17 14 19 19 8 19 -9 0 -20 -6 -24 -13z"/>
<path d="M5647 935 c43 -58 82 -100 87 -94 3 3 -7 19 -23 36 -16 18 -28 33
-26 35 1 2 -12 14 -29 28 l-31 25 22 -30z"/>
<path d="M5247 907 c-3 -8 1 -14 8 -14 7 0 11 6 8 14 -3 7 -6 13 -8 13 -2 0
-5 -6 -8 -13z"/>
<path d="M5290 903 c0 -6 -11 -21 -24 -35 -14 -13 -28 -36 -31 -51 -4 -14 -12
-25 -19 -24 -6 1 -10 -4 -8 -10 1 -7 -4 -13 -11 -13 -8 0 -20 -12 -28 -27 -11
-24 -64 -109 -76 -123 -5 -5 -23 21 -23 33 0 4 10 15 21 25 32 25 54 52 51 59
-2 3 0 9 5 12 5 3 25 32 46 63 38 58 50 92 22 64 -8 -8 -15 -20 -15 -26 0 -12
-50 -83 -62 -88 -5 -2 -8 -10 -8 -18 0 -7 -16 -29 -37 -47 -30 -28 -35 -38
-29 -60 4 -19 13 -27 29 -27 16 1 31 15 55 58 18 32 44 71 57 87 21 26 26 28
36 15 9 -12 10 -11 6 8 -4 15 5 40 25 73 17 27 28 52 25 56 -4 3 -7 2 -7 -4z"/>
<path d="M6330 870 c-19 -16 -30 -30 -24 -30 5 0 23 14 39 30 36 38 30 38 -15
0z"/>
<path d="M5398 861 c-5 -18 -7 -99 -7 -180 1 -124 3 -138 10 -91 12 67 8 322
-3 271z"/>
<path d="M5303 835 c0 -8 4 -15 9 -15 4 0 8 7 8 15 0 8 -4 15 -8 15 -5 0 -9
-7 -9 -15z"/>
<path d="M5280 805 c0 -9 6 -12 15 -9 8 4 15 7 15 9 0 2 -7 5 -15 9 -9 3 -15
0 -15 -9z"/>
<path d="M5336 805 c-9 -26 -7 -32 5 -12 6 10 9 21 6 23 -2 3 -7 -2 -11 -11z"/>
<path d="M6190 770 c-14 -11 -20 -20 -15 -20 6 0 21 9 35 20 14 11 21 20 15
20 -5 0 -21 -9 -35 -20z"/>
<path d="M5311 739 c-14 -42 -7 -49 9 -9 7 17 10 33 8 36 -3 3 -11 -9 -17 -27z"/>
<path d="M5253 738 c2 -7 -4 -30 -15 -51 -25 -49 -58 -157 -49 -157 5 0 16 28
26 63 11 34 27 76 37 92 20 34 24 65 7 65 -6 0 -9 -6 -6 -12z"/>
<path d="M6118 719 c-21 -19 -25 -25 -10 -17 12 7 22 16 22 20 0 5 7 8 15 8 8
0 15 5 15 10 0 16 -7 12 -42 -21z"/>
<path d="M5559 705 c17 -57 19 -60 20 -34 1 14 -6 34 -14 45 -14 18 -14 17 -6
-11z"/>
<path d="M5790 726 c0 -18 56 -91 104 -137 11 -11 16 -22 12 -26 -4 -4 -10 -3
-14 2 -4 6 -20 21 -36 35 -22 18 -18 10 15 -30 24 -30 46 -57 49 -60 36 -34
164 -187 172 -206 6 -13 17 -24 25 -24 19 0 16 13 -7 28 -11 7 -20 19 -20 28
0 8 -21 37 -47 65 -25 27 -43 52 -39 56 3 4 30 -18 58 -48 38 -39 43 -43 21
-14 -41 53 -96 105 -88 82 4 -9 5 -17 2 -17 -14 0 -77 74 -76 89 0 12 3 11 9
-4 5 -11 9 -16 9 -10 1 5 8 -1 17 -13 8 -12 20 -22 26 -22 7 0 5 7 -4 18 -9 9
-43 46 -75 82 -33 36 -71 80 -86 98 -15 19 -27 31 -27 28z"/>
<path d="M5291 670 c-1 -25 56 -136 65 -127 2 2 -9 31 -24 63 -16 32 -32 66
-35 74 -3 9 -6 5 -6 -10z"/>
<path d="M6048 672 c-16 -9 -28 -20 -28 -25 0 -4 14 2 30 15 26 19 36 29 28
28 -2 0 -15 -8 -30 -18z"/>
<path d="M5881 663 c51 -66 68 -82 78 -70 7 9 2 16 -18 25 -15 7 -34 23 -41
37 -7 14 -18 25 -23 25 -5 0 -3 -8 4 -17z"/>
<path d="M5266 613 c-6 -14 -5 -15 5 -6 7 7 10 15 7 18 -3 3 -9 -2 -12 -12z"/>
<path d="M5663 592 c-15 -9 21 -56 39 -50 8 3 5 9 -10 17 -29 16 -28 29 3 29
18 0 25 -6 25 -19 0 -23 13 -24 30 -4 10 12 9 15 -4 15 -10 0 -14 5 -11 10 7
12 -54 14 -72 2z"/>
<path d="M5758 593 c7 -3 16 -2 19 1 4 3 -2 6 -13 5 -11 0 -14 -3 -6 -6z"/>
<path d="M5250 575 c0 -15 11 -25 37 -34 21 -8 55 -31 76 -52 26 -28 46 -39
67 -39 32 0 48 16 31 33 -8 8 -11 8 -11 -1 0 -20 -52 -13 -72 10 -10 12 -35
32 -56 44 -28 18 -32 24 -17 24 18 1 19 1 2 11 -9 5 -22 7 -28 3 -6 -3 -15 0
-20 7 -7 11 -9 9 -9 -6z"/>
<path d="M5610 569 c0 -5 -4 -8 -9 -4 -6 3 -9 -6 -8 -21 3 -34 -25 -54 -51
-37 -12 7 -24 8 -33 2 -12 -7 -11 -9 2 -9 26 0 49 -34 49 -73 l0 -37 -52 -1
c-46 0 -50 -2 -28 -10 41 -16 87 -3 98 29 6 17 6 33 -1 43 -13 20 -1 53 16 46
8 -3 13 6 14 25 1 17 10 36 20 44 17 13 17 13 1 14 -10 0 -18 -5 -18 -11z"/>
<path d="M5748 539 l-26 -29 41 -12 c32 -10 41 -10 45 0 2 7 12 12 22 12 25 0
50 10 50 21 0 5 -10 5 -22 0 -13 -4 -29 -6 -35 -4 -7 3 -13 0 -13 -6 0 -14
-37 -14 -45 -1 -3 6 0 13 8 16 13 5 20 35 8 33 -3 -1 -18 -14 -33 -30z"/>
<path d="M5840 549 c0 -5 5 -7 10 -4 6 3 10 8 10 11 0 2 -4 4 -10 4 -5 0 -10
-5 -10 -11z"/>
<path d="M5555 530 c3 -5 8 -10 11 -10 2 0 4 5 4 10 0 6 -5 10 -11 10 -5 0 -7
-4 -4 -10z"/>
<path d="M5171 504 c0 -11 3 -14 6 -6 3 7 2 16 -1 19 -3 4 -6 -2 -5 -13z"/>
<path d="M5227 513 c-4 -3 -7 -13 -7 -22 1 -13 3 -13 11 2 11 19 8 33 -4 20z"/>
<path d="M5667 508 c-2 -7 -1 -22 4 -33 6 -16 8 -14 8 13 1 33 -4 41 -12 20z"/>
<path d="M5630 495 c0 -8 4 -15 10 -15 5 0 7 7 4 15 -4 8 -8 15 -10 15 -2 0
-4 -7 -4 -15z"/>
<path d="M5160 469 c0 -5 5 -7 10 -4 6 3 10 8 10 11 0 2 -4 4 -10 4 -5 0 -10
-5 -10 -11z"/>
<path d="M5480 470 c0 -5 4 -10 9 -10 5 0 12 -12 14 -27 3 -23 4 -21 6 10 1
27 -3 37 -14 37 -8 0 -15 -4 -15 -10z"/>
<path d="M5130 410 c0 -5 5 -10 11 -10 5 0 7 5 4 10 -3 6 -8 10 -11 10 -2 0
-4 -4 -4 -10z"/>
<path d="M5110 349 c0 -5 5 -7 10 -4 6 3 10 8 10 11 0 2 -4 4 -10 4 -5 0 -10
-5 -10 -11z"/>
<path d="M5095 309 c-10 -30 0 -33 13 -4 6 14 7 25 2 25 -5 0 -12 -9 -15 -21z"/>
<path d="M6153 323 c-7 -3 -13 -11 -13 -20 0 -12 2 -12 16 2 18 17 16 25 -3
18z"/>
<path d="M5070 249 c0 -5 5 -7 10 -4 6 3 10 8 10 11 0 2 -4 4 -10 4 -5 0 -10
-5 -10 -11z"/>
<path d="M5029 145 c-11 -23 -12 -32 -3 -28 11 4 29 52 22 58 -2 1 -10 -12
-19 -30z"/>
<path d="M5001 84 c0 -11 3 -14 6 -6 3 7 2 16 -1 19 -3 4 -6 -2 -5 -13z"/>
<path d="M5046 48 c3 -4 12 -8 20 -8 8 0 14 4 14 8 0 4 -9 8 -19 8 -11 0 -17
-4 -15 -8z"/>
</g></g>
</svg>
