<svg version="1.0" xmlns="http://www.w3.org/2000/svg" viewBox="0 0 600.000000 338.000000"
 preserveAspectRatio="xMidYMid meet">
<metadata>
Created by potrace 1.16, written by Peter Selinger 2001-2019
</metadata>
<g transform="translate(0.000000,338.000000) scale(0.100000,-0.100000)"
fill="#000000" stroke="none">
<path style="--i:0" d="M317 3230 c3 -85 8 -160 12 -167 7 -14 3 120 -9 237 -6 63 -7 45 -3
-70z"/>
<path style="--i:1" d="M1510 3369 c27 -10 51 -14 467 -85 260 -45 312 -49 287 -24 -11 11
-534 103 -542 96 -3 -3 -1 -6 3 -6 19 0 530 -91 534 -96 2 -2 -4 -4 -15 -4
-22 0 -560 93 -666 115 -81 17 -106 18 -68 4z"/>
<path style="--i:2" d="M5190 3354 c-41 -8 -131 -28 -200 -44 -69 -16 -226 -52 -350 -80
-124 -27 -328 -75 -453 -106 -146 -35 -242 -54 -265 -51 -20 2 -28 2 -17 -1
l20 -4 -20 -9 c-40 -18 60 2 285 56 124 30 326 78 450 105 124 28 279 64 345
80 66 15 156 34 200 40 44 7 84 17 90 21 11 11 12 11 -85 -7z"/>
<path style="--i:3" d="M5795 3229 c-110 -21 -226 -39 -257 -39 -31 0 -60 -5 -63 -11 -5 -7
-8 -233 -5 -341 0 -5 5 -8 11 -8 5 0 7 4 4 10 -8 13 -9 316 0 329 3 6 30 11
58 11 55 0 441 71 453 83 4 4 5 7 3 6 -2 0 -94 -18 -204 -40z"/>
<path style="--i:4" d="M5875 3190 c-49 -10 -140 -26 -201 -36 l-111 -17 -5 -154 c-3 -84 -7
-155 -9 -157 -2 -2 -24 -7 -49 -9 -25 -3 -94 -13 -155 -22 -60 -10 -128 -19
-150 -20 -122 -8 -165 -18 -165 -36 0 -28 -22 -69 -37 -69 -7 0 -13 -7 -13
-15 0 -8 -4 -15 -10 -15 -5 0 -10 -10 -10 -23 0 -13 -7 -32 -15 -43 -8 -10
-14 -30 -14 -44 l1 -25 7 26 c5 14 14 36 22 50 7 13 12 30 11 37 -2 6 2 12 8
12 5 0 10 7 10 15 0 8 4 15 10 15 5 0 6 -7 3 -17 -4 -11 -3 -14 6 -9 6 4 11
13 10 19 -1 7 3 25 9 40 7 16 12 34 12 41 0 13 53 23 160 31 19 2 85 10 145
20 61 9 121 18 135 20 14 2 88 12 165 24 77 11 190 26 250 33 61 6 103 14 94
15 -17 4 -335 -33 -377 -44 l-25 -6 6 78 c4 43 7 111 7 151 0 81 -3 78 80 88
53 6 314 57 319 62 8 7 -31 2 -124 -16z m-288 -206 c-6 -133 -10 -165 -21
-153 -8 10 7 299 17 299 7 0 8 -49 4 -146z"/>
<path style="--i:5" d="M4870 3090 c-157 -32 -277 -59 -268 -59 14 -1 489 89 556 106 27 6
32 -23 5 -31 -74 -22 -587 -115 -609 -111 -16 3 -34 2 -41 -2 -8 -6 -12 -146
-16 -509 -2 -276 -8 -507 -11 -513 -4 -6 -2 -11 3 -11 6 0 11 1 12 3 0 1 3
229 6 507 2 278 7 509 10 513 3 5 17 5 33 2 16 -4 141 17 311 50 362 72 331
63 327 89 -2 11 -10 21 -18 22 -8 1 -143 -24 -300 -56z"/>
<path style="--i:6" d="M2028 3101 c18 -12 37 -21 42 -21 21 0 79 -63 95 -103 10 -23 17 -62
16 -86 -1 -25 1 -42 4 -39 13 13 5 97 -14 138 -23 51 -54 84 -91 95 -14 4 -27
11 -30 15 -3 4 -16 11 -30 14 -21 6 -20 4 8 -13z"/>
<path style="--i:7" d="M1933 3089 c-4 -4 -19 -9 -32 -11 -28 -4 -34 -13 -55 -88 -19 -68
-24 -178 -8 -206 6 -12 14 -39 17 -60 12 -76 -23 -104 -243 -196 -40 -16 -76
-38 -81 -47 -8 -14 -21 -16 -103 -10 -134 10 -524 22 -518 16 3 -3 82 -7 175
-11 390 -14 426 -17 421 -35 -3 -9 -14 -47 -26 -86 -11 -38 -24 -97 -28 -130
l-7 -60 -118 -3 c-121 -3 -122 -3 -119 38 0 3 -24 5 -54 5 -30 0 -54 -3 -54
-7 0 -5 3 -7 8 -7 4 1 24 1 45 0 30 -1 40 -6 44 -21 5 -20 12 -20 132 -18
l126 3 7 64 c9 77 42 194 69 237 15 25 109 84 134 84 3 0 45 18 91 41 73 34
88 46 100 76 16 37 12 99 -8 137 -23 43 3 227 36 262 16 17 98 34 126 27 14
-3 22 -2 18 2 -10 10 -85 14 -95 4z"/>
<path style="--i:8" d="M3142 3085 c3 -3 54 -14 114 -24 553 -96 772 -131 794 -128 24 4 24
4 -3 6 -24 1 -372 59 -792 132 -124 21 -120 21 -113 14z"/>
<path style="--i:9" d="M4870 2996 l-265 -52 -6 -314 c-4 -173 -7 -393 -8 -487 0 -108 -5
-173 -11 -173 -11 0 -12 263 -1 703 3 147 3 267 0 267 -6 0 -19 -587 -19 -845
l0 -140 75 -2 c45 -2 76 1 81 8 5 8 9 8 14 -1 4 -7 30 -14 56 -16 72 -5 94
-12 95 -32 0 -11 2 -13 6 -4 3 7 -2 21 -11 31 -15 16 -15 19 -1 31 8 7 15 22
14 34 0 15 -2 17 -7 6 -30 -66 -63 -77 -87 -30 -14 27 -14 30 0 30 9 0 20 -10
25 -22 l9 -23 0 22 c1 30 -12 36 -60 28 -31 -5 -43 -13 -50 -32 -9 -24 -13
-25 -61 -20 -28 4 -53 8 -55 11 -3 2 -1 220 3 483 l7 479 276 52 c152 29 279
52 282 52 4 0 4 -57 2 -127 -3 -71 -3 -126 -1 -123 3 3 8 62 11 133 l6 127
-27 -1 c-15 -1 -146 -25 -292 -53z m-82 -1021 c10 -22 9 -25 -8 -25 -19 0 -50
25 -50 41 0 21 47 8 58 -16z"/>
<path style="--i:10" d="M3896 3030 c11 -4 47 -11 80 -15 85 -11 104 -20 104 -50 0 -14 4 -25
8 -25 10 0 3 58 -7 64 -7 5 -187 36 -199 35 -4 0 2 -4 14 -9z"/>
<path style="--i:11" d="M342 2997 c-15 -18 6 -459 23 -487 4 -6 43 -9 93 -8 l87 2 -84 5
c-84 6 -85 6 -92 36 -8 32 -24 270 -22 320 2 56 4 61 13 40 7 -17 9 -18 9 -2
1 14 7 16 39 12 75 -11 548 -55 577 -54 25 1 -573 66 -627 68 -26 1 -25 58 1
66 11 3 69 -1 129 -10 61 -9 129 -15 153 -12 l44 4 -50 1 c-27 1 -95 9 -149
17 -121 18 -131 18 -144 2z"/>
<path style="--i:12" d="M1904 2987 c-15 -9 -19 -17 -14 -31 6 -19 7 -19 12 2 9 34 36 38 104
14 35 -12 76 -22 92 -22 20 0 32 -7 42 -25 7 -14 17 -25 22 -25 5 0 6 6 2 13
-19 32 -40 47 -68 47 -17 0 -55 9 -84 20 -60 23 -79 24 -108 7z"/>
<path style="--i:13" d="M4452 2455 c-2 -359 -6 -515 -13 -502 -8 14 -22 17 -72 15 l-62 -2
55 -3 c30 -2 58 -7 62 -11 4 -5 4 -23 -2 -41 -7 -25 -6 -40 5 -60 8 -14 14
-21 15 -14 0 6 3 20 6 30 4 13 3 15 -4 4 -13 -18 -21 -2 -15 32 5 25 9 27 52
27 30 0 41 3 32 9 -7 5 -22 6 -32 4 -18 -5 -19 11 -22 513 l-2 519 -3 -520z"/>
<path style="--i:14" d="M1890 2922 c1 -21 68 -49 167 -67 39 -8 50 -22 31 -41 -11 -11 -20
-12 -45 -2 -24 9 -35 9 -46 0 -15 -13 -12 -48 5 -58 5 -3 6 5 3 19 -7 25 11
48 24 31 10 -15 61 -10 72 6 22 36 7 51 -55 58 -23 2 -49 8 -58 13 -9 5 -26 9
-38 9 -11 0 -23 6 -26 14 -6 15 -34 30 -34 18z"/>
<path style="--i:15" d="M3105 2880 c-61 -38 -382 -106 -490 -103 -44 1 -47 0 -20 -8 68 -20
510 74 545 116 17 20 2 18 -35 -5z"/>
<path style="--i:16" d="M4190 2875 c-36 -7 -120 -22 -187 -35 l-123 -22 2 -272 3 -271 2 267
3 267 53 10 c28 5 68 12 87 16 19 3 82 15 139 26 70 13 107 16 111 9 7 -11 3
-890 -4 -897 -2 -2 -60 -4 -130 -4 -70 -1 -125 -3 -122 -6 4 -4 55 -5 216 -4
l55 1 -1 448 c-1 246 -2 455 -3 465 -1 20 -11 20 -101 2z"/>
<path style="--i:17" d="M3796 2859 c2 -4 -1 -9 -7 -11 -9 -3 -9 -9 0 -25 11 -23 16 -329 5
-369 -6 -21 -12 -22 -140 -22 -74 -1 -138 -4 -143 -6 -11 -7 -1 -217 11 -232
5 -7 40 -12 80 -13 39 0 76 -5 82 -9 17 -12 39 -9 44 7 3 8 0 11 -7 7 -6 -4
-20 -4 -32 -1 -19 6 -19 8 -3 33 15 23 15 26 0 37 -18 14 -21 31 -6 40 15 9
91 -38 85 -53 -3 -7 0 -10 5 -7 21 13 8 32 -34 53 -24 12 -51 19 -60 16 -20
-8 -21 -38 -1 -54 12 -10 12 -15 -2 -36 -14 -22 -21 -24 -82 -22 l-66 3 -6
110 c-4 61 -6 111 -5 112 2 3 123 5 204 4 l82 -1 0 -116 c0 -72 -4 -113 -10
-109 -15 9 -47 -12 -53 -34 -3 -12 1 -22 10 -25 10 -4 13 -1 8 13 -6 20 18 47
34 37 5 -3 7 -15 4 -26 -3 -11 -10 -17 -16 -13 -5 3 -7 2 -4 -4 4 -5 21 -10
39 -10 18 0 26 2 16 4 -20 5 -33 33 -15 33 7 0 8 3 2 8 -6 4 -10 130 -10 340
l0 334 33 -6 c18 -2 30 -1 27 3 -3 5 -20 11 -39 13 -19 2 -33 1 -30 -3z"/>
<path style="--i:18" d="M3449 2790 c-69 -15 -134 -32 -145 -38 -18 -10 -18 -11 -2 -17 10 -4
15 -12 11 -19 -4 -6 -7 -77 -8 -158 0 -80 3 -141 7 -135 3 6 5 65 3 131 -1 67
0 131 2 143 4 19 19 24 121 43 65 12 118 23 120 25 2 1 -11 5 -27 7 -17 3 -27
0 -24 -5 3 -6 -7 -8 -25 -5 -18 3 -29 0 -25 -5 3 -6 -7 -8 -25 -5 -17 2 -29 1
-27 -3 8 -12 -78 -21 -89 -8 -8 9 -5 10 12 6 12 -3 20 -2 17 2 -2 4 53 20 123
34 129 28 174 33 137 17 -17 -7 -17 -9 -2 -9 19 -1 18 1 21 -91 3 -101 -1
-115 -35 -116 -39 -2 -67 -29 -75 -73 -3 -20 -8 -45 -11 -56 -3 -16 -2 -17 6
-5 6 8 11 28 11 43 0 41 52 91 85 83 28 -7 27 -16 29 146 l1 98 -30 -1 c-16
-1 -87 -13 -156 -29z"/>
<path style="--i:19" d="M3856 2813 c-9 -9 -7 -723 2 -723 4 0 7 164 7 365 0 201 0 365 -1
365 0 0 -4 -3 -8 -7z"/>
<path style="--i:20" d="M2113 2712 c0 -16 -9 -43 -21 -60 -24 -33 -28 -47 -11 -36 21 12 51
93 41 110 -7 12 -9 8 -9 -14z"/>
<path style="--i:21" d="M4044 2560 c0 -96 2 -141 3 -100 3 51 7 70 13 60 8 -13 10 -12 10 3
0 9 -4 17 -10 17 -5 0 -11 44 -13 98 -1 53 -3 18 -3 -78z"/>
<path style="--i:22" d="M2450 2713 c-14 -3 -87 -20 -164 -38 -76 -19 -145 -31 -155 -29 -14
5 -14 4 0 -5 11 -7 55 0 160 26 124 32 160 37 259 37 82 0 102 2 70 7 -49 8
-131 9 -170 2z"/>
<path style="--i:23" d="M5200 2710 c0 -3 -10 -10 -22 -15 -13 -6 -22 -17 -20 -25 2 -7 4 -28
6 -46 1 -19 6 -37 10 -41 4 -5 5 4 1 20 -5 17 -3 27 4 27 11 0 15 -13 12 -37
-1 -7 10 -1 24 13 27 27 48 26 25 -1 -7 -9 -10 -18 -6 -22 3 -3 6 -1 6 6 0 9
5 9 21 0 16 -8 24 -8 33 1 6 6 7 11 1 10 -26 -5 -41 2 -41 20 0 11 4 20 9 20
4 0 5 5 1 11 -3 6 -1 15 6 19 22 14 -5 45 -39 45 -17 0 -31 -2 -31 -5z m50
-50 c-23 -33 -50 -56 -50 -43 0 5 5 14 12 21 7 7 8 12 4 12 -5 0 -2 8 5 18 13
15 12 16 -3 3 -10 -7 -15 -18 -12 -23 4 -6 -2 -8 -12 -6 -33 6 -23 40 16 53
49 17 67 2 40 -35z"/>
<path style="--i:24" d="M5332 2713 c-8 -3 -10 -9 -4 -16 5 -7 12 -27 16 -45 5 -28 1 -38 -23
-63 -16 -16 -26 -31 -21 -34 5 -3 11 -1 15 4 3 7 15 7 29 1 13 -5 26 -7 27 -5
2 2 22 6 43 9 44 7 60 16 30 16 -11 0 -29 6 -39 14 -16 12 -17 16 -6 30 11 13
16 13 35 1 19 -13 23 -12 34 6 12 18 11 20 -4 11 -12 -7 -24 -6 -36 2 -16 9
-22 8 -32 -6 -7 -10 -16 -15 -19 -11 -4 3 -7 1 -7 -5 0 -7 9 -21 19 -31 19
-19 19 -19 -2 -23 -12 -2 -30 -2 -40 0 -15 3 -16 5 -2 25 10 14 13 33 9 55 -5
25 -2 37 12 48 18 14 17 14 -5 3 -21 -10 -23 -9 -18 5 4 9 5 16 4 15 -1 0 -8
-3 -15 -6z"/>
<path style="--i:25" d="M5560 2656 c0 -15 -7 -26 -17 -29 -17 -4 -17 -5 0 -6 38 -2 7 -41
-33 -41 -16 0 -35 -10 -46 -22 -19 -23 -19 -23 2 -5 11 9 32 17 47 17 37 0 57
25 57 71 0 21 -2 39 -5 39 -3 0 -5 -11 -5 -24z"/>
<path style="--i:26" d="M2847 2664 c-7 -8 4 -447 12 -456 3 -4 3 93 -1 215 -3 122 -4 225 -2
229 3 5 12 8 20 8 12 0 14 -35 16 -212 1 -117 2 -221 1 -230 0 -10 3 -18 6
-18 3 0 5 103 3 229 -3 215 -3 230 15 234 10 3 0 5 -23 6 -22 0 -43 -2 -47 -5z"/>
<path style="--i:27" d="M3117 2572 c6 -228 6 -298 -1 -318 -5 -18 -10 -75 -16 -200 0 -6 -10
-16 -22 -23 -22 -11 -22 -11 5 -8 18 3 27 0 27 -9 0 -8 11 -14 26 -14 14 0 23
4 19 10 -3 5 -12 7 -20 3 -8 -3 -15 0 -15 5 0 6 10 13 23 15 19 4 18 4 -5 6
-16 0 -28 5 -28 10 0 4 11 6 24 4 13 -3 26 -1 30 5 3 5 -5 7 -19 5 -20 -4 -25
0 -30 28 -3 19 -1 66 5 104 6 39 11 108 11 155 1 214 -2 320 -8 320 -5 0 -7
-44 -6 -98z"/>
<path style="--i:28" d="M2985 2646 l-60 -12 0 -219 -1 -220 3 216 3 215 88 16 c48 9 74 16
57 16 -16 -1 -57 -6 -90 -12z"/>
<path style="--i:29" d="M4996 2611 c-4 -6 -2 -11 5 -11 8 0 10 -17 6 -62 -4 -35 -7 -137 -7
-228 -1 -170 -5 -210 -22 -210 -5 0 -6 6 -2 13 4 6 4 9 -1 5 -4 -4 -16 -3 -27
3 -22 12 -52 -6 -44 -26 2 -7 0 -17 -6 -23 -8 -8 -8 -15 0 -25 7 -8 10 -28 8
-45 -3 -32 7 -42 44 -42 26 0 33 28 10 40 -16 8 -20 8 -20 -4 0 -10 6 -13 18
-9 13 5 15 3 5 -7 -13 -14 -48 -6 -38 10 3 5 2 10 -3 10 -6 0 -8 9 -5 20 3 11
0 26 -6 33 -16 21 -1 28 23 12 11 -8 29 -15 39 -15 10 0 16 -4 13 -9 -3 -5
-15 -7 -26 -4 -11 3 -20 0 -20 -6 0 -6 7 -8 17 -4 11 4 14 3 9 -5 -11 -19 5
-14 20 6 19 24 17 32 -6 32 -12 0 -32 7 -46 16 -18 12 -22 20 -14 29 9 11 17
10 40 -3 16 -9 32 -13 36 -9 4 4 9 51 10 104 11 336 12 401 4 412 -5 9 -10 10
-14 2z"/>
<path style="--i:30" d="M2700 2593 c-14 -2 -48 -8 -77 -14 l-52 -10 6 -82 c3 -45 8 -84 11
-87 2 -3 2 32 -1 76 l-5 81 38 12 c20 6 54 11 74 11 l36 0 0 -67 c0 -98 12
-307 17 -313 7 -8 -8 374 -16 385 -3 6 -17 9 -31 8z"/>
<path style="--i:31" d="M1810 2560 c26 -36 135 -90 183 -90 37 0 67 21 67 46 0 16 16 19 25
4 4 -6 31 -25 62 -42 30 -17 71 -46 90 -64 l36 -34 148 0 149 0 0 -94 0 -95
-27 -4 c-26 -4 -26 -4 5 -6 l32 -1 0 105 c0 61 -4 105 -10 105 -5 0 -11 42
-13 93 l-3 92 -2 -92 -2 -93 -134 0 -133 0 -35 33 c-33 31 -169 117 -186 117
-4 0 -13 -13 -19 -30 -9 -25 -17 -30 -43 -30 -43 0 -156 55 -176 86 -9 13 -21
24 -26 24 -5 0 0 -13 12 -30z"/>
<path style="--i:32" d="M2323 2529 c-33 -10 -33 -10 -31 -72 l2 -62 3 57 c4 53 6 57 35 67
17 6 41 11 54 11 21 0 23 -5 27 -62 l4 -63 -1 65 c-1 65 -1 65 -31 67 -16 1
-45 -3 -62 -8z"/>
<path style="--i:33" d="M383 2474 c-16 -7 -17 -46 -1 -62 9 -9 9 -12 0 -12 -15 0 -17 -106
-2 -115 6 -3 10 -30 10 -60 0 -40 4 -54 16 -59 9 -4 19 -4 22 -1 3 2 -3 7 -12
11 -19 7 -23 88 -5 99 14 9 51 -25 45 -41 -3 -8 1 -11 9 -7 8 3 12 10 8 16 -4
6 -7 43 -6 82 1 75 -5 85 -49 85 -28 0 -46 29 -32 51 8 13 253 4 267 -10 5 -5
13 -68 18 -142 5 -74 12 -140 14 -146 3 -9 30 -13 90 -13 72 0 88 3 105 20 11
11 32 20 46 20 17 0 28 -6 31 -20 5 -19 13 -20 122 -19 64 1 107 4 96 6 -11 3
-26 10 -34 17 -12 8 -13 8 -7 -1 5 -10 -12 -13 -77 -13 -78 0 -85 2 -90 21 -5
19 -11 21 -49 16 -23 -3 -47 -13 -54 -21 -8 -12 -30 -16 -87 -16 -42 0 -79 4
-82 10 -3 5 -8 55 -11 110 -4 89 -16 175 -26 185 -6 6 -263 15 -275 9z m68
-76 c0 -2 3 -32 6 -68 5 -58 4 -63 -11 -51 -9 7 -25 11 -35 8 -12 -3 -22 1
-25 10 -8 20 -7 88 1 96 6 6 62 10 64 5z"/>
<path style="--i:34" d="M5499 2378 c-1 -40 -1 -91 0 -114 1 -26 -3 -45 -13 -54 -9 -7 -16
-17 -16 -23 0 -5 8 0 19 11 15 19 19 40 20 137 0 63 -1 115 -4 115 -3 0 -6
-33 -6 -72z"/>
<path style="--i:35" d="M1245 2420 c133 -14 133 -18 0 -19 -66 -1 -140 -7 -165 -12 -25 -6
-121 -14 -215 -18 l-170 -7 140 -2 c90 -1 168 3 218 13 43 8 132 15 197 15 86
0 121 4 129 13 8 10 7 14 -2 14 -6 0 -59 3 -117 6 l-105 6 90 -9z"/>
<path style="--i:36" d="M3257 2391 c-4 -19 -7 -73 -7 -121 l0 -88 -35 -6 -35 -7 0 -74 c0
-102 4 -105 139 -105 129 0 215 10 186 21 -11 4 23 6 75 4 52 -1 77 -1 55 1
-136 13 -145 15 -145 35 0 16 8 19 58 21 31 1 76 1 100 -1 35 -2 42 1 42 16 0
24 -62 49 -110 44 -42 -3 -52 -11 -40 -31 8 -13 10 -13 10 1 0 24 54 29 95 10
45 -21 44 -32 -2 -29 -21 1 -67 1 -102 0 l-63 -2 4 -31 c3 -21 0 -33 -11 -38
-26 -14 -251 -13 -267 0 -9 8 -14 34 -14 79 0 71 6 80 51 80 17 0 19 8 19 104
0 107 4 118 41 108 17 -4 29 -42 29 -89 0 -16 7 -27 20 -30 27 -7 26 -39 -2
-46 -12 -4 -23 -5 -24 -4 -8 7 -22 130 -18 145 5 15 4 15 -5 1 -7 -10 -7 -38
1 -87 l10 -72 34 6 c23 4 34 2 34 -5 0 -7 5 -9 11 -5 8 4 8 9 0 17 -6 6 -11
21 -11 33 0 13 -8 24 -19 27 -14 3 -20 18 -25 61 -4 31 -12 57 -17 57 -5 1
-17 2 -26 3 -10 0 -21 7 -24 15 -4 10 -8 3 -12 -18z"/>
<path style="--i:37" d="M3937 2313 c-45 -34 -49 -64 -9 -62 23 2 24 2 5 6 -13 2 -23 6 -23 9
0 9 65 63 77 64 24 0 26 -24 2 -43 -20 -16 -21 -19 -5 -16 41 8 48 69 8 69
-10 0 -35 -12 -55 -27z"/>
<path style="--i:38" d="M1857 2313 c-4 -3 -7 -17 -7 -30 0 -21 4 -24 27 -21 18 2 29 10 31
22 5 26 -33 48 -51 29z m41 -26 c2 -12 -3 -17 -17 -17 -12 0 -21 6 -21 13 0
31 32 34 38 4z"/>
<path style="--i:39" d="M1948 2297 c-32 -27 -52 -87 -44 -130 3 -18 19 -59 36 -91 48 -98
134 -125 204 -63 31 26 39 40 43 80 17 149 -143 286 -239 204z m121 -2 c61
-31 111 -116 111 -188 0 -34 -6 -46 -40 -79 -45 -42 -68 -46 -124 -23 -31 13
-43 28 -72 88 -36 76 -40 99 -24 144 23 63 90 89 149 58z"/>
<path style="--i:40" d="M2000 2267 c-77 -39 -51 -181 40 -212 40 -14 82 0 100 34 43 81 -64
216 -140 178z m71 -21 c39 -27 69 -79 69 -119 0 -16 -11 -35 -30 -51 -26 -21
-35 -24 -58 -15 -52 20 -92 76 -92 129 0 21 50 80 67 80 5 0 25 -11 44 -24z"/>
<path style="--i:41" d="M5115 2314 c11 -2 67 -5 125 -8 58 -2 112 -6 120 -8 58 -17 60 -19
60 -59 0 -34 -6 -45 -51 -87 -28 -26 -60 -52 -72 -59 -21 -12 -21 -12 -2 -13
11 0 28 8 37 18 9 9 34 35 57 56 35 34 41 45 41 82 0 67 -22 76 -210 80 -69 1
-116 0 -105 -2z"/>
<path style="--i:42" d="M3986 2236 c5 -23 3 -26 -20 -24 -15 1 -26 8 -26 17 0 8 -3 12 -6 8
-4 -3 -3 -19 1 -34 7 -26 8 -26 16 -8 5 12 6 -13 2 -62 -5 -72 -3 -83 11 -89
24 -9 66 12 66 33 1 16 2 16 13 2 22 -29 55 -39 134 -43 43 -2 61 -1 41 1 -44
5 -50 20 -10 25 26 3 26 3 4 10 -16 4 -28 1 -40 -13 -15 -16 -24 -17 -54 -9
-19 6 -48 22 -64 37 l-29 26 -5 -23 c-7 -30 -35 -49 -51 -33 -17 17 -2 143 17
143 16 0 19 45 4 55 -7 4 -9 -2 -4 -19z"/>
<path style="--i:43" d="M3402 2230 c14 -22 24 -19 15 5 -4 8 -11 15 -17 15 -6 0 -6 -7 2 -20z"/>
<path style="--i:44" d="M3882 2163 c-2 -72 1 -95 14 -107 8 -9 20 -16 25 -16 6 0 7 -4 4 -10
-3 -5 0 -8 7 -5 9 4 12 20 8 58 l-5 52 -3 -42 c-2 -24 -7 -43 -11 -43 -21 0
-30 33 -34 116 l-3 89 -2 -92z"/>
<path style="--i:45" d="M3430 2221 c0 -5 5 -13 10 -16 6 -3 10 -2 10 4 0 5 -4 13 -10 16 -5
3 -10 2 -10 -4z"/>
<path style="--i:46" d="M490 2190 c0 -30 0 -30 59 -30 32 0 74 -2 92 -5 29 -4 30 -3 9 4 -14
5 -53 9 -87 10 -56 1 -63 3 -63 21 0 18 7 20 65 20 57 0 64 -2 58 -17 -6 -15
-5 -16 9 -3 23 22 4 30 -74 30 l-68 0 0 -30z"/>
<path style="--i:47" d="M3415 2192 c6 -6 21 -12 35 -14 21 -2 26 -10 30 -43 4 -30 10 -41 25
-43 19 -4 19 -3 1 10 -14 11 -18 24 -15 49 3 26 1 35 -11 35 -8 0 -28 4 -45 8
-20 5 -27 4 -20 -2z"/>
<path style="--i:48" d="M2887 2184 c-1 -1 -65 -4 -142 -7 -77 -3 -141 -6 -142 -6 -2 -1 -3
-24 -3 -51 0 -50 0 -50 -19 -33 -11 10 -21 34 -24 53 l-4 35 -1 -37 c-2 -28 4
-44 23 -63 14 -14 27 -25 29 -25 1 0 3 23 5 52 1 28 4 54 6 57 5 10 352 14
358 4 5 -7 11 -175 8 -215 0 -10 -8 -18 -16 -18 -16 0 -14 -43 6 -120 5 -19 9
-38 9 -42 0 -5 -46 -8 -102 -9 -57 0 -97 -3 -90 -6 6 -2 12 -8 12 -13 0 -13
-36 -18 -54 -8 -10 6 -16 5 -16 -2 0 -5 3 -11 8 -11 39 -7 55 -4 65 12 10 16
25 19 98 19 67 0 88 -3 92 -15 4 -8 2 -17 -3 -20 -11 -7 -89 -13 -188 -16 -67
-2 -77 0 -93 20 -10 12 -20 17 -23 13 -3 -5 3 -17 14 -27 16 -14 35 -17 97
-16 92 2 195 10 201 15 8 9 9 56 1 56 -5 0 -9 7 -9 15 0 18 5 19 32 4 17 -9
18 -13 7 -20 -10 -6 -5 -9 16 -8 17 0 24 3 17 6 -6 2 -10 8 -7 13 6 9 -53 32
-65 25 -4 -3 -11 17 -14 43 -4 26 -9 55 -12 65 -4 11 0 17 10 17 15 0 20 15
19 65 -3 142 -4 172 -11 182 -7 10 -86 25 -95 17z"/>
<path style="--i:49" d="M3366 2164 c-10 -27 -7 -45 13 -71 11 -13 19 -30 17 -36 -1 -7 -1 -9
1 -4 3 4 9 4 15 1 12 -8 -13 38 -27 48 -6 4 -2 8 8 8 10 0 16 4 12 9 -3 5 3
12 12 14 14 4 13 5 -4 6 -13 0 -23 -3 -23 -9 0 -5 -5 -10 -11 -10 -7 0 -9 11
-5 30 6 32 2 40 -8 14z"/>
<path style="--i:50" d="M4080 2151 c4 -15 4 -35 -1 -42 -5 -8 -9 -18 -8 -24 0 -5 5 0 13 13
13 24 10 82 -4 82 -5 0 -5 -13 0 -29z"/>
<path style="--i:51" d="M2200 2161 c0 -6 4 -13 10 -16 6 -3 7 1 4 9 -7 18 -14 21 -14 7z"/>
<path style="--i:52" d="M3660 2158 c0 -18 70 -52 96 -45 14 3 11 5 -8 6 -15 0 -34 8 -42 17
-9 8 -16 12 -16 7 0 -4 -7 1 -15 11 -12 16 -15 16 -15 4z"/>
<path style="--i:53" d="M389 2128 c-9 -16 -9 -38 -1 -87 6 -36 16 -156 23 -266 11 -193 12
-201 35 -218 16 -12 24 -29 24 -48 0 -30 11 -35 67 -30 12 1 24 -3 28 -8 7
-13 -38 -25 -65 -18 -12 3 -18 1 -14 -5 4 -5 22 -7 43 -4 20 3 43 6 51 5 57
-3 144 3 197 13 42 8 75 9 100 2 35 -8 38 -12 36 -42 0 -19 -4 -36 -7 -40 -9
-8 -438 -53 -453 -47 -8 3 -13 25 -14 57 -1 29 -4 64 -9 78 -4 14 -5 -11 -2
-55 3 -44 8 -81 12 -83 3 -1 5 -15 3 -30 -3 -15 1 -85 7 -157 6 -71 10 -149
10 -173 -1 -42 0 -42 27 -36 15 4 38 11 51 15 13 5 35 9 49 9 22 0 25 -3 21
-29 -2 -17 -1 -28 4 -25 4 3 8 18 8 35 0 25 -4 29 -27 29 -16 0 -50 -7 -76
-15 l-48 -14 3 26 c3 23 11 29 63 45 55 16 33 18 -36 2 -25 -5 -27 -3 -33 33
-3 21 -8 89 -12 150 -5 93 -4 114 8 118 8 3 112 16 232 29 119 13 220 27 224
30 3 4 7 39 8 79 1 40 -1 60 -3 45 -4 -27 -5 -28 -66 -21 -34 3 -66 11 -70 17
-6 7 -7 4 -3 -6 3 -10 4 -18 3 -18 -1 0 -42 -5 -91 -10 -74 -8 -92 -7 -112 7
-22 14 -36 42 -15 29 5 -4 7 11 4 34 -6 40 -5 40 28 40 19 0 73 3 122 7 84 5
87 5 87 -16 0 -11 -5 -21 -11 -21 -6 0 -17 -7 -25 -15 -18 -17 -64 -20 -64 -4
0 5 5 7 10 4 6 -3 10 -1 10 4 0 6 -7 11 -15 11 -8 0 -15 -7 -15 -15 0 -14 -23
-19 -92 -19 -9 0 -15 -3 -13 -6 8 -13 159 2 184 17 13 8 21 10 17 5 -10 -17
25 -30 62 -25 50 8 47 21 -4 15 l-45 -5 7 43 7 43 -124 -8 c-68 -4 -127 -9
-131 -11 -5 -3 -8 -21 -8 -39 0 -39 -23 -58 -58 -48 -15 4 -22 13 -22 30 0 13
-11 34 -24 46 -23 21 -24 32 -36 226 -12 187 -12 204 3 213 13 7 17 23 17 63
0 29 -3 60 -6 69 -9 23 -31 20 -45 -6z m39 -61 c-4 -65 -23 -72 -32 -12 -9 59
0 91 20 74 10 -8 14 -28 12 -62z"/>
<path style="--i:54" d="M3798 2100 c-15 -5 -28 -7 -30 -6 -2 0 6 -9 17 -20 11 -12 32 -24 48
-28 22 -5 27 -3 27 11 0 14 -2 15 -9 4 -11 -17 -23 1 -15 22 7 20 -5 26 -38
17z m25 -26 c-4 -11 -9 -12 -19 -3 -18 15 -18 14 5 16 14 1 18 -3 14 -13z"/>
<path style="--i:55" d="M1471 2037 c-6 -6 -11 -48 -11 -99 l0 -87 -34 -6 c-18 -4 -90 -7
-159 -8 -82 -1 -118 -5 -102 -10 14 -5 25 -16 25 -27 0 -22 56 -48 71 -33 6 6
9 19 6 29 -4 16 -5 15 -6 -3 -1 -21 -20 -31 -33 -17 -14 13 6 44 28 44 19 0
24 -5 24 -24 0 -32 8 -36 50 -25 l35 9 -38 -5 c-36 -4 -38 -3 -35 23 3 24 7
27 44 28 l42 1 -5 -37 -5 -37 48 -9 c45 -8 50 -12 61 -47 7 -21 16 -87 19
-148 6 -95 10 -111 27 -120 32 -18 40 2 26 65 -8 31 -17 56 -20 56 -4 0 -5 -9
-2 -20 3 -11 1 -20 -4 -20 -6 0 -15 42 -21 93 -15 129 -21 143 -72 150 -52 7
-53 9 -45 46 5 25 12 30 46 36 l39 7 0 89 c0 112 9 120 110 91 l65 -19 -2 -44
c-8 -146 -6 -194 15 -304 24 -133 87 -324 109 -332 8 -3 47 0 86 8 40 7 99 14
132 15 64 3 132 28 201 75 l41 28 13 -24 c9 -17 11 -44 6 -93 -6 -64 -5 -71
14 -85 16 -11 18 -17 9 -22 -9 -6 -7 -12 6 -22 19 -13 16 -15 -22 -13 -5 1 -6
12 -5 27 3 16 0 23 -7 18 -6 -3 -9 -10 -6 -15 3 -5 1 -18 -4 -28 -9 -16 -7
-19 12 -17 12 2 67 8 122 15 55 7 126 13 158 14 31 0 57 3 57 6 0 8 43 10 403
13 247 3 351 7 359 15 7 7 36 12 66 12 l54 0 -3 53 c-4 58 6 80 36 85 103 16
128 21 132 26 3 3 -18 3 -47 -1 -39 -4 -54 -2 -62 8 -8 11 -9 11 -5 -3 5 -14
-10 -28 -29 -28 -2 0 -4 24 -4 54 0 61 16 86 57 86 14 0 39 6 56 14 18 8 41
17 52 20 11 4 15 10 10 14 -6 4 -10 22 -11 39 -2 55 -17 63 -104 60 -65 -2
-81 1 -99 17 -12 11 -21 26 -21 35 0 9 -7 29 -15 45 -23 44 -16 79 16 72 3 0
13 5 22 12 13 11 16 10 21 -5 4 -15 4 -15 3 2 -1 11 10 30 25 43 16 13 26 28
23 32 -7 11 59 32 87 28 24 -3 24 -3 17 -91 -1 -15 3 -33 10 -40 10 -9 10 -7
3 13 -6 16 -4 41 3 70 10 39 13 42 17 20 l5 -25 2 26 c1 20 -5 28 -21 33 -60
16 -133 -4 -142 -39 -4 -14 -10 -25 -14 -25 -5 0 -18 -9 -30 -20 -12 -12 -22
-16 -22 -10 0 6 -11 3 -25 -7 -28 -20 -32 -55 -10 -93 8 -14 14 -34 15 -46 0
-11 8 -28 18 -36 16 -14 64 -30 87 -28 96 8 96 8 111 -15 33 -50 -10 -94 -107
-110 -41 -6 -48 -21 -49 -90 0 -22 -7 -51 -14 -64 -8 -14 -11 -42 -8 -72 l5
-49 -50 0 -50 0 -7 59 c-7 59 14 141 35 141 22 0 6 29 -25 44 -46 22 -55 20
-66 -9 -10 -27 -29 -34 -110 -37 -54 -3 -55 -4 -58 -34 -5 -50 13 -60 99 -54
l74 5 -80 5 -80 5 0 30 c0 29 2 30 45 33 87 4 110 12 120 38 11 29 17 29 55 4
17 -11 25 -20 18 -20 -6 0 -19 -22 -28 -50 -13 -39 -15 -62 -7 -109 7 -51 6
-61 -7 -67 -9 -3 -169 -7 -355 -8 l-339 -1 -16 25 c-8 14 -51 61 -96 105 -58
58 -85 93 -97 127 -9 26 -13 50 -9 52 4 3 44 8 88 12 76 6 80 6 86 -15 4 -17
13 -21 49 -21 66 0 90 9 83 31 -8 26 18 35 130 44 50 4 97 8 105 10 8 1 47 4
85 6 l70 4 3 -48 c2 -37 -1 -49 -13 -54 -23 -8 -37 15 -30 52 3 20 2 25 -4 16
-10 -15 -10 -16 -113 -26 -37 -4 -70 -11 -73 -16 -4 -5 -22 -9 -41 -9 -19 0
-33 -4 -30 -9 4 -5 21 -5 43 1 21 5 54 13 73 18 19 5 55 10 80 12 43 3 45 1
56 -30 5 -18 13 -29 17 -26 4 4 7 0 7 -9 0 -9 5 -19 11 -23 8 -4 9 0 4 15 -3
11 -5 21 -3 22 46 8 158 9 158 1 0 -6 -24 -13 -52 -15 l-53 -3 58 -2 c51 -2
58 0 55 16 -2 13 -15 18 -56 20 -60 3 -63 11 -32 72 22 43 25 44 153 55 62 6
81 15 58 29 -5 3 -7 15 -4 26 8 28 -5 70 -21 70 -8 0 -19 -13 -25 -30 -5 -16
-6 -30 -2 -30 5 0 12 12 16 28 l7 27 11 -23 c8 -18 8 -25 -2 -32 -11 -6 -11
-9 0 -14 8 -3 1 -3 -16 0 -16 4 -42 6 -57 5 -20 -1 -28 4 -28 14 0 11 7 15 22
13 18 -3 24 5 38 52 9 30 15 61 12 68 -6 19 -98 16 -106 -4 -12 -30 -6 -102 9
-118 22 -22 18 -28 -17 -24 l-33 3 -3 78 -3 77 -39 0 c-43 0 -42 -2 -44 80
l-1 25 280 7 c154 4 330 12 390 17 l110 10 -110 -5 c-60 -2 -237 -7 -392 -11
-190 -4 -283 -10 -286 -17 -2 -6 -3 -20 -2 -31 1 -11 2 -35 3 -52 2 -31 4 -33
42 -33 l40 0 0 -65 0 -65 -37 -1 -38 -2 40 -8 c32 -6 28 -7 -25 -4 -47 2 -57
1 -36 -5 15 -5 76 -9 135 -9 71 1 118 -4 141 -14 l35 -14 -60 -7 c-153 -17
-142 -13 -165 -62 -12 -25 -20 -54 -17 -64 3 -13 0 -20 -9 -20 -10 0 -14 13
-14 48 0 65 -9 75 -56 68 -22 -3 -70 -8 -109 -11 -227 -19 -263 -28 -251 -62
6 -15 -16 -23 -66 -23 -31 0 -41 4 -45 20 -4 16 -13 20 -52 19 -49 0 -138 -13
-146 -20 -2 -3 3 -30 13 -60 14 -44 32 -69 97 -134 45 -44 89 -92 98 -107 17
-27 17 -28 -3 -28 -14 0 -26 11 -35 33 -8 17 -14 26 -15 19 0 -7 5 -22 10 -33
8 -13 7 -19 0 -19 -6 0 -13 7 -15 15 -3 8 -7 22 -10 31 -3 9 -8 15 -11 12 -2
-3 0 -17 5 -32 6 -14 7 -27 3 -27 -37 -7 -112 -6 -112 1 0 5 -10 10 -22 12
-12 2 -22 11 -24 22 -1 11 -11 24 -21 30 -20 12 -93 15 -93 4 0 -9 10 -10 57
-10 38 0 53 -13 53 -48 0 -5 9 -10 21 -10 42 0 8 -17 -36 -18 -25 -1 -51 -4
-56 -8 -7 -4 -9 1 -4 15 5 17 0 25 -24 39 l-31 17 6 73 c5 52 3 80 -6 97 -17
32 -22 31 -75 -5 -63 -43 -130 -70 -177 -70 -21 0 -78 -8 -125 -17 -56 -11
-90 -13 -100 -7 -25 15 -80 182 -104 316 -24 129 -28 205 -14 299 l8 57 -59
17 c-76 22 -119 26 -133 12z m1862 -194 c2 -5 -2 -29 -10 -54 -11 -38 -19 -48
-41 -52 -15 -3 -30 -3 -34 0 -10 5 -11 97 -1 106 9 9 81 9 86 0z m-2119 -38
c3 -8 1 -15 -4 -15 -6 0 -10 7 -10 15 0 8 2 15 4 15 2 0 6 -7 10 -15z m330
-327 c11 -42 8 -50 -14 -38 -12 6 -20 21 -20 35 0 31 26 33 34 3z m756 -258
c0 -5 -4 -10 -10 -10 -5 0 -10 5 -10 10 0 6 5 10 10 10 6 0 10 -4 10 -10z"/>
<path style="--i:56" d="M4030 2046 c0 -2 7 -6 15 -10 8 -3 15 -1 15 4 0 6 -7 10 -15 10 -8 0
-15 -2 -15 -4z"/>
<path style="--i:57" d="M5190 2043 c-96 -6 -98 -7 -102 -62 -1 -28 0 -47 4 -43 4 4 8 25 10
47 l3 40 123 9 c104 7 126 6 140 -7 9 -8 38 -25 65 -37 26 -12 47 -27 47 -32
0 -6 14 -23 30 -38 33 -31 39 -59 13 -61 -10 -1 -92 0 -184 1 -140 1 -167 -1
-178 -14 -9 -11 -10 -16 -2 -16 6 0 11 5 11 10 0 6 4 10 10 10 5 0 7 -8 4 -17
-5 -16 -4 -16 9 0 14 17 31 18 176 16 137 -3 161 -5 162 -19 1 -13 1 -62 -1
-256 l0 -32 -142 3 c-148 3 -178 8 -178 31 0 10 22 14 83 17 76 3 74 4 -16 3
l-98 -1 2 25 c4 49 -1 70 -16 70 -8 0 -15 -5 -15 -11 0 -5 5 -7 10 -4 6 3 10
3 10 -2 0 -11 -59 -37 -67 -30 -4 5 5 102 23 229 3 23 -1 29 -22 34 -41 10
-50 -11 -64 -141 -6 -66 -14 -123 -17 -127 -2 -5 -15 -8 -28 -8 -24 0 -42 -30
-30 -50 7 -12 42 -12 70 0 13 6 6 7 -24 3 -38 -5 -43 -4 -39 12 2 11 16 22 34
27 l31 8 13 124 c7 68 16 129 20 136 4 7 16 9 28 6 16 -6 20 -13 16 -39 -31
-225 -31 -227 -1 -227 13 0 28 5 34 11 17 17 31 3 26 -25 -4 -18 2 -32 21 -49
22 -21 40 -26 104 -30 93 -6 284 -6 260 0 -16 4 -18 21 -16 190 2 164 1 186
-15 197 -9 7 -14 16 -10 19 3 4 12 2 20 -4 8 -7 13 -8 13 -1 0 14 -34 25 -38
13 -6 -18 -22 -12 -22 8 0 14 -13 24 -45 36 -24 10 -52 26 -61 36 -18 20 -42
21 -194 12z"/>
<path style="--i:58" d="M2194 2027 c3 -10 6 -23 6 -27 0 -5 12 -2 28 6 42 21 50 18 57 -28 4
-24 17 -70 30 -103 23 -59 45 -140 50 -182 6 -43 14 -46 89 -38 39 4 90 8 114
10 24 2 46 6 50 10 4 4 -7 5 -24 2 -23 -3 -36 0 -48 14 -9 10 -21 19 -28 19
-8 -1 -6 -6 5 -14 12 -9 14 -16 8 -21 -18 -10 -151 -19 -152 -9 -5 55 -36 177
-57 226 -11 25 -24 67 -27 93 l-7 46 -40 -6 c-29 -5 -43 -3 -50 6 -7 11 -8 9
-4 -4z"/>
<path style="--i:59" d="M3398 2028 c-8 -4 4 -8 30 -8 23 0 42 2 42 4 0 8 -60 12 -72 4z"/>
<path style="--i:60" d="M2554 2018 c-9 -14 7 -127 19 -135 6 -4 8 0 4 10 -3 9 -9 40 -13 67
-5 41 -4 50 7 48 16 -3 37 -51 38 -85 1 -21 6 -23 56 -23 52 0 55 -1 55 -25 0
-18 -5 -25 -20 -25 -11 0 -20 4 -20 9 0 5 -9 7 -19 4 -13 -3 -21 1 -24 14 -3
10 -5 -2 -4 -26 2 -40 5 -45 30 -52 34 -9 36 -2 2 11 -14 5 -25 17 -25 26 0
13 6 15 28 10 15 -4 32 -7 39 -8 14 -2 26 -28 18 -37 -3 -3 -10 1 -15 9 -8 13
-10 12 -10 -2 0 -10 7 -18 15 -18 8 0 15 -4 15 -10 0 -18 68 -10 106 12 26 15
39 18 42 10 2 -7 8 -12 14 -12 6 0 6 6 -2 15 -17 21 -3 19 36 -6 19 -11 34
-16 34 -11 0 5 -17 17 -38 26 -34 16 -40 16 -67 2 -17 -9 -36 -16 -42 -16 -7
0 -13 -4 -13 -10 0 -5 -13 -10 -29 -10 -24 0 -29 5 -35 31 -3 17 -6 47 -6 65
l0 34 -52 0 -53 0 -16 55 c-11 38 -13 55 -5 58 6 2 -1 4 -17 4 -15 0 -30 -4
-33 -9z"/>
<path style="--i:61" d="M4050 2010 c7 -5 -2 -10 -24 -14 l-37 -7 2 -193 c2 -190 -2 -223 -23
-210 -6 4 -5 10 3 15 11 7 10 9 -3 9 -17 0 -18 16 -18 184 0 102 -4 187 -8
190 -4 3 -39 2 -77 -2 -69 -7 -70 -7 -82 -42 -11 -37 -7 -90 8 -90 5 0 4 11
-1 25 -9 24 -8 25 33 27 l42 1 -40 5 c-32 3 -36 6 -20 12 17 7 17 9 3 9 -10 1
-18 5 -18 10 0 18 30 33 62 30 18 -1 41 2 50 6 33 14 38 -4 38 -134 l0 -128
-42 -11 -43 -11 40 2 c35 2 40 -1 43 -22 2 -12 1 -34 -2 -47 l-7 -25 -28 21
c-39 27 -52 25 -85 -9 -28 -30 -28 -51 1 -51 12 0 14 -7 9 -31 -3 -17 -6 -39
-6 -48 0 -10 -14 0 -40 28 -22 24 -37 47 -34 52 3 5 -10 8 -28 8 -23 -1 -26
-3 -10 -6 12 -2 22 -9 22 -14 0 -5 15 -23 33 -40 17 -17 31 -35 29 -40 -1 -5
3 -8 10 -7 6 2 15 -8 19 -22 5 -19 7 -12 8 27 1 29 7 58 14 65 15 15 6 28 -25
41 -16 6 -15 9 8 32 14 14 33 25 42 25 15 -1 15 -2 -2 -15 -11 -8 -15 -15 -9
-15 7 0 15 5 18 10 11 18 45 -8 42 -32 -6 -36 19 -55 61 -49 28 5 43 16 66 48
16 24 27 45 24 48 -3 4 -16 -10 -28 -30 -12 -19 -25 -33 -30 -30 -4 3 -19 0
-32 -5 -22 -10 -22 -10 5 -5 15 3 27 1 27 -5 0 -17 -62 -11 -75 7 -14 18 -9
47 6 37 5 -3 7 -9 5 -13 -3 -4 5 -6 17 -5 12 1 25 3 30 3 4 1 7 13 7 29 0 40
9 47 75 59 62 11 80 9 55 -7 -11 -7 -9 -9 8 -7 25 1 28 10 9 25 -8 7 -26 8
-52 2 -22 -5 -52 -10 -67 -10 l-28 0 0 154 0 154 26 6 c15 4 29 5 31 2 3 -3
11 1 18 8 9 9 30 10 71 6 40 -5 66 -2 84 7 24 12 24 13 3 13 -12 0 -25 -5 -28
-10 -4 -6 -10 -8 -15 -5 -4 3 -41 7 -80 9 -40 2 -67 0 -60 -4z"/>
<path style="--i:62" d="M3918 2003 c17 -2 47 -2 65 0 17 2 3 4 -33 4 -36 0 -50 -2 -32 -4z"/>
<path style="--i:63" d="M2217 1948 c-21 -165 -21 -159 15 -214 18 -27 47 -68 64 -90 17 -21
36 -49 43 -61 14 -27 4 -80 -12 -64 -22 22 -28 10 -8 -15 14 -18 21 -41 21
-69 0 -23 6 -61 14 -83 8 -22 11 -44 8 -48 -4 -4 -2 -4 5 0 9 5 9 16 -2 46
-16 44 -22 151 -11 196 7 25 2 37 -27 75 -69 91 -117 173 -117 202 0 15 5 47
11 71 6 23 9 58 7 77 -3 28 -5 24 -11 -23z"/>
<path style="--i:64" d="M3028 1993 c12 -2 32 -2 45 0 12 2 2 4 -23 4 -25 0 -35 -2 -22 -4z"/>
<path style="--i:65" d="M4840 1990 c0 -5 5 -10 10 -10 6 0 10 5 10 10 0 6 -4 10 -10 10 -5 0
-10 -4 -10 -10z"/>
<path style="--i:66" d="M3679 1963 c-1 -5 -1 -11 0 -15 0 -4 -3 -35 -7 -68 -5 -33 -5 -57 -1
-53 5 5 10 37 11 71 3 57 5 62 26 62 13 0 22 -6 22 -16 0 -8 4 -13 10 -9 18
11 -2 35 -31 35 -16 0 -30 -3 -30 -7z"/>
<path style="--i:67" d="M3137 1944 c-11 -12 3 -24 29 -24 15 0 24 6 24 15 0 8 -8 15 -17 15
-15 0 -16 -2 -3 -10 12 -8 10 -10 -8 -10 -13 0 -20 4 -17 10 7 11 2 13 -8 4z"/>
<path style="--i:68" d="M3415 1942 c2 -3 -3 -18 -11 -34 -22 -43 -13 -42 17 1 23 32 24 37 8
37 -10 0 -16 -2 -14 -4z"/>
<path style="--i:69" d="M2592 1880 c-2 -39 -6 -47 -29 -58 -34 -15 -103 -78 -103 -94 0 -7
26 -9 88 -5 52 3 77 2 62 -3 l-25 -8 28 -1 c18 -1 27 4 27 15 0 14 -11 15 -87
9 l-87 -8 45 39 c24 22 55 46 68 54 19 13 22 22 18 60 l-4 45 -1 -45z"/>
<path style="--i:70" d="M4450 1909 c1 -20 27 -52 34 -41 3 5 -3 20 -14 32 -13 15 -20 18 -20
9z"/>
<path style="--i:71" d="M4594 1883 c-7 -5 -14 -24 -15 -43 l-4 -35 55 0 55 0 0 40 c0 40 0
40 -40 43 -22 1 -45 -1 -51 -5z m81 -38 c0 -28 -3 -30 -42 -33 -41 -3 -43 -2
-43 26 0 38 7 44 50 40 32 -3 35 -6 35 -33z"/>
<path style="--i:72" d="M4775 1880 l-70 -6 65 -1 c36 0 79 3 95 7 26 7 27 8 5 7 -14 0 -56
-3 -95 -7z"/>
<path style="--i:73" d="M3488 1875 c-2 -3 -2 -28 2 -55 5 -42 4 -50 -8 -48 -8 2 -16 10 -18
20 -1 9 -7 24 -14 35 -11 17 -11 17 -4 -2 4 -11 7 -35 7 -53 0 -18 3 -29 6
-24 3 5 15 12 26 14 11 2 19 9 18 14 -1 6 -3 32 -4 57 -2 26 -3 47 -4 47 -1 0
-4 -2 -7 -5z"/>
<path style="--i:74" d="M3543 1825 c-1 -32 3 -57 10 -63 11 -8 45 -15 162 -29 21 -2 43 -7
47 -9 4 -3 8 -1 8 4 0 5 -48 16 -107 24 l-108 13 0 52 c0 69 -10 75 -12 8z"/>
<path style="--i:75" d="M4285 1866 c-25 -27 -26 -36 -3 -36 19 0 20 2 8 11 -11 7 -7 9 18 5
61 -8 49 -19 -33 -29 -16 -3 -3 -4 31 -4 56 1 60 3 56 23 -3 15 -10 20 -28 18
-13 -1 -27 4 -31 11 -6 10 -11 10 -18 1z"/>
<path style="--i:76" d="M2406 1845 c11 -55 9 -70 -11 -87 -11 -10 -15 -17 -10 -18 6 0 30 19
55 41 25 23 38 36 29 30 -24 -16 -45 -5 -58 32 l-11 32 6 -30z m34 -49 c0 -3
-4 -8 -10 -11 -5 -3 -10 -1 -10 4 0 6 5 11 10 11 6 0 10 -2 10 -4z"/>
<path style="--i:77" d="M3045 1850 c-3 -5 -17 -10 -31 -10 -13 0 -24 -5 -24 -10 0 -12 41 -3
79 16 25 13 25 14 4 14 -12 0 -25 -4 -28 -10z"/>
<path style="--i:78" d="M1033 1843 c-15 -5 -17 -51 -4 -72 8 -12 18 -13 48 -5 32 7 39 14 41
38 2 16 -2 32 -10 37 -14 9 -55 11 -75 2z m75 -30 c2 -16 -4 -26 -22 -34 -33
-15 -56 -5 -56 24 0 32 9 39 45 35 22 -2 31 -9 33 -25z"/>
<path style="--i:79" d="M4786 1831 c-11 -17 5 -39 35 -50 28 -10 29 -12 29 -80 0 -39 -3 -72
-7 -72 -5 -1 -27 -2 -50 -3 -59 -2 -61 -11 -2 -12 27 0 52 -3 55 -6 13 -14 10
-59 -5 -69 -14 -9 -14 -10 2 -5 9 3 17 2 17 -3 0 -5 10 -11 23 -15 18 -5 20
-8 7 -16 -11 -7 -6 -10 23 -10 35 0 83 30 70 44 -3 3 0 7 8 10 80 23 99 31 99
43 0 7 -8 13 -17 13 -14 0 -15 -2 -4 -9 18 -11 -50 -35 -96 -33 -39 2 -113 37
-114 55 0 6 0 47 1 90 1 66 -1 78 -17 83 -34 10 -48 22 -47 38 2 18 -2 21 -10
7z m121 -266 c19 -8 44 -15 54 -15 18 0 19 -1 3 -25 -9 -14 -26 -25 -37 -25
-11 0 -17 3 -14 7 4 4 -7 13 -25 21 -19 8 -28 16 -20 19 10 4 10 8 1 19 -15
18 -7 18 38 -1z"/>
<path style="--i:80" d="M4671 1771 c-10 -13 -27 -16 -84 -15 l-72 2 75 -7 c41 -5 77 -5 80 0
3 4 15 9 28 10 22 4 22 5 4 16 -15 9 -21 8 -31 -6z"/>
<path style="--i:81" d="M2698 1753 c12 -2 32 -2 45 0 12 2 2 4 -23 4 -25 0 -35 -2 -22 -4z"/>
<path style="--i:82" d="M4363 1746 c0 -8 6 -12 13 -9 7 2 17 -5 24 -16 10 -19 7 -25 -12 -22
-18 3 -6 -10 25 -25 17 -9 35 -22 39 -28 13 -19 9 -54 -8 -70 -12 -12 -12 -16
-2 -16 39 0 37 103 -2 115 -11 3 -19 9 -19 13 3 19 -3 33 -23 52 -26 24 -35
25 -35 6z"/>
<path style="--i:83" d="M480 1726 c0 -14 -4 -28 -10 -31 -5 -3 -10 -27 -10 -52 0 -26 3 -44
6 -41 3 3 5 24 6 47 0 30 6 45 21 56 12 8 16 15 9 15 -6 0 -12 5 -12 11 0 13
31 8 32 -6 1 -5 7 -14 13 -20 17 -14 24 -50 14 -66 -7 -11 -11 -10 -24 6 -16
20 -16 20 -6 -1 6 -12 7 -24 3 -28 -3 -4 2 -4 13 0 28 11 35 24 28 59 -9 46
-32 75 -59 75 -19 0 -24 -5 -24 -24z"/>
<path style="--i:84" d="M818 1742 c-43 -2 -58 -7 -58 -17 0 -8 -5 -15 -11 -15 -6 0 -9 7 -5
15 3 8 1 15 -4 15 -22 0 -8 -36 21 -52 41 -24 80 -23 123 3 66 39 42 57 -66
51z m80 -16 c10 4 7 -2 -8 -14 -26 -21 -40 -20 -40 3 0 15 23 27 28 14 2 -4
11 -5 20 -3z m-58 -5 c0 -5 3 -16 6 -25 5 -12 0 -16 -22 -16 -34 1 -63 20 -57
38 5 14 73 17 73 3z"/>
<path style="--i:85" d="M3500 1731 c-10 -15 -17 -17 -26 -10 -7 6 -21 9 -31 6 -14 -4 -13 -5
5 -6 12 0 22 -7 22 -14 0 -7 9 -13 19 -13 11 0 17 4 14 9 -3 5 0 13 7 17 7 4
11 13 9 19 -3 7 -10 3 -19 -8z"/>
<path style="--i:86" d="M4337 1722 c6 -4 11 -29 10 -60 -2 -56 -14 -65 -51 -37 -22 17 -61
20 -51 5 3 -5 1 -10 -6 -10 -6 0 -9 8 -6 20 3 11 2 20 -3 20 -4 0 -10 -11 -12
-25 -6 -30 21 -65 48 -64 18 0 18 1 -1 8 l-20 8 20 5 c15 4 12 6 -10 8 l-30 2
29 8 c18 6 36 5 49 -1 10 -6 28 -9 38 -6 10 3 19 0 19 -5 0 -7 -14 -8 -35 -5
-19 3 -35 2 -35 -2 0 -3 14 -8 31 -9 40 -3 69 -19 69 -37 0 -8 5 -15 10 -15 6
0 10 -24 10 -54 0 -51 2 -55 29 -64 28 -10 30 -13 26 -60 -2 -26 0 -54 4 -60
4 -6 6 19 6 56 0 37 3 73 8 80 6 7 5 12 -2 12 -6 0 -11 -5 -11 -11 0 -6 -10
-9 -22 -7 -20 3 -23 10 -26 61 -2 31 -7 57 -12 57 -6 0 -10 7 -10 15 0 9 -7
18 -15 21 -8 4 -15 12 -15 20 0 8 -6 23 -12 34 -10 15 -10 25 -2 38 13 20 1
62 -18 62 -10 0 -10 -2 -1 -8z"/>
<path style="--i:87" d="M591 1711 c-15 -9 -5 -60 13 -62 26 -3 62 3 70 12 6 5 5 18 -1 32
-11 25 -55 34 -82 18z m70 -18 c14 -16 5 -30 -26 -35 -27 -6 -52 22 -40 42 8
13 54 8 66 -7z"/>
<path style="--i:88" d="M4233 1710 c-24 -3 -46 -10 -50 -14 -4 -4 -8 -62 -8 -129 l0 -121
-60 -19 c-43 -14 -94 -19 -181 -20 -69 -1 -120 -6 -116 -11 8 -15 231 2 302
22 l65 19 0 121 c0 67 4 125 10 131 13 13 125 22 125 10 0 -5 5 -9 11 -9 8 0
8 4 1 13 -13 15 -40 17 -99 7z"/>
<path style="--i:89" d="M2180 1673 c0 -21 9 -53 20 -71 11 -18 20 -42 20 -53 0 -17 5 -20 37
-17 20 2 38 8 40 14 2 6 -11 33 -29 60 -19 27 -39 61 -46 77 -18 41 -42 35
-42 -10z m41 -15 c12 -24 32 -57 45 -74 26 -34 23 -44 -13 -44 -15 0 -23 6
-23 18 0 9 -9 32 -20 50 -18 29 -28 92 -15 92 2 0 14 -19 26 -42z"/>
<path style="--i:90" d="M4640 1668 c-14 -11 -24 -27 -22 -34 2 -8 -2 -14 -7 -14 -6 0 -21
-12 -35 -27 -18 -19 -24 -34 -20 -50 5 -18 1 -25 -20 -33 -16 -6 -26 -17 -26
-29 0 -11 -2 -28 -5 -38 -4 -14 -3 -13 4 2 5 11 13 29 17 40 6 18 8 17 14 -10
l8 -30 1 27 c0 15 6 30 12 33 5 4 9 17 7 30 -3 24 33 75 52 75 5 0 10 8 10 18
1 23 48 58 55 40 10 -27 0 -113 -15 -124 -11 -10 -12 -17 -2 -38 9 -21 19 -26
46 -26 18 0 49 -2 67 -5 29 -4 30 -3 9 4 -14 5 -41 9 -61 10 -20 1 -43 8 -50
17 -11 14 -10 19 10 34 18 13 21 19 10 23 -8 3 1 6 19 6 24 1 32 5 31 19 0 10
-3 12 -6 5 -2 -7 -15 -13 -29 -13 -22 0 -23 2 -17 46 4 34 2 48 -8 55 -19 12
-20 11 -49 -13z"/>
<path style="--i:91" d="M3143 1633 c9 -2 23 -2 30 0 6 3 -1 5 -18 5 -16 0 -22 -2 -12 -5z"/>
<path style="--i:92" d="M888 1594 c-11 -10 8 -59 24 -62 12 -2 16 5 15 32 -1 26 -5 36 -17
36 -9 0 -19 -3 -22 -6z m28 -29 c1 -14 -2 -22 -7 -19 -11 6 -12 44 -1 44 4 0
8 -11 8 -25z"/>
<path style="--i:93" d="M4722 1545 c-11 -12 -10 -15 5 -13 39 3 60 -3 81 -22 14 -13 22 -16
22 -8 0 11 -75 59 -90 58 -3 -1 -11 -7 -18 -15z"/>
<path style="--i:94" d="M5175 1535 c22 -13 47 -24 55 -24 13 1 13 1 0 6 -8 3 -27 14 -42 24
-14 11 -32 19 -40 19 -7 0 5 -11 27 -25z"/>
<path style="--i:95" d="M2558 1533 c7 -3 16 -2 19 1 4 3 -2 6 -13 5 -11 0 -14 -3 -6 -6z"/>
<path style="--i:96" d="M5608 1513 c24 -3 32 -8 28 -19 -3 -8 -1 -14 3 -14 5 0 11 5 13 10 2
8 43 8 133 1 156 -12 155 -12 155 -22 0 -13 -169 -69 -208 -69 -60 0 -218 -51
-228 -74 -10 -21 -222 -99 -259 -94 -11 1 -26 -1 -33 -6 -14 -9 -229 -76 -243
-76 -4 0 -10 10 -12 23 -4 18 -5 17 -6 -7 -1 -27 0 -28 35 -22 19 4 83 23 141
42 59 19 114 34 122 34 9 0 71 18 138 41 85 28 124 46 128 58 6 21 159 71 216
71 34 0 205 53 222 69 20 19 -30 34 -144 42 -67 5 -147 10 -178 12 -31 3 -41
2 -23 0z"/>
<path style="--i:97" d="M2800 1497 c39 -16 155 -31 211 -28 43 2 44 -1 65 -129 l13 -85 -5
80 c-5 79 -19 134 -38 147 -5 3 -19 3 -30 -1 -18 -7 -129 5 -221 23 -27 6 -27
5 5 -7z"/>
<path style="--i:98" d="M4821 1470 c-13 -11 -38 -20 -56 -20 -51 0 -87 -60 -52 -87 16 -14
87 -22 111 -13 12 4 -1 7 -33 8 -77 1 -102 30 -61 67 12 11 30 16 49 13 17 -2
28 -1 25 4 -8 12 21 9 34 -4 9 -9 9 -15 0 -27 -9 -12 -7 -11 7 1 17 16 18 19
2 36 -13 14 -14 21 -5 30 19 19 5 13 -21 -8z"/>
<path style="--i:99" d="M5020 1475 c-19 -8 -43 -17 -52 -21 -11 -4 -18 -17 -18 -32 l0 -25
106 7 c59 4 109 7 113 8 33 4 91 -4 86 -12 -3 -5 -1 -10 4 -10 6 0 11 5 11 11
0 8 15 10 48 6 30 -4 40 -3 26 3 -12 4 -52 9 -90 10 -38 1 -73 2 -79 2 -5 0
-56 -3 -112 -7 -89 -7 -103 -6 -103 7 0 21 89 58 137 58 21 0 76 -7 123 -15
47 -8 103 -15 125 -15 79 0 115 -24 55 -36 -16 -4 -30 -10 -30 -15 0 -5 -9 -9
-20 -9 -11 0 -20 -4 -20 -10 0 -10 18 -5 60 17 14 7 31 13 38 13 6 0 12 7 12
15 0 20 -40 35 -93 35 -23 0 -80 7 -127 15 -104 18 -154 18 -200 0z"/>
<path style="--i:100" d="M5318 1483 c29 -2 74 -2 100 0 26 2 2 3 -53 3 -55 0 -76 -1 -47 -3z"/>
<path style="--i:101" d="M1590 1400 c11 -21 21 -50 21 -62 1 -19 2 -20 6 -4 6 22 -24 106 -38
106 -5 0 0 -18 11 -40z"/>
<path style="--i:102" d="M2408 1394 c6 -11 18 -26 26 -34 19 -15 21 -37 5 -42 -9 -3 -9 -17
-1 -53 l11 -50 -5 48 c-4 37 -2 47 10 47 19 0 31 -19 28 -45 -2 -19 -1 -19 6
-1 7 16 9 17 14 4 4 -9 1 -21 -5 -27 -8 -8 -8 -11 0 -11 7 0 15 10 19 22 5 17
-1 28 -25 50 -17 15 -31 34 -31 41 0 7 -14 26 -31 43 -24 22 -29 24 -21 8z"/>
<path style="--i:103" d="M4900 1393 c8 -4 21 -12 28 -20 8 -7 18 -11 23 -8 8 6 267 -19 323
-31 22 -5 25 -8 15 -16 -10 -7 -7 -8 11 -4 14 3 32 6 40 7 8 1 -1 5 -20 11
-49 14 -341 49 -363 44 -10 -3 -21 2 -24 10 -3 8 -15 14 -27 13 -14 0 -16 -2
-6 -6z"/>
<path style="--i:104" d="M5180 1391 c0 -6 -15 -12 -32 -14 l-33 -4 33 -1 c18 -1 40 5 48 13
14 13 14 15 0 15 -9 0 -16 -4 -16 -9z"/>
<path style="--i:105" d="M4115 1370 c33 -4 85 -8 116 -9 58 -1 97 -22 63 -35 -49 -19 -224 1
-224 25 0 13 -47 11 -55 -2 -4 -6 -42 -9 -101 -7 -75 2 -94 6 -94 18 0 13 -1
13 -10 0 -6 -10 -6 -16 0 -18 23 -8 7 -21 -32 -26 -85 -13 -308 -59 -304 -64
3 -2 60 7 128 21 68 14 145 28 172 32 27 4 55 12 62 19 9 9 35 12 89 8 52 -3
84 -1 101 8 21 12 27 11 45 -6 18 -16 36 -19 123 -19 120 1 223 9 233 18 12
13 -6 20 -20 8 -18 -14 -86 -6 -101 13 -8 10 -44 15 -131 19 -82 3 -101 2 -60
-3z"/>
<path style="--i:106" d="M5230 1376 c0 -2 7 -6 15 -10 8 -3 15 -1 15 4 0 6 -7 10 -15 10 -8 0
-15 -2 -15 -4z"/>
<path style="--i:107" d="M1553 1312 c-9 -37 16 -229 36 -277 l17 -40 -38 -27 c-61 -44 -72
-70 -71 -158 0 -62 6 -87 27 -129 14 -29 26 -61 26 -71 0 -10 5 -22 10 -25 19
-11 11 -53 -11 -60 -28 -9 -33 -2 -31 50 l2 44 -86 27 c-49 16 -89 23 -94 18
-5 -5 5 -10 23 -11 18 -1 58 -11 90 -23 l58 -22 -4 -49 c-3 -45 -1 -49 19 -49
37 0 54 11 54 34 0 27 -25 100 -49 146 -17 32 -35 100 -27 100 2 0 21 -16 42
-36 120 -110 435 -191 874 -225 197 -15 722 -6 915 15 319 36 570 94 729 169
84 40 166 101 166 124 0 5 -20 -10 -46 -33 -123 -115 -418 -202 -849 -250
-193 -21 -718 -30 -915 -15 -454 35 -736 110 -871 232 -34 31 -43 45 -43 73 0
18 8 45 17 60 26 38 102 92 178 123 l66 27 -3 61 c-5 106 -14 146 -40 183 -29
41 -28 39 5 -31 24 -51 22 -69 -4 -47 -23 19 -18 4 6 -19 16 -15 21 -33 23
-80 1 -34 -2 -61 -6 -61 -4 0 -8 11 -8 25 0 14 -4 25 -10 25 -5 0 -7 -13 -4
-28 5 -26 2 -30 -53 -55 l-58 -26 -13 26 c-15 28 -42 185 -42 246 0 30 5 39
22 46 l22 8 -22 5 c-18 5 -23 1 -29 -20z"/>
<path style="--i:108" d="M1448 1309 c7 -7 12 -39 12 -74 0 -67 -10 -83 -65 -104 l-30 -11 35
5 c55 8 71 36 68 118 -2 52 -7 72 -18 75 -12 4 -13 2 -2 -9z"/>
<path style="--i:109" d="M5295 1300 c-25 -11 1 -11 35 0 20 6 21 8 5 8 -11 0 -29 -3 -40 -8z"/>
<path style="--i:110" d="M903 1277 c-4 -7 -16 -17 -26 -20 -30 -11 -16 -42 21 -45 29 -3 32
-1 32 23 0 14 -4 24 -10 20 -5 -3 -7 -12 -3 -20 3 -10 -1 -15 -14 -15 -33 0
-35 13 -6 36 16 12 25 25 21 29 -3 4 -10 0 -15 -8z"/>
<path style="--i:111" d="M2316 1238 c10 -13 19 -24 20 -26 1 -1 4 6 7 18 3 11 1 18 -3 15 -5
-3 -11 -1 -15 5 -3 5 -11 10 -17 10 -6 0 -3 -10 8 -22z"/>
<path style="--i:112" d="M3810 1244 c-15 -8 -58 -14 -106 -14 -98 0 -144 -8 -144 -25 0 -9 32
-17 98 -25 84 -11 102 -11 127 2 32 16 101 13 123 -4 7 -6 15 -8 18 -6 3 3 42
-3 87 -13 85 -19 103 -22 96 -15 -5 6 -218 53 -268 60 -20 3 -47 -2 -64 -11
-28 -14 -104 -13 -160 3 -39 12 -1 24 76 24 45 0 98 4 117 10 24 7 36 6 41 -1
4 -8 8 -7 11 2 3 10 30 7 129 -15 68 -16 131 -31 139 -33 13 -4 13 -3 0 5 -23
14 -249 65 -264 59 -8 -3 -17 -2 -22 2 -5 4 -20 2 -34 -5z"/>
<path style="--i:113" d="M5230 1256 c0 -2 7 -7 16 -10 8 -3 12 -2 9 4 -6 10 -25 14 -25 6z"/>
<path style="--i:114" d="M4241 1218 c-12 -4 -24 -14 -27 -23 -4 -8 -18 -16 -33 -16 -17 -1
-20 -3 -8 -6 9 -2 17 -8 17 -12 0 -4 -33 0 -72 10 -40 10 -80 18 -88 18 -8 -1
23 -11 70 -23 77 -20 86 -21 99 -7 10 12 14 13 18 4 3 -7 12 -13 21 -13 13 0
12 3 -4 15 -19 15 -19 15 3 34 23 19 24 19 85 -2 60 -21 61 -22 33 -28 -16 -4
-45 -7 -64 -8 -19 0 -32 -4 -28 -7 10 -11 125 7 130 20 7 17 -123 55 -152 44z"/>
<path style="--i:115" d="M4480 1210 c38 -11 267 -24 258 -15 -3 3 -50 7 -104 9 -55 3 -119 7
-144 10 -42 5 -43 5 -10 -4z"/>
<path style="--i:116" d="M4914 1180 c-35 -14 -204 -39 -339 -51 -74 -6 -135 -16 -143 -23 -7
-6 -17 -39 -23 -71 -6 -33 -17 -89 -25 -125 -8 -36 -14 -77 -14 -92 0 -37 -10
-58 -27 -58 -13 0 -13 3 -3 15 25 30 -13 106 -54 104 -21 0 -21 0 -1 -9 27
-10 42 -29 50 -61 6 -24 2 -28 -34 -43 -55 -21 -64 -21 -52 3 10 18 13 127 4
117 -2 -2 -6 -28 -7 -57 -4 -59 -7 -77 -19 -96 -5 -8 -4 -13 2 -13 6 0 11 4
11 8 0 15 76 33 101 24 27 -10 17 -18 -45 -38 -28 -8 -34 -13 -18 -13 12 -1
38 5 56 13 32 13 35 18 41 73 4 32 11 74 16 93 4 19 13 69 19 110 15 109 23
117 117 125 202 16 388 46 407 65 12 12 8 12 -20 0z"/>
<path style="--i:117" d="M5026 1078 c-11 -122 -7 -194 12 -210 22 -20 67 -35 58 -19 -4 6 -13
11 -20 11 -7 0 -21 9 -30 19 -15 17 -17 35 -12 140 2 67 3 121 2 121 -2 0 -6
-28 -10 -62z"/>
<path style="--i:118" d="M4755 1106 c-35 -10 -40 -16 -43 -44 -2 -17 1 -32 5 -32 14 0 33 23
33 40 -1 9 -6 6 -15 -10 -14 -24 -14 -24 -15 -3 0 27 10 33 75 49 27 7 39 12
25 12 -14 0 -43 -5 -65 -12z"/>
<path style="--i:119" d="M708 1072 c-14 -2 -29 -9 -32 -17 -4 -10 11 -15 62 -20 37 -4 74 -13
82 -20 35 -29 160 -29 160 1 0 15 -4 16 -71 18 -29 1 -46 7 -59 24 -18 22 -46
25 -142 14z m42 -14 c0 -9 3 -9 12 0 19 19 58 14 77 -10 14 -16 30 -22 67 -24
68 -3 72 -4 47 -14 -30 -12 -99 -4 -126 15 -12 8 -33 15 -48 15 -15 0 -42 3
-60 7 -33 7 -33 7 -9 14 37 10 40 10 40 -3z"/>
<path style="--i:120" d="M513 1043 c-18 -2 -33 -9 -33 -14 0 -9 22 -6 80 12 28 8 10 9 -47 2z"/>
<path style="--i:121" d="M4932 950 c-2 -91 1 -111 19 -145 12 -22 36 -69 54 -105 34 -69 58
-96 74 -86 22 14 60 -6 64 -32 4 -24 4 -23 6 6 1 33 3 32 -60 37 -27 1 -45 22
-69 78 -12 29 -34 68 -49 87 -23 32 -27 46 -32 150 l-5 115 -2 -105z"/>
<path style="--i:122" d="M4291 999 c-58 -17 -65 -17 -87 -2 -14 9 -27 13 -31 10 -3 -4 6 -11
21 -16 14 -6 26 -15 26 -20 0 -5 17 -3 38 4 20 8 60 21 87 29 28 7 41 14 30
14 -11 0 -49 -9 -84 -19z"/>
<path style="--i:123" d="M661 981 c-8 -5 -11 -17 -7 -32 19 -69 30 -99 37 -99 4 0 -1 25 -12
56 -27 75 -10 97 38 52 13 -12 23 -17 23 -11 0 6 -5 13 -12 15 -9 3 -9 6 0 12
6 4 21 -3 33 -15 16 -16 21 -18 16 -6 -8 22 9 22 22 0 10 -17 10 -17 11 0 0
10 -6 20 -12 22 -27 9 -125 13 -137 6z"/>
<path style="--i:124" d="M1196 952 c-5 -9 1 -92 7 -99 2 -2 12 -1 21 3 12 4 16 19 16 55 0 42
-3 49 -19 49 -11 0 -22 -4 -25 -8z m34 -41 c0 -22 -4 -42 -9 -45 -12 -8 -22
34 -14 62 9 36 23 25 23 -17z"/>
<path style="--i:125" d="M465 885 c2 -22 7 -105 11 -185 3 -80 10 -165 15 -190 8 -44 8 -44 4
10 -3 30 -8 125 -12 210 -3 85 -10 164 -14 175 -6 13 -7 7 -4 -20z"/>
<path style="--i:126" d="M5027 817 c4 -22 4 -22 -11 -3 -9 11 -16 14 -16 8 0 -17 41 -62 56
-62 8 0 37 -35 65 -77 52 -78 69 -96 78 -87 3 3 0 8 -6 12 -6 4 -34 42 -62 85
-28 42 -57 77 -64 77 -23 0 -37 21 -27 41 7 12 6 19 -4 22 -10 4 -12 -1 -9
-16z"/>
<path style="--i:127" d="M2970 761 c0 -5 7 -25 16 -46 9 -22 12 -41 6 -47 -5 -5 -14 8 -21 33
-7 22 -15 39 -17 36 -3 -3 0 -24 7 -46 9 -29 17 -40 27 -36 7 3 20 5 28 5 8 0
14 5 14 11 0 5 -4 7 -10 4 -5 -3 -10 -2 -10 4 0 20 19 21 25 1 5 -15 13 -20
30 -17 14 1 27 6 31 10 4 4 13 2 20 -4 7 -5 15 -6 18 -1 3 5 21 7 40 6 20 -2
36 0 36 4 0 4 26 7 58 8 55 0 118 11 111 19 -2 2 -23 0 -47 -5 -23 -4 -45 -3
-48 1 -3 5 -11 9 -17 9 -7 0 -6 -4 3 -10 13 -9 13 -10 0 -10 -9 0 -22 6 -29
13 -11 10 -12 9 -6 -2 6 -11 4 -13 -8 -8 -9 3 -19 1 -23 -4 -4 -6 -16 -1 -32
13 -15 13 -21 16 -14 6 8 -9 9 -19 4 -22 -6 -3 -17 6 -27 20 -9 14 -19 23 -22
20 -4 -3 1 -14 10 -24 10 -10 14 -21 11 -25 -4 -3 -19 9 -34 28 -24 30 -29 33
-40 20 -13 -16 -35 -21 -26 -7 3 5 -1 9 -9 9 -8 0 -12 -4 -9 -9 3 -4 2 -13 -2
-19 -4 -7 -12 2 -21 21 -11 27 -11 35 -1 42 10 6 8 8 -4 8 -10 0 -18 -4 -18
-9z m118 -53 c14 -14 16 -28 2 -28 -5 0 -14 9 -20 20 -12 22 -1 27 18 8z m-20
-26 c6 -18 -15 -14 -22 4 -4 10 -1 14 6 12 6 -2 14 -10 16 -16z"/>
<path style="--i:128" d="M4905 749 c-4 -11 -4 -36 0 -55 5 -27 10 -34 28 -33 15 1 17 3 5 6
-20 5 -31 44 -22 78 7 30 -2 34 -11 4z"/>
<path style="--i:129" d="M2825 750 c-4 -6 1 -7 10 -3 10 3 21 0 26 -8 7 -12 9 -12 9 1 0 13 1
13 10 0 6 -10 10 -11 10 -2 0 6 4 12 10 12 5 0 8 -20 6 -45 -2 -25 1 -48 5
-51 5 -3 9 20 9 50 l0 56 -44 0 c-25 0 -48 -4 -51 -10z"/>
<path style="--i:130" d="M4940 755 c0 -4 6 -18 14 -34 8 -15 13 -36 12 -47 -5 -28 30 -90 64
-115 16 -13 59 -56 95 -96 36 -41 65 -68 65 -60 0 7 -47 62 -105 120 -77 79
-105 114 -105 132 0 32 -23 105 -32 105 -5 0 -8 -2 -8 -5z"/>
<path style="--i:131" d="M2700 731 c0 -6 5 -11 11 -11 6 0 8 -8 5 -17 -7 -22 8 -48 22 -39 6
3 13 0 16 -6 3 -9 9 -7 20 6 9 11 16 14 16 8 0 -7 9 -12 19 -12 17 0 18 4 9
34 -11 36 -38 49 -74 36 -10 -4 -25 -3 -31 2 -9 7 -13 7 -13 -1z m105 -32 c10
-29 -3 -37 -14 -8 l-9 24 -7 -27 c-4 -16 -11 -25 -16 -22 -6 3 -7 14 -4 25 5
14 2 17 -9 13 -8 -3 -12 -13 -9 -22 4 -14 3 -14 -5 -3 -17 23 -2 41 33 41 25
0 35 -5 40 -21z"/>
<path style="--i:132" d="M2832 699 c15 -46 22 -51 13 -10 -5 23 -4 31 4 27 6 -4 11 -18 11
-32 0 -15 6 -24 15 -24 10 0 15 10 15 30 0 17 -5 30 -12 30 -7 0 -23 3 -35 6
-22 6 -22 5 -11 -27z m45 -21 c-3 -7 -5 -2 -5 12 0 14 2 19 5 13 2 -7 2 -19 0
-25z"/>
<path style="--i:133" d="M2646 695 c-14 -21 -20 -24 -37 -15 -11 6 -17 16 -13 23 4 7 -5 1
-19 -12 -25 -23 -32 -21 -27 4 1 6 -4 4 -11 -2 -7 -7 -17 -13 -22 -13 -4 0 -5
6 -1 13 6 10 4 10 -7 0 -7 -7 -19 -13 -27 -13 -8 0 -10 5 -6 13 6 8 3 8 -9 -1
-9 -8 -20 -11 -25 -9 -4 3 -14 2 -21 -3 -8 -4 15 -7 53 -6 37 1 69 -2 72 -5 2
-4 24 -6 50 -5 25 1 47 -1 50 -5 4 -7 54 -2 63 6 2 3 -1 11 -7 18 -7 8 -11 16
-9 18 1 3 -8 -6 -19 -19 -14 -16 -24 -20 -28 -13 -4 6 -3 11 2 11 5 0 12 9 15
20 7 26 3 25 -17 -5z m-49 -21 c-3 -3 -12 -4 -19 -1 -8 3 -5 6 6 6 11 1 17 -2
13 -5z"/>
<path style="--i:134" d="M4159 673 c-29 -20 -84 -52 -121 -69 -36 -18 -68 -36 -71 -41 -2 -4
8 -127 24 -273 15 -146 28 -271 28 -279 1 -8 3 -12 6 -9 4 4 -35 423 -49 524
-4 31 -2 33 72 69 42 20 97 51 122 68 56 38 54 36 49 42 -3 2 -30 -12 -60 -32z"/>
<path style="--i:135" d="M5795 687 c29 -22 9 -38 -39 -33 -23 3 -48 1 -56 -4 -10 -7 4 -10 47
-10 34 0 65 5 68 10 10 16 -5 50 -23 50 -13 0 -13 -2 3 -13z"/>
<path style="--i:136" d="M1101 580 c-26 -39 -33 -60 -35 -102 -1 -47 -4 -53 -24 -56 -27 -4
-40 23 -24 49 7 10 11 33 11 51 -1 33 -1 33 -11 -7 -5 -22 -10 -53 -11 -70 -2
-27 1 -30 29 -33 20 -2 36 4 49 18 10 11 13 20 8 20 -6 0 -13 14 -15 31 -4 24
3 44 29 82 46 68 45 67 36 67 -4 0 -23 -23 -42 -50z"/>
<path style="--i:137" d="M4095 569 l-20 -9 20 3 c28 5 80 -26 81 -49 0 -10 6 -29 13 -42 6
-12 9 -27 6 -32 -3 -6 1 -10 10 -10 8 0 18 -7 22 -16 4 -12 9 -10 24 13 11 15
19 36 19 45 0 24 16 31 42 16 13 -7 26 -11 30 -10 4 1 18 -2 31 -7 15 -6 29
-5 38 1 12 8 12 9 -1 5 -8 -2 -39 4 -68 14 -60 21 -82 17 -82 -15 0 -22 -17
-46 -32 -46 -4 0 -12 9 -18 21 -14 25 7 60 21 37 6 -9 9 -9 9 -1 0 20 -18 24
-34 7 -9 -8 -16 -12 -17 -7 -1 4 -2 19 -2 32 -1 15 -13 31 -32 42 -35 21 -34
20 -60 8z"/>
<path style="--i:138" d="M3879 539 c-27 -21 -19 -25 11 -7 10 7 22 10 25 6 5 -4 65 -498 65
-532 0 -5 2 -7 5 -4 3 3 -8 125 -25 271 -16 147 -30 270 -30 275 0 15 -27 10
-51 -9z"/>
<path style="--i:139" d="M5120 552 c0 -5 20 -34 45 -66 47 -60 58 -113 28 -137 -15 -13 -18
-45 -4 -53 5 -3 14 1 20 8 8 9 8 17 2 20 -5 3 -12 0 -14 -6 -3 -8 -6 -6 -6 5
-1 9 5 17 12 17 9 0 14 16 16 48 2 50 -4 61 -71 140 -15 18 -28 29 -28 24z"/>
<path style="--i:140" d="M4615 485 c-50 -16 -31 -19 27 -4 42 11 46 9 153 -45 166 -85 206
-108 212 -123 9 -22 -3 -26 -29 -9 -55 36 -374 163 -384 153 -3 -3 24 -14 60
-26 78 -25 269 -106 302 -128 21 -13 36 -42 16 -29 -4 2 -7 -13 -7 -35 0 -21
4 -39 8 -39 5 0 7 10 4 23 -3 12 0 30 8 40 13 17 14 17 20 -5 4 -13 16 -31 26
-41 25 -23 24 -44 -1 -52 -29 -9 -39 1 -36 38 2 17 1 22 -1 10 -2 -13 -11 -23
-20 -23 -12 0 -11 -5 7 -20 24 -21 38 -24 64 -14 22 9 20 36 -5 69 -20 24 -28
79 -15 93 14 13 -314 183 -351 181 -10 0 -36 -6 -58 -14z"/>
<path style="--i:141" d="M3654 482 c-6 -4 -13 -42 -16 -85 -3 -42 -7 -80 -10 -82 -2 -3 -67
-18 -144 -35 -143 -30 -359 -94 -382 -112 -7 -6 -12 -25 -12 -42 1 -17 -1 -44
-4 -61 -6 -30 -6 -30 4 2 6 19 22 37 41 47 59 29 341 76 459 76 83 0 107 -23
151 -145 13 -35 18 -42 18 -25 0 39 -61 153 -89 167 -14 7 -51 13 -82 13 -104
0 -356 -40 -465 -75 -17 -6 -23 -3 -23 9 0 8 10 22 23 30 35 22 238 82 384
112 l132 27 5 51 c4 28 7 67 9 86 2 31 5 35 34 38 l31 3 4 -118 c3 -100 7
-126 27 -168 14 -27 32 -84 42 -125 9 -41 18 -66 18 -55 1 35 -27 138 -53 195
-23 49 -26 68 -26 168 l0 112 -32 0 c-18 0 -38 -4 -44 -8z"/>
<path style="--i:142" d="M5141 381 c-23 -23 -26 -46 -11 -85 8 -21 16 -26 44 -26 19 0 42 7
50 16 22 21 20 31 -1 12 -59 -49 -126 19 -72 73 11 11 18 23 16 26 -3 2 -15
-5 -26 -16z"/>
<path style="--i:143" d="M3116 45 c8 -13 12 -30 8 -37 -5 -10 -4 -10 5 -2 14 12 -2 64 -19 64
-6 0 -3 -11 6 -25z"/>
<path style="--i:144" d="M2043 43 c-7 -2 -13 -14 -12 -26 0 -22 0 -22 9 1 12 27 24 28 61 1
16 -11 29 -16 29 -10 0 6 -13 17 -30 26 -30 16 -37 17 -57 8z"/>
</g>
</svg>
