<svg xmlns="http://www.w3.org/2000/svg" viewBox="0 0 600 338"><path d="M31.7 15c.3 8.5.8 16 1.2 16.7.7 1.4.3-12-.9-23.7-.6-6.3-.7-4.5-.3 7M151 1.1c2.7 1 5.1 1.4 46.7 8.5 26 4.5 31.2 4.9 28.7 2.4-1.1-1.1-53.4-10.3-54.2-9.6-.3.3-.1.6.3.6 1.9 0 53 9.1 53.4 9.6.2.2-.4.4-1.5.4-2.2 0-56-9.3-66.6-11.5-8.1-1.7-10.6-1.8-6.8-.4M519 2.6c-4.1.8-13.1 2.8-20 4.4s-22.6 5.2-35 8c-12.4 2.7-32.8 7.5-45.3 10.6-14.6 3.5-24.2 5.4-26.5 5.1-2-.2-2.8-.2-1.7.1l2 .4-2 .9c-4 1.8 6-.2 28.5-5.6 12.4-3 32.6-7.8 45-10.5 12.4-2.8 27.9-6.4 34.5-8 6.6-1.5 15.6-3.4 20-4 4.4-.7 8.4-1.7 9-2.1 1.1-1.1 1.2-1.1-8.5.7M579.5 15.1c-11 2.1-22.6 3.9-25.7 3.9s-6 .5-6.3 1.1c-.5.7-.8 23.3-.5 34.1 0 .5.5.8 1.1.8.5 0 .7-.4.4-1-.8-1.3-.9-31.6 0-32.9.3-.6 3-1.1 5.8-1.1 5.5 0 44.1-7.1 45.3-8.3.4-.4.5-.7.3-.6-.2 0-9.4 1.8-20.4 4"/><path d="M587.5 19c-4.9 1-14 2.6-20.1 3.6l-11.1 1.7-.5 15.4c-.3 8.4-.7 15.5-.9 15.7s-2.4.7-4.9.9c-2.5.3-9.4 1.3-15.5 2.2-6 1-12.8 1.9-15 2-12.2.8-16.5 1.8-16.5 3.6 0 2.8-2.2 6.9-3.7 6.9-.7 0-1.3.7-1.3 1.5s-.4 1.5-1 1.5c-.5 0-1 1-1 2.3s-.7 3.2-1.5 4.3c-.8 1-1.4 3-1.4 4.4l.1 2.5.7-2.6c.5-1.4 1.4-3.6 2.2-5 .7-1.3 1.2-3 1.1-3.7-.2-.6.2-1.2.8-1.2.5 0 1-.7 1-1.5s.4-1.5 1-1.5c.5 0 .6.7.3 1.7-.4 1.1-.3 1.4.6.9.6-.4 1.1-1.3 1-1.9-.1-.7.3-2.5.9-4 .7-1.6 1.2-3.4 1.2-4.1 0-1.3 5.3-2.3 16-3.1 1.9-.2 8.5-1 14.5-2 6.1-.9 12.1-1.8 13.5-2s8.8-1.2 16.5-2.4c7.7-1.1 19-2.6 25-3.3 6.1-.6 10.3-1.4 9.4-1.5-1.7-.4-33.5 3.3-37.7 4.4l-2.5.6.6-7.8c.4-4.3.7-11.1.7-15.1 0-8.1-.3-7.8 8-8.8 5.3-.6 31.4-5.7 31.9-6.2.8-.7-3.1-.2-12.4 1.6m-28.8 20.6c-.6 13.3-1 16.5-2.1 15.3-.8-1 .7-29.9 1.7-29.9.7 0 .8 4.9.4 14.6M487 29c-15.7 3.2-27.7 5.9-26.8 5.9 1.4.1 48.9-8.9 55.6-10.6 2.7-.6 3.2 2.3.5 3.1-7.4 2.2-58.7 11.5-60.9 11.1-1.6-.3-3.4-.2-4.1.2-.8.6-1.2 14.6-1.6 50.9-.2 27.6-.8 50.7-1.1 51.3-.4.6-.2 1.1.3 1.1.6 0 1.1-.1 1.2-.3 0-.1.3-22.9.6-50.7.2-27.8.7-50.9 1-51.3.3-.5 1.7-.5 3.3-.2 1.6.4 14.1-1.7 31.1-5 36.2-7.2 33.1-6.3 32.7-8.9-.2-1.1-1-2.1-1.8-2.2s-14.3 2.4-30 5.6M202.8 27.9c1.8 1.2 3.7 2.1 4.2 2.1 2.1 0 7.9 6.3 9.5 10.3 1 2.3 1.7 6.2 1.6 8.6-.1 2.5.1 4.2.4 3.9 1.3-1.3.5-9.7-1.4-13.8-2.3-5.1-5.4-8.4-9.1-9.5-1.4-.4-2.7-1.1-3-1.5s-1.6-1.1-3-1.4c-2.1-.6-2-.4.8 1.3"/><path d="M193.3 29.1c-.4.4-1.9.9-3.2 1.1-2.8.4-3.4 1.3-5.5 8.8-1.9 6.8-2.4 17.8-.8 20.6.6 1.2 1.4 3.9 1.7 6 1.2 7.6-2.3 10.4-24.3 19.6-4 1.6-7.6 3.8-8.1 4.7-.8 1.4-2.1 1.6-10.3 1-13.4-1-52.4-2.2-51.8-1.6.3.3 8.2.7 17.5 1.1 39 1.4 42.6 1.7 42.1 3.5-.3.9-1.4 4.7-2.6 8.6-1.1 3.8-2.4 9.7-2.8 13l-.7 6-11.8.3c-12.1.3-12.2.3-11.9-3.8 0-.3-2.4-.5-5.4-.5s-5.4.3-5.4.7c0 .5.3.7.8.7.4-.1 2.4-.1 4.5 0 3 .1 4 .6 4.4 2.1.5 2 1.2 2 13.2 1.8l12.6-.3.7-6.4c.9-7.7 4.2-19.4 6.9-23.7 1.5-2.5 10.9-8.4 13.4-8.4.3 0 4.5-1.8 9.1-4.1 7.3-3.4 8.8-4.6 10-7.6 1.6-3.7 1.2-9.9-.8-13.7-2.3-4.3.3-22.7 3.6-26.2 1.6-1.7 9.8-3.4 12.6-2.7 1.4.3 2.2.2 1.8-.2-1-1-8.5-1.4-9.5-.4M314.2 29.5c.3.3 5.4 1.4 11.4 2.4 55.3 9.6 77.2 13.1 79.4 12.8 2.4-.4 2.4-.4-.3-.6-2.4-.1-37.2-5.9-79.2-13.2-12.4-2.1-12-2.1-11.3-1.4M487 38.4l-26.5 5.2-.6 31.4c-.4 17.3-.7 39.3-.8 48.7 0 10.8-.5 17.3-1.1 17.3-1.1 0-1.2-26.3-.1-70.3.3-14.7.3-26.7 0-26.7-.6 0-1.9 58.7-1.9 84.5v14l7.5.2c4.5.2 7.6-.1 8.1-.8.5-.8.9-.8 1.4.1.4.7 3 1.4 5.6 1.6 7.2.5 9.4 1.2 9.5 3.2 0 1.1.2 1.3.6.4.3-.7-.2-2.1-1.1-3.1-1.5-1.6-1.5-1.9-.1-3.1.8-.7 1.5-2.2 1.4-3.4 0-1.5-.2-1.7-.7-.6-3 6.6-6.3 7.7-8.7 3-1.4-2.7-1.4-3 0-3 .9 0 2 1 2.5 2.2l.9 2.3v-2.2c.1-3-1.2-3.6-6-2.8-3.1.5-4.3 1.3-5 3.2-.9 2.4-1.3 2.5-6.1 2-2.8-.4-5.3-.8-5.5-1.1-.3-.2-.1-22 .3-48.3l.7-47.9 27.6-5.2c15.2-2.9 27.9-5.2 28.2-5.2.4 0 .4 5.7.2 12.7-.3 7.1-.3 12.6-.1 12.3.3-.3.8-6.2 1.1-13.3l.6-12.7-2.7.1c-1.5.1-14.6 2.5-29.2 5.3m-8.2 102.1c1 2.2.9 2.5-.8 2.5-1.9 0-5-2.5-5-4.1 0-2.1 4.7-.8 5.8 1.6M389.6 35c1.1.4 4.7 1.1 8 1.5 8.5 1.1 10.4 2 10.4 5 0 1.4.4 2.5.8 2.5 1 0 .3-5.8-.7-6.4-.7-.5-18.7-3.6-19.9-3.5-.4 0 .2.4 1.4.9M34.2 38.3c-1.5 1.8.6 45.9 2.3 48.7.4.6 4.3.9 9.3.8l8.7-.2-8.4-.5c-8.4-.6-8.5-.6-9.2-3.6-.8-3.2-2.4-27-2.2-32 .2-5.6.4-6.1 1.3-4 .7 1.7.9 1.8.9.2.1-1.4.7-1.6 3.9-1.2 7.5 1.1 54.8 5.5 57.7 5.4 2.5-.1-57.3-6.6-62.7-6.8-2.6-.1-2.5-5.8.1-6.6 1.1-.3 6.9.1 12.9 1 6.1.9 12.9 1.5 15.3 1.2l4.4-.4-5-.1c-2.7-.1-9.5-.9-14.9-1.7-12.1-1.8-13.1-1.8-14.4-.2"/><path d="M190.4 39.3c-1.5.9-1.9 1.7-1.4 3.1.6 1.9.7 1.9 1.2-.2.9-3.4 3.6-3.8 10.4-1.4 3.5 1.2 7.6 2.2 9.2 2.2 2 0 3.2.7 4.2 2.5.7 1.4 1.7 2.5 2.2 2.5s.6-.6.2-1.3c-1.9-3.2-4-4.7-6.8-4.7-1.7 0-5.5-.9-8.4-2-6-2.3-7.9-2.4-10.8-.7M445.2 92.5c-.2 35.9-.6 51.5-1.3 50.2-.8-1.4-2.2-1.7-7.2-1.5l-6.2.2 5.5.3c3 .2 5.8.7 6.2 1.1.4.5.4 2.3-.2 4.1-.7 2.5-.6 4 .5 6 .8 1.4 1.4 2.1 1.5 1.4 0-.6.3-2 .6-3 .4-1.3.3-1.5-.4-.4-1.3 1.8-2.1.2-1.5-3.2.5-2.5.9-2.7 5.2-2.7 3 0 4.1-.3 3.2-.9-.7-.5-2.2-.6-3.2-.4-1.8.5-1.9-1.1-2.2-51.3l-.2-51.9zM189 45.8c.1 2.1 6.8 4.9 16.7 6.7 3.9.8 5 2.2 3.1 4.1-1.1 1.1-2 1.2-4.5.2-2.4-.9-3.5-.9-4.6 0-1.5 1.3-1.2 4.8.5 5.8.5.3.6-.5.3-1.9-.7-2.5 1.1-4.8 2.4-3.1 1 1.5 6.1 1 7.2-.6 2.2-3.6.7-5.1-5.5-5.8-2.3-.2-4.9-.8-5.8-1.3s-2.6-.9-3.8-.9c-1.1 0-2.3-.6-2.6-1.4-.6-1.5-3.4-3-3.4-1.8M310.5 50c-6.1 3.8-38.2 10.6-49 10.3-4.4-.1-4.7 0-2 .8 6.8 2 51-7.4 54.5-11.6 1.7-2 .2-1.8-3.5.5M419 50.5c-3.6.7-12 2.2-18.7 3.5L388 56.2l.2 27.2.3 27.1.2-26.7.3-26.7 5.3-1c2.8-.5 6.8-1.2 8.7-1.6 1.9-.3 8.2-1.5 13.9-2.6q10.5-1.95 11.1-.9c.7 1.1.3 89-.4 89.7-.2.2-6 .4-13 .4-7 .1-12.5.3-12.2.6.4.4 5.5.5 21.6.4l5.5-.1-.1-44.8c-.1-24.6-.2-45.5-.3-46.5-.1-2-1.1-2-10.1-.2M379.6 52.1c.2.4-.1.9-.7 1.1-.9.3-.9.9 0 2.5 1.1 2.3 1.6 32.9.5 36.9-.6 2.1-1.2 2.2-14 2.2-7.4.1-13.8.4-14.3.6-1.1.7-.1 21.7 1.1 23.2.5.7 4 1.2 8 1.3 3.9 0 7.6.5 8.2.9 1.7 1.2 3.9.9 4.4-.7.3-.8 0-1.1-.7-.7-.6.4-2 .4-3.2.1-1.9-.6-1.9-.8-.3-3.3 1.5-2.3 1.5-2.6 0-3.7-1.8-1.4-2.1-3.1-.6-4s9.1 3.8 8.5 5.3c-.3.7 0 1 .5.7 2.1-1.3.8-3.2-3.4-5.3-2.4-1.2-5.1-1.9-6-1.6-2 .8-2.1 3.8-.1 5.4 1.2 1 1.2 1.5-.2 3.6-1.4 2.2-2.1 2.4-8.2 2.2l-6.6-.3-.6-11c-.4-6.1-.6-11.1-.5-11.2.2-.3 12.3-.5 20.4-.4l8.2.1v11.6c0 7.2-.4 11.3-1 10.9-1.5-.9-4.7 1.2-5.3 3.4-.3 1.2.1 2.2 1 2.5 1 .4 1.3.1.8-1.3-.6-2 1.8-4.7 3.4-3.7.5.3.7 1.5.4 2.6s-1 1.7-1.6 1.3c-.5-.3-.7-.2-.4.4.4.5 2.1 1 3.9 1s2.6-.2 1.6-.4c-2-.5-3.3-3.3-1.5-3.3.7 0 .8-.3.2-.8-.6-.4-1-13-1-34V52.8l3.3.6c1.8.2 3 .1 2.7-.3-.3-.5-2-1.1-3.9-1.3s-3.3-.1-3 .3"/><path d="M344.9 59c-6.9 1.5-13.4 3.2-14.5 3.8-1.8 1-1.8 1.1-.2 1.7 1 .4 1.5 1.2 1.1 1.9-.4.6-.7 7.7-.8 15.8 0 8 .3 14.1.7 13.5.3-.6.5-6.5.3-13.1-.1-6.7 0-13.1.2-14.3.4-1.9 1.9-2.4 12.1-4.3 6.5-1.2 11.8-2.3 12-2.5.2-.1-1.1-.5-2.7-.7-1.7-.3-2.7 0-2.4.5.3.6-.7.8-2.5.5s-2.9 0-2.5.5c.3.6-.7.8-2.5.5-1.7-.2-2.9-.1-2.7.3.8 1.2-7.8 2.1-8.9.8-.8-.9-.5-1 1.2-.6 1.2.3 2 .2 1.7-.2-.2-.4 5.3-2 12.3-3.4 12.9-2.8 17.4-3.3 13.7-1.7-1.7.7-1.7.9-.2.9 1.9.1 1.8-.1 2.1 9.1.3 10.1-.1 11.5-3.5 11.6-3.9.2-6.7 2.9-7.5 7.3-.3 2-.8 4.5-1.1 5.6-.3 1.6-.2 1.7.6.5.6-.8 1.1-2.8 1.1-4.3 0-4.1 5.2-9.1 8.5-8.3 2.8.7 2.7 1.6 2.9-14.6l.1-9.8-3 .1c-1.6.1-8.7 1.3-15.6 2.9M385.6 56.7c-.9.9-.7 72.3.2 72.3.4 0 .7-16.4.7-36.5s0-36.5-.1-36.5c0 0-.4.3-.8.7M211.3 66.8c0 1.6-.9 4.3-2.1 6-2.4 3.3-2.8 4.7-1.1 3.6 2.1-1.2 5.1-9.3 4.1-11-.7-1.2-.9-.8-.9 1.4M404.4 82c0 9.6.2 14.1.3 10 .3-5.1.7-7 1.3-6 .8 1.3 1 1.2 1-.3 0-.9-.4-1.7-1-1.7-.5 0-1.1-4.4-1.3-9.8-.1-5.3-.3-1.8-.3 7.8M245 66.7c-1.4.3-8.7 2-16.4 3.8-7.6 1.9-14.5 3.1-15.5 2.9-1.4-.5-1.4-.4 0 .5 1.1.7 5.5 0 16-2.6 12.4-3.2 16-3.7 25.9-3.7 8.2 0 10.2-.2 7-.7-4.9-.8-13.1-.9-17-.2M520 67c0 .3-1 1-2.2 1.5-1.3.6-2.2 1.7-2 2.5.2.7.4 2.8.6 4.6.1 1.9.6 3.7 1 4.1.4.5.5-.4.1-2-.5-1.7-.3-2.7.4-2.7 1.1 0 1.5 1.3 1.2 3.7-.1.7 1 .1 2.4-1.3 2.7-2.7 4.8-2.6 2.5.1-.7.9-1 1.8-.6 2.2.3.3.6.1.6-.6 0-.9.5-.9 2.1 0 1.6.8 2.4.8 3.3-.1.6-.6.7-1.1.1-1-2.6.5-4.1-.2-4.1-2 0-1.1.4-2 .9-2 .4 0 .5-.5.1-1.1-.3-.6-.1-1.5.6-1.9 2.2-1.4-.5-4.5-3.9-4.5-1.7 0-3.1.2-3.1.5m5 5c-2.3 3.3-5 5.6-5 4.3 0-.5.5-1.4 1.2-2.1s.8-1.2.4-1.2c-.5 0-.2-.8.5-1.8q1.95-2.25-.3-.3c-1 .7-1.5 1.8-1.2 2.3.4.6-.2.8-1.2.6-3.3-.6-2.3-4 1.6-5.3 4.9-1.7 6.7-.2 4 3.5M533.2 66.7c-.8.3-1 .9-.4 1.6.5.7 1.2 2.7 1.6 4.5.5 2.8.1 3.8-2.3 6.3-1.6 1.6-2.6 3.1-2.1 3.4s1.1.1 1.5-.4c.3-.7 1.5-.7 2.9-.1 1.3.5 2.6.7 2.7.5.2-.2 2.2-.6 4.3-.9 4.4-.7 6-1.6 3-1.6-1.1 0-2.9-.6-3.9-1.4-1.6-1.2-1.7-1.6-.6-3 1.1-1.3 1.6-1.3 3.5-.1 1.9 1.3 2.3 1.2 3.4-.6 1.2-1.8 1.1-2-.4-1.1-1.2.7-2.4.6-3.6-.2-1.6-.9-2.2-.8-3.2.6-.7 1-1.6 1.5-1.9 1.1-.4-.3-.7-.1-.7.5 0 .7.9 2.1 1.9 3.1 1.9 1.9 1.9 1.9-.2 2.3-1.2.2-3 .2-4 0-1.5-.3-1.6-.5-.2-2.5 1-1.4 1.3-3.3.9-5.5-.5-2.5-.2-3.7 1.2-4.8 1.8-1.4 1.7-1.4-.5-.3-2.1 1-2.3.9-1.8-.5.4-.9.5-1.6.4-1.5-.1 0-.8.3-1.5.6M556 72.4c0 1.5-.7 2.6-1.7 2.9-1.7.4-1.7.5 0 .6 3.8.2.7 4.1-3.3 4.1-1.6 0-3.5 1-4.6 2.2-1.9 2.3-1.9 2.3.2.5 1.1-.9 3.2-1.7 4.7-1.7 3.7 0 5.7-2.5 5.7-7.1 0-2.1-.2-3.9-.5-3.9s-.5 1.1-.5 2.4M284.7 71.6c-.7.8.4 44.7 1.2 45.6.3.4.3-9.3-.1-21.5-.3-12.2-.4-22.5-.2-22.9.3-.5 1.2-.8 2-.8 1.2 0 1.4 3.5 1.6 21.2.1 11.7.2 22.1.1 23 0 1 .3 1.8.6 1.8s.5-10.3.3-22.9c-.3-21.5-.3-23 1.5-23.4 1-.3 0-.5-2.3-.6-2.2 0-4.3.2-4.7.5M311.7 80.8c.6 22.8.6 29.8-.1 31.8-.5 1.8-1 7.5-1.6 20 0 .6-1 1.6-2.2 2.3-2.2 1.1-2.2 1.1.5.8q2.7-.45 2.7.9c0 .8 1.1 1.4 2.6 1.4 1.4 0 2.3-.4 1.9-1-.3-.5-1.2-.7-2-.3-.8.3-1.5 0-1.5-.5 0-.6 1-1.3 2.3-1.5 1.9-.4 1.8-.4-.5-.6-1.6 0-2.8-.5-2.8-1 0-.4 1.1-.6 2.4-.4 1.3.3 2.6.1 3-.5.3-.5-.5-.7-1.9-.5-2 .4-2.5 0-3-2.8-.3-1.9-.1-6.6.5-10.4.6-3.9 1.1-10.8 1.1-15.5.1-21.4-.2-32-.8-32-.5 0-.7 4.4-.6 9.8M298.5 73.4l-6 1.2v21.9l-.1 22 .3-21.6.3-21.5 8.8-1.6c4.8-.9 7.4-1.6 5.7-1.6-1.6.1-5.7.6-9 1.2M499.6 76.9c-.4.6-.2 1.1.5 1.1.8 0 1 1.7.6 6.2-.4 3.5-.7 13.7-.7 22.8-.1 17-.5 21-2.2 21-.5 0-.6-.6-.2-1.3.4-.6.4-.9-.1-.5-.4.4-1.6.3-2.7-.3-2.2-1.2-5.2.6-4.4 2.6.2.7 0 1.7-.6 2.3-.8.8-.8 1.5 0 2.5.7.8 1 2.8.8 4.5-.3 3.2.7 4.2 4.4 4.2 2.6 0 3.3-2.8 1-4-1.6-.8-2-.8-2 .4q0 1.5 1.8.9c1.3-.5 1.5-.3.5.7-1.3 1.4-4.8.6-3.8-1 .3-.5.2-1-.3-1-.6 0-.8-.9-.5-2s0-2.6-.6-3.3c-1.6-2.1-.1-2.8 2.3-1.2 1.1.8 2.9 1.5 3.9 1.5s1.6.4 1.3.9-1.5.7-2.6.4-2 0-2 .6.7.8 1.7.4c1.1-.4 1.4-.3.9.5-1.1 1.9.5 1.4 2-.6 1.9-2.4 1.7-3.2-.6-3.2-1.2 0-3.2-.7-4.6-1.6-1.8-1.2-2.2-2-1.4-2.9.9-1.1 1.7-1 4 .3 1.6.9 3.2 1.3 3.6.9s.9-5.1 1-10.4c1.1-33.6 1.2-40.1.4-41.2-.5-.9-1-1-1.4-.2M270 78.7c-1.4.2-4.8.8-7.7 1.4l-5.2 1 .6 8.2c.3 4.5.8 8.4 1.1 8.7.2.3.2-3.2-.1-7.6l-.5-8.1 3.8-1.2c2-.6 5.4-1.1 7.4-1.1h3.6v6.7c0 9.8 1.2 30.7 1.7 31.3.7.8-.8-37.4-1.6-38.5-.3-.6-1.7-.9-3.1-.8M181 82c2.6 3.6 13.5 9 18.3 9 3.7 0 6.7-2.1 6.7-4.6 0-1.6 1.6-1.9 2.5-.4.4.6 3.1 2.5 6.2 4.2 3 1.7 7.1 4.6 9 6.4l3.6 3.4H257v18.9l-2.7.4c-2.6.4-2.6.4.5.6l3.2.1v-10.5c0-6.1-.4-10.5-1-10.5-.5 0-1.1-4.2-1.3-9.3l-.3-9.2-.2 9.2-.2 9.3h-26.7l-3.5-3.3c-3.3-3.1-16.9-11.7-18.6-11.7-.4 0-1.3 1.3-1.9 3-.9 2.5-1.7 3-4.3 3-4.3 0-15.6-5.5-17.6-8.6-.9-1.3-2.1-2.4-2.6-2.4s0 1.3 1.2 3"/><path d="M232.3 85.1c-3.3 1-3.3 1-3.1 7.2l.2 6.2.3-5.7c.4-5.3.6-5.7 3.5-6.7 1.7-.6 4.1-1.1 5.4-1.1 2.1 0 2.3.5 2.7 6.2l.4 6.3-.1-6.5c-.1-6.5-.1-6.5-3.1-6.7-1.6-.1-4.5.3-6.2.8M38.3 90.6c-1.6.7-1.7 4.6-.1 6.2.9.9.9 1.2 0 1.2-1.5 0-1.7 10.6-.2 11.5.6.3 1 3 1 6 0 4 .4 5.4 1.6 5.9.9.4 1.9.4 2.2.1.3-.2-.3-.7-1.2-1.1-1.9-.7-2.3-8.8-.5-9.9 1.4-.9 5.1 2.5 4.5 4.1-.3.8.1 1.1.9.7.8-.3 1.2-1 .8-1.6s-.7-4.3-.6-8.2c.1-7.5-.5-8.5-4.9-8.5-2.8 0-4.6-2.9-3.2-5.1.8-1.3 25.3-.4 26.7 1 .5.5 1.3 6.8 1.8 14.2s1.2 14 1.4 14.6c.3.9 3 1.3 9 1.3 7.2 0 8.8-.3 10.5-2 1.1-1.1 3.2-2 4.6-2 1.7 0 2.8.6 3.1 2 .5 1.9 1.3 2 12.2 1.9 6.4-.1 10.7-.4 9.6-.6-1.1-.3-2.6-1-3.4-1.7-1.2-.8-1.3-.8-.7.1.5 1-1.2 1.3-7.7 1.3-7.8 0-8.5-.2-9-2.1s-1.1-2.1-4.9-1.6c-2.3.3-4.7 1.3-5.4 2.1-.8 1.2-3 1.6-8.7 1.6-4.2 0-7.9-.4-8.2-1-.3-.5-.8-5.5-1.1-11-.4-8.9-1.6-17.5-2.6-18.5-.6-.6-26.3-1.5-27.5-.9m6.8 7.6c0 .2.3 3.2.6 6.8.5 5.8.4 6.3-1.1 5.1-.9-.7-2.5-1.1-3.5-.8-1.2.3-2.2-.1-2.5-1-.8-2-.7-8.8.1-9.6.6-.6 6.2-1 6.4-.5M549.9 100.2c-.1 4-.1 9.1 0 11.4.1 2.6-.3 4.5-1.3 5.4-.9.7-1.6 1.7-1.6 2.3 0 .5.8 0 1.9-1.1 1.5-1.9 1.9-4 2-13.7 0-6.3-.1-11.5-.4-11.5s-.6 3.3-.6 7.2"/><path d="M124.5 96c13.3 1.4 13.3 1.8 0 1.9-6.6.1-14 .7-16.5 1.2-2.5.6-12.1 1.4-21.5 1.8l-17 .7 14 .2c9 .1 16.8-.3 21.8-1.3 4.3-.8 13.2-1.5 19.7-1.5 8.6 0 12.1-.4 12.9-1.3.8-1 .7-1.4-.2-1.4-.6 0-5.9-.3-11.7-.6l-10.5-.6zM325.7 98.9c-.4 1.9-.7 7.3-.7 12.1v8.8l-3.5.6-3.5.7v7.4c0 10.2.4 10.5 13.9 10.5 12.9 0 21.5-1 18.6-2.1-1.1-.4 2.3-.6 7.5-.4 5.2.1 7.7.1 5.5-.1-13.6-1.3-14.5-1.5-14.5-3.5 0-1.6.8-1.9 5.8-2.1 3.1-.1 7.6-.1 10 .1 3.5.2 4.2-.1 4.2-1.6 0-2.4-6.2-4.9-11-4.4-4.2.3-5.2 1.1-4 3.1.8 1.3 1 1.3 1-.1 0-2.4 5.4-2.9 9.5-1 4.5 2.1 4.4 3.2-.2 2.9-2.1-.1-6.7-.1-10.2 0l-6.3.2.4 3.1c.3 2.1 0 3.3-1.1 3.8-2.6 1.4-25.1 1.3-26.7 0-.9-.8-1.4-3.4-1.4-7.9 0-7.1.6-8 5.1-8 1.7 0 1.9-.8 1.9-10.4 0-10.7.4-11.8 4.1-10.8 1.7.4 2.9 4.2 2.9 8.9 0 1.6.7 2.7 2 3 2.7.7 2.6 3.9-.2 4.6-1.2.4-2.3.5-2.4.4-.8-.7-2.2-13-1.8-14.5.5-1.5.4-1.5-.5-.1-.7 1-.7 3.8.1 8.7l1 7.2 3.4-.6c2.3-.4 3.4-.2 3.4.5s.5.9 1.1.5c.8-.4.8-.9 0-1.7-.6-.6-1.1-2.1-1.1-3.3 0-1.3-.8-2.4-1.9-2.7-1.4-.3-2-1.8-2.5-6.1-.4-3.1-1.2-5.7-1.7-5.7-.5-.1-1.7-.2-2.6-.3-1 0-2.1-.7-2.4-1.5-.4-1-.8-.3-1.2 1.8M393.7 106.7c-4.5 3.4-4.9 6.4-.9 6.2 2.3-.2 2.4-.2.5-.6-1.3-.2-2.3-.6-2.3-.9 0-.9 6.5-6.3 7.7-6.4 2.4 0 2.6 2.4.2 4.3-2 1.6-2.1 1.9-.5 1.6 4.1-.8 4.8-6.9.8-6.9-1 0-3.5 1.2-5.5 2.7M185.7 106.7c-.4.3-.7 1.7-.7 3 0 2.1.4 2.4 2.7 2.1 1.8-.2 2.9-1 3.1-2.2.5-2.6-3.3-4.8-5.1-2.9m4.1 2.6c.2 1.2-.3 1.7-1.7 1.7-1.2 0-2.1-.6-2.1-1.3 0-3.1 3.2-3.4 3.8-.4M194.8 108.3c-3.2 2.7-5.2 8.7-4.4 13 .3 1.8 1.9 5.9 3.6 9.1 4.8 9.8 13.4 12.5 20.4 6.3 3.1-2.6 3.9-4 4.3-8 1.7-14.9-14.3-28.6-23.9-20.4m12.1.2c6.1 3.1 11.1 11.6 11.1 18.8 0 3.4-.6 4.6-4 7.9-4.5 4.2-6.8 4.6-12.4 2.3-3.1-1.3-4.3-2.8-7.2-8.8-3.6-7.6-4-9.9-2.4-14.4 2.3-6.3 9-8.9 14.9-5.8"/><path d="M200 111.3c-7.7 3.9-5.1 18.1 4 21.2 4 1.4 8.2 0 10-3.4 4.3-8.1-6.4-21.6-14-17.8m7.1 2.1c3.9 2.7 6.9 7.9 6.9 11.9 0 1.6-1.1 3.5-3 5.1-2.6 2.1-3.5 2.4-5.8 1.5-5.2-2-9.2-7.6-9.2-12.9 0-2.1 5-8 6.7-8 .5 0 2.5 1.1 4.4 2.4M511.5 106.6c1.1.2 6.7.5 12.5.8 5.8.2 11.2.6 12 .8 5.8 1.7 6 1.9 6 5.9 0 3.4-.6 4.5-5.1 8.7-2.8 2.6-6 5.2-7.2 5.9-2.1 1.2-2.1 1.2-.2 1.3 1.1 0 2.8-.8 3.7-1.8.9-.9 3.4-3.5 5.7-5.6 3.5-3.4 4.1-4.5 4.1-8.2 0-6.7-2.2-7.6-21-8-6.9-.1-11.6 0-10.5.2M398.6 114.4c.5 2.3.3 2.6-2 2.4-1.5-.1-2.6-.8-2.6-1.7 0-.8-.3-1.2-.6-.8-.4.3-.3 1.9.1 3.4.7 2.6.8 2.6 1.6.8.5-1.2.6 1.3.2 6.2-.5 7.2-.3 8.3 1.1 8.9 2.4.9 6.6-1.2 6.6-3.3.1-1.6.2-1.6 1.3-.2 2.2 2.9 5.5 3.9 13.4 4.3 4.3.2 6.1.1 4.1-.1-4.4-.5-5-2-1-2.5 2.6-.3 2.6-.3.4-1-1.6-.4-2.8-.1-4 1.3-1.5 1.6-2.4 1.7-5.4.9-1.9-.6-4.8-2.2-6.4-3.7l-2.9-2.6-.5 2.3c-.7 3-3.5 4.9-5.1 3.3-1.7-1.7-.2-14.3 1.7-14.3 1.6 0 1.9-4.5.4-5.5-.7-.4-.9.2-.4 1.9M340.2 115c1.4 2.2 2.4 1.9 1.5-.5-.4-.8-1.1-1.5-1.7-1.5s-.6.7.2 2M388.2 121.7c-.2 7.2.1 9.5 1.4 10.7.8.9 2 1.6 2.5 1.6.6 0 .7.4.4 1-.3.5 0 .8.7.5.9-.4 1.2-2 .8-5.8l-.5-5.2-.3 4.2c-.2 2.4-.7 4.3-1.1 4.3-2.1 0-3-3.3-3.4-11.6l-.3-8.9zM343 115.9c0 .5.5 1.3 1 1.6.6.3 1 .2 1-.4 0-.5-.4-1.3-1-1.6-.5-.3-1-.2-1 .4M49 119c0 3 0 3 5.9 3 3.2 0 7.4.2 9.2.5 2.9.4 3 .3.9-.4-1.4-.5-5.3-.9-8.7-1-5.6-.1-6.3-.3-6.3-2.1s.7-2 6.5-2c5.7 0 6.4.2 5.8 1.7s-.5 1.6.9.3c2.3-2.2.4-3-7.4-3H49zM341.5 118.8c.6.6 2.1 1.2 3.5 1.4 2.1.2 2.6 1 3 4.3.4 3 1 4.1 2.5 4.3 1.9.4 1.9.3.1-1-1.4-1.1-1.8-2.4-1.5-4.9.3-2.6.1-3.5-1.1-3.5-.8 0-2.8-.4-4.5-.8-2-.5-2.7-.4-2 .2M288.7 119.6c-.1.1-6.5.4-14.2.7s-14.1.6-14.2.6c-.2.1-.3 2.4-.3 5.1 0 5 0 5-1.9 3.3-1.1-1-2.1-3.4-2.4-5.3l-.4-3.5-.1 3.7c-.2 2.8.4 4.4 2.3 6.3 1.4 1.4 2.7 2.5 2.9 2.5.1 0 .3-2.3.5-5.2.1-2.8.4-5.4.6-5.7.5-1 35.2-1.4 35.8-.4.5.7 1.1 17.5.8 21.5 0 1-.8 1.8-1.6 1.8-1.6 0-1.4 4.3.6 12 .5 1.9.9 3.8.9 4.2 0 .5-4.6.8-10.2.9-5.7 0-9.7.3-9 .6.6.2 1.2.8 1.2 1.3 0 1.3-3.6 1.8-5.4.8-1-.6-1.6-.5-1.6.2 0 .5.3 1.1.8 1.1 3.9.7 5.5.4 6.5-1.2s2.5-1.9 9.8-1.9c6.7 0 8.8.3 9.2 1.5.4.8.2 1.7-.3 2-1.1.7-8.9 1.3-18.8 1.6-6.7.2-7.7 0-9.3-2-1-1.2-2-1.7-2.3-1.3-.3.5.3 1.7 1.4 2.7 1.6 1.4 3.5 1.7 9.7 1.6 9.2-.2 19.5-1 20.1-1.5.8-.9.9-5.6.1-5.6-.5 0-.9-.7-.9-1.5 0-1.8.5-1.9 3.2-.4 1.7.9 1.8 1.3.7 2-1 .6-.5.9 1.6.8 1.7 0 2.4-.3 1.7-.6-.6-.2-1-.8-.7-1.3.6-.9-5.3-3.2-6.5-2.5-.4.3-1.1-1.7-1.4-4.3-.4-2.6-.9-5.5-1.2-6.5-.4-1.1 0-1.7 1-1.7 1.5 0 2-1.5 1.9-6.5-.3-14.2-.4-17.2-1.1-18.2s-8.6-2.5-9.5-1.7M336.6 121.6c-1 2.7-.7 4.5 1.3 7.1 1.1 1.3 1.9 3 1.7 3.6-.1.7-.1.9.1.4.3-.4.9-.4 1.5-.1 1.2.8-1.3-3.8-2.7-4.8-.6-.4-.2-.8.8-.8s1.6-.4 1.2-.9c-.3-.5.3-1.2 1.2-1.4 1.4-.4 1.3-.5-.4-.6-1.3 0-2.3.3-2.3.9 0 .5-.5 1-1.1 1-.7 0-.9-1.1-.5-3 .6-3.2.2-4-.8-1.4"/><path d="M408 122.9c.4 1.5.4 3.5-.1 4.2-.5.8-.9 1.8-.8 2.4 0 .5.5 0 1.3-1.3 1.3-2.4 1-8.2-.4-8.2-.5 0-.5 1.3 0 2.9M220 121.9c0 .6.4 1.3 1 1.6s.7-.1.4-.9c-.7-1.8-1.4-2.1-1.4-.7M366 122.2c0 1.8 7 5.2 9.6 4.5 1.4-.3 1.1-.5-.8-.6-1.5 0-3.4-.8-4.2-1.7-.9-.8-1.6-1.2-1.6-.7 0 .4-.7-.1-1.5-1.1-1.2-1.6-1.5-1.6-1.5-.4M38.9 125.2c-.9 1.6-.9 3.8-.1 8.7.6 3.6 1.6 15.6 2.3 26.6 1.1 19.3 1.2 20.1 3.5 21.8 1.6 1.2 2.4 2.9 2.4 4.8 0 3 1.1 3.5 6.7 3 1.2-.1 2.4.3 2.8.8.7 1.3-3.8 2.5-6.5 1.8-1.2-.3-1.8-.1-1.4.5.4.5 2.2.7 4.3.4 2-.3 4.3-.6 5.1-.5 5.7.3 14.4-.3 19.7-1.3 4.2-.8 7.5-.9 10-.2 3.5.8 3.8 1.2 3.6 4.2 0 1.9-.4 3.6-.7 4-.9.8-43.8 5.3-45.3 4.7-.8-.3-1.3-2.5-1.4-5.7-.1-2.9-.4-6.4-.9-7.8-.4-1.4-.5 1.1-.2 5.5s.8 8.1 1.2 8.3c.3.1.5 1.5.3 3-.3 1.5.1 8.5.7 15.7.6 7.1 1 14.9 1 17.3-.1 4.2 0 4.2 2.7 3.6 1.5-.4 3.8-1.1 5.1-1.5 1.3-.5 3.5-.9 4.9-.9 2.2 0 2.5.3 2.1 2.9-.2 1.7-.1 2.8.4 2.5.4-.3.8-1.8.8-3.5 0-2.5-.4-2.9-2.7-2.9-1.6 0-5 .7-7.6 1.5l-4.8 1.4.3-2.6c.3-2.3 1.1-2.9 6.3-4.5 5.5-1.6 3.3-1.8-3.6-.2-2.5.5-2.7.3-3.3-3.3-.3-2.1-.8-8.9-1.2-15-.5-9.3-.4-11.4.8-11.8.8-.3 11.2-1.6 23.2-2.9 11.9-1.3 22-2.7 22.4-3 .3-.4.7-3.9.8-7.9s-.1-6-.3-4.5c-.4 2.7-.5 2.8-6.6 2.1-3.4-.3-6.6-1.1-7-1.7-.6-.7-.7-.4-.3.6.3 1 .4 1.8.3 1.8s-4.2.5-9.1 1c-7.4.8-9.2.7-11.2-.7-2.2-1.4-3.6-4.2-1.5-2.9.5.4.7-1.1.4-3.4-.6-4-.5-4 2.8-4 1.9 0 7.3-.3 12.2-.7 8.4-.5 8.7-.5 8.7 1.6 0 1.1-.5 2.1-1.1 2.1s-1.7.7-2.5 1.5c-1.8 1.7-6.4 2-6.4.4 0-.5.5-.7 1-.4.6.3 1 .1 1-.4 0-.6-.7-1.1-1.5-1.1s-1.5.7-1.5 1.5c0 1.4-2.3 1.9-9.2 1.9-.9 0-1.5.3-1.3.6.8 1.3 15.9-.2 18.4-1.7 1.3-.8 2.1-1 1.7-.5-1 1.7 2.5 3 6.2 2.5 5-.8 4.7-2.1-.4-1.5l-4.5.5.7-4.3.7-4.3-12.4.8c-6.8.4-12.7.9-13.1 1.1-.5.3-.8 2.1-.8 3.9 0 3.9-2.3 5.8-5.8 4.8-1.5-.4-2.2-1.3-2.2-3 0-1.3-1.1-3.4-2.4-4.6-2.3-2.1-2.4-3.2-3.6-22.6-1.2-18.7-1.2-20.4.3-21.3 1.3-.7 1.7-2.3 1.7-6.3 0-2.9-.3-6-.6-6.9-.9-2.3-3.1-2-4.5.6m3.9 6.1c-.4 6.5-2.3 7.2-3.2 1.2-.9-5.9 0-9.1 2-7.4 1 .8 1.4 2.8 1.2 6.2M379.8 128c-1.5.5-2.8.7-3 .6-.2 0 .6.9 1.7 2 1.1 1.2 3.2 2.4 4.8 2.8 2.2.5 2.7.3 2.7-1.1s-.2-1.5-.9-.4c-1.1 1.7-2.3-.1-1.5-2.2.7-2-.5-2.6-3.8-1.7m2.5 2.6c-.4 1.1-.9 1.2-1.9.3-1.8-1.5-1.8-1.4.5-1.6 1.4-.1 1.8.3 1.4 1.3M147.1 134.3c-.6.6-1.1 4.8-1.1 9.9v8.7l-3.4.6c-1.8.4-9 .7-15.9.8-8.2.1-11.8.5-10.2 1 1.4.5 2.5 1.6 2.5 2.7 0 2.2 5.6 4.8 7.1 3.3.6-.6.9-1.9.6-2.9-.4-1.6-.5-1.5-.6.3-.1 2.1-2 3.1-3.3 1.7-1.4-1.3.6-4.4 2.8-4.4 1.9 0 2.4.5 2.4 2.4 0 3.2.8 3.6 5 2.5l3.5-.9-3.8.5c-3.6.4-3.8.3-3.5-2.3.3-2.4.7-2.7 4.4-2.8l4.2-.1-.5 3.7-.5 3.7 4.8.9c4.5.8 5 1.2 6.1 4.7.7 2.1 1.6 8.7 1.9 14.8.6 9.5 1 11.1 2.7 12 3.2 1.8 4-.2 2.6-6.5-.8-3.1-1.7-5.6-2-5.6-.4 0-.5.9-.2 2s.1 2-.4 2c-.6 0-1.5-4.2-2.1-9.3-1.5-12.9-2.1-14.3-7.2-15-5.2-.7-5.3-.9-4.5-4.6.5-2.5 1.2-3 4.6-3.6l3.9-.7v-8.9c0-11.2.9-12 11-9.1l6.5 1.9-.2 4.4c-.8 14.6-.6 19.4 1.5 30.4 2.4 13.3 8.7 32.4 10.9 33.2.8.3 4.7 0 8.6-.8 4-.7 9.9-1.4 13.2-1.5 6.4-.3 13.2-2.8 20.1-7.5l4.1-2.8 1.3 2.4c.9 1.7 1.1 4.4.6 9.3-.6 6.4-.5 7.1 1.4 8.5 1.6 1.1 1.8 1.7.9 2.2-.9.6-.7 1.2.6 2.2 1.9 1.3 1.6 1.5-2.2 1.3-.5-.1-.6-1.2-.5-2.7.3-1.6 0-2.3-.7-1.8-.6.3-.9 1-.6 1.5s.1 1.8-.4 2.8c-.9 1.6-.7 1.9 1.2 1.7 1.2-.2 6.7-.8 12.2-1.5s12.6-1.3 15.8-1.4c3.1 0 5.7-.3 5.7-.6 0-.8 4.3-1 40.3-1.3 24.7-.3 35.1-.7 35.9-1.5.7-.7 3.6-1.2 6.6-1.2h5.4l-.3-5.3c-.4-5.8.6-8 3.6-8.5 10.3-1.6 12.8-2.1 13.2-2.6.3-.3-1.8-.3-4.7.1-3.9.4-5.4.2-6.2-.8-.8-1.1-.9-1.1-.5.3.5 1.4-1 2.8-2.9 2.8-.2 0-.4-2.4-.4-5.4 0-6.1 1.6-8.6 5.7-8.6 1.4 0 3.9-.6 5.6-1.4 1.8-.8 4.1-1.7 5.2-2 1.1-.4 1.5-1 1-1.4-.6-.4-1-2.2-1.1-3.9-.2-5.5-1.7-6.3-10.4-6-6.5.2-8.1-.1-9.9-1.7-1.2-1.1-2.1-2.6-2.1-3.5s-.7-2.9-1.5-4.5c-2.3-4.4-1.6-7.9 1.6-7.2.3 0 1.3-.5 2.2-1.2 1.3-1.1 1.6-1 2.1.5.4 1.5.4 1.5.3-.2-.1-1.1 1-3 2.5-4.3 1.6-1.3 2.6-2.8 2.3-3.2-.7-1.1 5.9-3.2 8.7-2.8 2.4.3 2.4.3 1.7 9.1-.1 1.5.3 3.3 1 4 1 .9 1 .7.3-1.3-.6-1.6-.4-4.1.3-7 1-3.9 1.3-4.2 1.7-2l.5 2.5.2-2.6c.1-2-.5-2.8-2.1-3.3-6-1.6-13.3.4-14.2 3.9-.4 1.4-1 2.5-1.4 2.5-.5 0-1.8.9-3 2-1.2 1.2-2.2 1.6-2.2 1s-1.1-.3-2.5.7c-2.8 2-3.2 5.5-1 9.3.8 1.4 1.4 3.4 1.5 4.6 0 1.1.8 2.8 1.8 3.6 1.6 1.4 6.4 3 8.7 2.8 9.6-.8 9.6-.8 11.1 1.5 3.3 5-1 9.4-10.7 11-4.1.6-4.8 2.1-4.9 9 0 2.2-.7 5.1-1.4 6.4-.8 1.4-1.1 4.2-.8 7.2l.5 4.9h-10l-.7-5.9c-.7-5.9 1.4-14.1 3.5-14.1 2.2 0 .6-2.9-2.5-4.4-4.6-2.2-5.5-2-6.6.9-1 2.7-2.9 3.4-11 3.7-5.4.3-5.5.4-5.8 3.4-.5 5 1.3 6 9.9 5.4l7.4-.5-8-.5-8-.5v-3c0-2.9.2-3 4.5-3.3 8.7-.4 11-1.2 12-3.8 1.1-2.9 1.7-2.9 5.5-.4 1.7 1.1 2.5 2 1.8 2-.6 0-1.9 2.2-2.8 5-1.3 3.9-1.5 6.2-.7 10.9.7 5.1.6 6.1-.7 6.7-.9.3-16.9.7-35.5.8l-33.9.1-1.6-2.5c-.8-1.4-5.1-6.1-9.6-10.5-5.8-5.8-8.5-9.3-9.7-12.7-.9-2.6-1.3-5-.9-5.2.4-.3 4.4-.8 8.8-1.2 7.6-.6 8-.6 8.6 1.5.4 1.7 1.3 2.1 4.9 2.1 6.6 0 9-.9 8.3-3.1-.8-2.6 1.8-3.5 13-4.4 5-.4 9.7-.8 10.5-1 .8-.1 4.7-.4 8.5-.6l7-.4.3 4.8c.2 3.7-.1 4.9-1.3 5.4-2.3.8-3.7-1.5-3-5.2.3-2 .2-2.5-.4-1.6-1 1.5-1 1.6-11.3 2.6-3.7.4-7 1.1-7.3 1.6-.4.5-2.2.9-4.1.9s-3.3.4-3 .9c.4.5 2.1.5 4.3-.1 2.1-.5 5.4-1.3 7.3-1.8s5.5-1 8-1.2c4.3-.3 4.5-.1 5.6 3 .5 1.8 1.3 2.9 1.7 2.6.4-.4.7 0 .7.9s.5 1.9 1.1 2.3c.8.4.9 0 .4-1.5-.3-1.1-.5-2.1-.3-2.2 4.6-.8 15.8-.9 15.8-.1 0 .6-2.4 1.3-5.2 1.5l-5.3.3 5.8.2c5.1.2 5.8 0 5.5-1.6-.2-1.3-1.5-1.8-5.6-2-6-.3-6.3-1.1-3.2-7.2 2.2-4.3 2.5-4.4 15.3-5.5 6.2-.6 8.1-1.5 5.8-2.9-.5-.3-.7-1.5-.4-2.6.8-2.8-.5-7-2.1-7-.8 0-1.9 1.3-2.5 3-.5 1.6-.6 3-.2 3 .5 0 1.2-1.2 1.6-2.8l.7-2.7 1.1 2.3c.8 1.8.8 2.5-.2 3.2-1.1.6-1.1.9 0 1.4.8.3.1.3-1.6 0-1.6-.4-4.2-.6-5.7-.5-2 .1-2.8-.4-2.8-1.4 0-1.1.7-1.5 2.2-1.3 1.8.3 2.4-.5 3.8-5.2.9-3 1.5-6.1 1.2-6.8-.6-1.9-9.8-1.6-10.6.4-1.2 3-.6 10.2.9 11.8 2.2 2.2 1.8 2.8-1.7 2.4l-3.3-.3-.3-7.8-.3-7.7H315c-4.3 0-4.2.2-4.4-8l-.1-2.5 28-.7c15.4-.4 33-1.2 39-1.7l11-1-11 .5c-6 .2-23.7.7-39.2 1.1-19 .4-28.3 1-28.6 1.7-.2.6-.3 2-.2 3.1s.2 3.5.3 5.2c.2 3.1.4 3.3 4.2 3.3h4v13l-3.7.1-3.8.2 4 .8c3.2.6 2.8.7-2.5.4-4.7-.2-5.7-.1-3.6.5 1.5.5 7.6.9 13.5.9 7.1-.1 11.8.4 14.1 1.4l3.5 1.4-6 .7c-15.3 1.7-14.2 1.3-16.5 6.2-1.2 2.5-2 5.4-1.7 6.4.3 1.3 0 2-.9 2-1 0-1.4-1.3-1.4-4.8 0-6.5-.9-7.5-5.6-6.8-2.2.3-7 .8-10.9 1.1-22.7 1.9-26.3 2.8-25.1 6.2.6 1.5-1.6 2.3-6.6 2.3-3.1 0-4.1-.4-4.5-2s-1.3-2-5.2-1.9c-4.9 0-13.8 1.3-14.6 2-.2.3.3 3 1.3 6 1.4 4.4 3.2 6.9 9.7 13.4 4.5 4.4 8.9 9.2 9.8 10.7 1.7 2.7 1.7 2.8-.3 2.8-1.4 0-2.6-1.1-3.5-3.3-.8-1.7-1.4-2.6-1.5-1.9 0 .7.5 2.2 1 3.3.8 1.3.7 1.9 0 1.9-.6 0-1.3-.7-1.5-1.5-.3-.8-.7-2.2-1-3.1s-.8-1.5-1.1-1.2c-.2.3 0 1.7.5 3.2.6 1.4.7 2.7.3 2.7-3.7.7-11.2.6-11.2-.1 0-.5-1-1-2.2-1.2s-2.2-1.1-2.4-2.2c-.1-1.1-1.1-2.4-2.1-3-2-1.2-9.3-1.5-9.3-.4 0 .9 1 1 5.7 1 3.8 0 5.3 1.3 5.3 4.8 0 .5.9 1 2.1 1 4.2 0 .8 1.7-3.6 1.8-2.5.1-5.1.4-5.6.8-.7.4-.9-.1-.4-1.5.5-1.7 0-2.5-2.4-3.9l-3.1-1.7.6-7.3c.5-5.2.3-8-.6-9.7-1.7-3.2-2.2-3.1-7.5.5-6.3 4.3-13 7-17.7 7-2.1 0-7.8.8-12.5 1.7-5.6 1.1-9 1.3-10 .7-2.5-1.5-8-18.2-10.4-31.6-2.4-12.9-2.8-20.5-1.4-29.9l.8-5.7-5.9-1.7c-7.6-2.2-11.9-2.6-13.3-1.2m186.2 19.4c.2.5-.2 2.9-1 5.4-1.1 3.8-1.9 4.8-4.1 5.2-1.5.3-3 .3-3.4 0-1-.5-1.1-9.7-.1-10.6.9-.9 8.1-.9 8.6 0m-211.9 3.8c.3.8.1 1.5-.4 1.5-.6 0-1-.7-1-1.5s.2-1.5.4-1.5.6.7 1 1.5m33 32.7c1.1 4.2.8 5-1.4 3.8-1.2-.6-2-2.1-2-3.5 0-3.1 2.6-3.3 3.4-.3M230 216c0 .5-.4 1-1 1-.5 0-1-.5-1-1 0-.6.5-1 1-1 .6 0 1 .4 1 1M403 133.4c0 .2.7.6 1.5 1 .8.3 1.5.1 1.5-.4 0-.6-.7-1-1.5-1s-1.5.2-1.5.4M519 133.7c-9.6.6-9.8.7-10.2 6.2-.1 2.8 0 4.7.4 4.3s.8-2.5 1-4.7l.3-4 12.3-.9c10.4-.7 12.6-.6 14 .7.9.8 3.8 2.5 6.5 3.7 2.6 1.2 4.7 2.7 4.7 3.2 0 .6 1.4 2.3 3 3.8 3.3 3.1 3.9 5.9 1.3 6.1-1 .1-9.2 0-18.4-.1-14-.1-16.7.1-17.8 1.4-.9 1.1-1 1.6-.2 1.6.6 0 1.1-.5 1.1-1 0-.6.4-1 1-1 .5 0 .7.8.4 1.7-.5 1.6-.4 1.6.9 0 1.4-1.7 3.1-1.8 17.6-1.6 13.7.3 16.1.5 16.2 1.9.1 1.3.1 6.2-.1 25.6v3.2l-14.2-.3c-14.8-.3-17.8-.8-17.8-3.1 0-1 2.2-1.4 8.3-1.7 7.6-.3 7.4-.4-1.6-.3l-9.8.1.2-2.5c.4-4.9-.1-7-1.6-7-.8 0-1.5.5-1.5 1.1 0 .5.5.7 1 .4.6-.3 1-.3 1 .2 0 1.1-5.9 3.7-6.7 3-.4-.5.5-10.2 2.3-22.9.3-2.3-.1-2.9-2.2-3.4-4.1-1-5 1.1-6.4 14.1-.6 6.6-1.4 12.3-1.7 12.7-.2.5-1.5.8-2.8.8-2.4 0-4.2 3-3 5 .7 1.2 4.2 1.2 7 0 1.3-.6.6-.7-2.4-.3-3.8.5-4.3.4-3.9-1.2.2-1.1 1.6-2.2 3.4-2.7l3.1-.8 1.3-12.4c.7-6.8 1.6-12.9 2-13.6s1.6-.9 2.8-.6c1.6.6 2 1.3 1.6 3.9-3.1 22.5-3.1 22.7-.1 22.7 1.3 0 2.8-.5 3.4-1.1 1.7-1.7 3.1-.3 2.6 2.5-.4 1.8.2 3.2 2.1 4.9 2.2 2.1 4 2.6 10.4 3 9.3.6 28.4.6 26 0-1.6-.4-1.8-2.1-1.6-19 .2-16.4.1-18.6-1.5-19.7-.9-.7-1.4-1.6-1-1.9.3-.4 1.2-.2 2 .4.8.7 1.3.8 1.3.1 0-1.4-3.4-2.5-3.8-1.3-.6 1.8-2.2 1.2-2.2-.8 0-1.4-1.3-2.4-4.5-3.6-2.4-1-5.2-2.6-6.1-3.6-1.8-2-4.2-2.1-19.4-1.2"/><path d="M219.4 135.3c.3 1 .6 2.3.6 2.7 0 .5 1.2.2 2.8-.6 4.2-2.1 5-1.8 5.7 2.8.4 2.4 1.7 7 3 10.3 2.3 5.9 4.5 14 5 18.2.6 4.3 1.4 4.6 8.9 3.8 3.9-.4 9-.8 11.4-1s4.6-.6 5-1-.7-.5-2.4-.2c-2.3.3-3.6 0-4.8-1.4-.9-1-2.1-1.9-2.8-1.9-.8.1-.6.6.5 1.4 1.2.9 1.4 1.6.8 2.1-1.8 1-15.1 1.9-15.2.9-.5-5.5-3.6-17.7-5.7-22.6-1.1-2.5-2.4-6.7-2.7-9.3l-.7-4.6-4 .6c-2.9.5-4.3.3-5-.6-.7-1.1-.8-.9-.4.4M339.8 135.2c-.8.4.4.8 3 .8 2.3 0 4.2-.2 4.2-.4 0-.8-6-1.2-7.2-.4M255.4 136.2c-.9 1.4.7 12.7 1.9 13.5.6.4.8 0 .4-1-.3-.9-.9-4-1.3-6.7-.5-4.1-.4-5 .7-4.8 1.6.3 3.7 5.1 3.8 8.5.1 2.1.6 2.3 5.6 2.3 5.2 0 5.5.1 5.5 2.5 0 1.8-.5 2.5-2 2.5-1.1 0-2-.4-2-.9s-.9-.7-1.9-.4c-1.3.3-2.1-.1-2.4-1.4-.3-1-.5.2-.4 2.6.2 4 .5 4.5 3 5.2 3.4.9 3.6.2.2-1.1-1.4-.5-2.5-1.7-2.5-2.6 0-1.3.6-1.5 2.8-1 1.5.4 3.2.7 3.9.8 1.4.2 2.6 2.8 1.8 3.7-.3.3-1-.1-1.5-.9-.8-1.3-1-1.2-1 .2 0 1 .7 1.8 1.5 1.8s1.5.4 1.5 1c0 1.8 6.8 1 10.6-1.2 2.6-1.5 3.9-1.8 4.2-1 .2.7.8 1.2 1.4 1.2s.6-.6-.2-1.5c-1.7-2.1-.3-1.9 3.6.6 1.9 1.1 3.4 1.6 3.4 1.1s-1.7-1.7-3.8-2.6c-3.4-1.6-4-1.6-6.7-.2-1.7.9-3.6 1.6-4.2 1.6-.7 0-1.3.4-1.3 1 0 .5-1.3 1-2.9 1-2.4 0-2.9-.5-3.5-3.1-.3-1.7-.6-4.7-.6-6.5V147h-10.5l-1.6-5.5c-1.1-3.8-1.3-5.5-.5-5.8.6-.2-.1-.4-1.7-.4-1.5 0-3 .4-3.3.9M405 137c.7.5-.2 1-2.4 1.4l-3.7.7.2 19.3c.2 19-.2 22.3-2.3 21-.6-.4-.5-1 .3-1.5 1.1-.7 1-.9-.3-.9-1.7 0-1.8-1.6-1.8-18.4 0-10.2-.4-18.7-.8-19s-3.9-.2-7.7.2c-6.9.7-7 .7-8.2 4.2-1.1 3.7-.7 9 .8 9 .5 0 .4-1.1-.1-2.5-.9-2.4-.8-2.5 3.3-2.7l4.2-.1-4-.5c-3.2-.3-3.6-.6-2-1.2 1.7-.7 1.7-.9.3-.9-1-.1-1.8-.5-1.8-1 0-1.8 3-3.3 6.2-3 1.8.1 4.1-.2 5-.6 3.3-1.4 3.8.4 3.8 13.4v12.8l-4.2 1.1-4.3 1.1 4-.2c3.5-.2 4 .1 4.3 2.2.2 1.2.1 3.4-.2 4.7l-.7 2.5-2.8-2.1c-3.9-2.7-5.2-2.5-8.5.9-2.8 3-2.8 5.1.1 5.1 1.2 0 1.4.7.9 3.1-.3 1.7-.6 3.9-.6 4.8 0 1-1.4 0-4-2.8-2.2-2.4-3.7-4.7-3.4-5.2s-1-.8-2.8-.8c-2.3.1-2.6.3-1 .6 1.2.2 2.2.9 2.2 1.4s1.5 2.3 3.3 4c1.7 1.7 3.1 3.5 2.9 4-.1.5.3.8 1 .7.6-.2 1.5.8 1.9 2.2.5 1.9.7 1.2.8-2.7.1-2.9.7-5.8 1.4-6.5 1.5-1.5.6-2.8-2.5-4.1-1.6-.6-1.5-.9.8-3.2 1.4-1.4 3.3-2.5 4.2-2.5 1.5.1 1.5.2-.2 1.5-1.1.8-1.5 1.5-.9 1.5.7 0 1.5-.5 1.8-1 1.1-1.8 4.5.8 4.2 3.2-.6 3.6 1.9 5.5 6.1 4.9 2.8-.5 4.3-1.6 6.6-4.8 1.6-2.4 2.7-4.5 2.4-4.8-.3-.4-1.6 1-2.8 3-1.2 1.9-2.5 3.3-3 3-.4-.3-1.9 0-3.2.5-2.2 1-2.2 1 .5.5 1.5-.3 2.7-.1 2.7.5 0 1.7-6.2 1.1-7.5-.7-1.4-1.8-.9-4.7.6-3.7.5.3.7.9.5 1.3-.3.4.5.6 1.7.5s2.5-.3 3-.3c.4-.1.7-1.3.7-2.9 0-4 .9-4.7 7.5-5.9 6.2-1.1 8-.9 5.5.7-1.1.7-.9.9.8.7 2.5-.1 2.8-1 .9-2.5-.8-.7-2.6-.8-5.2-.2-2.2.5-5.2 1-6.7 1H400v-30.8l2.6-.6c1.5-.4 2.9-.5 3.1-.2.3.3 1.1-.1 1.8-.8.9-.9 3-1 7.1-.6 4 .5 6.6.2 8.4-.7 2.4-1.2 2.4-1.3.3-1.3-1.2 0-2.5.5-2.8 1-.4.6-1 .8-1.5.5-.4-.3-4.1-.7-8-.9-4-.2-6.7 0-6 .4"/><path d="M391.8 137.7c1.7.2 4.7.2 6.5 0 1.7-.2.3-.4-3.3-.4s-5 .2-3.2.4M221.7 143.2c-2.1 16.5-2.1 15.9 1.5 21.4 1.8 2.7 4.7 6.8 6.4 9 1.7 2.1 3.6 4.9 4.3 6.1 1.4 2.7.4 8-1.2 6.4-2.2-2.2-2.8-1-.8 1.5q2.1 2.7 2.1 6.9c0 2.3.6 6.1 1.4 8.3s1.1 4.4.8 4.8c-.4.4-.2.4.5 0 .9-.5.9-1.6-.2-4.6-1.6-4.4-2.2-15.1-1.1-19.6.7-2.5.2-3.7-2.7-7.5-6.9-9.1-11.7-17.3-11.7-20.2 0-1.5.5-4.7 1.1-7.1.6-2.3.9-5.8.7-7.7-.3-2.8-.5-2.4-1.1 2.3M302.8 138.7c1.2.2 3.2.2 4.5 0 1.2-.2.2-.4-2.3-.4s-3.5.2-2.2.4M484 139c0 .5.5 1 1 1 .6 0 1-.5 1-1 0-.6-.4-1-1-1-.5 0-1 .4-1 1M367.9 141.7c-.1.5-.1 1.1 0 1.5 0 .4-.3 3.5-.7 6.8-.5 3.3-.5 5.7-.1 5.3.5-.5 1-3.7 1.1-7.1.3-5.7.5-6.2 2.6-6.2 1.3 0 2.2.6 2.2 1.6 0 .8.4 1.3 1 .9 1.8-1.1-.2-3.5-3.1-3.5-1.6 0-3 .3-3 .7M313.7 143.6c-1.1 1.2.3 2.4 2.9 2.4 1.5 0 2.4-.6 2.4-1.5 0-.8-.8-1.5-1.7-1.5-1.5 0-1.6.2-.3 1 1.2.8 1 1-.8 1-1.3 0-2-.4-1.7-1 .7-1.1.2-1.3-.8-.4M341.5 143.8c.2.3-.3 1.8-1.1 3.4-2.2 4.3-1.3 4.2 1.7-.1 2.3-3.2 2.4-3.7.8-3.7-1 0-1.6.2-1.4.4M259.2 150c-.2 3.9-.6 4.7-2.9 5.8-3.4 1.5-10.3 7.8-10.3 9.4 0 .7 2.6.9 8.8.5 5.2-.3 7.7-.2 6.2.3l-2.5.8 2.8.1q2.7.15 2.7-1.5c0-1.4-1.1-1.5-8.7-.9l-8.7.8 4.5-3.9c2.4-2.2 5.5-4.6 6.8-5.4 1.9-1.3 2.2-2.2 1.8-6l-.4-4.5zM445 147.1c.1 2 2.7 5.2 3.4 4.1.3-.5-.3-2-1.4-3.2-1.3-1.5-2-1.8-2-.9M459.4 149.7c-.7.5-1.4 2.4-1.5 4.3l-.4 3.5h11v-4c0-4 0-4-4-4.3-2.2-.1-4.5.1-5.1.5m8.1 3.8c0 2.8-.3 3-4.2 3.3-4.1.3-4.3.2-4.3-2.6 0-3.8.7-4.4 5-4 3.2.3 3.5.6 3.5 3.3M477.5 150l-7 .6 6.5.1c3.6 0 7.9-.3 9.5-.7 2.6-.7 2.7-.8.5-.7-1.4 0-5.6.3-9.5.7M348.8 150.5c-.2.3-.2 2.8.2 5.5.5 4.2.4 5-.8 4.8-.8-.2-1.6-1-1.8-2-.1-.9-.7-2.4-1.4-3.5-1.1-1.7-1.1-1.7-.4.2.4 1.1.7 3.5.7 5.3s.3 2.9.6 2.4 1.5-1.2 2.6-1.4 1.9-.9 1.8-1.4c-.1-.6-.3-3.2-.4-5.7-.2-2.6-.3-4.7-.4-4.7s-.4.2-.7.5M354.3 155.5c-.1 3.2.3 5.7 1 6.3 1.1.8 4.5 1.5 16.2 2.9 2.1.2 4.3.7 4.7.9.4.3.8.1.8-.4s-4.8-1.6-10.7-2.4l-10.8-1.3v-5.2c0-6.9-1-7.5-1.2-.8M428.5 151.4c-2.5 2.7-2.6 3.6-.3 3.6 1.9 0 2-.2.8-1.1-1.1-.7-.7-.9 1.8-.5 6.1.8 4.9 1.9-3.3 2.9-1.6.3-.3.4 3.1.4 5.6-.1 6-.3 5.6-2.3-.3-1.5-1-2-2.8-1.8-1.3.1-2.7-.4-3.1-1.1-.6-1-1.1-1-1.8-.1M240.6 153.5c1.1 5.5.9 7-1.1 8.7-1.1 1-1.5 1.7-1 1.8.6 0 3-1.9 5.5-4.1 2.5-2.3 3.8-3.6 2.9-3-2.4 1.6-4.5.5-5.8-3.2l-1.1-3.2zm3.4 4.9c0 .3-.4.8-1 1.1-.5.3-1 .1-1-.4 0-.6.5-1.1 1-1.1.6 0 1 .2 1 .4M304.5 153c-.3.5-1.7 1-3.1 1-1.3 0-2.4.5-2.4 1 0 1.2 4.1.3 7.9-1.6 2.5-1.3 2.5-1.4.4-1.4-1.2 0-2.5.4-2.8 1M103.3 153.7c-1.5.5-1.7 5.1-.4 7.2.8 1.2 1.8 1.3 4.8.5 3.2-.7 3.9-1.4 4.1-3.8.2-1.6-.2-3.2-1-3.7-1.4-.9-5.5-1.1-7.5-.2m7.5 3c.2 1.6-.4 2.6-2.2 3.4-3.3 1.5-5.6.5-5.6-2.4 0-3.2.9-3.9 4.5-3.5 2.2.2 3.1.9 3.3 2.5M478.6 154.9c-1.1 1.7.5 3.9 3.5 5 2.8 1 2.9 1.2 2.9 8 0 3.9-.3 7.2-.7 7.2-.5.1-2.7.2-5 .3-5.9.2-6.1 1.1-.2 1.2 2.7 0 5.2.3 5.5.6 1.3 1.4 1 5.9-.5 6.9-1.4.9-1.4 1 .2.5.9-.3 1.7-.2 1.7.3s1 1.1 2.3 1.5c1.8.5 2 .8.7 1.6-1.1.7-.6 1 2.3 1 3.5 0 8.3-3 7-4.4-.3-.3 0-.7.8-1 8-2.3 9.9-3.1 9.9-4.3 0-.7-.8-1.3-1.7-1.3-1.4 0-1.5.2-.4.9 1.8 1.1-5 3.5-9.6 3.3-3.9-.2-11.3-3.7-11.4-5.5 0-.6 0-4.7.1-9 .1-6.6-.1-7.8-1.7-8.3-3.4-1-4.8-2.2-4.7-3.8.2-1.8-.2-2.1-1-.7m12.1 26.6c1.9.8 4.4 1.5 5.4 1.5 1.8 0 1.9.1.3 2.5-.9 1.4-2.6 2.5-3.7 2.5s-1.7-.3-1.4-.7c.4-.4-.7-1.3-2.5-2.1-1.9-.8-2.8-1.6-2-1.9 1-.4 1-.8.1-1.9-1.5-1.8-.7-1.8 3.8.1M467.1 160.9c-1 1.3-2.7 1.6-8.4 1.5l-7.2-.2 7.5.7c4.1.5 7.7.5 8 0 .3-.4 1.5-.9 2.8-1 2.2-.4 2.2-.5.4-1.6-1.5-.9-2.1-.8-3.1.6M269.8 162.7c1.2.2 3.2.2 4.5 0 1.2-.2.2-.4-2.3-.4s-3.5.2-2.2.4M436.3 163.4c0 .8.6 1.2 1.3.9.7-.2 1.7.5 2.4 1.6 1 1.9.7 2.5-1.2 2.2-1.8-.3-.6 1 2.5 2.5 1.7.9 3.5 2.2 3.9 2.8 1.3 1.9.9 5.4-.8 7-1.2 1.2-1.2 1.6-.2 1.6 3.9 0 3.7-10.3-.2-11.5-1.1-.3-1.9-.9-1.9-1.3.3-1.9-.3-3.3-2.3-5.2-2.6-2.4-3.5-2.5-3.5-.6M48 165.4c0 1.4-.4 2.8-1 3.1-.5.3-1 2.7-1 5.2 0 2.6.3 4.4.6 4.1s.5-2.4.6-4.7c0-3 .6-4.5 2.1-5.6 1.2-.8 1.6-1.5.9-1.5-.6 0-1.2-.5-1.2-1.1 0-1.3 3.1-.8 3.2.6.1.5.7 1.4 1.3 2 1.7 1.4 2.4 5 1.4 6.6-.7 1.1-1.1 1-2.4-.6-1.6-2-1.6-2-.6.1.6 1.2.7 2.4.3 2.8-.3.4.2.4 1.3 0 2.8-1.1 3.5-2.4 2.8-5.9-.9-4.6-3.2-7.5-5.9-7.5-1.9 0-2.4.5-2.4 2.4M81.8 163.8c-4.3.2-5.8.7-5.8 1.7 0 .8-.5 1.5-1.1 1.5s-.9-.7-.5-1.5c.3-.8.1-1.5-.4-1.5-2.2 0-.8 3.6 2.1 5.2 4.1 2.4 8 2.3 12.3-.3 6.6-3.9 4.2-5.7-6.6-5.1m8 1.6c1-.4.7.2-.8 1.4-2.6 2.1-4 2-4-.3 0-1.5 2.3-2.7 2.8-1.4.2.4 1.1.5 2 .3m-5.8.5c0 .5.3 1.6.6 2.5.5 1.2 0 1.6-2.2 1.6-3.4-.1-6.3-2-5.7-3.8.5-1.4 7.3-1.7 7.3-.3M350 164.9c-1 1.5-1.7 1.7-2.6 1-.7-.6-2.1-.9-3.1-.6-1.4.4-1.3.5.5.6 1.2 0 2.2.7 2.2 1.4s.9 1.3 1.9 1.3c1.1 0 1.7-.4 1.4-.9s0-1.3.7-1.7 1.1-1.3.9-1.9c-.3-.7-1-.3-1.9.8M433.7 165.8c.6.4 1.1 2.9 1 6-.2 5.6-1.4 6.5-5.1 3.7-2.2-1.7-6.1-2-5.1-.5.3.5.1 1-.6 1-.6 0-.9-.8-.6-2 .3-1.1.2-2-.3-2-.4 0-1 1.1-1.2 2.5-.6 3 2.1 6.5 4.8 6.4 1.8 0 1.8-.1-.1-.8l-2-.8 2-.5c1.5-.4 1.2-.6-1-.8l-3-.2 2.9-.8c1.8-.6 3.6-.5 4.9.1 1 .6 2.8.9 3.8.6s1.9 0 1.9.5c0 .7-1.4.8-3.5.5-1.9-.3-3.5-.2-3.5.2 0 .3 1.4.8 3.1.9 4 .3 6.9 1.9 6.9 3.7 0 .8.5 1.5 1 1.5.6 0 1 2.4 1 5.4 0 5.1.2 5.5 2.9 6.4 2.8 1 3 1.3 2.6 6-.2 2.6 0 5.4.4 6s.6-1.9.6-5.6.3-7.3.8-8c.6-.7.5-1.2-.2-1.2-.6 0-1.1.5-1.1 1.1s-1 .9-2.2.7c-2-.3-2.3-1-2.6-6.1-.2-3.1-.7-5.7-1.2-5.7-.6 0-1-.7-1-1.5 0-.9-.7-1.8-1.5-2.1-.8-.4-1.5-1.2-1.5-2s-.6-2.3-1.2-3.4c-1-1.5-1-2.5-.2-3.8 1.3-2 .1-6.2-1.8-6.2-1 0-1 .2-.1.8M59.1 166.9c-1.5.9-.5 6 1.3 6.2 2.6.3 6.2-.3 7-1.2.6-.5.5-1.8-.1-3.2-1.1-2.5-5.5-3.4-8.2-1.8m7 1.8c1.4 1.6.5 3-2.6 3.5-2.7.6-5.2-2.2-4-4.2.8-1.3 5.4-.8 6.6.7"/><path d="M423.3 167c-2.4.3-4.6 1-5 1.4s-.8 6.2-.8 12.9v12.1l-6 1.9c-4.3 1.4-9.4 1.9-18.1 2-6.9.1-12 .6-11.6 1.1.8 1.5 23.1-.2 30.2-2.2l6.5-1.9v-12.1c0-6.7.4-12.5 1-13.1 1.3-1.3 12.5-2.2 12.5-1 0 .5.5.9 1.1.9.8 0 .8-.4.1-1.3-1.3-1.5-4-1.7-9.9-.7M218 170.7c0 2.1.9 5.3 2 7.1s2 4.2 2 5.3c0 1.7.5 2 3.7 1.7 2-.2 3.8-.8 4-1.4s-1.1-3.3-2.9-6c-1.9-2.7-3.9-6.1-4.6-7.7-1.8-4.1-4.2-3.5-4.2 1m4.1 1.5c1.2 2.4 3.2 5.7 4.5 7.4 2.6 3.4 2.3 4.4-1.3 4.4-1.5 0-2.3-.6-2.3-1.8 0-.9-.9-3.2-2-5-1.8-2.9-2.8-9.2-1.5-9.2.2 0 1.4 1.9 2.6 4.2M464 171.2c-1.4 1.1-2.4 2.7-2.2 3.4.2.8-.2 1.4-.7 1.4-.6 0-2.1 1.2-3.5 2.7-1.8 1.9-2.4 3.4-2 5 .5 1.8.1 2.5-2 3.3-1.6.6-2.6 1.7-2.6 2.9 0 1.1-.2 2.8-.5 3.8-.4 1.4-.3 1.3.4-.2.5-1.1 1.3-2.9 1.7-4 .6-1.8.8-1.7 1.4 1l.8 3 .1-2.7c0-1.5.6-3 1.2-3.3.5-.4.9-1.7.7-3-.3-2.4 3.3-7.5 5.2-7.5.5 0 1-.8 1-1.8.1-2.3 4.8-5.8 5.5-4 1 2.7 0 11.3-1.5 12.4-1.1 1-1.2 1.7-.2 3.8.9 2.1 1.9 2.6 4.6 2.6 1.8 0 4.9.2 6.7.5 2.9.4 3 .3.9-.4-1.4-.5-4.1-.9-6.1-1s-4.3-.8-5-1.7c-1.1-1.4-1-1.9 1-3.4 1.8-1.3 2.1-1.9 1-2.3-.8-.3.1-.6 1.9-.6 2.4-.1 3.2-.5 3.1-1.9 0-1-.3-1.2-.6-.5-.2.7-1.5 1.3-2.9 1.3-2.2 0-2.3-.2-1.7-4.6.4-3.4.2-4.8-.8-5.5-1.9-1.2-2-1.1-4.9 1.3M314.3 174.7c.9.2 2.3.2 3 0 .6-.3-.1-.5-1.8-.5-1.6 0-2.2.2-1.2.5M88.8 178.6c-1.1 1 .8 5.9 2.4 6.2 1.2.2 1.6-.5 1.5-3.2-.1-2.6-.5-3.6-1.7-3.6-.9 0-1.9.3-2.2.6m2.8 2.9c.1 1.4-.2 2.2-.7 1.9-1.1-.6-1.2-4.4-.1-4.4.4 0 .8 1.1.8 2.5"/><path d="M472.2 183.5c-1.1 1.2-1 1.5.5 1.3 3.9-.3 6 .3 8.1 2.2 1.4 1.3 2.2 1.6 2.2.8 0-1.1-7.5-5.9-9-5.8-.3.1-1.1.7-1.8 1.5M517.5 184.5c2.2 1.3 4.7 2.4 5.5 2.4 1.3-.1 1.3-.1 0-.6-.8-.3-2.7-1.4-4.2-2.4-1.4-1.1-3.2-1.9-4-1.9-.7 0 .5 1.1 2.7 2.5M255.8 184.7c.7.3 1.6.2 1.9-.1.4-.3-.2-.6-1.3-.5-1.1 0-1.4.3-.6.6M560.8 186.7c2.4.3 3.2.8 2.8 1.9-.3.8-.1 1.4.3 1.4.5 0 1.1-.5 1.3-1 .2-.8 4.3-.8 13.3-.1 15.6 1.2 15.5 1.2 15.5 2.2 0 1.3-16.9 6.9-20.8 6.9-6 0-21.8 5.1-22.8 7.4-1 2.1-22.2 9.9-25.9 9.4-1.1-.1-2.6.1-3.3.6-1.4.9-22.9 7.6-24.3 7.6-.4 0-1-1-1.2-2.3-.4-1.8-.5-1.7-.6.7-.1 2.7 0 2.8 3.5 2.2 1.9-.4 8.3-2.3 14.1-4.2 5.9-1.9 11.4-3.4 12.2-3.4.9 0 7.1-1.8 13.8-4.1 8.5-2.8 12.4-4.6 12.8-5.8.6-2.1 15.9-7.1 21.6-7.1 3.4 0 20.5-5.3 22.2-6.9 2-1.9-3-3.4-14.4-4.2-6.7-.5-14.7-1-17.8-1.2-3.1-.3-4.1-.2-2.3 0M280 188.3c3.9 1.6 15.5 3.1 21.1 2.8 4.3-.2 4.4.1 6.5 12.9l1.3 8.5-.5-8c-.5-7.9-1.9-13.4-3.8-14.7-.5-.3-1.9-.3-3 .1-1.8.7-12.9-.5-22.1-2.3-2.7-.6-2.7-.5.5.7M482.1 191c-1.3 1.1-3.8 2-5.6 2-5.1 0-8.7 6-5.2 8.7 1.6 1.4 8.7 2.2 11.1 1.3 1.2-.4-.1-.7-3.3-.8-7.7-.1-10.2-3-6.1-6.7 1.2-1.1 3-1.6 4.9-1.3 1.7.2 2.8.1 2.5-.4-.8-1.2 2.1-.9 3.4.4.9.9.9 1.5 0 2.7s-.7 1.1.7-.1c1.7-1.6 1.8-1.9.2-3.6-1.3-1.4-1.4-2.1-.5-3 1.9-1.9.5-1.3-2.1.8"/><path d="M502 190.5c-1.9.8-4.3 1.7-5.2 2.1-1.1.4-1.8 1.7-1.8 3.2v2.5l10.6-.7c5.9-.4 10.9-.7 11.3-.8 3.3-.4 9.1.4 8.6 1.2-.3.5-.1 1 .4 1 .6 0 1.1-.5 1.1-1.1 0-.8 1.5-1 4.8-.6 3 .4 4 .3 2.6-.3-1.2-.4-5.2-.9-9-1s-7.3-.2-7.9-.2c-.5 0-5.6.3-11.2.7-8.9.7-10.3.6-10.3-.7 0-2.1 8.9-5.8 13.7-5.8 2.1 0 7.6.7 12.3 1.5s10.3 1.5 12.5 1.5c7.9 0 11.5 2.4 5.5 3.6-1.6.4-3 1-3 1.5s-.9.9-2 .9-2 .4-2 1c0 1 1.8.5 6-1.7 1.4-.7 3.1-1.3 3.8-1.3.6 0 1.2-.7 1.2-1.5 0-2-4-3.5-9.3-3.5-2.3 0-8-.7-12.7-1.5-10.4-1.8-15.4-1.8-20 0M531.8 189.7c2.9.2 7.4.2 10 0s.2-.3-5.3-.3-7.6.1-4.7.3M159 198c1.1 2.1 2.1 5 2.1 6.2.1 1.9.2 2 .6.4.6-2.2-2.4-10.6-3.8-10.6-.5 0 0 1.8 1.1 4M240.8 198.6c.6 1.1 1.8 2.6 2.6 3.4 1.9 1.5 2.1 3.7.5 4.2-.9.3-.9 1.7-.1 5.3l1.1 5-.5-4.8c-.4-3.7-.2-4.7 1-4.7 1.9 0 3.1 1.9 2.8 4.5-.2 1.9-.1 1.9.6.1.7-1.6.9-1.7 1.4-.4.4.9.1 2.1-.5 2.7-.8.8-.8 1.1 0 1.1.7 0 1.5-1 1.9-2.2.5-1.7-.1-2.8-2.5-5-1.7-1.5-3.1-3.4-3.1-4.1s-1.4-2.6-3.1-4.3c-2.4-2.2-2.9-2.4-2.1-.8M490 198.7c.8.4 2.1 1.2 2.8 2 .8.7 1.8 1.1 2.3.8.8-.6 26.7 1.9 32.3 3.1 2.2.5 2.5.8 1.5 1.6-1 .7-.7.8 1.1.4 1.4-.3 3.2-.6 4-.7s-.1-.5-2-1.1c-4.9-1.4-34.1-4.9-36.3-4.4-1 .3-2.1-.2-2.4-1s-1.5-1.4-2.7-1.3q-2.1 0-.6.6"/><path d="M518 198.9c0 .6-1.5 1.2-3.2 1.4l-3.3.4 3.3.1c1.8.1 4-.5 4.8-1.3 1.4-1.3 1.4-1.5 0-1.5-.9 0-1.6.4-1.6.9M411.5 201c3.3.4 8.5.8 11.6.9 5.8.1 9.7 2.2 6.3 3.5-4.9 1.9-22.4-.1-22.4-2.5 0-1.3-4.7-1.1-5.5.2-.4.6-4.2.9-10.1.7-7.5-.2-9.4-.6-9.4-1.8 0-1.3-.1-1.3-1 0q-.9 1.5 0 1.8c2.3.8.7 2.1-3.2 2.6-8.5 1.3-30.8 5.9-30.4 6.4.3.2 6-.7 12.8-2.1s14.5-2.8 17.2-3.2 5.5-1.2 6.2-1.9c.9-.9 3.5-1.2 8.9-.8 5.2.3 8.4.1 10.1-.8 2.1-1.2 2.7-1.1 4.5.6 1.8 1.6 3.6 1.9 12.3 1.9 12-.1 22.3-.9 23.3-1.8 1.2-1.3-.6-2-2-.8-1.8 1.4-8.6.6-10.1-1.3-.8-1-4.4-1.5-13.1-1.9-8.2-.3-10.1-.2-6 .3M523 200.4c0 .2.7.6 1.5 1 .8.3 1.5.1 1.5-.4 0-.6-.7-1-1.5-1s-1.5.2-1.5.4M155.3 206.8c-.9 3.7 1.6 22.9 3.6 27.7l1.7 4-3.8 2.7c-6.1 4.4-7.2 7-7.1 15.8 0 6.2.6 8.7 2.7 12.9 1.4 2.9 2.6 6.1 2.6 7.1s.5 2.2 1 2.5c1.9 1.1 1.1 5.3-1.1 6-2.8.9-3.3.2-3.1-5l.2-4.4-8.6-2.7c-4.9-1.6-8.9-2.3-9.4-1.8s.5 1 2.3 1.1 5.8 1.1 9 2.3l5.8 2.2-.4 4.9c-.3 4.5-.1 4.9 1.9 4.9 3.7 0 5.4-1.1 5.4-3.4 0-2.7-2.5-10-4.9-14.6-1.7-3.2-3.5-10-2.7-10 .2 0 2.1 1.6 4.2 3.6 12 11 43.5 19.1 87.4 22.5 19.7 1.5 72.2.6 91.5-1.5 31.9-3.6 57-9.4 72.9-16.9 8.4-4 16.6-10.1 16.6-12.4 0-.5-2 1-4.6 3.3-12.3 11.5-41.8 20.2-84.9 25-19.3 2.1-71.8 3-91.5 1.5-45.4-3.5-73.6-11-87.1-23.2-3.4-3.1-4.3-4.5-4.3-7.3 0-1.8.8-4.5 1.7-6 2.6-3.8 10.2-9.2 17.8-12.3l6.6-2.7-.3-6.1c-.5-10.6-1.4-14.6-4-18.3-2.9-4.1-2.8-3.9.5 3.1 2.4 5.1 2.2 6.9-.4 4.7-2.3-1.9-1.8-.4.6 1.9 1.6 1.5 2.1 3.3 2.3 8 .1 3.4-.2 6.1-.6 6.1s-.8-1.1-.8-2.5-.4-2.5-1-2.5c-.5 0-.7 1.3-.4 2.8.5 2.6.2 3-5.3 5.5l-5.8 2.6-1.3-2.6c-1.5-2.8-4.2-18.5-4.2-24.6 0-3 .5-3.9 2.2-4.6l2.2-.8-2.2-.5c-1.8-.5-2.3-.1-2.9 2M144.8 207.1c.7.7 1.2 3.9 1.2 7.4 0 6.7-1 8.3-6.5 10.4l-3 1.1 3.5-.5c5.5-.8 7.1-3.6 6.8-11.8-.2-5.2-.7-7.2-1.8-7.5-1.2-.4-1.3-.2-.2.9M529.5 208c-2.5 1.1.1 1.1 3.5 0 2-.6 2.1-.8.5-.8-1.1 0-2.9.3-4 .8M90.3 210.3c-.4.7-1.6 1.7-2.6 2-3 1.1-1.6 4.2 2.1 4.5 2.9.3 3.2.1 3.2-2.3 0-1.4-.4-2.4-1-2-.5.3-.7 1.2-.3 2 .3 1-.1 1.5-1.4 1.5-3.3 0-3.5-1.3-.6-3.6 1.6-1.2 2.5-2.5 2.1-2.9-.3-.4-1 0-1.5.8"/><path d="M231.6 214.2c1 1.3 1.9 2.4 2 2.6.1.1.4-.6.7-1.8.3-1.1.1-1.8-.3-1.5-.5.3-1.1.1-1.5-.5-.3-.5-1.1-1-1.7-1s-.3 1 .8 2.2M381 213.6c-1.5.8-5.8 1.4-10.6 1.4-9.8 0-14.4.8-14.4 2.5 0 .9 3.2 1.7 9.8 2.5 8.4 1.1 10.2 1.1 12.7-.2 3.2-1.6 10.1-1.3 12.3.4.7.6 1.5.8 1.8.6.3-.3 4.2.3 8.7 1.3 8.5 1.9 10.3 2.2 9.6 1.5-.5-.6-21.8-5.3-26.8-6-2-.3-4.7.2-6.4 1.1-2.8 1.4-10.4 1.3-16-.3-3.9-1.2-.1-2.4 7.6-2.4 4.5 0 9.8-.4 11.7-1 2.4-.7 3.6-.6 4.1.1.4.8.8.7 1.1-.2.3-1 3-.7 12.9 1.5 6.8 1.6 13.1 3.1 13.9 3.3 1.3.4 1.3.3 0-.5-2.3-1.4-24.9-6.5-26.4-5.9-.8.3-1.7.2-2.2-.2s-2-.2-3.4.5M523 212.4c0 .2.7.7 1.6 1 .8.3 1.2.2.9-.4-.6-1-2.5-1.4-2.5-.6"/><path d="M424.1 216.2c-1.2.4-2.4 1.4-2.7 2.3-.4.8-1.8 1.6-3.3 1.6-1.7.1-2 .3-.8.6.9.2 1.7.8 1.7 1.2s-3.3 0-7.2-1c-4-1-8-1.8-8.8-1.8-.8.1 2.3 1.1 7 2.3 7.7 2 8.6 2.1 9.9.7 1-1.2 1.4-1.3 1.8-.4.3.7 1.2 1.3 2.1 1.3 1.3 0 1.2-.3-.4-1.5-1.9-1.5-1.9-1.5.3-3.4 2.3-1.9 2.4-1.9 8.5.2 6 2.1 6.1 2.2 3.3 2.8-1.6.4-4.5.7-6.4.8-1.9 0-3.2.4-2.8.7 1 1.1 12.5-.7 13-2 .7-1.7-12.3-5.5-15.2-4.4M448 217c3.8 1.1 26.7 2.4 25.8 1.5-.3-.3-5-.7-10.4-.9-5.5-.3-11.9-.7-14.4-1-4.2-.5-4.3-.5-1 .4M491.4 220c-3.5 1.4-20.4 3.9-33.9 5.1-7.4.6-13.5 1.6-14.3 2.3-.7.6-1.7 3.9-2.3 7.1-.6 3.3-1.7 8.9-2.5 12.5s-1.4 7.7-1.4 9.2c0 3.7-1 5.8-2.7 5.8-1.3 0-1.3-.3-.3-1.5 2.5-3-1.3-10.6-5.4-10.4-2.1 0-2.1 0-.1.9 2.7 1 4.2 2.9 5 6.1.6 2.4.2 2.8-3.4 4.3-5.5 2.1-6.4 2.1-5.2-.3 1-1.8 1.3-12.7.4-11.7-.2.2-.6 2.8-.7 5.7-.4 5.9-.7 7.7-1.9 9.6-.5.8-.4 1.3.2 1.3s1.1-.4 1.1-.8c0-1.5 7.6-3.3 10.1-2.4 2.7 1 1.7 1.8-4.5 3.8-2.8.8-3.4 1.3-1.8 1.3 1.2.1 3.8-.5 5.6-1.3 3.2-1.3 3.5-1.8 4.1-7.3.4-3.2 1.1-7.4 1.6-9.3.4-1.9 1.3-6.9 1.9-11 1.5-10.9 2.3-11.7 11.7-12.5 20.2-1.6 38.8-4.6 40.7-6.5 1.2-1.2.8-1.2-2 0M502.6 230.2c-1.1 12.2-.7 19.4 1.2 21 2.2 2 6.7 3.5 5.8 1.9-.4-.6-1.3-1.1-2-1.1s-2.1-.9-3-1.9c-1.5-1.7-1.7-3.5-1.2-14 .2-6.7.3-12.1.2-12.1-.2 0-.6 2.8-1 6.2"/><path d="M475.5 227.4c-3.5 1-4 1.6-4.3 4.4-.2 1.7.1 3.2.5 3.2 1.4 0 3.3-2.3 3.3-4-.1-.9-.6-.6-1.5 1-1.4 2.4-1.4 2.4-1.5.3 0-2.7 1-3.3 7.5-4.9 2.7-.7 3.9-1.2 2.5-1.2s-4.3.5-6.5 1.2M70.8 230.8c-1.4.2-2.9.9-3.2 1.7-.4 1 1.1 1.5 6.2 2 3.7.4 7.4 1.3 8.2 2 3.5 2.9 16 2.9 16-.1 0-1.5-.4-1.6-7.1-1.8-2.9-.1-4.6-.7-5.9-2.4-1.8-2.2-4.6-2.5-14.2-1.4m4.2 1.4c0 .9.3.9 1.2 0 1.9-1.9 5.8-1.4 7.7 1 1.4 1.6 3 2.2 6.7 2.4 6.8.3 7.2.4 4.7 1.4-3 1.2-9.9.4-12.6-1.5-1.2-.8-3.3-1.5-4.8-1.5s-4.2-.3-6-.7c-3.3-.7-3.3-.7-.9-1.4 3.7-1 4-1 4 .3M51.3 233.7c-1.8.2-3.3.9-3.3 1.4 0 .9 2.2.6 8-1.2 2.8-.8 1-.9-4.7-.2M493.2 243c-.2 9.1.1 11.1 1.9 14.5 1.2 2.2 3.6 6.9 5.4 10.5 3.4 6.9 5.8 9.6 7.4 8.6 2.2-1.4 6 .6 6.4 3.2.4 2.4.4 2.3.6-.6.1-3.3.3-3.2-6-3.7-2.7-.1-4.5-2.2-6.9-7.8-1.2-2.9-3.4-6.8-4.9-8.7-2.3-3.2-2.7-4.6-3.2-15l-.5-11.5zM429.1 238.1c-5.8 1.7-6.5 1.7-8.7.2-1.4-.9-2.7-1.3-3.1-1-.3.4.6 1.1 2.1 1.6 1.4.6 2.6 1.5 2.6 2s1.7.3 3.8-.4c2-.8 6-2.1 8.7-2.9 2.8-.7 4.1-1.4 3-1.4s-4.9.9-8.4 1.9M66.1 239.9c-.8.5-1.1 1.7-.7 3.2 1.9 6.9 3 9.9 3.7 9.9.4 0-.1-2.5-1.2-5.6-2.7-7.5-1-9.7 3.8-5.2 1.3 1.2 2.3 1.7 2.3 1.1s-.5-1.3-1.2-1.5c-.9-.3-.9-.6 0-1.2.6-.4 2.1.3 3.3 1.5 1.6 1.6 2.1 1.8 1.6.6-.8-2.2.9-2.2 2.2 0 1 1.7 1 1.7 1.1 0 0-1-.6-2-1.2-2.2-2.7-.9-12.5-1.3-13.7-.6M119.6 242.8c-.5.9.1 9.2.7 9.9.2.2 1.2.1 2.1-.3 1.2-.4 1.6-1.9 1.6-5.5 0-4.2-.3-4.9-1.9-4.9-1.1 0-2.2.4-2.5.8m3.4 4.1c0 2.2-.4 4.2-.9 4.5-1.2.8-2.2-3.4-1.4-6.2.9-3.6 2.3-2.5 2.3 1.7M46.5 249.5c.2 2.2.7 10.5 1.1 18.5.3 8 1 16.5 1.5 19 .8 4.4.8 4.4.4-1-.3-3-.8-12.5-1.2-21-.3-8.5-1-16.4-1.4-17.5-.6-1.3-.7-.7-.4 2"/><path d="M502.7 256.3c.4 2.2.4 2.2-1.1.3-.9-1.1-1.6-1.4-1.6-.8 0 1.7 4.1 6.2 5.6 6.2.8 0 3.7 3.5 6.5 7.7 5.2 7.8 6.9 9.6 7.8 8.7.3-.3 0-.8-.6-1.2s-3.4-4.2-6.2-8.5c-2.8-4.2-5.7-7.7-6.4-7.7-2.3 0-3.7-2.1-2.7-4.1.7-1.2.6-1.9-.4-2.2-1-.4-1.2.1-.9 1.6M297 261.9c0 .5.7 2.5 1.6 4.6.9 2.2 1.2 4.1.6 4.7-.5.5-1.4-.8-2.1-3.3-.7-2.2-1.5-3.9-1.7-3.6-.3.3 0 2.4.7 4.6.9 2.9 1.7 4 2.7 3.6.7-.3 2-.5 2.8-.5s1.4-.5 1.4-1.1c0-.5-.4-.7-1-.4-.5.3-1 .2-1-.4 0-2 1.9-2.1 2.5-.1.5 1.5 1.3 2 3 1.7 1.4-.1 2.7-.6 3.1-1s1.3-.2 2 .4c.7.5 1.5.6 1.8.1s2.1-.7 4-.6c2 .2 3.6 0 3.6-.4s2.6-.7 5.8-.8c5.5 0 11.8-1.1 11.1-1.9-.2-.2-2.3 0-4.7.5-2.3.4-4.5.3-4.8-.1-.3-.5-1.1-.9-1.7-.9-.7 0-.6.4.3 1 1.3.9 1.3 1 0 1-.9 0-2.2-.6-2.9-1.3-1.1-1-1.2-.9-.6.2s.4 1.3-.8.8c-.9-.3-1.9-.1-2.3.4-.4.6-1.6.1-3.2-1.3-1.5-1.3-2.1-1.6-1.4-.6.8.9.9 1.9.4 2.2-.6.3-1.7-.6-2.7-2-.9-1.4-1.9-2.3-2.2-2-.4.3.1 1.4 1 2.4 1 1 1.4 2.1 1.1 2.5-.4.3-1.9-.9-3.4-2.8-2.4-3-2.9-3.3-4-2-1.3 1.6-3.5 2.1-2.6.7.3-.5-.1-.9-.9-.9s-1.2.4-.9.9c.3.4.2 1.3-.2 1.9-.4.7-1.2-.2-2.1-2.1-1.1-2.7-1.1-3.5-.1-4.2 1-.6.8-.8-.4-.8-1 0-1.8.4-1.8.9m11.8 5.3c1.4 1.4 1.6 2.8.2 2.8-.5 0-1.4-.9-2-2-1.2-2.2-.1-2.7 1.8-.8m-2 2.6c.6 1.8-1.5 1.4-2.2-.4-.4-1-.1-1.4.6-1.2.6.2 1.4 1 1.6 1.6M490.5 263.1c-.4 1.1-.4 3.6 0 5.5.5 2.7 1 3.4 2.8 3.3 1.5-.1 1.7-.3.5-.6-2-.5-3.1-4.4-2.2-7.8.7-3-.2-3.4-1.1-.4M282.5 263c-.4.6.1.7 1 .3 1-.3 2.1 0 2.6.8.7 1.2.9 1.2.9-.1s.1-1.3 1 0c.6 1 1 1.1 1 .2 0-.6.4-1.2 1-1.2.5 0 .8 2 .6 4.5s.1 4.8.5 5.1c.5.3.9-2 .9-5V262h-4.4c-2.5 0-4.8.4-5.1 1M494 262.5c0 .4.6 1.8 1.4 3.4.8 1.5 1.3 3.6 1.2 4.7-.5 2.8 3 9 6.4 11.5 1.6 1.3 5.9 5.6 9.5 9.6 3.6 4.1 6.5 6.8 6.5 6 0-.7-4.7-6.2-10.5-12-7.7-7.9-10.5-11.4-10.5-13.2 0-3.2-2.3-10.5-3.2-10.5-.5 0-.8.2-.8.5M270 264.9c0 .6.5 1.1 1.1 1.1s.8.8.5 1.7c-.7 2.2.8 4.8 2.2 3.9.6-.3 1.3 0 1.6.6.3.9.9.7 2-.6.9-1.1 1.6-1.4 1.6-.8 0 .7.9 1.2 1.9 1.2 1.7 0 1.8-.4.9-3.4-1.1-3.6-3.8-4.9-7.4-3.6-1 .4-2.5.3-3.1-.2-.9-.7-1.3-.7-1.3.1m10.5 3.2c1 2.9-.3 3.7-1.4.8l-.9-2.4-.7 2.7c-.4 1.6-1.1 2.5-1.6 2.2-.6-.3-.7-1.4-.4-2.5.5-1.4.2-1.7-.9-1.3-.8.3-1.2 1.3-.9 2.2.4 1.4.3 1.4-.5.3-1.7-2.3-.2-4.1 3.3-4.1 2.5 0 3.5.5 4 2.1"/><path d="M283.2 268.1c1.5 4.6 2.2 5.1 1.3 1-.5-2.3-.4-3.1.4-2.7.6.4 1.1 1.8 1.1 3.2 0 1.5.6 2.4 1.5 2.4q1.5 0 1.5-3c0-1.7-.5-3-1.2-3s-2.3-.3-3.5-.6c-2.2-.6-2.2-.5-1.1 2.7m4.5 2.1c-.3.7-.5.2-.5-1.2s.2-1.9.5-1.3c.2.7.2 1.9 0 2.5M264.6 268.5c-1.4 2.1-2 2.4-3.7 1.5-1.1-.6-1.7-1.6-1.3-2.3s-.5-.1-1.9 1.2c-2.5 2.3-3.2 2.1-2.7-.4.1-.6-.4-.4-1.1.2-.7.7-1.7 1.3-2.2 1.3-.4 0-.5-.6-.1-1.3.6-1 .4-1-.7 0-.7.7-1.9 1.3-2.7 1.3s-1-.5-.6-1.3c.6-.8.3-.8-.9.1-.9.8-2 1.1-2.5.9-.4-.3-1.4-.2-2.1.3-.8.4 1.5.7 5.3.6 3.7-.1 6.9.2 7.2.5.2.4 2.4.6 5 .5 2.5-.1 4.7.1 5 .5.4.7 5.4.2 6.3-.6.2-.3-.1-1.1-.7-1.8-.7-.8-1.1-1.6-.9-1.8.1-.3-.8.6-1.9 1.9-1.4 1.6-2.4 2-2.8 1.3-.4-.6-.3-1.1.2-1.1s1.2-.9 1.5-2c.7-2.6.3-2.5-1.7.5m-4.9 2.1c-.3.3-1.2.4-1.9.1-.8-.3-.5-.6.6-.6 1.1-.1 1.7.2 1.3.5M415.9 270.7c-2.9 2-8.4 5.2-12.1 6.9-3.6 1.8-6.8 3.6-7.1 4.1-.2.4.8 12.7 2.4 27.3 1.5 14.6 2.8 27.1 2.8 27.9.1.8.3 1.2.6.9.4-.4-3.5-42.3-4.9-52.4-.4-3.1-.2-3.3 7.2-6.9 4.2-2 9.7-5.1 12.2-6.8 5.6-3.8 5.4-3.6 4.9-4.2-.3-.2-3 1.2-6 3.2M579.5 269.3c2.9 2.2.9 3.8-3.9 3.3-2.3-.3-4.8-.1-5.6.4-1 .7.4 1 4.7 1 3.4 0 6.5-.5 6.8-1 1-1.6-.5-5-2.3-5-1.3 0-1.3.2.3 1.3M110.1 280c-2.6 3.9-3.3 6-3.5 10.2-.1 4.7-.4 5.3-2.4 5.6-2.7.4-4-2.3-2.4-4.9.7-1 1.1-3.3 1.1-5.1-.1-3.3-.1-3.3-1.1.7-.5 2.2-1 5.3-1.1 7-.2 2.7.1 3 2.9 3.3 2 .2 3.6-.4 4.9-1.8 1-1.1 1.3-2 .8-2-.6 0-1.3-1.4-1.5-3.1-.4-2.4.3-4.4 2.9-8.2 4.6-6.8 4.5-6.7 3.6-6.7-.4 0-2.3 2.3-4.2 5"/><path d="m409.5 281.1-2 .9 2-.3c2.8-.5 8 2.6 8.1 4.9 0 1 .6 2.9 1.3 4.2.6 1.2.9 2.7.6 3.2-.3.6.1 1 1 1 .8 0 1.8.7 2.2 1.6.4 1.2.9 1 2.4-1.3 1.1-1.5 1.9-3.6 1.9-4.5 0-2.4 1.6-3.1 4.2-1.6 1.3.7 2.6 1.1 3 1s1.8.2 3.1.7c1.5.6 2.9.5 3.8-.1 1.2-.8 1.2-.9-.1-.5-.8.2-3.9-.4-6.8-1.4-6-2.1-8.2-1.7-8.2 1.5 0 2.2-1.7 4.6-3.2 4.6-.4 0-1.2-.9-1.8-2.1-1.4-2.5.7-6 2.1-3.7.6.9.9.9.9.1 0-2-1.8-2.4-3.4-.7-.9.8-1.6 1.2-1.7.7-.1-.4-.2-1.9-.2-3.2-.1-1.5-1.3-3.1-3.2-4.2-3.5-2.1-3.4-2-6-.8M387.9 284.1c-2.7 2.1-1.9 2.5 1.1.7 1-.7 2.2-1 2.5-.6.5.4 6.5 49.8 6.5 53.2 0 .5.2.7.5.4s-.8-12.5-2.5-27.1c-1.6-14.7-3-27-3-27.5 0-1.5-2.7-1-5.1.9M512 282.8c0 .5 2 3.4 4.5 6.6 4.7 6 5.8 11.3 2.8 13.7-1.5 1.3-1.8 4.5-.4 5.3.5.3 1.4-.1 2-.8.8-.9.8-1.7.2-2-.5-.3-1.2 0-1.4.6-.3.8-.6.6-.6-.5-.1-.9.5-1.7 1.2-1.7.9 0 1.4-1.6 1.6-4.8.2-5-.4-6.1-7.1-14-1.5-1.8-2.8-2.9-2.8-2.4M461.5 289.5c-5 1.6-3.1 1.9 2.7.4 4.2-1.1 4.6-.9 15.3 4.5 16.6 8.5 20.6 10.8 21.2 12.3.9 2.2-.3 2.6-2.9.9-5.5-3.6-37.4-16.3-38.4-15.3-.3.3 2.4 1.4 6 2.6 7.8 2.5 26.9 10.6 30.2 12.8 2.1 1.3 3.6 4.2 1.6 2.9-.4-.2-.7 1.3-.7 3.5 0 2.1.4 3.9.8 3.9.5 0 .7-1 .4-2.3-.3-1.2 0-3 .8-4 1.3-1.7 1.4-1.7 2 .5.4 1.3 1.6 3.1 2.6 4.1 2.5 2.3 2.4 4.4-.1 5.2-2.9.9-3.9-.1-3.6-3.8.2-1.7.1-2.2-.1-1-.2 1.3-1.1 2.3-2 2.3-1.2 0-1.1.5.7 2 2.4 2.1 3.8 2.4 6.4 1.4 2.2-.9 2-3.6-.5-6.9-2-2.4-2.8-7.9-1.5-9.3 1.4-1.3-31.4-18.3-35.1-18.1-1 0-3.6.6-5.8 1.4M365.4 289.8c-.6.4-1.3 4.2-1.6 8.5-.3 4.2-.7 8-1 8.2-.2.3-6.7 1.8-14.4 3.5-14.3 3-35.9 9.4-38.2 11.2-.7.6-1.2 2.5-1.2 4.2.1 1.7-.1 4.4-.4 6.1-.6 3-.6 3 .4-.2.6-1.9 2.2-3.7 4.1-4.7 5.9-2.9 34.1-7.6 45.9-7.6 8.3 0 10.7 2.3 15.1 14.5 1.3 3.5 1.8 4.2 1.8 2.5 0-3.9-6.1-15.3-8.9-16.7-1.4-.7-5.1-1.3-8.2-1.3-10.4 0-35.6 4-46.5 7.5-1.7.6-2.3.3-2.3-.9 0-.8 1-2.2 2.3-3 3.5-2.2 23.8-8.2 38.4-11.2l13.2-2.7.5-5.1c.4-2.8.7-6.7.9-8.6.2-3.1.5-3.5 3.4-3.8l3.1-.3.4 11.8c.3 10 .7 12.6 2.7 16.8 1.4 2.7 3.2 8.4 4.2 12.5.9 4.1 1.8 6.6 1.8 5.5.1-3.5-2.7-13.8-5.3-19.5-2.3-4.9-2.6-6.8-2.6-16.8V289h-3.2c-1.8 0-3.8.4-4.4.8"/><path d="M514.1 299.9c-2.3 2.3-2.6 4.6-1.1 8.5.8 2.1 1.6 2.6 4.4 2.6 1.9 0 4.2-.7 5-1.6 2.2-2.1 2-3.1-.1-1.2-5.9 4.9-12.6-1.9-7.2-7.3 1.1-1.1 1.8-2.3 1.6-2.6-.3-.2-1.5.5-2.6 1.6M311.6 333.5c.8 1.3 1.2 3 .8 3.7-.5 1-.4 1 .5.2 1.4-1.2-.2-6.4-1.9-6.4-.6 0-.3 1.1.6 2.5M204.3 333.7c-.7.2-1.3 1.4-1.2 2.6 0 2.2 0 2.2.9-.1 1.2-2.7 2.4-2.8 6.1-.1 1.6 1.1 2.9 1.6 2.9 1s-1.3-1.7-3-2.6c-3-1.6-3.7-1.7-5.7-.8"/></svg>