<svg xmlns="http://www.w3.org/2000/svg" viewBox="0 0 128 128" width="128" height="128">
  <rect width="128" height="128" fill="#0d0d0d"/>
  <g>
    <path d="M0.00,35.02 L2.11,35.84 L4.25,36.80 L6.40,37.88 L8.56,39.06 L10.72,40.30 L12.89,41.61 L15.06,42.95 L17.22,44.31 L19.38,45.67 L21.53,47.02 L23.68,48.33 L25.81,49.59 L27.92,50.79 L30.02,51.90 L32.09,52.90 L34.13,53.78 L36.13,54.50 L38.09,55.06 L39.98,55.42 L41.79,55.56 L43.51,55.44 L45.09,55.03 L46.51,54.29 L47.70,53.19 L47.30,52.60 L46.62,51.72 L45.59,50.54 L44.14,49.08 L42.16,47.40 L39.58,45.61 L36.39,43.86 L32.64,42.36 L28.50,41.28 L24.25,40.73 L20.17,40.73 L16.50,41.16 L13.38,41.86 L10.87,42.69 L8.93,43.50 L7.52,44.20 L6.55,44.75 L5.97,45.11 L5.72,45.28 L5.76,45.26 L6.05,45.05 L6.58,44.66 L7.33,44.10 L8.30,43.40 L9.50,42.55 L10.94,41.57 L12.65,40.49 L14.64,39.32 L16.95,38.11 L19.60,36.89 L22.61,35.73 L25.98,34.69 L29.68,33.86 L33.65,33.32 L37.78,33.13 L41.97,33.32 L46.07,33.89 L49.98,34.79 L53.61,35.95 L56.90,37.30 L59.83,38.76 L62.43,40.25 L64.70,41.73 L66.68,43.16 L68.41,44.52 L69.90,45.77 L71.19,46.91 L72.30,47.92 L73.24,48.81 L74.01,49.55 L74.62,50.14 L75.06,50.56 L75.31,50.80 L75.36,50.84 L75.16,50.68 L74.68,50.29 L73.84,49.69 L72.57,48.86 L70.78,47.85 L68.35,46.74 L65.22,45.64 L61.37,44.77 L56.89,44.34 L52.06,44.54 L47.22,45.45 L42.76,46.97 L38.96,48.87 L35.91,50.89 L33.60,52.81 L31.92,54.49 L30.75,55.86 L29.99,56.89 L29.54,57.58 L29.33,57.95 L29.29,58.02 L29.40,57.82 L29.61,57.37 L29.90,56.70 L30.26,55.83 L30.68,54.77 L31.14,53.55 L31.63,52.19 L32.15,50.69 L32.70,49.07 L33.27,47.35 L33.86,45.53 L34.47,43.64 L35.10,41.68 L35.75,39.65 L36.41,37.58 L37.09,35.47 L37.80,33.32 L38.53,31.14 L39.29,28.94 L40.08,26.71 L40.92,24.45 L41.82,22.16 L42.79,19.82 L43.86,17.40 L45.06,14.90 L46.45,12.25 L48.11,9.42 L50.18,6.34 L52.85,2.95 L56.43,-0.78 L61.35,-4.75 L68.08,-8.57 L76.81,-11.41 L86.84,-12.21 L96.62,-10.59 L104.77,-7.22 L110.90,-3.18 L115.34,0.84 L118.57,4.56 L121.01,7.93 L122.91,11.00 L124.45,13.85 L125.76,16.54 L126.91,19.12 L127.93,21.64 L128.86,24.10 L129.74,26.55 L130.56,28.98 L131.34,31.41 L132.10,33.84 L132.83,36.26 L133.53,38.68 L134.22,41.09 L134.90,43.48 L135.56,45.85 L136.20,48.18 L136.84,50.46 L137.46,52.68 L138.06,54.83 L138.65,56.90 L139.23,58.87 L139.78,60.73 L140.31,62.46 L140.82,64.04 L141.29,65.46 L141.72,66.69 L142.09,67.71 L142.40,68.50 L142.62,69.02 L142.72,69.25 L142.65,69.14 L142.36,68.64 L141.76,67.72 L140.71,66.32 L139.04,64.43 L136.50,62.10 L132.85,59.48 L127.27,58.44 L121.05,58.22 L114.81,59.17 L109.35,61.27 L105.23,64.07 L102.58,67.05 L101.22,69.81 L100.85,72.16 L101.19,74.05 L102.04,75.50 L103.23,76.57 L104.68,77.31 L106.30,77.77 L108.06,78.02 L109.90,78.08 L111.81,77.99 L113.77,77.79 L115.77,77.50 L117.79,77.15 L119.83,76.76 L121.88,76.36 L123.93,75.97 L125.97,75.60 L128.00,75.28" fill="none" stroke="rgba(230,255,68,0.13999999999999996)" stroke-width="0.6000000000000001" stroke-linecap="round" stroke-linejoin="round"/>
    <path d="M0.00,37.76 L2.01,38.92 L4.04,40.18 L6.07,41.53 L8.11,42.94 L10.15,44.40 L12.20,45.89 L14.23,47.39 L16.27,48.89 L18.30,50.36 L20.32,51.80 L22.33,53.19 L24.32,54.50 L26.30,55.73 L28.26,56.85 L30.18,57.83 L32.08,58.67 L33.92,59.34 L35.71,59.81 L37.43,60.06 L39.05,60.05 L40.54,59.75 L41.87,59.13 L42.97,58.14 L43.78,56.75 L43.06,55.84 L41.97,54.64 L40.41,53.17 L38.28,51.50 L35.52,49.78 L32.12,48.20 L28.22,46.97 L24.05,46.26 L19.92,46.12 L16.13,46.50 L12.88,47.23 L10.25,48.11 L8.21,49.01 L6.72,49.81 L5.68,50.46 L5.02,50.91 L4.69,51.16 L4.61,51.22 L4.77,51.09 L5.12,50.79 L5.66,50.33 L6.37,49.71 L7.24,48.95 L8.30,48.07 L9.53,47.06 L10.97,45.96 L12.64,44.76 L14.55,43.49 L16.75,42.19 L19.25,40.88 L22.07,39.63 L25.21,38.49 L28.66,37.55 L32.35,36.87 L36.20,36.52 L40.10,36.52 L43.93,36.87 L47.57,37.54 L50.96,38.46 L54.04,39.56 L56.79,40.76 L59.22,42.00 L61.34,43.24 L63.19,44.43 L64.79,45.54 L66.16,46.56 L67.33,47.47 L68.31,48.26 L69.10,48.91 L69.72,49.41 L70.14,49.76 L70.36,49.94 L70.36,49.94 L70.10,49.75 L69.52,49.37 L68.59,48.81 L67.21,48.10 L65.33,47.28 L62.87,46.45 L59.82,45.76 L56.24,45.36 L52.28,45.42 L48.21,46.03 L44.33,47.16 L40.90,48.66 L38.04,50.35 L35.80,52.02 L34.13,53.54 L32.94,54.82 L32.15,55.81 L31.66,56.50 L31.41,56.89 L31.34,57.01 L31.42,56.87 L31.61,56.50 L31.89,55.91 L32.23,55.12 L32.64,54.16 L33.08,53.03 L33.57,51.76 L34.08,50.36 L34.62,48.84 L35.19,47.21 L35.77,45.50 L36.38,43.70 L37.00,41.83 L37.64,39.91 L38.30,37.93 L38.98,35.92 L39.68,33.86 L40.40,31.78 L41.15,29.68 L41.94,27.54 L42.77,25.39 L43.65,23.20 L44.60,20.96 L45.65,18.67 L46.82,16.29 L48.17,13.80 L49.78,11.13 L51.77,8.25 L54.32,5.10 L57.73,1.65 L62.36,-1.97 L68.65,-5.41 L76.71,-7.88 L85.88,-8.48 L94.77,-6.91 L102.16,-3.78 L107.75,-0.05 L111.83,3.67 L114.82,7.12 L117.09,10.28 L118.88,13.18 L120.35,15.90 L121.60,18.48 L122.70,20.98 L123.69,23.42 L124.60,25.83 L125.45,28.24 L126.26,30.65 L127.04,33.06 L127.78,35.48 L128.50,37.90 L129.21,40.33 L129.89,42.76 L130.57,45.17 L131.23,47.57 L131.87,49.93 L132.51,52.26 L133.13,54.54 L133.75,56.75 L134.35,58.88 L134.93,60.92 L135.50,62.86 L136.04,64.68 L136.57,66.35 L137.06,67.88 L137.52,69.22 L137.93,70.37 L138.29,71.30 L138.56,71.98 L138.73,72.37 L138.76,72.45 L138.59,72.15 L138.14,71.45 L137.30,70.29 L135.89,68.64 L133.68,66.53 L130.40,64.10 L125.83,61.69 L120.03,59.87 L113.50,60.63 L107.71,62.65 L103.31,65.47 L100.46,68.48 L98.97,71.24 L98.49,73.57 L98.74,75.40 L99.50,76.78 L100.61,77.75 L101.96,78.38 L103.49,78.72 L105.14,78.83 L106.88,78.75 L108.69,78.50 L110.54,78.14 L112.44,77.67 L114.36,77.13 L116.30,76.54 L118.25,75.93 L120.21,75.30 L122.17,74.68 L124.12,74.09 L126.07,73.55 L128.00,73.07" fill="none" stroke="rgba(230,255,68,0.18666666666666662)" stroke-width="0.675" stroke-linecap="round" stroke-linejoin="round"/>
    <path d="M0.00,41.17 L1.90,42.60 L3.81,44.11 L5.73,45.68 L7.64,47.28 L9.56,48.91 L11.47,50.54 L13.38,52.17 L15.28,53.76 L17.18,55.32 L19.07,56.81 L20.94,58.23 L22.80,59.55 L24.64,60.76 L26.45,61.85 L28.23,62.78 L29.97,63.53 L31.65,64.09 L33.26,64.43 L34.77,64.51 L36.16,64.30 L37.38,63.76 L38.38,62.85 L39.07,61.54 L39.34,59.79 L38.14,58.55 L36.41,57.07 L34.07,55.45 L31.06,53.86 L27.46,52.55 L23.46,51.72 L19.40,51.48 L15.60,51.81 L12.31,52.54 L9.65,53.47 L7.61,54.42 L6.12,55.28 L5.09,55.97 L4.44,56.46 L4.09,56.75 L3.99,56.85 L4.09,56.75 L4.36,56.49 L4.79,56.06 L5.35,55.49 L6.04,54.80 L6.85,53.98 L7.80,53.04 L8.88,52.01 L10.11,50.88 L11.52,49.67 L13.11,48.39 L14.92,47.05 L16.98,45.69 L19.31,44.33 L21.92,43.02 L24.83,41.82 L28.00,40.79 L31.40,40.01 L34.94,39.53 L38.53,39.37 L42.06,39.54 L45.42,40.00 L48.54,40.70 L51.39,41.56 L53.93,42.52 L56.17,43.53 L58.13,44.53 L59.83,45.49 L61.28,46.38 L62.52,47.18 L63.55,47.87 L64.38,48.45 L65.01,48.89 L65.45,49.19 L65.66,49.34 L65.65,49.33 L65.36,49.16 L64.77,48.84 L63.82,48.38 L62.46,47.82 L60.63,47.23 L58.33,46.69 L55.56,46.34 L52.44,46.29 L49.12,46.64 L45.84,47.42 L42.80,48.54 L40.18,49.89 L38.05,51.29 L36.40,52.63 L35.19,53.80 L34.35,54.74 L33.82,55.42 L33.53,55.84 L33.43,56.01 L33.47,55.94 L33.64,55.64 L33.89,55.13 L34.22,54.44 L34.61,53.57 L35.04,52.54 L35.51,51.37 L36.02,50.07 L36.55,48.66 L37.11,47.14 L37.69,45.53 L38.29,43.84 L38.91,42.07 L39.54,40.25 L40.20,38.38 L40.87,36.47 L41.56,34.52 L42.28,32.54 L43.02,30.53 L43.80,28.51 L44.61,26.46 L45.48,24.38 L46.42,22.26 L47.44,20.09 L48.58,17.85 L49.89,15.50 L51.45,13.01 L53.35,10.33 L55.78,7.43 L59.00,4.28 L63.33,1.01 L69.14,-2.04 L76.51,-4.17 L84.80,-4.60 L92.79,-3.10 L99.46,-0.24 L104.52,3.17 L108.25,6.58 L111.02,9.77 L113.13,12.71 L114.82,15.45 L116.21,18.02 L117.41,20.49 L118.47,22.90 L119.43,25.27 L120.32,27.63 L121.16,29.99 L121.95,32.36 L122.71,34.75 L123.45,37.15 L124.17,39.57 L124.86,42.00 L125.55,44.43 L126.22,46.86 L126.88,49.27 L127.53,51.67 L128.17,54.03 L128.80,56.34 L129.41,58.60 L130.02,60.79 L130.61,62.89 L131.19,64.89 L131.75,66.78 L132.29,68.55 L132.80,70.16 L133.29,71.61 L133.73,72.87 L134.12,73.92 L134.45,74.73 L134.68,75.28 L134.79,75.52 L134.73,75.42 L134.42,74.92 L133.75,73.98 L132.57,72.57 L130.66,70.69 L127.75,68.47 L123.60,66.22 L118.22,64.49 L112.09,63.83 L106.11,64.45 L101.56,67.25 L98.62,70.25 L97.06,72.98 L96.53,75.24 L96.72,76.99 L97.41,78.26 L98.44,79.11 L99.70,79.62 L101.14,79.84 L102.69,79.81 L104.32,79.58 L106.03,79.19 L107.78,78.67 L109.56,78.04 L111.37,77.32 L113.20,76.55 L115.05,75.74 L116.90,74.91 L118.76,74.07 L120.62,73.25 L122.48,72.46 L124.34,71.71 L126.18,71.03 L128.00,70.43" fill="none" stroke="rgba(230,255,68,0.23333333333333325)" stroke-width="0.75" stroke-linecap="round" stroke-linejoin="round"/>
    <path d="M0.00,45.16 L1.79,46.82 L3.57,48.53 L5.36,50.27 L7.15,52.03 L8.94,53.78 L10.72,55.51 L12.50,57.21 L14.28,58.86 L16.04,60.45 L17.79,61.95 L19.53,63.36 L21.25,64.65 L22.94,65.81 L24.60,66.81 L26.23,67.64 L27.80,68.26 L29.30,68.66 L30.70,68.81 L31.98,68.66 L33.08,68.18 L33.95,67.34 L34.50,66.09 L34.59,64.41 L34.09,62.31 L32.15,60.84 L29.54,59.32 L26.29,57.99 L22.55,57.09 L18.64,56.78 L14.93,57.06 L11.71,57.78 L9.11,58.72 L7.14,59.70 L5.73,60.57 L4.77,61.26 L4.18,61.75 L3.88,62.03 L3.80,62.10 L3.91,62.00 L4.16,61.72 L4.54,61.29 L5.03,60.73 L5.62,60.04 L6.30,59.24 L7.07,58.35 L7.94,57.36 L8.91,56.29 L9.99,55.14 L11.20,53.92 L12.55,52.64 L14.06,51.30 L15.76,49.93 L17.68,48.53 L19.83,47.15 L22.24,45.82 L24.90,44.60 L27.80,43.54 L30.91,42.70 L34.13,42.14 L37.40,41.87 L40.60,41.89 L43.66,42.19 L46.50,42.69 L49.08,43.35 L51.39,44.10 L53.43,44.90 L55.21,45.69 L56.73,46.44 L58.03,47.13 L59.11,47.74 L59.99,48.24 L60.66,48.64 L61.13,48.91 L61.38,49.05 L61.39,49.06 L61.14,48.94 L60.60,48.70 L59.73,48.36 L58.49,47.97 L56.86,47.58 L54.84,47.28 L52.48,47.16 L49.89,47.31 L47.21,47.78 L44.62,48.56 L42.28,49.56 L40.29,50.69 L38.69,51.82 L37.47,52.85 L36.60,53.72 L36.02,54.38 L35.69,54.83 L35.54,55.04 L35.55,55.03 L35.68,54.81 L35.91,54.40 L36.22,53.80 L36.59,53.03 L37.01,52.11 L37.47,51.04 L37.97,49.85 L38.49,48.55 L39.04,47.14 L39.61,45.64 L40.20,44.06 L40.82,42.41 L41.44,40.70 L42.09,38.94 L42.76,37.13 L43.44,35.29 L44.15,33.42 L44.89,31.53 L45.65,29.61 L46.46,27.67 L47.31,25.71 L48.23,23.71 L49.22,21.67 L50.34,19.57 L51.60,17.38 L53.10,15.08 L54.92,12.61 L57.22,9.95 L60.22,7.11 L64.24,4.20 L69.55,1.53 L76.19,-0.27 L83.59,-0.57 L90.71,0.83 L96.66,3.41 L101.23,6.48 L104.63,9.58 L107.17,12.51 L109.14,15.24 L110.73,17.80 L112.06,20.23 L113.20,22.59 L114.22,24.90 L115.16,27.19 L116.03,29.49 L116.84,31.80 L117.62,34.13 L118.38,36.48 L119.11,38.86 L119.82,41.26 L120.51,43.68 L121.19,46.11 L121.86,48.54 L122.52,50.97 L123.17,53.38 L123.81,55.76 L124.44,58.10 L125.06,60.39 L125.68,62.62 L126.28,64.77 L126.86,66.83 L127.44,68.79 L127.99,70.62 L128.52,72.31 L129.03,73.85 L129.50,75.21 L129.93,76.37 L130.29,77.30 L130.58,77.99 L130.76,78.38 L130.79,78.45 L130.60,78.15 L130.09,77.43 L129.13,76.25 L127.50,74.61 L124.94,72.62 L121.21,70.56 L116.28,68.95 L110.63,68.36 L105.11,68.99 L100.49,70.50 L97.07,72.34 L95.52,74.98 L94.98,77.13 L95.14,78.76 L95.78,79.90 L96.74,80.62 L97.93,81.00 L99.27,81.07 L100.72,80.91 L102.26,80.54 L103.85,80.00 L105.49,79.33 L107.17,78.54 L108.87,77.66 L110.58,76.72 L112.32,75.73 L114.06,74.72 L115.81,73.68 L117.56,72.66 L119.32,71.65 L121.07,70.68 L122.82,69.75 L124.56,68.89 L126.29,68.11 L128.00,67.43" fill="none" stroke="rgba(230,255,68,0.2799999999999999)" stroke-width="0.8250000000000001" stroke-linecap="round" stroke-linejoin="round"/>
    <path d="M0.00,49.66 L1.66,51.50 L3.33,53.36 L4.99,55.23 L6.65,57.08 L8.31,58.91 L9.96,60.70 L11.61,62.43 L13.25,64.09 L14.88,65.67 L16.49,67.14 L18.09,68.49 L19.67,69.70 L21.21,70.76 L22.72,71.64 L24.17,72.31 L25.56,72.76 L26.85,72.95 L28.01,72.84 L28.98,72.41 L29.71,71.61 L30.08,70.41 L29.97,68.80 L29.21,66.81 L27.63,64.56 L24.76,63.27 L21.34,62.35 L17.68,61.99 L14.15,62.23 L11.09,62.94 L8.64,63.87 L6.82,64.82 L5.54,65.66 L4.71,66.31 L4.22,66.75 L4.00,66.97 L3.99,66.99 L4.13,66.83 L4.41,66.50 L4.78,66.03 L5.25,65.43 L5.79,64.71 L6.40,63.90 L7.08,62.99 L7.82,62.01 L8.64,60.96 L9.52,59.84 L10.49,58.66 L11.55,57.43 L12.72,56.15 L14.00,54.82 L15.43,53.46 L17.03,52.08 L18.81,50.69 L20.80,49.33 L23.01,48.02 L25.45,46.81 L28.09,45.76 L30.90,44.92 L33.82,44.32 L36.76,43.99 L39.64,43.93 L42.38,44.10 L44.92,44.46 L47.23,44.96 L49.29,45.54 L51.10,46.16 L52.68,46.77 L54.02,47.35 L55.16,47.87 L56.08,48.32 L56.80,48.67 L57.32,48.93 L57.63,49.08 L57.72,49.12 L57.56,49.06 L57.13,48.90 L56.41,48.68 L55.38,48.42 L54.03,48.19 L52.37,48.04 L50.45,48.06 L48.38,48.29 L46.28,48.75 L44.28,49.44 L42.49,50.27 L40.98,51.17 L39.78,52.04 L38.89,52.81 L38.27,53.44 L37.88,53.89 L37.69,54.14 L37.66,54.19 L37.75,54.05 L37.95,53.72 L38.23,53.22 L38.58,52.56 L38.98,51.74 L39.43,50.79 L39.91,49.72 L40.43,48.53 L40.97,47.24 L41.53,45.86 L42.12,44.39 L42.72,42.86 L43.34,41.27 L43.98,39.62 L44.64,37.93 L45.32,36.21 L46.02,34.45 L46.75,32.67 L47.50,30.87 L48.29,29.05 L49.13,27.21 L50.03,25.34 L51.00,23.43 L52.08,21.48 L53.30,19.46 L54.73,17.33 L56.45,15.08 L58.61,12.69 L61.40,10.15 L65.07,7.60 L69.86,5.31 L75.76,3.80 L82.28,3.61 L88.53,4.87 L93.80,7.17 L97.88,9.90 L100.96,12.69 L103.30,15.36 L105.13,17.87 L106.62,20.25 L107.88,22.54 L108.98,24.78 L109.97,26.99 L110.87,29.20 L111.72,31.43 L112.52,33.67 L113.29,35.95 L114.03,38.27 L114.75,40.61 L115.46,42.99 L116.15,45.39 L116.83,47.80 L117.50,50.23 L118.16,52.65 L118.81,55.07 L119.45,57.46 L120.08,59.82 L120.71,62.14 L121.32,64.40 L121.93,66.59 L122.52,68.69 L123.11,70.69 L123.67,72.58 L124.22,74.34 L124.75,75.95 L125.24,77.40 L125.70,78.65 L126.10,79.70 L126.44,80.51 L126.68,81.04 L126.79,81.27 L126.71,81.16 L126.36,80.64 L125.59,79.69 L124.23,78.30 L122.01,76.56 L118.70,74.71 L114.27,73.26 L109.14,72.75 L104.16,73.38 L100.05,74.81 L97.07,76.49 L95.09,78.02 L93.88,79.21 L94.03,80.68 L94.64,81.66 L95.54,82.24 L96.65,82.46 L97.91,82.40 L99.26,82.09 L100.70,81.58 L102.18,80.90 L103.71,80.07 L105.27,79.14 L106.86,78.11 L108.46,77.01 L110.07,75.86 L111.70,74.67 L113.34,73.46 L114.98,72.25 L116.62,71.05 L118.26,69.88 L119.91,68.74 L121.55,67.66 L123.18,66.64 L124.80,65.71 L126.41,64.86 L128.00,64.13" fill="none" stroke="rgba(230,255,68,0.32666666666666666)" stroke-width="0.9000000000000001" stroke-linecap="round" stroke-linejoin="round"/>
    <path d="M0.00,54.57 L1.54,56.53 L3.07,58.49 L4.61,60.44 L6.14,62.35 L7.67,64.21 L9.19,66.01 L10.71,67.73 L12.21,69.35 L13.70,70.87 L15.18,72.27 L16.64,73.52 L18.06,74.61 L19.45,75.52 L20.79,76.23 L22.05,76.71 L23.22,76.92 L24.26,76.85 L25.10,76.44 L25.67,75.67 L25.85,74.52 L25.51,72.99 L24.47,71.17 L22.60,69.24 L19.90,67.48 L16.56,67.11 L13.31,67.32 L10.49,67.99 L8.27,68.88 L6.65,69.77 L5.56,70.54 L4.89,71.10 L4.53,71.45 L4.42,71.58 L4.48,71.51 L4.68,71.26 L4.99,70.85 L5.39,70.30 L5.86,69.63 L6.39,68.85 L6.97,67.99 L7.60,67.04 L8.28,66.03 L9.00,64.95 L9.78,63.83 L10.60,62.65 L11.49,61.44 L12.44,60.19 L13.47,58.91 L14.59,57.59 L15.81,56.26 L17.16,54.90 L18.66,53.54 L20.32,52.18 L22.16,50.86 L24.20,49.61 L26.43,48.46 L28.83,47.46 L31.37,46.65 L33.99,46.08 L36.61,45.74 L39.17,45.64 L41.59,45.75 L43.83,46.02 L45.85,46.40 L47.66,46.85 L49.25,47.33 L50.62,47.81 L51.78,48.25 L52.75,48.65 L53.52,48.97 L54.11,49.22 L54.50,49.38 L54.68,49.45 L54.65,49.45 L54.38,49.36 L53.86,49.23 L53.08,49.07 L52.04,48.94 L50.76,48.88 L49.28,48.94 L47.69,49.17 L46.08,49.56 L44.56,50.11 L43.20,50.76 L42.06,51.44 L41.17,52.09 L40.53,52.65 L40.10,53.08 L39.86,53.35 L39.78,53.45 L39.84,53.38 L40.00,53.14 L40.26,52.74 L40.58,52.18 L40.96,51.48 L41.39,50.65 L41.86,49.69 L42.36,48.62 L42.89,47.45 L43.45,46.19 L44.02,44.85 L44.62,43.44 L45.24,41.97 L45.87,40.44 L46.52,38.87 L47.19,37.27 L47.88,35.63 L48.60,33.97 L49.34,32.29 L50.12,30.60 L50.94,28.88 L51.81,27.15 L52.75,25.38 L53.79,23.58 L54.96,21.73 L56.32,19.80 L57.94,17.77 L59.95,15.64 L62.50,13.42 L65.81,11.21 L70.05,9.28 L75.21,8.04 L80.85,7.93 L86.27,9.04 L90.88,11.04 L94.50,13.44 L97.27,15.91 L99.41,18.32 L101.11,20.61 L102.51,22.81 L103.70,24.96 L104.75,27.07 L105.70,29.17 L106.58,31.29 L107.41,33.44 L108.20,35.62 L108.95,37.84 L109.68,40.11 L110.40,42.41 L111.10,44.75 L111.78,47.12 L112.46,49.51 L113.12,51.92 L113.78,54.34 L114.43,56.75 L115.08,59.14 L115.71,61.51 L116.34,63.84 L116.96,66.12 L117.57,68.33 L118.17,70.47 L118.77,72.51 L119.34,74.44 L119.91,76.26 L120.45,77.93 L120.96,79.45 L121.45,80.79 L121.89,81.93 L122.27,82.85 L122.57,83.52 L122.75,83.90 L122.78,83.96 L122.55,83.64 L121.97,82.92 L120.86,81.78 L118.99,80.29 L116.12,78.69 L112.21,77.42 L107.67,77.00 L103.28,77.61 L99.72,78.92 L97.19,80.41 L95.58,81.72 L94.63,82.69 L94.15,83.29 L93.99,83.53 L94.84,83.93 L95.88,84.00 L97.05,83.78 L98.32,83.32 L99.65,82.67 L101.03,81.84 L102.44,80.88 L103.89,79.80 L105.35,78.63 L106.84,77.38 L108.34,76.07 L109.84,74.73 L111.36,73.36 L112.88,71.98 L114.40,70.61 L115.93,69.25 L117.46,67.93 L118.99,66.65 L120.51,65.43 L122.03,64.28 L123.55,63.21 L125.05,62.23 L126.53,61.37 L128.00,60.62" fill="none" stroke="rgba(230,255,68,0.37333333333333324)" stroke-width="0.9749999999999999" stroke-linecap="round" stroke-linejoin="round"/>
    <path d="M0.00,59.77 L1.41,61.81 L2.82,63.82 L4.22,65.79 L5.62,67.71 L7.02,69.56 L8.41,71.32 L9.79,72.99 L11.16,74.54 L12.52,75.96 L13.85,77.23 L15.16,78.34 L16.43,79.27 L17.65,80.00 L18.80,80.49 L19.84,80.72 L20.75,80.66 L21.45,80.27 L21.85,79.54 L21.83,78.45 L21.24,77.06 L19.95,75.51 L17.91,74.04 L15.29,72.92 L12.42,72.31 L9.92,72.93 L8.00,73.74 L6.64,74.53 L5.77,75.18 L5.28,75.63 L5.07,75.85 L5.07,75.85 L5.22,75.66 L5.49,75.30 L5.85,74.79 L6.28,74.14 L6.77,73.38 L7.30,72.52 L7.88,71.58 L8.48,70.56 L9.13,69.49 L9.80,68.37 L10.51,67.20 L11.26,66.00 L12.04,64.76 L12.86,63.51 L13.73,62.24 L14.66,60.94 L15.66,59.64 L16.73,58.32 L17.90,57.00 L19.18,55.67 L20.58,54.36 L22.13,53.07 L23.84,51.82 L25.72,50.65 L27.76,49.59 L29.95,48.69 L32.24,47.97 L34.57,47.46 L36.89,47.17 L39.13,47.08 L41.24,47.16 L43.18,47.38 L44.93,47.70 L46.48,48.06 L47.85,48.45 L49.02,48.82 L50.02,49.17 L50.84,49.47 L51.48,49.71 L51.96,49.88 L52.25,49.99 L52.36,50.03 L52.27,50.01 L51.97,49.94 L51.46,49.85 L50.73,49.77 L49.81,49.75 L48.74,49.81 L47.57,49.98 L46.38,50.28 L45.25,50.68 L44.24,51.15 L43.41,51.65 L42.76,52.10 L42.31,52.48 L42.03,52.75 L41.91,52.89 L41.93,52.87 L42.06,52.71 L42.28,52.40 L42.58,51.94 L42.94,51.35 L43.35,50.63 L43.80,49.80 L44.29,48.85 L44.81,47.80 L45.35,46.67 L45.92,45.45 L46.51,44.17 L47.12,42.82 L47.74,41.42 L48.38,39.98 L49.04,38.50 L49.73,36.99 L50.43,35.45 L51.16,33.90 L51.92,32.33 L52.72,30.75 L53.57,29.15 L54.48,27.54 L55.48,25.89 L56.59,24.21 L57.87,22.48 L59.38,20.68 L61.22,18.81 L63.52,16.90 L66.45,15.04 L70.14,13.44 L74.55,12.45 L79.35,12.39 L83.96,13.34 L87.93,15.03 L91.10,17.10 L93.58,19.26 L95.52,21.40 L97.08,23.47 L98.39,25.49 L99.52,27.48 L100.52,29.46 L101.44,31.45 L102.29,33.48 L103.10,35.54 L103.87,37.64 L104.61,39.80 L105.33,42.00 L106.04,44.26 L106.73,46.55 L107.41,48.88 L108.08,51.24 L108.75,53.62 L109.40,56.02 L110.05,58.41 L110.70,60.80 L111.34,63.16 L111.97,65.49 L112.59,67.78 L113.21,70.01 L113.82,72.16 L114.42,74.23 L115.01,76.21 L115.58,78.06 L116.14,79.79 L116.67,81.37 L117.18,82.79 L117.65,84.02 L118.08,85.04 L118.43,85.82 L118.68,86.34 L118.80,86.56 L118.71,86.44 L118.30,85.94 L117.44,85.06 L115.90,83.83 L113.48,82.49 L110.14,81.42 L106.23,81.10 L102.49,81.68 L99.50,82.84 L97.45,84.11 L96.19,85.17 L95.51,85.90 L95.22,86.28 L95.19,86.32 L95.35,86.08 L95.63,85.57 L96.71,85.20 L97.88,84.59 L99.11,83.79 L100.39,82.83 L101.69,81.72 L103.02,80.51 L104.37,79.19 L105.73,77.80 L107.11,76.36 L108.49,74.87 L109.89,73.35 L111.29,71.82 L112.69,70.28 L114.09,68.77 L115.50,67.28 L116.91,65.82 L118.32,64.42 L119.73,63.08 L121.13,61.82 L122.53,60.63 L123.92,59.55 L125.30,58.57 L126.66,57.71 L128.00,56.99" fill="none" stroke="rgba(230,255,68,0.42)" stroke-width="1.0499999999999998" stroke-linecap="round" stroke-linejoin="round"/>
    <path d="M0.00,65.14 L1.28,67.21 L2.56,69.23 L3.83,71.18 L5.11,73.06 L6.37,74.85 L7.63,76.53 L8.87,78.10 L10.11,79.53 L11.32,80.81 L12.51,81.93 L13.66,82.86 L14.76,83.59 L15.79,84.09 L16.72,84.33 L17.49,84.28 L18.05,83.92 L18.28,83.23 L18.06,82.26 L17.27,81.09 L15.86,79.93 L13.92,79.02 L11.74,78.50 L9.64,78.36 L7.85,78.43 L6.79,79.09 L6.16,79.59 L5.86,79.87 L5.81,79.94 L5.92,79.81 L6.17,79.48 L6.51,78.99 L6.92,78.36 L7.39,77.60 L7.90,76.73 L8.45,75.77 L9.02,74.74 L9.63,73.63 L10.25,72.48 L10.90,71.28 L11.58,70.05 L12.27,68.79 L12.99,67.51 L13.74,66.22 L14.52,64.92 L15.33,63.62 L16.18,62.32 L17.09,61.02 L18.05,59.72 L19.08,58.43 L20.19,57.15 L21.40,55.88 L22.72,54.64 L24.18,53.44 L25.77,52.30 L27.50,51.25 L29.37,50.32 L31.35,49.54 L33.39,48.94 L35.45,48.54 L37.47,48.33 L39.41,48.29 L41.21,48.39 L42.86,48.60 L44.35,48.88 L45.67,49.19 L46.83,49.52 L47.83,49.83 L48.67,50.11 L49.37,50.35 L49.93,50.54 L50.33,50.67 L50.58,50.75 L50.66,50.78 L50.58,50.76 L50.33,50.72 L49.90,50.68 L49.32,50.66 L48.61,50.70 L47.81,50.80 L46.98,51.00 L46.19,51.26 L45.48,51.57 L44.89,51.90 L44.45,52.19 L44.16,52.42 L44.01,52.56 L44.00,52.58 L44.09,52.48 L44.28,52.25 L44.55,51.89 L44.89,51.40 L45.28,50.80 L45.72,50.08 L46.20,49.25 L46.70,48.33 L47.24,47.32 L47.80,46.23 L48.37,45.08 L48.97,43.86 L49.59,42.59 L50.22,41.27 L50.87,39.92 L51.54,38.54 L52.24,37.13 L52.95,35.71 L53.69,34.27 L54.47,32.83 L55.29,31.37 L56.17,29.91 L57.12,28.43 L58.17,26.93 L59.36,25.39 L60.75,23.83 L62.40,22.22 L64.44,20.61 L66.98,19.08 L70.11,17.79 L73.79,17.00 L77.77,16.97 L81.61,17.75 L84.97,19.15 L87.71,20.89 L89.89,22.75 L91.63,24.62 L93.06,26.47 L94.28,28.30 L95.34,30.12 L96.29,31.96 L97.17,33.84 L98.00,35.75 L98.78,37.72 L99.54,39.74 L100.27,41.83 L100.98,43.96 L101.68,46.15 L102.36,48.39 L103.04,50.67 L103.71,52.99 L104.37,55.34 L105.03,57.70 L105.68,60.07 L106.32,62.43 L106.96,64.78 L107.59,67.10 L108.22,69.39 L108.84,71.62 L109.46,73.79 L110.06,75.88 L110.66,77.87 L111.25,79.77 L111.82,81.54 L112.38,83.17 L112.91,84.65 L113.41,85.95 L113.87,87.07 L114.27,87.96 L114.59,88.62 L114.80,88.99 L114.83,89.06 L114.59,88.78 L113.97,88.15 L112.77,87.20 L110.82,86.13 L108.07,85.27 L104.85,85.05 L101.79,85.57 L99.41,86.54 L97.83,87.56 L96.92,88.36 L96.48,88.85 L96.37,89.00 L96.48,88.86 L96.73,88.44 L97.08,87.78 L97.50,86.92 L97.97,85.88 L99.10,84.93 L100.27,83.83 L101.46,82.59 L102.67,81.24 L103.91,79.79 L105.15,78.27 L106.40,76.69 L107.66,75.06 L108.93,73.40 L110.21,71.73 L111.49,70.06 L112.77,68.39 L114.05,66.75 L115.34,65.14 L116.62,63.58 L117.91,62.07 L119.20,60.64 L120.48,59.28 L121.76,58.00 L123.03,56.83 L124.30,55.77 L125.55,54.82 L126.79,54.01 L128.00,53.33" fill="none" stroke="rgba(230,255,68,0.4666666666666666)" stroke-width="1.125" stroke-linecap="round" stroke-linejoin="round"/>
    <path d="M0.00,70.56 L1.15,72.61 L2.30,74.59 L3.45,76.48 L4.59,78.28 L5.72,79.97 L6.84,81.53 L7.95,82.96 L9.05,84.23 L10.12,85.34 L11.15,86.27 L12.14,86.99 L13.05,87.49 L13.86,87.73 L14.51,87.70 L14.93,87.38 L15.01,86.79 L14.66,86.00 L13.80,85.15 L12.50,84.45 L11.00,84.04 L9.56,83.89 L8.34,83.87 L7.40,83.85 L6.71,83.74 L6.61,83.85 L6.71,83.74 L6.94,83.45 L7.28,82.97 L7.69,82.35 L8.15,81.58 L8.66,80.70 L9.20,79.72 L9.76,78.65 L10.35,77.51 L10.95,76.31 L11.58,75.06 L12.21,73.77 L12.87,72.46 L13.53,71.12 L14.22,69.78 L14.92,68.43 L15.64,67.08 L16.38,65.74 L17.15,64.41 L17.94,63.10 L18.77,61.80 L19.65,60.52 L20.57,59.26 L21.56,58.03 L22.62,56.82 L23.76,55.65 L25.01,54.51 L26.36,53.43 L27.84,52.43 L29.43,51.54 L31.12,50.77 L32.89,50.15 L34.69,49.71 L36.47,49.44 L38.20,49.34 L39.83,49.37 L41.35,49.51 L42.73,49.73 L43.97,50.00 L45.08,50.29 L46.06,50.58 L46.91,50.85 L47.64,51.10 L48.26,51.31 L48.75,51.47 L49.12,51.59 L49.37,51.66 L49.49,51.69 L49.47,51.70 L49.32,51.68 L49.05,51.67 L48.66,51.67 L48.20,51.72 L47.70,51.82 L47.20,51.96 L46.76,52.14 L46.40,52.32 L46.14,52.48 L46.00,52.58 L45.98,52.61 L46.05,52.54 L46.23,52.37 L46.48,52.09 L46.80,51.69 L47.17,51.19 L47.60,50.58 L48.06,49.87 L48.56,49.07 L49.08,48.19 L49.63,47.23 L50.20,46.20 L50.79,45.11 L51.40,43.96 L52.03,42.78 L52.67,41.55 L53.33,40.30 L54.00,39.03 L54.70,37.74 L55.43,36.44 L56.18,35.13 L56.97,33.82 L57.81,32.51 L58.70,31.20 L59.69,29.88 L60.78,28.55 L62.03,27.21 L63.49,25.87 L65.25,24.55 L67.39,23.31 L69.96,22.30 L72.95,21.70 L76.15,21.68 L79.26,22.30 L82.03,23.41 L84.34,24.83 L86.22,26.38 L87.76,27.98 L89.06,29.60 L90.18,31.24 L91.17,32.89 L92.08,34.59 L92.92,36.33 L93.71,38.14 L94.48,40.00 L95.21,41.93 L95.93,43.92 L96.63,45.98 L97.32,48.10 L98.00,50.28 L98.67,52.50 L99.34,54.76 L99.99,57.06 L100.65,59.38 L101.30,61.71 L101.94,64.05 L102.58,66.37 L103.22,68.68 L103.85,70.95 L104.47,73.17 L105.09,75.34 L105.71,77.44 L106.31,79.45 L106.91,81.37 L107.50,83.17 L108.07,84.85 L108.62,86.38 L109.15,87.76 L109.65,88.95 L110.10,89.95 L110.49,90.73 L110.78,91.26 L110.93,91.50 L110.86,91.44 L110.48,91.07 L109.63,90.41 L108.16,89.61 L106.04,88.98 L103.54,88.84 L101.20,89.28 L99.43,90.04 L98.32,90.78 L97.74,91.31 L97.55,91.54 L97.60,91.48 L97.83,91.13 L98.17,90.55 L98.58,89.74 L99.06,88.75 L99.57,87.59 L100.11,86.28 L100.67,84.84 L101.75,83.46 L102.85,81.98 L103.96,80.41 L105.09,78.76 L106.22,77.05 L107.36,75.30 L108.50,73.51 L109.65,71.71 L110.80,69.90 L111.95,68.10 L113.11,66.32 L114.27,64.58 L115.43,62.87 L116.59,61.22 L117.76,59.63 L118.92,58.12 L120.08,56.69 L121.24,55.35 L122.39,54.11 L123.54,52.98 L124.68,51.97 L125.81,51.09 L126.92,50.35 L128.00,49.76" fill="none" stroke="rgba(230,255,68,0.5133333333333333)" stroke-width="1.2000000000000002" stroke-linecap="round" stroke-linejoin="round"/>
    <path d="M0.00,75.91 L1.02,77.89 L2.04,79.78 L3.06,81.57 L4.06,83.25 L5.07,84.80 L6.06,86.21 L7.03,87.46 L7.98,88.56 L8.91,89.47 L9.78,90.18 L10.59,90.67 L11.29,90.93 L11.84,90.93 L12.15,90.69 L12.15,90.25 L11.79,89.71 L11.09,89.23 L10.23,88.91 L9.40,88.74 L8.73,88.63 L8.27,88.48 L7.97,88.21 L7.81,87.81 L7.75,87.26 L8.10,86.79 L8.52,86.16 L8.99,85.39 L9.51,84.49 L10.05,83.48 L10.62,82.38 L11.20,81.20 L11.80,79.94 L12.41,78.64 L13.04,77.29 L13.67,75.91 L14.31,74.50 L14.97,73.08 L15.63,71.65 L16.30,70.23 L16.99,68.81 L17.68,67.42 L18.39,66.04 L19.12,64.69 L19.87,63.36 L20.65,62.07 L21.45,60.81 L22.29,59.59 L23.17,58.41 L24.11,57.27 L25.11,56.17 L26.18,55.12 L27.34,54.13 L28.60,53.21 L29.94,52.39 L31.37,51.68 L32.87,51.10 L34.41,50.68 L35.95,50.41 L37.45,50.29 L38.88,50.29 L40.22,50.40 L41.45,50.59 L42.59,50.83 L43.61,51.10 L44.54,51.39 L45.37,51.66 L46.11,51.92 L46.77,52.16 L47.33,52.36 L47.81,52.52 L48.20,52.65 L48.49,52.73 L48.68,52.78 L48.78,52.80 L48.78,52.81 L48.70,52.81 L48.55,52.82 L48.35,52.85 L48.14,52.90 L47.95,52.97 L47.81,53.03 L47.74,53.07 L47.76,53.07 L47.85,53.00 L48.03,52.86 L48.28,52.63 L48.60,52.31 L48.97,51.89 L49.39,51.38 L49.85,50.77 L50.34,50.08 L50.86,49.32 L51.41,48.47 L51.97,47.57 L52.55,46.60 L53.16,45.59 L53.77,44.53 L54.40,43.44 L55.05,42.31 L55.72,41.17 L56.40,40.02 L57.10,38.85 L57.82,37.69 L58.58,36.53 L59.37,35.37 L60.21,34.22 L61.11,33.08 L62.10,31.95 L63.21,30.84 L64.47,29.74 L65.94,28.70 L67.68,27.74 L69.72,26.98 L72.03,26.53 L74.51,26.52 L76.93,26.97 L79.13,27.82 L81.02,28.92 L82.60,30.18 L83.94,31.51 L85.09,32.89 L86.11,34.32 L87.03,35.80 L87.88,37.34 L88.68,38.95 L89.44,40.63 L90.18,42.38 L90.90,44.20 L91.60,46.10 L92.29,48.07 L92.97,50.11 L93.64,52.21 L94.31,54.36 L94.97,56.56 L95.62,58.80 L96.27,61.07 L96.92,63.35 L97.56,65.65 L98.21,67.94 L98.84,70.21 L99.48,72.46 L100.11,74.67 L100.73,76.83 L101.35,78.93 L101.97,80.94 L102.58,82.87 L103.18,84.70 L103.76,86.41 L104.34,87.99 L104.90,89.43 L105.43,90.70 L105.93,91.80 L106.37,92.69 L106.75,93.37 L107.02,93.79 L107.13,93.95 L106.99,93.83 L106.49,93.46 L105.52,92.95 L104.05,92.53 L102.31,92.46 L100.71,92.79 L99.56,93.31 L98.91,93.77 L98.65,94.02 L98.68,93.99 L98.90,93.71 L99.24,93.18 L99.66,92.43 L100.14,91.48 L100.65,90.36 L101.20,89.08 L101.77,87.66 L102.35,86.13 L102.95,84.48 L103.55,82.74 L104.55,81.04 L105.55,79.27 L106.56,77.44 L107.57,75.57 L108.59,73.66 L109.61,71.74 L110.63,69.82 L111.66,67.89 L112.69,65.99 L113.72,64.12 L114.76,62.29 L115.79,60.51 L116.82,58.79 L117.86,57.14 L118.90,55.57 L119.93,54.08 L120.97,52.70 L122.00,51.42 L123.03,50.25 L124.05,49.20 L125.07,48.28 L126.07,47.49 L127.05,46.85 L128.00,46.37" fill="none" stroke="rgba(230,255,68,0.5599999999999999)" stroke-width="1.275" stroke-linecap="round" stroke-linejoin="round"/>
    <path d="M0.00,81.05 L0.89,82.93 L1.78,84.69 L2.67,86.34 L3.55,87.86 L4.42,89.24 L5.28,90.47 L6.12,91.54 L6.94,92.43 L7.71,93.13 L8.43,93.63 L9.05,93.91 L9.53,93.98 L9.82,93.86 L9.87,93.62 L9.70,93.34 L9.42,93.11 L9.16,92.93 L8.99,92.72 L8.95,92.44 L9.01,92.03 L9.15,91.49 L9.35,90.81 L9.59,90.00 L9.87,89.06 L10.40,88.14 L10.96,87.11 L11.54,85.97 L12.13,84.75 L12.74,83.45 L13.35,82.08 L13.97,80.67 L14.60,79.22 L15.23,77.73 L15.87,76.23 L16.51,74.71 L17.16,73.20 L17.82,71.69 L18.48,70.20 L19.15,68.72 L19.83,67.28 L20.52,65.87 L21.21,64.51 L21.92,63.18 L22.65,61.91 L23.39,60.68 L24.16,59.50 L24.96,58.38 L25.79,57.31 L26.66,56.31 L27.59,55.36 L28.57,54.48 L29.63,53.67 L30.74,52.96 L31.93,52.34 L33.16,51.85 L34.43,51.49 L35.70,51.26 L36.94,51.16 L38.14,51.18 L39.27,51.28 L40.34,51.46 L41.33,51.69 L42.24,51.96 L43.09,52.24 L43.88,52.53 L44.60,52.81 L45.27,53.07 L45.88,53.32 L46.44,53.54 L46.94,53.72 L47.38,53.87 L47.75,53.99 L48.07,54.07 L48.32,54.12 L48.51,54.15 L48.64,54.16 L48.74,54.16 L48.82,54.15 L48.89,54.14 L48.99,54.12 L49.12,54.07 L49.31,53.98 L49.54,53.84 L49.84,53.63 L50.19,53.35 L50.58,52.99 L51.02,52.55 L51.49,52.04 L51.99,51.44 L52.52,50.78 L53.07,50.04 L53.63,49.25 L54.22,48.40 L54.82,47.51 L55.43,46.57 L56.05,45.60 L56.69,44.61 L57.34,43.60 L58.00,42.57 L58.68,41.54 L59.38,40.52 L60.10,39.50 L60.84,38.50 L61.62,37.51 L62.43,36.55 L63.31,35.61 L64.26,34.71 L65.31,33.85 L66.50,33.06 L67.85,32.36 L69.38,31.81 L71.08,31.49 L72.87,31.47 L74.65,31.77 L76.31,32.37 L77.78,33.19 L79.06,34.15 L80.18,35.21 L81.18,36.35 L82.08,37.57 L82.92,38.87 L83.71,40.24 L84.47,41.70 L85.19,43.24 L85.90,44.86 L86.60,46.57 L87.28,48.37 L87.96,50.24 L88.63,52.18 L89.29,54.20 L89.95,56.27 L90.60,58.40 L91.26,60.56 L91.90,62.77 L92.55,65.00 L93.19,67.24 L93.83,69.48 L94.47,71.72 L95.11,73.93 L95.74,76.12 L96.37,78.26 L97.00,80.34 L97.62,82.36 L98.24,84.29 L98.86,86.14 L99.46,87.87 L100.06,89.49 L100.64,90.98 L101.21,92.33 L101.75,93.51 L102.26,94.52 L102.72,95.33 L103.11,95.93 L103.39,96.31 L103.51,96.44 L103.38,96.36 L102.92,96.14 L102.14,95.94 L101.18,95.92 L100.33,96.12 L99.79,96.38 L99.58,96.54 L99.64,96.49 L99.88,96.22 L100.24,95.71 L100.69,95.00 L101.18,94.09 L101.72,93.00 L102.28,91.76 L102.86,90.37 L103.45,88.86 L104.06,87.23 L104.67,85.49 L105.29,83.67 L105.91,81.77 L106.53,79.80 L107.42,77.86 L108.31,75.87 L109.20,73.86 L110.10,71.83 L110.99,69.79 L111.89,67.76 L112.79,65.74 L113.69,63.76 L114.60,61.81 L115.50,59.92 L116.40,58.08 L117.31,56.31 L118.22,54.62 L119.12,53.02 L120.03,51.51 L120.94,50.10 L121.85,48.80 L122.75,47.62 L123.65,46.55 L124.55,45.61 L125.44,44.81 L126.32,44.14 L127.18,43.62 L128.00,43.26" fill="none" stroke="rgba(230,255,68,0.6066666666666667)" stroke-width="1.35" stroke-linecap="round" stroke-linejoin="round"/>
    <path d="M0.00,85.87 L0.76,87.60 L1.53,89.20 L2.29,90.68 L3.04,92.02 L3.79,93.21 L4.52,94.25 L5.24,95.12 L5.94,95.82 L6.59,96.34 L7.18,96.68 L7.68,96.84 L8.07,96.86 L8.35,96.78 L8.58,96.64 L8.81,96.44 L9.08,96.15 L9.40,95.75 L9.78,95.22 L10.18,94.56 L10.62,93.77 L11.07,92.85 L11.53,91.82 L12.01,90.69 L12.49,89.45 L13.10,88.19 L13.72,86.85 L14.34,85.43 L14.97,83.96 L15.60,82.44 L16.23,80.88 L16.87,79.29 L17.51,77.69 L18.15,76.07 L18.79,74.47 L19.44,72.87 L20.09,71.29 L20.74,69.74 L21.39,68.22 L22.05,66.75 L22.71,65.32 L23.38,63.95 L24.05,62.63 L24.74,61.38 L25.43,60.20 L26.13,59.08 L26.85,58.03 L27.59,57.06 L28.34,56.16 L29.13,55.33 L29.95,54.59 L30.80,53.92 L31.69,53.35 L32.62,52.87 L33.57,52.49 L34.54,52.22 L35.52,52.07 L36.48,52.01 L37.41,52.05 L38.31,52.16 L39.17,52.34 L39.99,52.57 L40.78,52.83 L41.53,53.12 L42.24,53.42 L42.93,53.73 L43.59,54.03 L44.23,54.33 L44.84,54.61 L45.42,54.87 L45.98,55.10 L46.50,55.30 L47.00,55.46 L47.46,55.59 L47.90,55.68 L48.30,55.74 L48.68,55.77 L49.04,55.76 L49.40,55.73 L49.75,55.66 L50.12,55.55 L50.51,55.40 L50.93,55.19 L51.37,54.93 L51.84,54.61 L52.34,54.22 L52.86,53.76 L53.40,53.24 L53.96,52.66 L54.53,52.01 L55.12,51.32 L55.72,50.57 L56.33,49.78 L56.94,48.96 L57.57,48.11 L58.20,47.23 L58.84,46.34 L59.49,45.44 L60.15,44.54 L60.81,43.65 L61.49,42.77 L62.18,41.91 L62.89,41.09 L63.62,40.29 L64.38,39.54 L65.17,38.84 L66.01,38.19 L66.92,37.62 L67.90,37.13 L68.96,36.77 L70.10,36.55 L71.28,36.53 L72.46,36.71 L73.60,37.09 L74.65,37.63 L75.62,38.31 L76.51,39.10 L77.34,40.00 L78.12,41.00 L78.86,42.10 L79.58,43.29 L80.29,44.58 L80.98,45.98 L81.65,47.46 L82.32,49.05 L82.99,50.72 L83.65,52.48 L84.30,54.33 L84.96,56.24 L85.61,58.22 L86.25,60.26 L86.90,62.35 L87.55,64.48 L88.19,66.64 L88.83,68.82 L89.47,71.01 L90.11,73.19 L90.75,75.37 L91.39,77.51 L92.02,79.63 L92.66,81.69 L93.29,83.70 L93.92,85.63 L94.54,87.48 L95.17,89.24 L95.78,90.89 L96.39,92.43 L97.00,93.83 L97.59,95.10 L98.16,96.22 L98.71,97.17 L99.22,97.94 L99.68,98.53 L100.05,98.93 L100.30,99.13 L100.38,99.20 L100.30,99.20 L100.14,99.21 L100.04,99.25 L100.10,99.23 L100.32,99.08 L100.68,98.75 L101.12,98.22 L101.63,97.50 L102.17,96.61 L102.74,95.55 L103.33,94.33 L103.93,92.97 L104.54,91.48 L105.16,89.87 L105.78,88.15 L106.41,86.34 L107.04,84.44 L107.67,82.47 L108.30,80.43 L108.94,78.34 L109.57,76.21 L110.34,74.10 L111.11,71.96 L111.87,69.82 L112.64,67.69 L113.41,65.58 L114.19,63.49 L114.96,61.44 L115.73,59.45 L116.50,57.51 L117.28,55.64 L118.05,53.85 L118.83,52.14 L119.60,50.53 L120.38,49.02 L121.15,47.61 L121.93,46.32 L122.71,45.14 L123.48,44.08 L124.26,43.15 L125.03,42.35 L125.79,41.69 L126.55,41.16 L127.29,40.77 L128.00,40.52" fill="none" stroke="rgba(230,255,68,0.6533333333333333)" stroke-width="1.4249999999999998" stroke-linecap="round" stroke-linejoin="round"/>
    <path d="M0.00,90.24 L0.64,91.80 L1.28,93.22 L1.92,94.51 L2.56,95.66 L3.20,96.67 L3.84,97.52 L4.48,98.23 L5.12,98.79 L5.76,99.19 L6.40,99.44 L7.04,99.53 L7.68,99.48 L8.32,99.28 L8.96,98.93 L9.60,98.44 L10.24,97.81 L10.88,97.05 L11.52,96.17 L12.16,95.17 L12.80,94.07 L13.44,92.86 L14.08,91.55 L14.72,90.17 L15.36,88.70 L16.00,87.18 L16.64,85.60 L17.28,83.97 L17.92,82.30 L18.56,80.62 L19.20,78.91 L19.84,77.20 L20.48,75.50 L21.12,73.81 L21.76,72.14 L22.40,70.51 L23.04,68.91 L23.68,67.36 L24.32,65.87 L24.96,64.44 L25.60,63.08 L26.24,61.79 L26.88,60.58 L27.52,59.46 L28.16,58.42 L28.80,57.46 L29.44,56.60 L30.08,55.83 L30.72,55.16 L31.36,54.57 L32.00,54.08 L32.64,53.67 L33.28,53.35 L33.92,53.12 L34.56,52.96 L35.20,52.88 L35.84,52.87 L36.48,52.93 L37.12,53.05 L37.76,53.22 L38.40,53.43 L39.04,53.69 L39.68,53.98 L40.32,54.30 L40.96,54.64 L41.60,54.98 L42.24,55.34 L42.88,55.69 L43.52,56.03 L44.16,56.36 L44.80,56.66 L45.44,56.94 L46.08,57.18 L46.72,57.38 L47.36,57.54 L48.00,57.65 L48.64,57.70 L49.28,57.71 L49.92,57.65 L50.56,57.54 L51.20,57.36 L51.84,57.13 L52.48,56.83 L53.12,56.47 L53.76,56.05 L54.40,55.58 L55.04,55.05 L55.68,54.48 L56.32,53.85 L56.96,53.19 L57.60,52.49 L58.24,51.76 L58.88,51.00 L59.52,50.23 L60.16,49.45 L60.80,48.66 L61.44,47.88 L62.08,47.11 L62.72,46.36 L63.36,45.64 L64.00,44.96 L64.64,44.32 L65.28,43.73 L65.92,43.21 L66.56,42.75 L67.20,42.36 L67.84,42.06 L68.48,41.84 L69.12,41.72 L69.76,41.70 L70.40,41.78 L71.04,41.97 L71.68,42.27 L72.32,42.68 L72.96,43.21 L73.60,43.86 L74.24,44.63 L74.88,45.51 L75.52,46.51 L76.16,47.63 L76.80,48.86 L77.44,50.20 L78.08,51.64 L78.72,53.18 L79.36,54.82 L80.00,56.55 L80.64,58.35 L81.28,60.23 L81.92,62.17 L82.56,64.17 L83.20,66.21 L83.84,68.29 L84.48,70.40 L85.12,72.52 L85.76,74.65 L86.40,76.77 L87.04,78.87 L87.68,80.95 L88.32,82.98 L88.96,84.97 L89.60,86.89 L90.24,88.74 L90.88,90.51 L91.52,92.19 L92.16,93.77 L92.80,95.23 L93.44,96.58 L94.08,97.80 L94.72,98.89 L95.36,99.83 L96.00,100.63 L96.64,101.29 L97.28,101.78 L97.92,102.12 L98.56,102.30 L99.20,102.32 L99.84,102.18 L100.48,101.88 L101.12,101.41 L101.76,100.79 L102.40,100.02 L103.04,99.10 L103.68,98.03 L104.32,96.82 L104.96,95.47 L105.60,94.01 L106.24,92.42 L106.88,90.72 L107.52,88.93 L108.16,87.04 L108.80,85.07 L109.44,83.03 L110.08,80.93 L110.72,78.78 L111.36,76.59 L112.00,74.38 L112.64,72.15 L113.28,69.92 L113.92,67.70 L114.56,65.49 L115.20,63.32 L115.84,61.18 L116.48,59.10 L117.12,57.07 L117.76,55.11 L118.40,53.24 L119.04,51.45 L119.68,49.75 L120.32,48.15 L120.96,46.66 L121.60,45.28 L122.24,44.02 L122.88,42.88 L123.52,41.86 L124.16,40.96 L124.80,40.20 L125.44,39.56 L126.08,39.05 L126.72,38.66 L127.36,38.39 L128.00,38.25" fill="none" stroke="rgba(230,255,68,0.7)" stroke-width="1.5" stroke-linecap="round" stroke-linejoin="round"/>
    <path d="M0.00,94.07 L0.52,95.43 L1.05,96.66 L1.59,97.76 L2.15,98.74 L2.74,99.59 L3.37,100.32 L4.07,100.91 L4.87,101.35 L5.76,101.61 L6.71,101.64 L7.67,101.45 L8.60,101.07 L9.50,100.52 L10.37,99.83 L11.21,99.01 L12.03,98.06 L12.84,97.00 L13.64,95.83 L14.44,94.57 L15.23,93.20 L16.01,91.76 L16.80,90.24 L17.58,88.66 L18.35,87.02 L19.00,85.29 L19.65,83.52 L20.29,81.74 L20.94,79.94 L21.58,78.13 L22.21,76.33 L22.85,74.55 L23.49,72.80 L24.12,71.08 L24.75,69.40 L25.38,67.78 L26.00,66.21 L26.62,64.72 L27.24,63.30 L27.85,61.97 L28.46,60.73 L29.05,59.58 L29.64,58.53 L30.21,57.59 L30.77,56.76 L31.30,56.04 L31.81,55.44 L32.28,54.94 L32.72,54.55 L33.11,54.26 L33.45,54.05 L33.75,53.91 L34.01,53.82 L34.27,53.77 L34.53,53.75 L34.82,53.76 L35.15,53.82 L35.52,53.91 L35.94,54.06 L36.41,54.25 L36.91,54.50 L37.44,54.79 L38.01,55.12 L38.60,55.49 L39.21,55.89 L39.84,56.30 L40.50,56.73 L41.17,57.16 L41.87,57.60 L42.59,58.02 L43.33,58.42 L44.11,58.80 L44.91,59.15 L45.74,59.45 L46.60,59.70 L47.48,59.89 L48.40,60.00 L49.32,60.04 L50.26,59.99 L51.19,59.85 L52.10,59.63 L52.99,59.34 L53.86,58.97 L54.69,58.54 L55.50,58.05 L56.28,57.52 L57.04,56.95 L57.77,56.34 L58.49,55.70 L59.19,55.04 L59.88,54.36 L60.55,53.67 L61.21,52.98 L61.86,52.28 L62.49,51.60 L63.12,50.94 L63.73,50.30 L64.33,49.70 L64.90,49.14 L65.46,48.64 L65.99,48.19 L66.49,47.81 L66.94,47.51 L67.34,47.28 L67.69,47.12 L67.96,47.02 L68.18,46.98 L68.35,46.96 L68.51,46.97 L68.68,47.01 L68.92,47.10 L69.22,47.27 L69.58,47.55 L70.01,47.95 L70.48,48.47 L71.00,49.14 L71.54,49.93 L72.10,50.85 L72.68,51.91 L73.28,53.08 L73.88,54.37 L74.49,55.76 L75.11,57.26 L75.73,58.86 L76.35,60.54 L76.98,62.30 L77.61,64.13 L78.24,66.03 L78.87,67.98 L79.51,69.97 L80.15,71.99 L80.78,74.03 L81.42,76.09 L82.07,78.15 L82.71,80.20 L83.35,82.23 L84.00,84.22 L84.65,86.18 L85.30,88.09 L85.95,89.93 L86.61,91.71 L87.27,93.40 L87.94,95.01 L88.62,96.53 L89.31,97.96 L90.02,99.28 L90.76,100.50 L91.53,101.62 L92.36,102.63 L93.28,103.54 L94.33,104.32 L95.54,104.92 L96.91,105.26 L98.35,105.26 L99.71,104.93 L100.92,104.33 L101.96,103.55 L102.87,102.65 L103.70,101.64 L104.47,100.51 L105.21,99.27 L105.91,97.92 L106.60,96.45 L107.28,94.88 L107.95,93.20 L108.61,91.43 L109.27,89.55 L109.92,87.60 L110.57,85.57 L111.22,83.47 L111.87,81.31 L112.51,79.11 L113.16,76.87 L113.80,74.61 L114.44,72.33 L115.08,70.05 L115.72,67.78 L116.23,65.49 L116.74,63.24 L117.24,61.03 L117.75,58.87 L118.26,56.77 L118.76,54.74 L119.27,52.79 L119.77,50.92 L120.27,49.16 L120.77,47.50 L121.27,45.94 L121.77,44.50 L122.26,43.18 L122.76,41.98 L123.25,40.91 L123.73,39.96 L124.22,39.13 L124.70,38.43 L125.19,37.84 L125.69,37.37 L126.20,37.00 L126.75,36.73 L127.35,36.57 L128.00,36.53" fill="none" stroke="rgba(230,255,68,0.6533333333333333)" stroke-width="1.4249999999999998" stroke-linecap="round" stroke-linejoin="round"/>
    <path d="M0.00,97.25 L0.42,98.42 L0.87,99.47 L1.36,100.42 L1.94,101.27 L2.63,102.00 L3.48,102.60 L4.51,102.99 L5.66,103.12 L6.83,102.97 L7.98,102.59 L9.07,102.03 L10.12,101.31 L11.14,100.45 L12.12,99.47 L13.09,98.37 L14.04,97.16 L14.98,95.85 L15.92,94.44 L16.84,92.95 L17.76,91.39 L18.68,89.75 L19.59,88.07 L20.50,86.33 L21.41,84.56 L22.06,82.68 L22.70,80.78 L23.34,78.89 L23.98,77.00 L24.62,75.13 L25.25,73.29 L25.88,71.48 L26.50,69.72 L27.12,68.02 L27.73,66.39 L28.34,64.83 L28.94,63.35 L29.53,61.97 L30.11,60.69 L30.68,59.51 L31.23,58.45 L31.75,57.52 L32.25,56.71 L32.70,56.03 L33.11,55.49 L33.46,55.08 L33.72,54.81 L33.90,54.65 L33.97,54.59 L33.94,54.60 L33.81,54.64 L33.63,54.67 L33.44,54.68 L33.29,54.66 L33.22,54.65 L33.25,54.65 L33.38,54.69 L33.62,54.79 L33.93,54.96 L34.32,55.19 L34.77,55.49 L35.27,55.84 L35.82,56.25 L36.41,56.70 L37.03,57.18 L37.69,57.69 L38.39,58.23 L39.12,58.77 L39.89,59.32 L40.70,59.86 L41.56,60.39 L42.47,60.90 L43.44,61.38 L44.46,61.81 L45.55,62.18 L46.69,62.48 L47.87,62.68 L49.09,62.78 L50.33,62.76 L51.55,62.63 L52.74,62.40 L53.89,62.07 L54.98,61.66 L56.02,61.18 L56.99,60.65 L57.91,60.08 L58.78,59.49 L59.61,58.87 L60.40,58.24 L61.15,57.61 L61.87,56.97 L62.56,56.35 L63.22,55.74 L63.85,55.16 L64.45,54.61 L65.02,54.10 L65.55,53.65 L66.04,53.24 L66.48,52.91 L66.85,52.65 L67.15,52.46 L67.35,52.35 L67.45,52.30 L67.44,52.29 L67.31,52.31 L67.09,52.31 L66.82,52.28 L66.58,52.21 L66.42,52.14 L66.36,52.10 L66.43,52.14 L66.61,52.29 L66.90,52.57 L67.26,53.00 L67.68,53.57 L68.15,54.29 L68.65,55.14 L69.19,56.13 L69.74,57.24 L70.31,58.48 L70.90,59.82 L71.49,61.27 L72.10,62.82 L72.71,64.45 L73.33,66.16 L73.95,67.94 L74.57,69.78 L75.20,71.67 L75.84,73.60 L76.47,75.55 L77.11,77.53 L77.75,79.52 L78.40,81.50 L79.05,83.47 L79.70,85.42 L80.36,87.34 L81.02,89.22 L81.69,91.06 L82.36,92.83 L83.05,94.54 L83.75,96.18 L84.47,97.75 L85.22,99.25 L86.00,100.67 L86.84,102.02 L87.75,103.31 L88.79,104.53 L90.00,105.69 L91.47,106.74 L93.26,107.59 L95.36,108.07 L97.58,108.03 L99.65,107.49 L101.40,106.59 L102.83,105.51 L104.01,104.33 L105.02,103.08 L105.92,101.76 L106.74,100.35 L107.51,98.86 L108.25,97.28 L108.97,95.61 L109.66,93.85 L110.35,92.00 L111.02,90.06 L111.69,88.04 L112.35,85.95 L113.01,83.80 L113.66,81.59 L114.31,79.34 L114.96,77.06 L115.61,74.75 L116.25,72.43 L116.89,70.12 L117.53,67.81 L118.16,65.52 L118.80,63.27 L119.17,60.99 L119.54,58.76 L119.92,56.60 L120.28,54.51 L120.65,52.50 L121.01,50.59 L121.38,48.77 L121.73,47.06 L122.09,45.46 L122.44,43.98 L122.78,42.62 L123.12,41.39 L123.45,40.29 L123.77,39.32 L124.07,38.48 L124.36,37.77 L124.64,37.16 L124.92,36.65 L125.22,36.21 L125.58,35.84 L126.02,35.55 L126.58,35.37 L127.25,35.31 L128.00,35.40" fill="none" stroke="rgba(230,255,68,0.6066666666666667)" stroke-width="1.35" stroke-linecap="round" stroke-linejoin="round"/>
    <path d="M0.00,99.72 L0.36,100.71 L0.81,101.63 L1.41,102.46 L2.22,103.17 L3.26,103.69 L4.48,103.92 L5.77,103.85 L7.06,103.52 L8.30,102.98 L9.49,102.27 L10.65,101.41 L11.78,100.41 L12.89,99.30 L13.98,98.07 L15.06,96.73 L16.13,95.30 L17.19,93.78 L18.25,92.17 L19.30,90.50 L20.35,88.77 L21.39,86.99 L22.43,85.17 L23.46,83.33 L24.49,81.47 L25.13,79.49 L25.77,77.52 L26.41,75.56 L27.04,73.64 L27.66,71.75 L28.28,69.91 L28.90,68.14 L29.50,66.43 L30.10,64.81 L30.69,63.28 L31.27,61.84 L31.83,60.52 L32.37,59.31 L32.89,58.23 L33.38,57.29 L33.83,56.49 L34.23,55.85 L34.56,55.37 L34.81,55.05 L34.94,54.89 L34.94,54.88 L34.77,55.00 L34.41,55.19 L33.89,55.40 L33.23,55.57 L32.53,55.65 L31.86,55.63 L31.31,55.55 L30.92,55.44 L30.71,55.35 L30.66,55.32 L30.75,55.37 L30.97,55.51 L31.28,55.73 L31.68,56.04 L32.14,56.43 L32.66,56.88 L33.23,57.40 L33.85,57.96 L34.51,58.56 L35.21,59.20 L35.96,59.86 L36.76,60.54 L37.61,61.22 L38.53,61.91 L39.50,62.60 L40.55,63.26 L41.68,63.89 L42.90,64.47 L44.21,64.99 L45.60,65.41 L47.06,65.73 L48.57,65.92 L50.10,65.97 L51.61,65.88 L53.08,65.65 L54.48,65.32 L55.81,64.89 L57.04,64.39 L58.18,63.85 L59.24,63.27 L60.22,62.67 L61.13,62.07 L61.97,61.47 L62.76,60.89 L63.49,60.33 L64.17,59.79 L64.80,59.30 L65.37,58.85 L65.89,58.46 L66.34,58.13 L66.71,57.87 L67.00,57.69 L67.18,57.58 L67.24,57.55 L67.16,57.57 L66.92,57.64 L66.53,57.70 L66.01,57.73 L65.40,57.69 L64.79,57.56 L64.25,57.38 L63.84,57.17 L63.58,57.00 L63.49,56.92 L63.53,56.96 L63.71,57.14 L63.98,57.47 L64.33,57.96 L64.74,58.60 L65.19,59.38 L65.69,60.31 L66.21,61.36 L66.76,62.53 L67.32,63.82 L67.90,65.21 L68.49,66.70 L69.09,68.27 L69.69,69.92 L70.31,71.64 L70.93,73.41 L71.55,75.23 L72.19,77.09 L72.82,78.98 L73.46,80.88 L74.11,82.79 L74.76,84.70 L75.42,86.60 L76.09,88.47 L76.76,90.32 L77.45,92.13 L78.14,93.90 L78.86,95.62 L79.59,97.29 L80.36,98.91 L81.16,100.47 L82.02,101.99 L82.97,103.47 L84.03,104.92 L85.28,106.35 L86.80,107.75 L88.71,109.05 L91.09,110.13 L93.90,110.72 L96.88,110.62 L99.62,109.87 L101.90,108.69 L103.70,107.31 L105.14,105.86 L106.33,104.37 L107.36,102.86 L108.27,101.29 L109.11,99.67 L109.90,97.98 L110.65,96.22 L111.38,94.37 L112.09,92.45 L112.78,90.45 L113.46,88.38 L114.14,86.24 L114.80,84.04 L115.46,81.79 L116.12,79.50 L116.77,77.18 L117.42,74.84 L118.06,72.49 L118.70,70.13 L119.34,67.79 L119.97,65.48 L120.61,63.20 L121.23,60.97 L121.86,58.80 L122.09,56.58 L122.32,54.45 L122.55,52.39 L122.78,50.43 L123.00,48.58 L123.21,46.83 L123.41,45.21 L123.61,43.71 L123.80,42.34 L123.97,41.11 L124.13,40.01 L124.26,39.06 L124.36,38.24 L124.43,37.56 L124.45,36.98 L124.45,36.49 L124.43,36.04 L124.47,35.61 L124.65,35.19 L125.01,34.84 L125.56,34.61 L126.28,34.55 L127.10,34.66 L128.00,34.94" fill="none" stroke="rgba(230,255,68,0.5599999999999999)" stroke-width="1.275" stroke-linecap="round" stroke-linejoin="round"/>
    <path d="M0.00,101.40 L0.42,102.28 L1.06,103.06 L1.99,103.68 L3.16,104.04 L4.47,104.09 L5.81,103.85 L7.15,103.38 L8.45,102.72 L9.73,101.89 L10.99,100.92 L12.22,99.81 L13.45,98.58 L14.66,97.24 L15.86,95.79 L17.06,94.25 L18.25,92.63 L19.43,90.93 L20.61,89.16 L21.78,87.35 L22.95,85.49 L24.11,83.61 L25.27,81.71 L26.43,79.80 L27.58,77.91 L28.22,75.87 L28.84,73.87 L29.47,71.91 L30.09,70.00 L30.70,68.15 L31.30,66.38 L31.89,64.69 L32.47,63.10 L33.03,61.62 L33.58,60.25 L34.11,59.01 L34.61,57.91 L35.07,56.96 L35.49,56.17 L35.84,55.56 L36.11,55.13 L36.28,54.89 L36.30,54.85 L36.14,54.99 L35.76,55.29 L35.11,55.70 L34.19,56.13 L33.04,56.49 L31.76,56.68 L30.50,56.68 L29.39,56.52 L28.52,56.27 L27.91,56.02 L27.54,55.83 L27.39,55.73 L27.42,55.74 L27.58,55.87 L27.86,56.11 L28.23,56.46 L28.68,56.89 L29.19,57.41 L29.75,58.00 L30.37,58.65 L31.03,59.36 L31.74,60.10 L32.50,60.88 L33.32,61.69 L34.19,62.52 L35.12,63.37 L36.13,64.22 L37.23,65.06 L38.41,65.89 L39.71,66.69 L41.12,67.45 L42.64,68.12 L44.27,68.70 L46.00,69.15 L47.79,69.45 L49.60,69.59 L51.40,69.56 L53.14,69.37 L54.79,69.05 L56.33,68.63 L57.75,68.14 L59.05,67.60 L60.23,67.03 L61.31,66.46 L62.28,65.89 L63.16,65.35 L63.96,64.84 L64.68,64.36 L65.31,63.95 L65.86,63.58 L66.32,63.29 L66.68,63.07 L66.92,62.92 L67.04,62.86 L67.02,62.86 L66.82,62.93 L66.45,63.03 L65.88,63.14 L65.15,63.20 L64.29,63.18 L63.37,63.04 L62.49,62.80 L61.72,62.48 L61.12,62.14 L60.71,61.85 L60.49,61.66 L60.43,61.59 L60.51,61.67 L60.70,61.92 L60.99,62.32 L61.34,62.88 L61.75,63.59 L62.21,64.44 L62.70,65.42 L63.22,66.53 L63.76,67.75 L64.32,69.07 L64.90,70.49 L65.49,72.00 L66.09,73.58 L66.70,75.22 L67.31,76.92 L67.94,78.67 L68.57,80.46 L69.21,82.27 L69.86,84.09 L70.52,85.93 L71.18,87.76 L71.86,89.59 L72.54,91.39 L73.24,93.18 L73.96,94.93 L74.71,96.66 L75.48,98.35 L76.29,100.00 L77.16,101.63 L78.10,103.25 L79.16,104.85 L80.39,106.47 L81.86,108.09 L83.70,109.72 L86.05,111.27 L89.01,112.54 L92.53,113.22 L96.23,113.05 L99.62,112.09 L102.40,110.63 L104.57,108.96 L106.27,107.24 L107.64,105.53 L108.79,103.83 L109.80,102.11 L110.71,100.36 L111.55,98.56 L112.34,96.71 L113.09,94.79 L113.83,92.80 L114.54,90.74 L115.23,88.62 L115.92,86.44 L116.59,84.20 L117.26,81.92 L117.92,79.60 L118.58,77.25 L119.23,74.88 L119.88,72.50 L120.52,70.12 L121.16,67.76 L121.79,65.42 L122.42,63.12 L123.04,60.87 L123.66,58.69 L124.28,56.58 L124.88,54.55 L124.97,52.47 L125.05,50.48 L125.13,48.60 L125.19,46.84 L125.25,45.20 L125.29,43.70 L125.31,42.34 L125.32,41.13 L125.29,40.07 L125.22,39.16 L125.10,38.41 L124.91,37.80 L124.63,37.32 L124.26,36.90 L123.84,36.50 L123.44,36.03 L123.20,35.49 L123.25,34.95 L123.60,34.51 L124.22,34.25 L125.02,34.19 L125.94,34.34 L126.95,34.67 L128.00,35.16" fill="none" stroke="rgba(230,255,68,0.5133333333333333)" stroke-width="1.2000000000000002" stroke-linecap="round" stroke-linejoin="round"/>
    <path d="M0.00,102.26 L0.68,102.99 L1.68,103.49 L2.90,103.70 L4.23,103.61 L5.61,103.26 L6.99,102.69 L8.37,101.93 L9.73,101.01 L11.09,99.94 L12.43,98.73 L13.77,97.40 L15.10,95.95 L16.42,94.40 L17.74,92.77 L19.06,91.05 L20.36,89.27 L21.67,87.43 L22.97,85.54 L24.26,83.62 L25.56,81.69 L26.84,79.74 L28.12,77.81 L29.40,75.89 L30.66,74.01 L31.29,71.98 L31.90,70.00 L32.51,68.08 L33.11,66.25 L33.69,64.50 L34.27,62.86 L34.82,61.32 L35.36,59.91 L35.88,58.64 L36.36,57.52 L36.80,56.56 L37.19,55.78 L37.51,55.19 L37.73,54.81 L37.83,54.65 L37.76,54.72 L37.47,55.02 L36.90,55.52 L35.97,56.16 L34.66,56.85 L32.99,57.43 L31.09,57.77 L29.18,57.80 L27.44,57.56 L26.02,57.16 L24.97,56.71 L24.27,56.32 L23.86,56.04 L23.69,55.90 L23.71,55.91 L23.87,56.07 L24.15,56.36 L24.53,56.76 L24.98,57.27 L25.49,57.88 L26.06,58.56 L26.68,59.32 L27.34,60.13 L28.06,60.99 L28.83,61.89 L29.65,62.84 L30.53,63.80 L31.47,64.80 L32.49,65.81 L33.60,66.83 L34.81,67.85 L36.14,68.86 L37.60,69.84 L39.19,70.77 L40.93,71.62 L42.80,72.35 L44.79,72.95 L46.85,73.37 L48.94,73.60 L51.01,73.64 L53.01,73.50 L54.88,73.22 L56.62,72.82 L58.21,72.35 L59.64,71.83 L60.93,71.29 L62.07,70.76 L63.08,70.24 L63.97,69.77 L64.74,69.35 L65.40,68.98 L65.93,68.69 L66.34,68.46 L66.62,68.32 L66.74,68.26 L66.70,68.27 L66.47,68.35 L66.04,68.47 L65.40,68.60 L64.55,68.70 L63.52,68.71 L62.39,68.61 L61.22,68.36 L60.13,68.00 L59.17,67.56 L58.41,67.11 L57.87,66.70 L57.52,66.40 L57.36,66.23 L57.35,66.21 L57.47,66.35 L57.69,66.66 L57.99,67.13 L58.36,67.76 L58.78,68.53 L59.24,69.43 L59.73,70.46 L60.25,71.60 L60.79,72.85 L61.36,74.19 L61.93,75.62 L62.53,77.12 L63.13,78.69 L63.75,80.31 L64.37,81.98 L65.01,83.69 L65.66,85.42 L66.31,87.17 L66.99,88.93 L67.67,90.69 L68.37,92.45 L69.09,94.21 L69.83,95.94 L70.60,97.66 L71.41,99.37 L72.28,101.07 L73.22,102.76 L74.25,104.46 L75.44,106.19 L76.84,107.96 L78.55,109.78 L80.71,111.62 L83.50,113.39 L87.04,114.82 L91.23,115.56 L95.61,115.32 L99.61,114.15 L102.87,112.43 L105.41,110.48 L107.37,108.52 L108.93,106.59 L110.21,104.70 L111.31,102.82 L112.29,100.95 L113.18,99.05 L114.01,97.11 L114.80,95.11 L115.56,93.07 L116.29,90.96 L117.00,88.80 L117.70,86.58 L118.38,84.31 L119.06,82.00 L119.73,79.65 L120.39,77.28 L121.04,74.88 L121.69,72.49 L122.33,70.09 L122.97,67.72 L123.60,65.36 L124.23,63.05 L124.85,60.80 L125.47,58.60 L126.08,56.49 L126.68,54.46 L127.27,52.54 L127.84,50.74 L127.77,48.85 L127.69,47.09 L127.59,45.46 L127.47,43.97 L127.33,42.64 L127.15,41.47 L126.93,40.47 L126.64,39.64 L126.28,39.00 L125.80,38.51 L125.17,38.17 L124.37,37.90 L123.43,37.59 L122.46,37.12 L121.67,36.46 L121.28,35.69 L121.34,34.99 L121.80,34.47 L122.53,34.21 L123.45,34.19 L124.50,34.40 L125.62,34.80 L126.79,35.37 L128.00,36.09" fill="none" stroke="rgba(230,255,68,0.4666666666666666)" stroke-width="1.125" stroke-linecap="round" stroke-linejoin="round"/>
    <path d="M0.00,102.28 L1.04,102.70 L2.30,102.81 L3.67,102.63 L5.10,102.19 L6.55,101.54 L8.01,100.69 L9.47,99.68 L10.93,98.51 L12.39,97.21 L13.84,95.78 L15.29,94.25 L16.73,92.61 L18.18,90.89 L19.61,89.10 L21.05,87.24 L22.48,85.34 L23.90,83.40 L25.33,81.43 L26.74,79.46 L28.15,77.49 L29.56,75.54 L30.96,73.62 L32.35,71.74 L33.73,69.93 L34.33,67.96 L34.93,66.07 L35.51,64.26 L36.08,62.57 L36.63,60.99 L37.16,59.54 L37.66,58.24 L38.13,57.10 L38.55,56.13 L38.92,55.36 L39.21,54.80 L39.39,54.46 L39.44,54.38 L39.29,54.56 L38.88,55.02 L38.13,55.72 L36.94,56.61 L35.24,57.57 L33.05,58.41 L30.50,58.93 L27.85,59.02 L25.42,58.69 L23.41,58.10 L21.89,57.42 L20.84,56.80 L20.17,56.31 L19.81,56.01 L19.69,55.89 L19.75,55.94 L19.95,56.16 L20.26,56.53 L20.65,57.03 L21.12,57.64 L21.64,58.35 L22.22,59.14 L22.85,60.01 L23.52,60.94 L24.24,61.92 L25.02,62.95 L25.84,64.02 L26.72,65.13 L27.67,66.27 L28.69,67.43 L29.80,68.61 L31.02,69.81 L32.35,71.01 L33.82,72.20 L35.45,73.37 L37.24,74.48 L39.20,75.50 L41.32,76.39 L43.57,77.12 L45.90,77.65 L48.26,77.97 L50.58,78.08 L52.81,77.99 L54.89,77.74 L56.80,77.37 L58.52,76.92 L60.06,76.43 L61.41,75.93 L62.59,75.45 L63.60,75.01 L64.46,74.62 L65.16,74.29 L65.70,74.03 L66.08,73.85 L66.29,73.76 L66.31,73.75 L66.14,73.81 L65.74,73.92 L65.10,74.06 L64.23,74.19 L63.15,74.26 L61.88,74.22 L60.52,74.03 L59.15,73.69 L57.86,73.23 L56.74,72.68 L55.82,72.11 L55.13,71.60 L54.66,71.18 L54.39,70.90 L54.28,70.77 L54.32,70.81 L54.47,71.01 L54.71,71.38 L55.03,71.91 L55.41,72.58 L55.83,73.39 L56.30,74.33 L56.79,75.38 L57.32,76.54 L57.87,77.80 L58.44,79.14 L59.02,80.56 L59.62,82.04 L60.24,83.58 L60.87,85.17 L61.51,86.80 L62.17,88.45 L62.85,90.13 L63.54,91.83 L64.25,93.53 L64.99,95.24 L65.76,96.95 L66.56,98.67 L67.42,100.39 L68.34,102.12 L69.35,103.87 L70.49,105.66 L71.81,107.50 L73.38,109.42 L75.34,111.41 L77.84,113.45 L81.08,115.40 L85.17,116.98 L89.98,117.76 L95.00,117.43 L99.57,116.08 L103.31,114.11 L106.20,111.91 L108.43,109.70 L110.17,107.55 L111.60,105.48 L112.80,103.46 L113.85,101.46 L114.80,99.45 L115.67,97.43 L116.50,95.37 L117.28,93.26 L118.03,91.11 L118.76,88.91 L119.47,86.66 L120.16,84.37 L120.85,82.03 L121.52,79.67 L122.19,77.28 L122.85,74.88 L123.50,72.47 L124.15,70.06 L124.78,67.68 L125.42,65.32 L126.04,63.01 L126.66,60.75 L127.28,58.55 L127.88,56.44 L128.47,54.42 L129.05,52.51 L129.62,50.72 L130.16,49.08 L130.69,47.59 L130.43,45.98 L130.15,44.53 L129.83,43.25 L129.47,42.14 L129.04,41.23 L128.53,40.52 L127.89,40.01 L127.09,39.70 L126.06,39.55 L124.76,39.48 L123.19,39.32 L121.51,38.89 L120.03,38.09 L119.08,37.06 L118.76,36.04 L118.99,35.22 L119.62,34.70 L120.51,34.48 L121.58,34.53 L122.76,34.82 L124.01,35.31 L125.31,35.97 L126.65,36.79 L128.00,37.72" fill="none" stroke="rgba(230,255,68,0.42)" stroke-width="1.0499999999999998" stroke-linecap="round" stroke-linejoin="round"/>
    <path d="M0.00,101.46 L1.33,101.49 L2.77,101.23 L4.27,100.71 L5.81,99.97 L7.37,99.04 L8.94,97.94 L10.51,96.69 L12.08,95.30 L13.65,93.79 L15.22,92.18 L16.79,90.47 L18.35,88.67 L19.91,86.81 L21.47,84.90 L23.03,82.94 L24.58,80.96 L26.13,78.96 L27.67,76.97 L29.21,74.99 L30.74,73.04 L32.26,71.14 L33.77,69.29 L35.27,67.52 L36.76,65.85 L37.34,64.00 L37.90,62.26 L38.45,60.64 L38.97,59.16 L39.46,57.83 L39.92,56.67 L40.33,55.70 L40.67,54.94 L40.94,54.40 L41.09,54.12 L41.08,54.11 L40.86,54.40 L40.35,55.01 L39.43,55.92 L37.99,57.07 L35.91,58.32 L33.18,59.46 L29.93,60.19 L26.51,60.33 L23.33,59.90 L20.68,59.09 L18.68,58.15 L17.27,57.27 L16.35,56.56 L15.81,56.07 L15.56,55.81 L15.53,55.76 L15.65,55.91 L15.90,56.24 L16.25,56.72 L16.67,57.33 L17.16,58.06 L17.71,58.89 L18.30,59.80 L18.94,60.79 L19.62,61.85 L20.35,62.96 L21.13,64.12 L21.95,65.33 L22.83,66.57 L23.78,67.85 L24.80,69.15 L25.91,70.49 L27.12,71.85 L28.46,73.23 L29.93,74.61 L31.57,75.99 L33.39,77.34 L35.40,78.62 L37.60,79.81 L39.99,80.85 L42.51,81.69 L45.12,82.32 L47.74,82.70 L50.30,82.84 L52.73,82.78 L54.99,82.54 L57.03,82.19 L58.85,81.77 L60.45,81.31 L61.83,80.85 L63.00,80.42 L63.97,80.05 L64.74,79.74 L65.32,79.50 L65.71,79.35 L65.88,79.28 L65.84,79.29 L65.56,79.37 L65.02,79.50 L64.24,79.65 L63.19,79.76 L61.91,79.80 L60.45,79.72 L58.89,79.47 L57.33,79.06 L55.85,78.51 L54.54,77.87 L53.45,77.20 L52.60,76.57 L51.99,76.04 L51.58,75.63 L51.36,75.38 L51.30,75.30 L51.37,75.38 L51.54,75.64 L51.80,76.05 L52.13,76.61 L52.52,77.31 L52.95,78.15 L53.42,79.10 L53.92,80.16 L54.46,81.32 L55.02,82.57 L55.59,83.90 L56.19,85.30 L56.81,86.75 L57.45,88.26 L58.11,89.81 L58.79,91.40 L59.49,93.01 L60.21,94.65 L60.97,96.31 L61.76,97.99 L62.60,99.69 L63.51,101.42 L64.49,103.18 L65.58,104.98 L66.83,106.85 L68.29,108.80 L70.06,110.85 L72.27,113.01 L75.10,115.22 L78.77,117.33 L83.38,119.00 L88.77,119.80 L94.37,119.40 L99.48,117.89 L103.67,115.70 L106.93,113.25 L109.42,110.81 L111.37,108.45 L112.94,106.20 L114.25,104.03 L115.38,101.91 L116.39,99.80 L117.31,97.70 L118.17,95.57 L118.98,93.41 L119.76,91.22 L120.50,88.99 L121.23,86.71 L121.94,84.40 L122.63,82.05 L123.31,79.67 L123.99,77.27 L124.65,74.87 L125.31,72.45 L125.95,70.05 L126.59,67.66 L127.23,65.31 L127.85,63.00 L128.47,60.75 L129.08,58.56 L129.68,56.46 L130.26,54.45 L130.84,52.56 L131.39,50.80 L131.93,49.18 L132.43,47.72 L132.90,46.46 L133.32,45.39 L132.82,44.18 L132.27,43.17 L131.62,42.37 L130.87,41.80 L129.94,41.47 L128.78,41.38 L127.30,41.48 L125.41,41.67 L123.10,41.71 L120.56,41.33 L118.24,40.39 L116.60,39.04 L115.82,37.64 L115.77,36.48 L116.26,35.66 L117.11,35.20 L118.19,35.06 L119.42,35.21 L120.74,35.60 L122.13,36.19 L123.56,36.95 L125.02,37.87 L126.50,38.90 L128.00,40.04" fill="none" stroke="rgba(230,255,68,0.37333333333333324)" stroke-width="0.9749999999999999" stroke-linecap="round" stroke-linejoin="round"/>
    <path d="M0.00,99.81 L1.54,99.46 L3.14,98.87 L4.79,98.05 L6.45,97.03 L8.13,95.85 L9.81,94.52 L11.50,93.05 L13.19,91.47 L14.89,89.78 L16.58,88.00 L18.27,86.15 L19.95,84.24 L21.64,82.28 L23.32,80.29 L25.00,78.28 L26.67,76.27 L28.34,74.27 L30.00,72.30 L31.66,70.37 L33.30,68.50 L34.93,66.70 L36.55,65.00 L38.15,63.41 L39.73,61.95 L40.27,60.30 L40.78,58.79 L41.27,57.44 L41.71,56.27 L42.11,55.29 L42.44,54.54 L42.68,54.03 L42.79,53.80 L42.74,53.87 L42.46,54.27 L41.84,55.04 L40.77,56.15 L39.08,57.57 L36.63,59.14 L33.34,60.59 L29.36,61.55 L25.11,61.75 L21.13,61.20 L17.83,60.14 L15.33,58.91 L13.57,57.75 L12.41,56.80 L11.71,56.12 L11.35,55.71 L11.23,55.56 L11.29,55.64 L11.49,55.92 L11.80,56.38 L12.19,56.99 L12.65,57.74 L13.17,58.60 L13.73,59.56 L14.34,60.61 L14.99,61.73 L15.69,62.92 L16.42,64.17 L17.20,65.46 L18.03,66.80 L18.92,68.17 L19.86,69.59 L20.88,71.04 L21.99,72.52 L23.20,74.04 L24.53,75.58 L26.01,77.14 L27.65,78.72 L29.49,80.28 L31.54,81.81 L33.81,83.27 L36.31,84.60 L39.00,85.75 L41.83,86.68 L44.73,87.34 L47.61,87.74 L50.39,87.88 L53.00,87.80 L55.38,87.56 L57.52,87.20 L59.39,86.78 L61.00,86.34 L62.36,85.91 L63.48,85.54 L64.36,85.23 L65.01,84.99 L65.42,84.84 L65.60,84.78 L65.53,84.80 L65.19,84.89 L64.57,85.03 L63.67,85.18 L62.49,85.29 L61.06,85.32 L59.43,85.22 L57.69,84.95 L55.92,84.50 L54.24,83.89 L52.72,83.17 L51.42,82.41 L50.38,81.67 L49.58,81.01 L49.02,80.47 L48.66,80.08 L48.48,79.85 L48.44,79.80 L48.53,79.92 L48.72,80.20 L48.99,80.64 L49.32,81.22 L49.72,81.94 L50.16,82.78 L50.64,83.73 L51.15,84.79 L51.70,85.94 L52.27,87.17 L52.87,88.48 L53.50,89.85 L54.15,91.28 L54.83,92.76 L55.53,94.28 L56.27,95.85 L57.05,97.45 L57.87,99.09 L58.75,100.77 L59.70,102.49 L60.75,104.27 L61.93,106.12 L63.29,108.06 L64.90,110.11 L66.87,112.28 L69.34,114.57 L72.50,116.92 L76.58,119.15 L81.67,120.90 L87.57,121.71 L93.69,121.24 L99.30,119.60 L103.93,117.22 L107.55,114.55 L110.33,111.88 L112.49,109.32 L114.22,106.89 L115.65,104.57 L116.87,102.33 L117.95,100.12 L118.92,97.93 L119.82,95.74 L120.67,93.54 L121.47,91.31 L122.24,89.04 L122.98,86.74 L123.70,84.42 L124.40,82.06 L125.10,79.68 L125.77,77.28 L126.44,74.87 L127.10,72.46 L127.75,70.07 L128.39,67.69 L129.03,65.35 L129.65,63.05 L130.27,60.81 L130.87,58.64 L131.47,56.55 L132.05,54.57 L132.61,52.70 L133.16,50.97 L133.68,49.39 L134.17,47.98 L134.62,46.76 L135.01,45.77 L135.32,45.02 L135.54,44.56 L134.67,43.90 L133.65,43.51 L132.41,43.40 L130.86,43.58 L128.87,43.98 L126.30,44.48 L123.13,44.77 L119.59,44.47 L116.28,43.35 L113.84,41.64 L112.51,39.80 L112.14,38.23 L112.46,37.06 L113.24,36.32 L114.32,35.98 L115.58,35.96 L116.97,36.23 L118.44,36.73 L119.96,37.43 L121.53,38.30 L123.12,39.32 L124.74,40.45 L126.36,41.68 L128.00,42.99" fill="none" stroke="rgba(230,255,68,0.32666666666666666)" stroke-width="0.9000000000000001" stroke-linecap="round" stroke-linejoin="round"/>
    <path d="M0.00,97.37 L1.72,96.69 L3.47,95.79 L5.25,94.69 L7.04,93.44 L8.85,92.03 L10.66,90.49 L12.47,88.84 L14.29,87.09 L16.10,85.26 L17.92,83.36 L19.73,81.41 L21.54,79.42 L23.35,77.41 L25.16,75.40 L26.95,73.39 L28.75,71.40 L30.53,69.45 L32.31,67.57 L34.07,65.75 L35.82,64.03 L37.55,62.41 L39.26,60.93 L40.95,59.60 L42.60,58.44 L43.08,57.08 L43.51,55.90 L43.89,54.93 L44.20,54.20 L44.42,53.72 L44.51,53.54 L44.41,53.69 L44.06,54.21 L43.35,55.13 L42.12,56.46 L40.20,58.15 L37.36,60.04 L33.50,61.82 L28.76,63.02 L23.63,63.29 L18.83,62.59 L14.84,61.25 L11.85,59.69 L9.76,58.23 L8.38,57.04 L7.53,56.17 L7.06,55.61 L6.87,55.36 L6.88,55.37 L7.04,55.61 L7.32,56.05 L7.68,56.67 L8.12,57.43 L8.61,58.33 L9.16,59.33 L9.74,60.44 L10.37,61.63 L11.04,62.89 L11.74,64.21 L12.48,65.59 L13.27,67.01 L14.10,68.48 L14.99,69.99 L15.94,71.54 L16.96,73.13 L18.07,74.76 L19.29,76.42 L20.62,78.12 L22.10,79.86 L23.76,81.62 L25.63,83.39 L27.72,85.15 L30.07,86.85 L32.67,88.46 L35.52,89.90 L38.57,91.12 L41.75,92.06 L44.96,92.71 L48.10,93.05 L51.08,93.12 L53.83,92.98 L56.30,92.67 L58.47,92.27 L60.34,91.84 L61.92,91.40 L63.21,91.00 L64.23,90.67 L64.98,90.42 L65.46,90.25 L65.67,90.18 L65.60,90.20 L65.25,90.29 L64.59,90.44 L63.62,90.60 L62.35,90.74 L60.80,90.79 L59.02,90.71 L57.10,90.45 L55.12,90.00 L53.20,89.37 L51.43,88.61 L49.88,87.76 L48.59,86.91 L47.57,86.12 L46.80,85.44 L46.26,84.89 L45.92,84.51 L45.76,84.30 L45.73,84.27 L45.83,84.40 L46.02,84.69 L46.30,85.14 L46.64,85.72 L47.04,86.44 L47.50,87.28 L47.99,88.22 L48.52,89.27 L49.09,90.40 L49.70,91.62 L50.33,92.91 L51.00,94.27 L51.71,95.69 L52.46,97.16 L53.25,98.69 L54.10,100.28 L55.02,101.92 L56.03,103.64 L57.15,105.43 L58.42,107.31 L59.90,109.30 L61.67,111.43 L63.83,113.70 L66.56,116.10 L70.05,118.56 L74.50,120.87 L80.00,122.67 L86.35,123.47 L92.93,122.96 L99.00,121.22 L104.06,118.68 L108.05,115.82 L111.13,112.95 L113.52,110.19 L115.42,107.59 L116.99,105.11 L118.31,102.74 L119.46,100.43 L120.50,98.17 L121.44,95.91 L122.32,93.66 L123.15,91.39 L123.95,89.10 L124.71,86.78 L125.44,84.44 L126.16,82.08 L126.86,79.70 L127.55,77.31 L128.22,74.91 L128.89,72.51 L129.54,70.13 L130.19,67.77 L130.82,65.44 L131.45,63.16 L132.06,60.94 L132.66,58.80 L133.25,56.74 L133.83,54.79 L134.38,52.96 L134.92,51.26 L135.43,49.72 L135.90,48.36 L136.32,47.21 L136.69,46.28 L136.96,45.63 L137.12,45.27 L137.12,45.27 L136.86,45.68 L135.28,45.82 L133.29,46.31 L130.73,47.07 L127.41,47.94 L123.24,48.52 L118.55,48.30 L114.11,46.98 L110.76,44.84 L108.82,42.51 L108.08,40.46 L108.20,38.91 L108.90,37.86 L109.95,37.27 L111.24,37.06 L112.69,37.18 L114.24,37.58 L115.86,38.20 L117.53,39.02 L119.23,40.00 L120.96,41.12 L122.70,42.35 L124.46,43.68 L126.23,45.08 L128.00,46.54" fill="none" stroke="rgba(230,255,68,0.2799999999999999)" stroke-width="0.8250000000000001" stroke-linecap="round" stroke-linejoin="round"/>
    <path d="M0.00,94.20 L1.87,93.22 L3.77,92.06 L5.69,90.73 L7.61,89.25 L9.55,87.66 L11.48,85.95 L13.42,84.16 L15.37,82.28 L17.31,80.35 L19.25,78.38 L21.18,76.38 L23.12,74.36 L25.05,72.35 L26.97,70.36 L28.89,68.41 L30.79,66.51 L32.69,64.68 L34.57,62.94 L36.44,61.31 L38.28,59.81 L40.10,58.47 L41.89,57.30 L43.63,56.33 L45.31,55.60 L45.68,54.64 L45.97,53.92 L46.16,53.48 L46.22,53.36 L46.08,53.59 L45.66,54.23 L44.85,55.31 L43.48,56.86 L41.31,58.83 L38.09,61.06 L33.64,63.17 L28.10,64.63 L22.06,64.94 L16.39,64.07 L11.73,62.42 L8.27,60.52 L5.86,58.75 L4.28,57.30 L3.29,56.24 L2.73,55.54 L2.48,55.19 L2.45,55.13 L2.58,55.33 L2.82,55.76 L3.17,56.38 L3.58,57.16 L4.06,58.09 L4.58,59.14 L5.15,60.30 L5.76,61.55 L6.40,62.88 L7.08,64.28 L7.80,65.74 L8.55,67.25 L9.35,68.81 L10.19,70.42 L11.08,72.06 L12.04,73.75 L13.07,75.47 L14.19,77.24 L15.41,79.05 L16.76,80.91 L18.26,82.81 L19.95,84.75 L21.86,86.72 L24.02,88.69 L26.46,90.64 L29.20,92.51 L32.24,94.22 L35.53,95.72 L39.01,96.92 L42.57,97.79 L46.10,98.31 L49.48,98.51 L52.62,98.44 L55.45,98.16 L57.95,97.75 L60.09,97.28 L61.90,96.81 L63.39,96.36 L64.56,95.98 L65.43,95.69 L66.01,95.49 L66.28,95.39 L66.26,95.40 L65.93,95.49 L65.27,95.65 L64.27,95.84 L62.95,96.02 L61.31,96.14 L59.41,96.12 L57.31,95.94 L55.11,95.54 L52.92,94.94 L50.85,94.17 L48.99,93.27 L47.40,92.33 L46.08,91.42 L45.05,90.58 L44.28,89.87 L43.74,89.31 L43.40,88.92 L43.23,88.71 L43.21,88.68 L43.30,88.81 L43.50,89.10 L43.78,89.54 L44.13,90.12 L44.55,90.83 L45.02,91.66 L45.53,92.60 L46.10,93.63 L46.71,94.76 L47.36,95.97 L48.06,97.27 L48.82,98.64 L49.63,100.08 L50.50,101.60 L51.46,103.20 L52.52,104.89 L53.72,106.67 L55.09,108.57 L56.69,110.61 L58.61,112.79 L60.98,115.13 L63.95,117.61 L67.73,120.14 L72.51,122.49 L78.37,124.31 L85.08,125.11 L92.05,124.58 L98.53,122.78 L104.02,120.13 L108.39,117.10 L111.78,114.04 L114.43,111.09 L116.53,108.31 L118.24,105.68 L119.68,103.18 L120.92,100.77 L122.02,98.42 L123.02,96.10 L123.94,93.80 L124.81,91.49 L125.63,89.18 L126.41,86.85 L127.17,84.50 L127.90,82.14 L128.61,79.77 L129.31,77.38 L129.99,75.00 L130.66,72.62 L131.32,70.26 L131.96,67.92 L132.60,65.62 L133.22,63.37 L133.84,61.18 L134.44,59.06 L135.02,57.04 L135.59,55.13 L136.14,53.33 L136.66,51.68 L137.16,50.20 L137.61,48.90 L138.01,47.81 L138.34,46.97 L138.58,46.40 L138.69,46.16 L138.61,46.30 L138.25,46.87 L137.47,47.96 L136.07,49.61 L132.87,50.78 L128.69,52.06 L123.42,52.97 L117.43,52.83 L111.72,51.27 L107.36,48.64 L104.73,45.75 L103.58,43.18 L103.49,41.20 L104.07,39.80 L105.10,38.93 L106.41,38.52 L107.91,38.47 L109.53,38.74 L111.24,39.27 L113.01,40.02 L114.82,40.96 L116.66,42.05 L118.52,43.27 L120.40,44.60 L122.29,46.02 L124.19,47.50 L126.09,49.03 L128.00,50.59" fill="none" stroke="rgba(230,255,68,0.23333333333333325)" stroke-width="0.75" stroke-linecap="round" stroke-linejoin="round"/>
    <path d="M0.00,90.38 L2.02,89.14 L4.06,87.75 L6.11,86.23 L8.17,84.58 L10.23,82.83 L12.30,81.00 L14.36,79.11 L16.43,77.16 L18.49,75.18 L20.56,73.18 L22.62,71.18 L24.67,69.20 L26.72,67.24 L28.76,65.34 L30.79,63.51 L32.80,61.76 L34.80,60.13 L36.78,58.61 L38.74,57.26 L40.65,56.07 L42.53,55.09 L44.35,54.35 L46.09,53.89 L47.73,53.74 L47.90,53.34 L47.92,53.28 L47.74,53.61 L47.26,54.36 L46.35,55.61 L44.82,57.38 L42.40,59.64 L38.78,62.21 L33.73,64.67 L27.36,66.37 L20.38,66.72 L13.83,65.64 L8.50,63.65 L4.57,61.39 L1.88,59.31 L0.11,57.61 L-0.99,56.35 L-1.63,55.52 L-1.93,55.07 L-2.00,54.95 L-1.90,55.12 L-1.68,55.53 L-1.35,56.15 L-0.96,56.96 L-0.49,57.92 L0.02,59.01 L0.57,60.22 L1.16,61.54 L1.79,62.94 L2.45,64.41 L3.14,65.95 L3.87,67.55 L4.63,69.19 L5.44,70.89 L6.29,72.62 L7.20,74.40 L8.17,76.21 L9.21,78.07 L10.34,79.98 L11.59,81.94 L12.96,83.95 L14.51,86.02 L16.24,88.15 L18.22,90.32 L20.48,92.51 L23.05,94.70 L25.97,96.82 L29.24,98.80 L32.84,100.56 L36.68,102.00 L40.65,103.06 L44.62,103.71 L48.44,103.98 L51.99,103.93 L55.21,103.62 L58.04,103.16 L60.47,102.61 L62.52,102.05 L64.21,101.52 L65.54,101.06 L66.55,100.70 L67.23,100.45 L67.60,100.31 L67.65,100.29 L67.37,100.38 L66.75,100.56 L65.77,100.79 L64.44,101.04 L62.76,101.25 L60.76,101.35 L58.50,101.29 L56.08,101.02 L53.61,100.52 L51.21,99.80 L48.98,98.91 L47.00,97.92 L45.31,96.90 L43.94,95.92 L42.86,95.04 L42.06,94.29 L41.49,93.71 L41.13,93.31 L40.95,93.08 L40.92,93.03 L41.01,93.15 L41.20,93.43 L41.49,93.86 L41.86,94.44 L42.29,95.14 L42.80,95.97 L43.36,96.90 L43.98,97.95 L44.66,99.09 L45.40,100.33 L46.22,101.67 L47.12,103.10 L48.11,104.64 L49.23,106.28 L50.49,108.04 L51.96,109.94 L53.68,111.99 L55.76,114.20 L58.32,116.58 L61.52,119.10 L65.55,121.65 L70.61,124.01 L76.74,125.82 L83.74,126.62 L91.02,126.09 L97.87,124.29 L103.76,121.57 L108.52,118.42 L112.26,115.19 L115.18,112.06 L117.50,109.10 L119.39,106.32 L120.96,103.69 L122.30,101.17 L123.48,98.73 L124.55,96.34 L125.52,93.98 L126.42,91.64 L127.27,89.30 L128.08,86.96 L128.86,84.61 L129.61,82.25 L130.34,79.89 L131.04,77.52 L131.74,75.16 L132.41,72.80 L133.07,70.47 L133.73,68.16 L134.36,65.89 L134.99,63.67 L135.60,61.52 L136.20,59.45 L136.78,57.47 L137.34,55.60 L137.88,53.85 L138.39,52.26 L138.87,50.83 L139.30,49.60 L139.68,48.58 L139.98,47.83 L140.18,47.36 L140.23,47.24 L140.07,47.53 L139.60,48.28 L138.66,49.59 L137.03,51.49 L134.33,54.00 L130.12,56.88 L123.60,58.14 L116.17,58.07 L109.08,56.21 L103.63,53.03 L100.26,49.52 L98.66,46.39 L98.31,43.93 L98.78,42.15 L99.76,40.98 L101.09,40.32 L102.63,40.09 L104.32,40.22 L106.11,40.64 L107.97,41.30 L109.89,42.18 L111.84,43.23 L113.81,44.43 L115.81,45.75 L117.83,47.17 L119.85,48.67 L121.88,50.22 L123.92,51.82 L125.96,53.45 L128.00,55.07" fill="none" stroke="rgba(230,255,68,0.18666666666666662)" stroke-width="0.675" stroke-linecap="round" stroke-linejoin="round"/>
    <path d="M0.00,85.99 L2.16,84.55 L4.34,82.98 L6.52,81.30 L8.71,79.52 L10.90,77.68 L13.09,75.77 L15.29,73.82 L17.48,71.85 L19.67,69.87 L21.85,67.90 L24.03,65.96 L26.20,64.07 L28.36,62.24 L30.51,60.50 L32.65,58.85 L34.76,57.34 L36.85,55.97 L38.90,54.78 L40.92,53.80 L42.87,53.05 L44.76,52.58 L46.54,52.43 L48.18,52.65 L49.62,53.33 L49.38,53.75 L48.83,54.63 L47.82,56.05 L46.13,58.05 L43.45,60.60 L39.42,63.52 L33.74,66.33 L26.52,68.27 L18.57,68.62 L11.15,67.31 L5.15,64.95 L0.79,62.32 L-2.17,59.92 L-4.10,57.98 L-5.31,56.54 L-6.01,55.57 L-6.36,55.03 L-6.46,54.85 L-6.39,54.98 L-6.18,55.38 L-5.87,56.01 L-5.49,56.83 L-5.04,57.82 L-4.54,58.96 L-4.00,60.23 L-3.42,61.60 L-2.81,63.07 L-2.16,64.61 L-1.49,66.23 L-0.78,67.91 L-0.04,69.64 L0.74,71.42 L1.56,73.24 L2.43,75.11 L3.35,77.01 L4.33,78.96 L5.40,80.96 L6.56,83.01 L7.83,85.12 L9.25,87.29 L10.85,89.54 L12.67,91.85 L14.75,94.23 L17.15,96.66 L19.91,99.09 L23.08,101.47 L26.66,103.71 L30.64,105.70 L34.93,107.34 L39.39,108.54 L43.86,109.26 L48.17,109.52 L52.18,109.40 L55.78,108.99 L58.95,108.40 L61.66,107.71 L63.94,107.01 L65.81,106.36 L67.30,105.79 L68.44,105.33 L69.24,104.99 L69.71,104.80 L69.85,104.74 L69.65,104.81 L69.11,105.00 L68.19,105.28 L66.90,105.61 L65.22,105.94 L63.18,106.20 L60.82,106.33 L58.21,106.26 L55.47,105.95 L52.71,105.38 L50.06,104.58 L47.63,103.61 L45.49,102.53 L43.69,101.45 L42.22,100.41 L41.06,99.48 L40.19,98.70 L39.58,98.09 L39.18,97.66 L38.97,97.41 L38.92,97.34 L39.01,97.45 L39.21,97.72 L39.51,98.15 L39.91,98.72 L40.38,99.43 L40.94,100.27 L41.58,101.23 L42.30,102.32 L43.11,103.52 L44.01,104.84 L45.03,106.28 L46.19,107.85 L47.53,109.57 L49.08,111.43 L50.92,113.46 L53.14,115.67 L55.87,118.05 L59.26,120.56 L63.51,123.09 L68.77,125.43 L75.09,127.21 L82.28,128.01 L89.79,127.53 L96.96,125.76 L103.23,123.04 L108.40,119.80 L112.50,116.43 L115.74,113.14 L118.31,110.01 L120.39,107.07 L122.12,104.30 L123.59,101.66 L124.87,99.13 L126.00,96.67 L127.04,94.25 L127.99,91.87 L128.88,89.51 L129.72,87.15 L130.52,84.80 L131.29,82.45 L132.03,80.10 L132.75,77.75 L133.46,75.41 L134.14,73.08 L134.81,70.78 L135.47,68.51 L136.11,66.28 L136.73,64.10 L137.34,61.99 L137.94,59.97 L138.51,58.04 L139.07,56.22 L139.60,54.53 L140.10,52.99 L140.56,51.63 L140.98,50.47 L141.33,49.54 L141.59,48.88 L141.74,48.53 L141.73,48.54 L141.48,48.98 L140.89,49.92 L139.79,51.44 L137.90,53.62 L134.84,56.42 L130.09,59.61 L123.29,62.50 L114.77,64.00 L106.18,61.80 L99.56,58.02 L95.39,53.83 L93.31,50.08 L92.69,47.10 L93.01,44.91 L93.95,43.41 L95.27,42.49 L96.85,42.05 L98.60,42.01 L100.47,42.30 L102.42,42.86 L104.44,43.66 L106.50,44.66 L108.59,45.82 L110.71,47.12 L112.84,48.53 L114.99,50.04 L117.15,51.61 L119.31,53.24 L121.48,54.89 L123.66,56.57 L125.83,58.23 L128.00,59.88" fill="none" stroke="rgba(230,255,68,0.13999999999999996)" stroke-width="0.6000000000000001" stroke-linecap="round" stroke-linejoin="round"/>
  </g>
</svg>