<svg xmlns="http://www.w3.org/2000/svg" viewBox="0 0 512 512" width="512" height="512">
  <rect width="512" height="512" fill="#0d0d0d"/>
  <g>
    <path d="M0.00,140.08 L8.45,143.36 L16.99,147.21 L25.59,151.52 L34.22,156.22 L42.89,161.22 L51.56,166.43 L60.23,171.80 L68.89,177.24 L77.53,182.68 L86.14,188.07 L94.71,193.32 L103.23,198.38 L111.69,203.16 L120.08,207.59 L128.36,211.60 L136.52,215.10 L144.53,218.01 L152.34,220.24 L159.91,221.69 L167.17,222.23 L174.03,221.75 L180.36,220.11 L186.02,217.17 L190.79,212.75 L189.18,210.42 L186.48,206.88 L182.38,202.14 L176.55,196.30 L168.63,189.59 L158.33,182.43 L145.55,175.45 L130.55,169.43 L114.02,165.11 L97.01,162.93 L80.68,162.90 L65.99,164.62 L53.52,167.45 L43.47,170.74 L35.72,173.98 L30.07,176.81 L26.21,179.00 L23.90,180.45 L22.90,181.12 L23.04,181.03 L24.21,180.18 L26.31,178.63 L29.30,176.42 L33.19,173.58 L37.99,170.19 L43.76,166.29 L50.58,161.95 L58.56,157.29 L67.80,152.44 L78.41,147.56 L90.46,142.91 L103.93,138.77 L118.72,135.45 L134.59,133.29 L151.13,132.52 L167.88,133.28 L184.29,135.55 L199.93,139.15 L214.42,143.81 L227.58,149.21 L239.33,155.03 L249.70,161.01 L258.80,166.94 L266.73,172.66 L273.63,178.06 L279.61,183.07 L284.78,187.63 L289.21,191.70 L292.95,195.23 L296.04,198.20 L298.48,200.54 L300.23,202.22 L301.25,203.18 L301.44,203.37 L300.66,202.71 L298.72,201.18 L295.38,198.74 L290.30,195.44 L283.11,191.40 L273.41,186.94 L260.88,182.58 L245.47,179.08 L227.58,177.35 L208.22,178.16 L188.88,181.79 L171.06,187.86 L155.84,195.46 L143.65,203.55 L134.38,211.25 L127.66,217.98 L123.01,223.45 L119.96,227.56 L118.16,230.31 L117.30,231.79 L117.17,232.07 L117.58,231.27 L118.43,229.48 L119.61,226.80 L121.05,223.31 L122.71,219.09 L124.54,214.21 L126.51,208.75 L128.60,202.75 L130.80,196.28 L133.08,189.39 L135.45,182.13 L137.89,174.55 L140.40,166.70 L142.98,158.61 L145.64,150.33 L148.37,141.87 L151.20,133.28 L154.12,124.58 L157.16,115.76 L160.34,106.84 L163.69,97.81 L167.28,88.63 L171.15,79.26 L175.42,69.62 L180.23,59.59 L185.80,49.02 L192.46,37.70 L200.72,25.38 L211.40,11.81 L225.72,-3.11 L245.39,-19.00 L272.33,-34.29 L307.23,-45.62 L347.35,-48.84 L386.47,-42.35 L419.07,-28.90 L443.60,-12.71 L461.35,3.37 L474.30,18.23 L484.02,31.71 L491.63,44.01 L497.82,55.42 L503.05,66.18 L507.62,76.50 L511.71,86.54 L515.46,96.41 L518.95,106.19 L522.24,115.93 L525.37,125.64 L528.39,135.35 L531.30,145.05 L534.13,154.73 L536.89,164.36 L539.59,173.93 L542.23,183.39 L544.82,192.70 L547.35,201.83 L549.83,210.72 L552.25,219.33 L554.61,227.61 L556.91,235.49 L559.12,242.92 L561.25,249.83 L563.27,256.15 L565.15,261.82 L566.87,266.75 L568.37,270.84 L569.61,274.00 L570.48,276.10 L570.87,277.00 L570.61,276.56 L569.45,274.58 L567.03,270.88 L562.84,265.28 L556.15,257.73 L546.02,248.38 L531.39,237.94 L509.09,233.78 L484.21,232.88 L459.25,236.69 L437.39,245.06 L420.91,256.29 L410.32,268.20 L404.88,279.24 L403.39,288.63 L404.76,296.19 L408.14,302.00 L412.93,306.27 L418.72,309.23 L425.22,311.10 L432.22,312.06 L439.60,312.30 L447.25,311.95 L455.09,311.14 L463.08,309.99 L471.17,308.59 L479.33,307.05 L487.51,305.45 L495.71,303.87 L503.88,302.40 L512.00,301.11" fill="none" stroke="rgba(230,255,68,0.13999999999999996)" stroke-width="0.6000000000000001" stroke-linecap="round" stroke-linejoin="round"/>
    <path d="M0.00,151.05 L8.06,155.68 L16.16,160.72 L24.30,166.10 L32.45,171.75 L40.62,177.59 L48.78,183.54 L56.94,189.55 L65.08,195.55 L73.19,201.46 L81.27,207.22 L89.31,212.76 L97.29,218.02 L105.20,222.92 L113.02,227.38 L120.73,231.33 L128.30,234.69 L135.69,237.36 L142.85,239.24 L149.71,240.23 L156.19,240.20 L162.16,239.02 L167.46,236.53 L171.88,232.57 L175.11,226.98 L172.26,223.38 L167.90,218.56 L161.65,212.67 L153.13,206.01 L142.07,199.13 L128.50,192.80 L112.88,187.87 L96.18,185.02 L79.68,184.50 L64.53,186.01 L51.53,188.90 L40.98,192.46 L32.85,196.05 L26.86,199.25 L22.71,201.82 L20.09,203.63 L18.74,204.65 L18.46,204.89 L19.08,204.38 L20.50,203.17 L22.64,201.31 L25.47,198.84 L28.98,195.81 L33.19,192.27 L38.14,188.26 L43.90,183.83 L50.56,179.03 L58.22,173.97 L66.99,168.74 L76.99,163.52 L88.27,158.51 L100.85,153.97 L114.64,150.20 L129.41,147.49 L144.81,146.07 L160.40,146.08 L175.71,147.50 L190.30,150.17 L203.84,153.85 L216.15,158.24 L227.15,163.05 L236.86,168.02 L245.36,172.96 L252.76,177.71 L259.15,182.17 L264.65,186.25 L269.32,189.88 L273.23,193.02 L276.41,195.63 L278.86,197.65 L280.56,199.04 L281.45,199.76 L281.44,199.76 L280.38,199.01 L278.10,197.50 L274.35,195.26 L268.85,192.39 L261.31,189.12 L251.48,185.81 L239.28,183.03 L224.94,181.44 L209.12,181.69 L192.85,184.12 L177.34,188.62 L163.59,194.64 L152.17,201.39 L143.22,208.09 L136.53,214.17 L131.78,219.28 L128.59,223.23 L126.63,225.99 L125.63,227.57 L125.37,228.05 L125.68,227.50 L126.44,226.00 L127.55,223.64 L128.94,220.49 L130.54,216.63 L132.33,212.13 L134.27,207.04 L136.33,201.43 L138.50,195.35 L140.76,188.85 L143.10,181.98 L145.52,174.80 L148.01,167.33 L150.57,159.63 L153.21,151.73 L155.92,143.66 L158.72,135.46 L161.61,127.13 L164.62,118.70 L167.76,110.18 L171.07,101.55 L174.60,92.79 L178.41,83.86 L182.59,74.69 L187.28,65.18 L192.69,55.19 L199.13,44.54 L207.08,33.01 L217.30,20.39 L230.90,6.62 L249.45,-7.89 L274.60,-21.63 L306.83,-31.53 L343.52,-33.93 L379.06,-27.62 L408.66,-15.13 L431.01,-0.20 L447.31,14.67 L459.28,28.49 L468.36,41.12 L475.51,52.74 L481.39,63.59 L486.40,73.92 L490.79,83.90 L494.76,93.67 L498.41,103.34 L501.82,112.96 L505.05,122.58 L508.14,132.23 L511.12,141.91 L514.01,151.61 L516.82,161.33 L519.57,171.03 L522.27,180.69 L524.91,190.27 L527.50,199.73 L530.04,209.04 L532.54,218.14 L534.99,226.98 L537.38,235.52 L539.72,243.69 L541.98,251.44 L544.17,258.71 L546.27,265.42 L548.25,271.51 L550.08,276.90 L551.73,281.50 L553.15,285.21 L554.25,287.92 L554.93,289.49 L555.05,289.79 L554.37,288.62 L552.58,285.80 L549.19,281.15 L543.54,274.55 L534.70,266.10 L521.59,256.39 L503.34,246.78 L480.14,239.46 L454.01,242.53 L430.82,250.61 L413.23,261.88 L401.86,273.91 L395.87,284.98 L393.97,294.27 L394.98,301.61 L398.00,307.10 L402.43,310.99 L407.84,313.51 L413.95,314.89 L420.55,315.33 L427.52,314.99 L434.75,314.02 L442.17,312.54 L449.75,310.68 L457.43,308.53 L465.19,306.17 L472.99,303.70 L480.82,301.19 L488.66,298.73 L496.49,296.37 L504.27,294.19 L512.00,292.27" fill="none" stroke="rgba(230,255,68,0.18666666666666662)" stroke-width="0.675" stroke-linecap="round" stroke-linejoin="round"/>
    <path d="M0.00,164.67 L7.61,170.41 L15.25,176.45 L22.91,182.71 L30.57,189.13 L38.23,195.64 L45.88,202.18 L53.52,208.67 L61.14,215.05 L68.72,221.27 L76.27,227.24 L83.77,232.91 L91.20,238.21 L98.55,243.06 L105.80,247.38 L112.92,251.10 L119.86,254.13 L126.59,256.37 L133.03,257.71 L139.09,258.02 L144.65,257.18 L149.53,255.04 L153.52,251.42 L156.27,246.17 L157.37,239.17 L152.56,234.22 L145.66,228.28 L136.28,221.79 L124.26,215.46 L109.84,210.20 L93.85,206.87 L77.59,205.93 L62.39,207.24 L49.26,210.15 L38.61,213.86 L30.44,217.68 L24.47,221.11 L20.35,223.87 L17.74,225.85 L16.35,227.02 L15.95,227.38 L16.36,227.01 L17.46,225.94 L19.15,224.25 L21.39,221.98 L24.15,219.18 L27.40,215.90 L31.18,212.18 L35.51,208.04 L40.45,203.53 L46.07,198.69 L52.45,193.56 L59.70,188.21 L67.92,182.74 L77.23,177.30 L87.69,172.07 L99.31,167.27 L112.01,163.18 L125.60,160.06 L139.78,158.12 L154.13,157.50 L168.22,158.17 L181.67,160.01 L194.17,162.78 L205.54,166.23 L215.71,170.09 L224.68,174.11 L232.52,178.11 L239.31,181.95 L245.14,185.51 L250.08,188.71 L254.19,191.49 L257.51,193.79 L260.05,195.56 L261.78,196.76 L262.66,197.36 L262.59,197.33 L261.45,196.66 L259.08,195.36 L255.28,193.52 L249.82,191.28 L242.54,188.90 L233.31,186.76 L222.26,185.35 L209.75,185.16 L196.48,186.57 L183.34,189.66 L171.21,194.16 L160.72,199.54 L152.18,205.18 L145.59,210.52 L140.75,215.19 L137.41,218.95 L135.28,221.68 L134.11,223.37 L133.70,224.04 L133.89,223.75 L134.55,222.56 L135.57,220.54 L136.88,217.76 L138.43,214.28 L140.17,210.18 L142.06,205.49 L144.08,200.30 L146.22,194.63 L148.45,188.55 L150.77,182.11 L153.16,175.34 L155.63,168.30 L158.17,161.01 L160.79,153.52 L163.47,145.87 L166.25,138.07 L169.11,130.15 L172.09,122.14 L175.19,114.03 L178.46,105.82 L181.93,97.51 L185.66,89.04 L189.75,80.36 L194.32,71.39 L199.57,62.01 L205.79,52.05 L213.41,41.34 L223.14,29.70 L235.98,17.12 L253.32,4.03 L276.58,-8.16 L306.02,-16.68 L339.19,-18.40 L371.17,-12.40 L397.83,-0.96 L418.10,12.67 L433.01,26.31 L444.07,39.08 L452.53,50.85 L459.27,61.78 L464.85,72.09 L469.64,81.97 L473.88,91.59 L477.72,101.08 L481.28,110.51 L484.62,119.95 L487.80,129.44 L490.85,138.99 L493.80,148.60 L496.66,158.27 L499.46,167.98 L502.19,177.71 L504.88,187.42 L507.52,197.09 L510.12,206.66 L512.67,216.10 L515.18,225.36 L517.65,234.39 L520.07,243.14 L522.44,251.55 L524.75,259.57 L527.00,267.14 L529.16,274.18 L531.22,280.64 L533.15,286.43 L534.93,291.47 L536.50,295.68 L537.80,298.93 L538.73,301.12 L539.17,302.09 L538.91,301.67 L537.66,299.68 L535.00,295.93 L530.29,290.28 L522.65,282.77 L510.99,273.89 L494.39,264.90 L472.87,257.95 L448.38,255.32 L424.44,257.80 L406.23,269.01 L394.46,281.00 L388.22,291.92 L386.10,300.96 L386.87,307.94 L389.63,313.03 L393.75,316.46 L398.81,318.49 L404.54,319.35 L410.75,319.24 L417.30,318.34 L424.11,316.77 L431.10,314.67 L438.24,312.15 L445.49,309.30 L452.81,306.21 L460.19,302.96 L467.61,299.63 L475.05,296.28 L482.50,293.00 L489.93,289.83 L497.34,286.85 L504.71,284.13 L512.00,281.73" fill="none" stroke="rgba(230,255,68,0.23333333333333325)" stroke-width="0.75" stroke-linecap="round" stroke-linejoin="round"/>
    <path d="M0.00,180.65 L7.14,187.30 L14.29,194.14 L21.45,201.09 L28.61,208.11 L35.76,215.11 L42.89,222.05 L50.01,228.85 L57.10,235.45 L64.16,241.79 L71.16,247.81 L78.11,253.44 L84.99,258.60 L91.77,263.23 L98.42,267.24 L104.91,270.54 L111.18,273.05 L117.18,274.65 L122.80,275.23 L127.91,274.64 L132.34,272.74 L135.81,269.36 L137.98,264.37 L138.38,257.65 L136.38,249.23 L128.60,243.35 L118.17,237.29 L105.15,231.97 L90.19,228.36 L74.55,227.11 L59.71,228.24 L46.83,231.12 L36.44,234.89 L28.56,238.78 L22.91,242.26 L19.08,245.04 L16.72,246.99 L15.51,248.11 L15.21,248.42 L15.63,247.98 L16.65,246.88 L18.17,245.17 L20.13,242.91 L22.48,240.17 L25.20,236.98 L28.29,233.39 L31.77,229.44 L35.64,225.16 L39.97,220.56 L44.79,215.68 L50.18,210.55 L56.24,205.20 L63.04,199.70 L70.71,194.13 L79.32,188.61 L88.95,183.30 L99.60,178.41 L111.22,174.17 L123.62,170.82 L136.53,168.55 L149.59,167.48 L162.40,167.58 L174.63,168.74 L186.00,170.76 L196.34,173.39 L205.58,176.41 L213.72,179.58 L220.82,182.75 L226.93,185.76 L232.12,188.52 L236.45,190.94 L239.95,192.97 L242.64,194.55 L244.51,195.64 L245.51,196.21 L245.56,196.26 L244.57,195.77 L242.41,194.81 L238.92,193.45 L233.96,191.86 L227.44,190.30 L219.36,189.10 L209.93,188.64 L199.55,189.25 L188.83,191.13 L178.49,194.23 L169.12,198.25 L161.16,202.75 L154.76,207.26 L149.90,211.40 L146.41,214.88 L144.10,217.54 L142.75,219.30 L142.17,220.16 L142.21,220.12 L142.74,219.25 L143.66,217.58 L144.88,215.19 L146.36,212.12 L148.04,208.43 L149.88,204.18 L151.86,199.42 L153.96,194.20 L156.16,188.57 L158.45,182.57 L160.82,176.25 L163.26,169.65 L165.78,162.80 L168.36,155.75 L171.03,148.53 L173.77,141.17 L176.61,133.69 L179.55,126.11 L182.61,118.45 L185.83,110.69 L189.24,102.84 L192.90,94.85 L196.89,86.70 L201.34,78.29 L206.42,69.54 L212.39,60.30 L219.67,50.43 L228.87,39.81 L240.90,28.44 L256.95,16.78 L278.20,6.13 L304.76,-1.10 L334.38,-2.27 L362.83,3.30 L386.65,13.63 L404.92,25.93 L418.50,38.32 L428.69,50.05 L436.58,60.96 L442.92,71.20 L448.22,80.94 L452.81,90.36 L456.90,99.61 L460.63,108.78 L464.10,117.96 L467.37,127.19 L470.50,136.51 L473.51,145.93 L476.42,155.44 L479.27,165.05 L482.05,174.72 L484.77,184.43 L487.45,194.16 L490.09,203.86 L492.69,213.50 L495.25,223.03 L497.77,232.41 L500.26,241.58 L502.70,250.49 L505.10,259.10 L507.45,267.34 L509.74,275.15 L511.96,282.48 L514.09,289.25 L516.11,295.39 L518.00,300.83 L519.70,305.47 L521.17,309.21 L522.33,311.94 L523.04,313.53 L523.15,313.80 L522.40,312.59 L520.38,309.71 L516.52,304.99 L510.00,298.45 L499.76,290.49 L484.83,282.25 L465.14,275.81 L442.51,273.44 L420.43,275.96 L401.97,282.02 L388.30,289.36 L382.07,299.94 L379.91,308.53 L380.57,315.03 L383.12,319.59 L386.97,322.49 L391.71,323.98 L397.08,324.30 L402.90,323.64 L409.04,322.16 L415.42,320.01 L421.97,317.31 L428.67,314.16 L435.46,310.66 L442.34,306.89 L449.27,302.94 L456.24,298.86 L463.24,294.74 L470.26,290.63 L477.28,286.60 L484.30,282.71 L491.29,279.01 L498.25,275.58 L505.16,272.46 L512.00,269.71" fill="none" stroke="rgba(230,255,68,0.2799999999999999)" stroke-width="0.8250000000000001" stroke-linecap="round" stroke-linejoin="round"/>
    <path d="M0.00,198.65 L6.65,206.00 L13.30,213.44 L19.96,220.90 L26.60,228.32 L33.23,235.64 L39.85,242.80 L46.44,249.73 L53.00,256.37 L59.52,262.67 L65.98,268.56 L72.37,273.97 L78.67,278.82 L84.85,283.04 L90.88,286.55 L96.69,289.25 L102.23,291.04 L107.39,291.80 L112.02,291.38 L115.94,289.64 L118.84,286.44 L120.34,281.64 L119.90,275.19 L116.86,267.23 L110.54,258.23 L99.05,253.09 L85.38,249.40 L70.72,247.97 L56.62,248.94 L44.35,251.74 L34.56,255.46 L27.28,259.28 L22.17,262.64 L18.84,265.24 L16.90,266.99 L16.01,267.88 L15.95,267.96 L16.53,267.31 L17.62,266.00 L19.13,264.11 L20.99,261.70 L23.16,258.85 L25.61,255.59 L28.32,251.97 L31.30,248.04 L34.55,243.83 L38.10,239.35 L41.97,234.64 L46.21,229.72 L50.87,224.59 L56.02,219.29 L61.73,213.85 L68.11,208.32 L75.23,202.77 L83.19,197.30 L92.04,192.07 L101.79,187.24 L112.37,183.04 L123.62,179.66 L135.28,177.28 L147.04,175.96 L158.55,175.71 L169.50,176.39 L179.67,177.84 L188.91,179.83 L197.16,182.16 L204.42,184.62 L210.71,187.08 L216.10,189.40 L220.62,191.49 L224.32,193.27 L227.21,194.70 L229.29,195.73 L230.52,196.33 L230.87,196.49 L230.23,196.24 L228.53,195.61 L225.66,194.71 L221.53,193.68 L216.10,192.74 L209.46,192.17 L201.81,192.23 L193.54,193.15 L185.13,195.02 L177.11,197.75 L169.95,201.08 L163.91,204.67 L159.12,208.16 L155.55,211.26 L153.06,213.76 L151.52,215.54 L150.76,216.55 L150.63,216.75 L151.02,216.19 L151.81,214.88 L152.94,212.88 L154.33,210.22 L155.94,206.97 L157.72,203.17 L159.65,198.87 L161.71,194.12 L163.87,188.96 L166.13,183.43 L168.47,177.58 L170.88,171.44 L173.37,165.07 L175.93,158.48 L178.57,151.72 L181.28,144.82 L184.08,137.80 L186.99,130.68 L190.01,123.48 L193.17,116.20 L196.52,108.83 L200.10,101.35 L203.99,93.74 L208.30,85.92 L213.19,77.82 L218.90,69.33 L225.80,60.33 L234.43,50.74 L245.59,40.62 L260.28,30.38 L279.42,21.22 L303.02,15.19 L329.10,14.45 L354.12,19.50 L375.19,28.66 L391.53,39.61 L403.85,50.76 L413.21,61.43 L420.54,71.48 L426.50,81.01 L431.53,90.17 L435.93,99.12 L439.87,107.96 L443.49,116.80 L446.88,125.70 L450.09,134.70 L453.16,143.82 L456.13,153.07 L459.02,162.45 L461.84,171.95 L464.60,181.55 L467.31,191.21 L469.99,200.91 L472.62,210.61 L475.22,220.27 L477.79,229.85 L480.32,239.29 L482.82,248.56 L485.29,257.60 L487.72,266.35 L490.10,274.76 L492.43,282.78 L494.69,290.34 L496.89,297.37 L498.98,303.81 L500.96,309.59 L502.79,314.62 L504.41,318.80 L505.76,322.03 L506.73,324.18 L507.17,325.10 L506.85,324.62 L505.43,322.56 L502.36,318.77 L496.90,313.21 L488.04,306.23 L474.82,298.85 L457.09,293.05 L436.58,291.01 L416.63,293.52 L400.18,299.23 L388.26,305.96 L380.37,312.09 L375.51,316.86 L376.13,322.72 L378.54,326.66 L382.16,328.95 L386.61,329.85 L391.63,329.59 L397.06,328.35 L402.79,326.31 L408.74,323.58 L414.85,320.30 L421.09,316.55 L427.42,312.44 L433.83,308.04 L440.30,303.43 L446.80,298.68 L453.34,293.85 L459.90,289.00 L466.47,284.20 L473.05,279.50 L479.62,274.96 L486.18,270.63 L492.71,266.57 L499.21,262.82 L505.64,259.45 L512.00,256.52" fill="none" stroke="rgba(230,255,68,0.32666666666666666)" stroke-width="0.9000000000000001" stroke-linecap="round" stroke-linejoin="round"/>
    <path d="M0.00,218.26 L6.15,226.13 L12.29,233.97 L18.43,241.74 L24.56,249.38 L30.67,256.83 L36.76,264.02 L42.82,270.90 L48.85,277.42 L54.82,283.49 L60.72,289.07 L66.54,294.08 L72.25,298.45 L77.80,302.10 L83.15,304.92 L88.22,306.83 L92.90,307.69 L97.03,307.39 L100.40,305.76 L102.68,302.69 L103.41,298.07 L102.03,291.97 L97.87,284.70 L90.39,276.98 L79.61,269.93 L66.24,268.44 L53.23,269.29 L41.94,271.96 L33.06,275.51 L26.61,279.09 L22.25,282.15 L19.55,284.41 L18.13,285.79 L17.66,286.31 L17.92,286.02 L18.73,285.02 L19.98,283.39 L21.57,281.19 L23.44,278.51 L25.55,275.41 L27.88,271.95 L30.40,268.17 L33.11,264.11 L36.01,259.81 L39.10,255.31 L42.41,250.62 L45.95,245.76 L49.76,240.76 L53.88,235.63 L58.35,230.37 L63.26,225.02 L68.66,219.60 L74.63,214.15 L81.27,208.73 L88.64,203.45 L96.78,198.42 L105.70,193.82 L115.32,189.83 L125.49,186.61 L135.96,184.31 L146.45,182.97 L156.67,182.57 L166.35,182.99 L175.30,184.07 L183.42,185.60 L190.64,187.41 L196.98,189.34 L202.46,191.24 L207.12,193.02 L210.99,194.58 L214.09,195.88 L216.43,196.87 L217.99,197.52 L218.72,197.82 L218.59,197.78 L217.52,197.45 L215.45,196.92 L212.33,196.29 L208.16,195.76 L203.03,195.52 L197.13,195.77 L190.76,196.67 L184.33,198.26 L178.23,200.45 L172.80,203.04 L168.26,205.78 L164.70,208.37 L162.10,210.61 L160.39,212.32 L159.44,213.41 L159.13,213.82 L159.36,213.53 L160.02,212.57 L161.03,210.96 L162.32,208.73 L163.85,205.92 L165.57,202.58 L167.45,198.76 L169.45,194.48 L171.57,189.80 L173.79,184.77 L176.10,179.40 L178.48,173.76 L180.94,167.87 L183.47,161.77 L186.08,155.49 L188.76,149.07 L191.52,142.53 L194.39,135.89 L197.36,129.18 L200.47,122.39 L203.74,115.53 L207.24,108.59 L211.01,101.54 L215.17,94.33 L219.86,86.91 L225.28,79.19 L231.77,71.09 L239.79,62.55 L250.00,53.67 L263.24,44.84 L280.21,37.11 L300.83,32.16 L323.42,31.73 L345.09,36.18 L363.52,44.15 L378.01,53.75 L389.09,63.65 L397.65,73.26 L404.44,82.44 L410.03,91.25 L414.81,99.82 L419.01,108.27 L422.81,116.69 L426.33,125.17 L429.64,133.76 L432.78,142.49 L435.81,151.38 L438.74,160.43 L441.59,169.64 L444.39,179.00 L447.13,188.48 L449.83,198.05 L452.50,207.68 L455.13,217.34 L457.73,226.98 L460.30,236.56 L462.84,246.03 L465.36,255.35 L467.84,264.47 L470.29,273.32 L472.70,281.86 L475.06,290.03 L477.38,297.78 L479.62,305.03 L481.79,311.73 L483.86,317.80 L485.79,323.17 L487.55,327.74 L489.08,331.42 L490.28,334.08 L491.02,335.60 L491.10,335.82 L490.22,334.56 L487.90,331.68 L483.45,327.12 L475.95,321.16 L464.48,314.74 L448.86,309.67 L430.69,308.01 L413.12,310.45 L398.86,315.69 L388.77,321.66 L382.31,326.90 L378.53,330.77 L376.61,333.15 L375.95,334.10 L379.36,335.72 L383.53,335.98 L388.21,335.11 L393.26,333.29 L398.59,330.67 L404.11,327.38 L409.77,323.52 L415.55,319.21 L421.42,314.51 L427.35,309.52 L433.34,304.30 L439.37,298.92 L445.43,293.44 L451.51,287.93 L457.61,282.43 L463.72,277.01 L469.83,271.72 L475.95,266.61 L482.05,261.72 L488.13,257.11 L494.18,252.83 L500.19,248.93 L506.14,245.46 L512.00,242.47" fill="none" stroke="rgba(230,255,68,0.37333333333333324)" stroke-width="0.9749999999999999" stroke-linecap="round" stroke-linejoin="round"/>
    <path d="M0.00,239.06 L5.64,247.23 L11.27,255.28 L16.89,263.18 L22.50,270.84 L28.09,278.23 L33.65,285.28 L39.17,291.94 L44.65,298.14 L50.07,303.83 L55.41,308.93 L60.64,313.38 L65.72,317.09 L70.59,319.98 L75.18,321.95 L79.38,322.88 L82.99,322.63 L85.79,321.10 L87.40,318.16 L87.32,313.81 L84.97,308.25 L79.79,302.05 L71.65,296.16 L61.17,291.68 L49.69,289.24 L39.70,291.70 L31.99,294.95 L26.57,298.13 L23.09,300.73 L21.12,302.50 L20.28,303.38 L20.28,303.41 L20.89,302.66 L21.97,301.21 L23.41,299.16 L25.13,296.57 L27.08,293.53 L29.21,290.09 L31.50,286.32 L33.94,282.26 L36.51,277.96 L39.21,273.46 L42.05,268.79 L45.02,263.98 L48.15,259.06 L51.45,254.04 L54.94,248.94 L58.65,243.78 L62.64,238.55 L66.93,233.29 L71.60,227.99 L76.71,222.69 L82.33,217.43 L88.53,212.26 L95.37,207.28 L102.89,202.60 L111.06,198.37 L119.80,194.74 L128.95,191.86 L138.29,189.83 L147.56,188.66 L156.52,188.31 L164.95,188.65 L172.70,189.54 L179.71,190.79 L185.93,192.25 L191.38,193.79 L196.08,195.29 L200.06,196.68 L203.34,197.88 L205.93,198.84 L207.83,199.54 L209.01,199.96 L209.45,200.11 L209.09,200.02 L207.89,199.75 L205.84,199.40 L202.94,199.10 L199.26,198.99 L194.96,199.23 L190.28,199.93 L185.53,201.12 L181.00,202.73 L176.97,204.62 L173.63,206.59 L171.04,208.42 L169.23,209.94 L168.13,211.01 L167.65,211.54 L167.72,211.49 L168.23,210.84 L169.12,209.59 L170.31,207.77 L171.75,205.41 L173.39,202.53 L175.21,199.18 L177.16,195.40 L179.24,191.22 L181.41,186.68 L183.68,181.82 L186.03,176.68 L188.46,171.29 L190.96,165.69 L193.53,159.92 L196.18,154.00 L198.90,147.96 L201.72,141.82 L204.64,135.61 L207.68,129.34 L210.88,123.01 L214.27,116.62 L217.93,110.15 L221.92,103.58 L226.38,96.85 L231.49,89.92 L237.52,82.73 L244.87,75.26 L254.08,67.61 L265.80,60.16 L280.55,53.76 L298.20,49.78 L317.38,49.55 L335.84,53.35 L351.72,60.12 L364.42,68.38 L374.31,77.04 L382.07,85.59 L388.33,93.89 L393.56,101.97 L398.07,109.92 L402.08,117.84 L405.75,125.81 L409.16,133.90 L412.38,142.15 L415.46,150.57 L418.44,159.20 L421.33,168.02 L424.15,177.02 L426.92,186.20 L429.65,195.52 L432.34,204.96 L434.99,214.49 L437.62,224.06 L440.22,233.64 L442.79,243.18 L445.34,252.64 L447.87,261.97 L450.37,271.11 L452.84,280.03 L455.27,288.65 L457.67,296.94 L460.02,304.83 L462.32,312.26 L464.55,319.17 L466.70,325.49 L468.73,331.15 L470.62,336.07 L472.30,340.15 L473.72,343.30 L474.74,345.38 L475.20,346.25 L474.83,345.77 L473.22,343.77 L469.75,340.22 L463.60,335.34 L453.93,329.95 L440.55,325.68 L424.93,324.41 L409.95,326.72 L398.02,331.35 L389.80,336.42 L384.76,340.68 L382.02,343.61 L380.86,345.11 L380.76,345.29 L381.38,344.30 L382.50,342.29 L386.86,340.79 L391.54,338.36 L396.46,335.16 L401.54,331.30 L406.76,326.89 L412.08,322.02 L417.48,316.77 L422.94,311.22 L428.44,305.43 L433.98,299.46 L439.55,293.39 L445.14,287.26 L450.75,281.14 L456.38,275.07 L462.01,269.11 L467.65,263.30 L473.28,257.69 L478.91,252.33 L484.52,247.26 L490.12,242.54 L495.68,238.20 L501.19,234.29 L506.64,230.85 L512.00,227.95" fill="none" stroke="rgba(230,255,68,0.42)" stroke-width="1.0499999999999998" stroke-linecap="round" stroke-linejoin="round"/>
    <path d="M0.00,260.56 L5.12,268.83 L10.24,276.91 L15.34,284.73 L20.42,292.24 L25.48,299.40 L30.51,306.13 L35.50,312.39 L40.43,318.12 L45.28,323.26 L50.04,327.72 L54.64,331.46 L59.05,334.36 L63.17,336.35 L66.87,337.30 L69.97,337.11 L72.19,335.67 L73.12,332.94 L72.26,329.03 L69.10,324.36 L63.42,319.72 L55.66,316.06 L46.95,314.00 L38.58,313.43 L31.39,313.72 L27.15,316.35 L24.64,318.35 L23.45,319.50 L23.22,319.77 L23.69,319.22 L24.68,317.93 L26.04,315.97 L27.68,313.43 L29.55,310.39 L31.60,306.92 L33.78,303.09 L36.09,298.94 L38.51,294.53 L41.01,289.91 L43.62,285.12 L46.31,280.19 L49.09,275.16 L51.97,270.05 L54.96,264.89 L58.07,259.69 L61.32,254.48 L64.74,249.27 L68.35,244.06 L72.19,238.87 L76.31,233.71 L80.76,228.58 L85.60,223.52 L90.90,218.56 L96.71,213.76 L103.07,209.20 L110.01,204.99 L117.48,201.27 L125.38,198.16 L133.56,195.77 L141.81,194.16 L149.89,193.32 L157.62,193.17 L164.84,193.58 L171.45,194.41 L177.39,195.52 L182.67,196.78 L187.30,198.07 L191.30,199.31 L194.69,200.44 L197.50,201.40 L199.71,202.16 L201.32,202.70 L202.31,203.01 L202.66,203.12 L202.33,203.06 L201.31,202.89 L199.60,202.72 L197.27,202.65 L194.42,202.79 L191.23,203.22 L187.93,203.98 L184.75,205.04 L181.90,206.29 L179.56,207.59 L177.79,208.78 L176.63,209.70 L176.05,210.24 L175.98,210.34 L176.37,209.93 L177.13,209.00 L178.22,207.56 L179.57,205.61 L181.14,203.18 L182.89,200.30 L184.79,197.00 L186.82,193.32 L188.95,189.29 L191.18,184.94 L193.50,180.31 L195.89,175.44 L198.36,170.35 L200.89,165.09 L203.50,159.68 L206.18,154.15 L208.95,148.53 L211.81,142.84 L214.78,137.10 L217.89,131.32 L221.17,125.50 L224.68,119.63 L228.49,113.71 L232.69,107.70 L237.45,101.58 L242.99,95.30 L249.62,88.89 L257.76,82.45 L267.91,76.30 L280.43,71.14 L295.17,68.01 L311.08,67.89 L326.46,71.01 L339.88,76.61 L350.83,83.55 L359.54,90.98 L366.52,98.47 L372.25,105.86 L377.10,113.18 L381.35,120.49 L385.17,127.86 L388.69,135.35 L391.99,143.02 L395.13,150.89 L398.15,158.98 L401.07,167.30 L403.92,175.85 L406.71,184.61 L409.46,193.57 L412.16,202.69 L414.84,211.96 L417.48,221.34 L420.10,230.79 L422.70,240.26 L425.28,249.72 L427.83,259.12 L430.37,268.41 L432.88,277.55 L435.37,286.48 L437.83,295.15 L440.26,303.51 L442.65,311.50 L444.99,319.06 L447.28,326.14 L449.50,332.68 L451.63,338.59 L453.63,343.82 L455.47,348.27 L457.08,351.86 L458.37,354.47 L459.18,355.97 L459.30,356.23 L458.38,355.12 L455.88,352.59 L451.10,348.81 L443.28,344.50 L432.28,341.09 L419.40,340.19 L407.17,342.28 L397.64,346.17 L391.32,350.25 L387.67,353.46 L385.93,355.40 L385.48,356.02 L385.90,355.42 L386.91,353.74 L388.31,351.12 L390.00,347.68 L391.90,343.51 L396.41,339.72 L401.07,335.31 L405.84,330.35 L410.70,324.94 L415.62,319.16 L420.60,313.07 L425.61,306.74 L430.66,300.24 L435.73,293.61 L440.83,286.92 L445.94,280.22 L451.07,273.56 L456.20,266.99 L461.35,260.56 L466.49,254.31 L471.64,248.29 L476.78,242.54 L481.92,237.10 L487.04,232.02 L492.14,227.33 L497.20,223.07 L502.22,219.29 L507.16,216.03 L512.00,213.33" fill="none" stroke="rgba(230,255,68,0.4666666666666666)" stroke-width="1.125" stroke-linecap="round" stroke-linejoin="round"/>
    <path d="M0.00,282.26 L4.61,290.45 L9.20,298.35 L13.78,305.93 L18.34,313.11 L22.87,319.86 L27.37,326.12 L31.81,331.83 L36.19,336.94 L40.46,341.38 L44.61,345.08 L48.55,347.97 L52.21,349.95 L55.44,350.92 L58.05,350.81 L59.72,349.54 L60.06,347.17 L58.62,344.00 L55.18,340.61 L50.01,337.82 L44.00,336.15 L38.23,335.54 L33.37,335.48 L29.61,335.41 L26.86,334.96 L26.46,335.39 L26.84,334.98 L27.77,333.79 L29.12,331.90 L30.75,329.38 L32.61,326.33 L34.63,322.80 L36.78,318.87 L39.04,314.60 L41.39,310.03 L43.81,305.23 L46.30,300.24 L48.85,295.09 L51.46,289.83 L54.14,284.50 L56.87,279.12 L59.68,273.72 L62.56,268.34 L65.52,262.97 L68.59,257.66 L71.77,252.40 L75.10,247.20 L78.59,242.09 L82.29,237.06 L86.23,232.12 L90.46,227.28 L95.04,222.58 L100.03,218.05 L105.45,213.74 L111.35,209.74 L117.72,206.14 L124.49,203.07 L131.55,200.61 L138.75,198.84 L145.90,197.77 L152.81,197.35 L159.34,197.48 L165.39,198.05 L170.91,198.93 L175.88,199.99 L180.31,201.15 L184.22,202.30 L187.63,203.40 L190.56,204.38 L193.02,205.22 L195.00,205.88 L196.50,206.36 L197.49,206.65 L197.96,206.78 L197.89,206.78 L197.29,206.72 L196.19,206.66 L194.65,206.70 L192.80,206.89 L190.79,207.28 L188.82,207.86 L187.04,208.56 L185.59,209.28 L184.57,209.91 L184.01,210.33 L183.91,210.45 L184.22,210.18 L184.91,209.49 L185.91,208.36 L187.19,206.78 L188.70,204.76 L190.39,202.32 L192.25,199.49 L194.24,196.29 L196.34,192.75 L198.53,188.90 L200.82,184.78 L203.18,180.42 L205.61,175.85 L208.11,171.11 L210.67,166.22 L213.31,161.21 L216.02,156.12 L218.81,150.96 L221.71,145.76 L224.72,140.54 L227.88,135.30 L231.23,130.05 L234.82,124.79 L238.74,119.51 L243.12,114.19 L248.12,108.84 L253.97,103.46 L261.00,98.18 L269.55,93.26 L279.86,89.21 L291.79,86.80 L304.59,86.74 L317.05,89.19 L328.11,93.65 L337.35,99.31 L344.88,105.52 L351.06,111.93 L356.24,118.40 L360.71,124.94 L364.68,131.57 L368.31,138.36 L371.67,145.34 L374.86,152.54 L377.91,160.00 L380.85,167.72 L383.72,175.70 L386.53,183.93 L389.28,192.41 L392.00,201.11 L394.69,210.00 L397.34,219.06 L399.98,228.24 L402.59,237.52 L405.19,246.85 L407.76,256.19 L410.32,265.49 L412.87,274.70 L415.39,283.79 L417.89,292.69 L420.37,301.37 L422.83,309.76 L425.26,317.81 L427.65,325.47 L429.99,332.68 L432.28,339.39 L434.50,345.53 L436.61,351.03 L438.60,355.82 L440.40,359.81 L441.94,362.92 L443.10,365.02 L443.70,366.02 L443.46,365.78 L441.93,364.26 L438.53,361.62 L432.63,358.44 L424.14,355.90 L414.16,355.35 L404.80,357.10 L397.73,360.14 L393.28,363.13 L390.97,365.24 L390.18,366.17 L390.41,365.91 L391.31,364.54 L392.67,362.19 L394.34,358.98 L396.23,355.00 L398.27,350.35 L400.44,345.11 L402.69,339.34 L407.01,333.85 L411.41,327.93 L415.85,321.63 L420.35,315.03 L424.87,308.20 L429.42,301.18 L434.00,294.05 L438.59,286.84 L443.20,279.61 L447.82,272.41 L452.45,265.30 L457.09,258.31 L461.73,251.49 L466.38,244.89 L471.03,238.53 L475.68,232.48 L480.32,226.75 L484.95,221.39 L489.58,216.43 L494.17,211.92 L498.74,207.89 L503.25,204.37 L507.68,201.40 L512.00,199.03" fill="none" stroke="rgba(230,255,68,0.5133333333333333)" stroke-width="1.2000000000000002" stroke-linecap="round" stroke-linejoin="round"/>
    <path d="M0.00,303.65 L4.09,311.57 L8.16,319.13 L12.22,326.29 L16.26,332.99 L20.26,339.18 L24.22,344.82 L28.13,349.85 L31.94,354.22 L35.63,357.87 L39.13,360.71 L42.36,362.69 L45.17,363.72 L47.36,363.74 L48.62,362.78 L48.62,361.01 L47.14,358.86 L44.36,356.93 L40.91,355.64 L37.60,354.97 L34.94,354.53 L33.06,353.91 L31.88,352.85 L31.25,351.24 L31.02,349.03 L32.40,347.16 L34.08,344.64 L35.98,341.55 L38.03,337.95 L40.20,333.92 L42.47,329.51 L44.80,324.78 L47.20,319.78 L49.65,314.56 L52.14,309.16 L54.68,303.63 L57.25,298.00 L59.86,292.32 L62.51,286.61 L65.20,280.92 L67.94,275.26 L70.73,269.66 L73.58,264.15 L76.49,258.74 L79.49,253.45 L82.58,248.28 L85.80,243.26 L89.15,238.37 L92.69,233.64 L96.43,229.07 L100.44,224.67 L104.73,220.47 L109.37,216.51 L114.38,212.85 L119.77,209.55 L125.50,206.71 L131.50,204.41 L137.64,202.71 L143.79,201.63 L149.79,201.14 L155.51,201.17 L160.87,201.62 L165.82,202.38 L170.35,203.34 L174.45,204.42 L178.16,205.54 L181.49,206.65 L184.45,207.69 L187.06,208.63 L189.33,209.43 L191.24,210.09 L192.78,210.59 L193.95,210.93 L194.74,211.12 L195.13,211.21 L195.13,211.23 L194.79,211.24 L194.18,211.28 L193.39,211.40 L192.56,211.60 L191.80,211.86 L191.25,212.11 L190.97,212.28 L191.02,212.27 L191.41,212.02 L192.12,211.45 L193.13,210.53 L194.39,209.23 L195.88,207.56 L197.56,205.50 L199.39,203.09 L201.36,200.34 L203.44,197.26 L205.62,193.90 L207.88,190.27 L210.22,186.41 L212.62,182.35 L215.09,178.12 L217.62,173.74 L220.21,169.26 L222.86,164.69 L225.59,160.07 L228.39,155.42 L231.29,150.76 L234.31,146.10 L237.48,141.48 L240.84,136.88 L244.46,132.32 L248.41,127.81 L252.83,123.35 L257.87,118.97 L263.76,114.78 L270.71,110.98 L278.87,107.92 L288.14,106.13 L298.02,106.07 L307.72,107.88 L316.51,111.26 L324.07,115.69 L330.41,120.70 L335.76,126.03 L340.37,131.57 L344.43,137.29 L348.11,143.22 L351.51,149.38 L354.72,155.80 L357.78,162.51 L360.73,169.51 L363.60,176.81 L366.40,184.41 L369.16,192.30 L371.88,200.45 L374.57,208.84 L377.23,217.46 L379.87,226.26 L382.49,235.21 L385.09,244.28 L387.68,253.42 L390.26,262.59 L392.82,271.75 L395.37,280.85 L397.90,289.84 L400.42,298.68 L402.93,307.32 L405.41,315.70 L407.87,323.78 L410.30,331.50 L412.70,338.81 L415.06,345.65 L417.36,351.98 L419.59,357.72 L421.71,362.82 L423.70,367.19 L425.49,370.77 L427.00,373.46 L428.07,375.17 L428.50,375.80 L427.96,375.31 L425.97,373.82 L422.08,371.78 L416.21,370.12 L409.25,369.85 L402.85,371.17 L398.24,373.26 L395.63,375.09 L394.62,376.07 L394.73,375.98 L395.59,374.83 L396.94,372.71 L398.63,369.70 L400.54,365.92 L402.61,361.43 L404.80,356.32 L407.07,350.66 L409.40,344.50 L411.79,337.91 L414.21,330.95 L418.19,324.16 L422.19,317.08 L426.23,309.77 L430.28,302.28 L434.35,294.66 L438.44,286.97 L442.54,279.26 L446.65,271.58 L450.76,263.97 L454.89,256.48 L459.02,249.15 L463.16,242.03 L467.30,235.15 L471.44,228.55 L475.58,222.27 L479.73,216.34 L483.86,210.80 L487.99,205.67 L492.11,201.00 L496.21,196.80 L500.27,193.12 L504.28,189.98 L508.20,187.41 L512.00,185.46" fill="none" stroke="rgba(230,255,68,0.5599999999999999)" stroke-width="1.275" stroke-linecap="round" stroke-linejoin="round"/>
    <path d="M0.00,324.22 L3.57,331.71 L7.13,338.77 L10.67,345.36 L14.19,351.44 L17.67,356.96 L21.11,361.87 L24.48,366.14 L27.74,369.71 L30.84,372.52 L33.71,374.52 L36.19,375.66 L38.12,375.94 L39.27,375.45 L39.47,374.46 L38.81,373.36 L37.68,372.45 L36.63,371.70 L35.97,370.89 L35.79,369.75 L36.02,368.12 L36.59,365.95 L37.39,363.23 L38.37,359.98 L39.47,356.24 L41.61,352.56 L43.85,348.42 L46.16,343.88 L48.53,338.98 L50.94,333.78 L53.39,328.34 L55.88,322.68 L58.39,316.86 L60.92,310.93 L63.48,304.91 L66.06,298.85 L68.66,292.79 L71.28,286.76 L73.93,280.78 L76.61,274.90 L79.32,269.13 L82.06,263.50 L84.85,258.03 L87.69,252.73 L90.59,247.62 L93.57,242.71 L96.64,238.01 L99.83,233.53 L103.16,229.26 L106.65,225.22 L110.36,221.43 L114.30,217.91 L118.50,214.69 L122.98,211.83 L127.71,209.38 L132.65,207.41 L137.71,205.96 L142.78,205.05 L147.77,204.65 L152.56,204.70 L157.10,205.13 L161.35,205.85 L165.30,206.77 L168.97,207.83 L172.37,208.95 L175.51,210.10 L178.41,211.23 L181.08,212.30 L183.53,213.28 L185.75,214.15 L187.74,214.89 L189.50,215.49 L191.01,215.95 L192.27,216.27 L193.27,216.47 L194.02,216.58 L194.57,216.63 L194.96,216.63 L195.26,216.62 L195.56,216.57 L195.95,216.47 L196.49,216.27 L197.22,215.91 L198.18,215.34 L199.36,214.51 L200.75,213.39 L202.32,211.96 L204.07,210.21 L205.95,208.14 L207.96,205.77 L210.07,203.11 L212.26,200.18 L214.53,197.00 L216.87,193.61 L219.27,190.03 L221.71,186.29 L224.21,182.41 L226.76,178.43 L229.36,174.38 L232.02,170.29 L234.73,166.17 L237.52,162.07 L240.38,158.00 L243.36,153.99 L246.46,150.05 L249.74,146.20 L253.24,142.46 L257.04,138.85 L261.25,135.42 L265.99,132.23 L271.38,129.42 L277.51,127.23 L284.30,125.95 L291.49,125.87 L298.61,127.10 L305.22,129.49 L311.10,132.74 L316.23,136.59 L320.72,140.84 L324.70,145.42 L328.32,150.29 L331.68,155.46 L334.84,160.96 L337.86,166.78 L340.78,172.94 L343.62,179.45 L346.40,186.29 L349.14,193.47 L351.84,200.95 L354.52,208.73 L357.17,216.79 L359.80,225.08 L362.42,233.58 L365.02,242.26 L367.62,251.07 L370.20,259.98 L372.77,268.95 L375.34,277.92 L377.89,286.87 L380.44,295.73 L382.97,304.46 L385.49,313.03 L388.00,321.36 L390.50,329.43 L392.97,337.17 L395.42,344.55 L397.85,351.50 L400.23,357.98 L402.57,363.93 L404.84,369.31 L407.01,374.04 L409.05,378.07 L410.90,381.33 L412.46,383.73 L413.57,385.23 L414.03,385.77 L413.50,385.45 L411.68,384.56 L408.55,383.75 L404.71,383.68 L401.31,384.47 L399.14,385.51 L398.31,386.14 L398.55,385.97 L399.51,384.86 L400.97,382.85 L402.75,379.98 L404.74,376.35 L406.88,372.01 L409.12,367.04 L411.44,361.49 L413.81,355.43 L416.22,348.91 L418.67,341.97 L421.14,334.67 L423.63,327.07 L426.14,319.20 L429.68,311.44 L433.24,303.50 L436.80,295.44 L440.38,287.31 L443.97,279.16 L447.56,271.03 L451.17,262.97 L454.77,255.03 L458.38,247.25 L462.00,239.67 L465.62,232.32 L469.24,225.26 L472.87,218.50 L476.50,212.09 L480.13,206.05 L483.76,200.41 L487.38,195.21 L491.01,190.47 L494.62,186.21 L498.21,182.46 L501.77,179.24 L505.28,176.58 L508.70,174.50 L512.00,173.02" fill="none" stroke="rgba(230,255,68,0.6066666666666667)" stroke-width="1.35" stroke-linecap="round" stroke-linejoin="round"/>
    <path d="M0.00,343.48 L3.06,350.39 L6.11,356.82 L9.15,362.72 L12.16,368.08 L15.15,372.85 L18.09,377.00 L20.97,380.49 L23.74,383.29 L26.35,385.37 L28.71,386.71 L30.71,387.36 L32.27,387.43 L33.40,387.11 L34.30,386.55 L35.22,385.74 L36.31,384.60 L37.62,383.00 L39.10,380.88 L40.73,378.23 L42.46,375.07 L44.27,371.41 L46.13,367.29 L48.03,362.74 L49.97,357.81 L52.41,352.76 L54.87,347.38 L57.36,341.73 L59.87,335.83 L62.39,329.75 L64.93,323.51 L67.47,317.16 L70.03,310.74 L72.59,304.30 L75.16,297.86 L77.75,291.47 L80.34,285.15 L82.95,278.95 L85.56,272.88 L88.20,266.98 L90.85,261.28 L93.52,255.79 L96.22,250.54 L98.94,245.53 L101.71,240.79 L104.52,236.33 L107.40,232.14 L110.34,228.24 L113.38,224.64 L116.52,221.33 L119.79,218.34 L123.20,215.69 L126.76,213.38 L130.46,211.47 L134.28,209.97 L138.17,208.90 L142.07,208.27 L145.91,208.05 L149.65,208.19 L153.24,208.65 L156.68,209.36 L159.97,210.27 L163.10,211.32 L166.10,212.46 L168.97,213.67 L171.73,214.90 L174.37,216.12 L176.91,217.31 L179.35,218.43 L181.68,219.46 L183.90,220.39 L186.01,221.19 L187.99,221.85 L189.85,222.37 L191.58,222.74 L193.20,222.97 L194.72,223.08 L196.17,223.05 L197.58,222.91 L199.01,222.63 L200.49,222.19 L202.05,221.58 L203.71,220.77 L205.48,219.72 L207.37,218.42 L209.36,216.86 L211.44,215.04 L213.61,212.96 L215.84,210.62 L218.14,208.05 L220.49,205.27 L222.88,202.29 L225.31,199.13 L227.78,195.84 L230.28,192.42 L232.81,188.92 L235.37,185.35 L237.96,181.76 L240.59,178.16 L243.25,174.59 L245.96,171.08 L248.73,167.66 L251.56,164.35 L254.48,161.17 L257.51,158.16 L260.69,155.35 L264.06,152.77 L267.67,150.47 L271.59,148.53 L275.83,147.06 L280.38,146.21 L285.12,146.12 L289.85,146.84 L294.38,148.35 L298.60,150.52 L302.47,153.24 L306.03,156.42 L309.34,160.01 L312.47,164.00 L315.45,168.38 L318.34,173.16 L321.15,178.33 L323.90,183.90 L326.62,189.86 L329.30,196.19 L331.95,202.89 L334.59,209.94 L337.21,217.30 L339.82,224.96 L342.43,232.89 L345.02,241.05 L347.60,249.40 L350.18,257.92 L352.75,266.56 L355.32,275.28 L357.89,284.03 L360.44,292.77 L363.00,301.47 L365.54,310.06 L368.09,318.51 L370.62,326.76 L373.15,334.78 L375.66,342.52 L378.17,349.92 L380.66,356.95 L383.13,363.56 L385.58,369.70 L387.99,375.33 L390.36,380.40 L392.65,384.86 L394.85,388.67 L396.90,391.77 L398.72,394.12 L400.21,395.70 L401.20,396.54 L401.53,396.79 L401.21,396.78 L400.57,396.83 L400.16,396.98 L400.39,396.92 L401.28,396.32 L402.70,394.99 L404.49,392.88 L406.51,390.01 L408.68,386.43 L410.97,382.18 L413.32,377.32 L415.73,371.88 L418.17,365.92 L420.64,359.49 L423.12,352.62 L425.63,345.36 L428.14,337.76 L430.67,329.87 L433.20,321.72 L435.74,313.37 L438.29,304.86 L441.35,296.39 L444.42,287.85 L447.50,279.29 L450.57,270.76 L453.66,262.30 L456.74,253.96 L459.83,245.77 L462.92,237.79 L466.01,230.04 L469.11,222.56 L472.20,215.40 L475.30,208.58 L478.41,202.12 L481.51,196.07 L484.61,190.45 L487.72,185.27 L490.83,180.55 L493.93,176.33 L497.03,172.61 L500.12,169.41 L503.18,166.75 L506.20,164.64 L509.15,163.08 L512.00,162.09" fill="none" stroke="rgba(230,255,68,0.6533333333333333)" stroke-width="1.4249999999999998" stroke-linecap="round" stroke-linejoin="round"/>
    <path d="M0.00,360.98 L2.56,367.18 L5.12,372.88 L7.68,378.04 L10.24,382.64 L12.80,386.66 L15.36,390.10 L17.92,392.93 L20.48,395.15 L23.04,396.76 L25.60,397.75 L28.16,398.14 L30.72,397.92 L33.28,397.10 L35.84,395.71 L38.40,393.75 L40.96,391.24 L43.52,388.22 L46.08,384.69 L48.64,380.70 L51.20,376.27 L53.76,371.43 L56.32,366.21 L58.88,360.67 L61.44,354.82 L64.00,348.71 L66.56,342.38 L69.12,335.87 L71.68,329.22 L74.24,322.46 L76.80,315.65 L79.36,308.81 L81.92,302.00 L84.48,295.24 L87.04,288.57 L89.60,282.02 L92.16,275.64 L94.72,269.45 L97.28,263.48 L99.84,257.76 L102.40,252.32 L104.96,247.17 L107.52,242.33 L110.08,237.82 L112.64,233.66 L115.20,229.86 L117.76,226.41 L120.32,223.33 L122.88,220.63 L125.44,218.29 L128.00,216.31 L130.56,214.69 L133.12,213.41 L135.68,212.47 L138.24,211.85 L140.80,211.53 L143.36,211.50 L145.92,211.72 L148.48,212.19 L151.04,212.87 L153.60,213.74 L156.16,214.77 L158.72,215.93 L161.28,217.20 L163.84,218.55 L166.40,219.94 L168.96,221.35 L171.52,222.76 L174.08,224.12 L176.64,225.43 L179.20,226.64 L181.76,227.75 L184.32,228.71 L186.88,229.52 L189.44,230.15 L192.00,230.59 L194.56,230.82 L197.12,230.83 L199.68,230.61 L202.24,230.15 L204.80,229.45 L207.36,228.50 L209.92,227.31 L212.48,225.88 L215.04,224.21 L217.60,222.32 L220.16,220.21 L222.72,217.90 L225.28,215.41 L227.84,212.75 L230.40,209.95 L232.96,207.03 L235.52,204.01 L238.08,200.92 L240.64,197.79 L243.20,194.65 L245.76,191.52 L248.32,188.45 L250.88,185.46 L253.44,182.58 L256.00,179.84 L258.56,177.28 L261.12,174.94 L263.68,172.83 L266.24,170.99 L268.80,169.45 L271.36,168.24 L273.92,167.37 L276.48,166.88 L279.04,166.79 L281.60,167.11 L284.16,167.86 L286.72,169.06 L289.28,170.72 L291.84,172.84 L294.40,175.44 L296.96,178.50 L299.52,182.04 L302.08,186.05 L304.64,190.52 L307.20,195.43 L309.76,200.79 L312.32,206.56 L314.88,212.73 L317.44,219.28 L320.00,226.18 L322.56,233.40 L325.12,240.92 L327.68,248.69 L330.24,256.68 L332.80,264.85 L335.36,273.18 L337.92,281.60 L340.48,290.09 L343.04,298.60 L345.60,307.08 L348.16,315.49 L350.72,323.79 L353.28,331.93 L355.84,339.87 L358.40,347.56 L360.96,354.97 L363.52,362.05 L366.08,368.76 L368.64,375.06 L371.20,380.92 L373.76,386.31 L376.32,391.19 L378.88,395.54 L381.44,399.33 L384.00,402.54 L386.56,405.15 L389.12,407.13 L391.68,408.49 L394.24,409.21 L396.80,409.29 L399.36,408.72 L401.92,407.51 L404.48,405.66 L407.04,403.18 L409.60,400.08 L412.16,396.39 L414.72,392.11 L417.28,387.27 L419.84,381.90 L422.40,376.02 L424.96,369.68 L427.52,362.89 L430.08,355.70 L432.64,348.15 L435.20,340.27 L437.76,332.11 L440.32,323.71 L442.88,315.11 L445.44,306.37 L448.00,297.52 L450.56,288.61 L453.12,279.68 L455.68,270.78 L458.24,261.96 L460.80,253.26 L463.36,244.72 L465.92,236.38 L468.48,228.28 L471.04,220.46 L473.60,212.95 L476.16,205.78 L478.72,198.99 L481.28,192.60 L483.84,186.64 L486.40,181.12 L488.96,176.07 L491.52,171.51 L494.08,167.43 L496.64,163.86 L499.20,160.79 L501.76,158.23 L504.32,156.18 L506.88,154.63 L509.44,153.58 L512.00,153.01" fill="none" stroke="rgba(230,255,68,0.7)" stroke-width="1.5" stroke-linecap="round" stroke-linejoin="round"/>
    <path d="M0.00,376.28 L2.09,381.71 L4.20,386.64 L6.36,391.06 L8.60,394.96 L10.95,398.36 L13.48,401.27 L16.30,403.65 L19.49,405.42 L23.06,406.43 L26.86,406.56 L30.69,405.81 L34.41,404.28 L38.00,402.09 L41.46,399.33 L44.83,396.04 L48.12,392.25 L51.37,388.01 L54.58,383.34 L57.76,378.26 L60.91,372.82 L64.06,367.04 L67.18,360.97 L70.30,354.63 L73.41,348.07 L76.01,341.15 L78.59,334.10 L81.17,326.95 L83.74,319.75 L86.30,312.53 L88.86,305.34 L91.41,298.21 L93.94,291.19 L96.48,284.30 L99.00,277.60 L101.51,271.10 L104.01,264.85 L106.49,258.88 L108.96,253.21 L111.40,247.88 L113.82,242.91 L116.21,238.32 L118.55,234.14 L120.84,230.37 L123.06,227.05 L125.20,224.17 L127.23,221.75 L129.13,219.76 L130.86,218.21 L132.42,217.04 L133.79,216.21 L134.98,215.65 L136.05,215.30 L137.06,215.09 L138.11,215.01 L139.27,215.06 L140.58,215.26 L142.08,215.64 L143.77,216.22 L145.63,217.01 L147.63,217.99 L149.77,219.16 L152.03,220.50 L154.39,221.97 L156.84,223.55 L159.37,225.21 L161.99,226.92 L164.69,228.66 L167.48,230.39 L170.36,232.07 L173.34,233.69 L176.42,235.21 L179.62,236.59 L182.94,237.80 L186.38,238.80 L189.94,239.55 L193.59,240.01 L197.30,240.15 L201.03,239.95 L204.75,239.41 L208.41,238.53 L211.97,237.34 L215.43,235.87 L218.78,234.15 L222.01,232.21 L225.13,230.08 L228.16,227.79 L231.10,225.35 L233.96,222.80 L236.77,220.16 L239.51,217.44 L242.20,214.68 L244.84,211.90 L247.43,209.14 L249.98,206.41 L252.48,203.76 L254.92,201.22 L257.30,198.81 L259.61,196.58 L261.84,194.55 L263.96,192.77 L265.94,191.26 L267.76,190.04 L269.37,189.11 L270.75,188.48 L271.86,188.10 L272.72,187.91 L273.40,187.84 L274.02,187.88 L274.74,188.04 L275.67,188.40 L276.86,189.09 L278.33,190.20 L280.04,191.79 L281.94,193.90 L283.99,196.54 L286.16,199.72 L288.42,203.42 L290.74,207.62 L293.11,212.31 L295.52,217.46 L297.96,223.05 L300.42,229.05 L302.91,235.43 L305.40,242.16 L307.91,249.20 L310.43,256.54 L312.96,264.12 L315.49,271.91 L318.04,279.87 L320.58,287.96 L323.14,296.14 L325.70,304.36 L328.26,312.60 L330.83,320.79 L333.41,328.90 L336.00,336.89 L338.59,344.72 L341.19,352.34 L343.81,359.72 L346.44,366.82 L349.10,373.61 L351.77,380.06 L354.49,386.14 L357.26,391.83 L360.09,397.12 L363.03,402.00 L366.13,406.47 L369.46,410.52 L373.14,414.15 L377.33,417.26 L382.18,419.68 L387.65,421.04 L393.40,421.05 L398.86,419.70 L403.68,417.31 L407.84,414.22 L411.50,410.61 L414.81,406.54 L417.89,402.03 L420.82,397.08 L423.65,391.67 L426.41,385.82 L429.12,379.53 L431.80,372.81 L434.45,365.70 L437.08,358.22 L439.69,350.39 L442.30,342.27 L444.89,333.87 L447.48,325.24 L450.06,316.43 L452.63,307.47 L455.20,298.42 L457.76,289.31 L460.32,280.20 L462.88,271.12 L464.92,261.98 L466.95,252.96 L468.98,244.11 L471.01,235.46 L473.03,227.06 L475.05,218.94 L477.07,211.15 L479.08,203.70 L481.08,196.64 L483.09,189.98 L485.08,183.77 L487.07,178.01 L489.05,172.72 L491.03,167.93 L492.99,163.63 L494.94,159.83 L496.88,156.54 L498.81,153.72 L500.76,151.38 L502.74,149.47 L504.80,147.98 L507.01,146.91 L509.40,146.27 L512.00,146.10" fill="none" stroke="rgba(230,255,68,0.6533333333333333)" stroke-width="1.4249999999999998" stroke-linecap="round" stroke-linejoin="round"/>
    <path d="M0.00,389.01 L1.68,393.68 L3.48,397.89 L5.45,401.68 L7.74,405.06 L10.51,408.02 L13.93,410.41 L18.04,411.97 L22.63,412.47 L27.33,411.89 L31.91,410.38 L36.30,408.12 L40.50,405.24 L44.55,401.81 L48.50,397.87 L52.36,393.47 L56.17,388.63 L59.94,383.39 L63.67,377.77 L67.37,371.81 L71.06,365.55 L74.72,359.02 L78.37,352.26 L82.00,345.32 L85.62,338.24 L88.22,330.71 L90.80,323.13 L93.37,315.55 L95.93,307.99 L98.47,300.51 L101.00,293.14 L103.51,285.92 L106.00,278.89 L108.48,272.09 L110.94,265.55 L113.37,259.32 L115.77,253.42 L118.14,247.89 L120.46,242.76 L122.72,238.06 L124.91,233.82 L127.00,230.07 L128.98,226.82 L130.81,224.11 L132.44,221.95 L133.83,220.33 L134.90,219.23 L135.60,218.61 L135.88,218.37 L135.74,218.40 L135.24,218.55 L134.51,218.67 L133.74,218.71 L133.15,218.66 L132.87,218.59 L133.00,218.60 L133.54,218.77 L134.46,219.18 L135.72,219.84 L137.28,220.77 L139.08,221.95 L141.09,223.37 L143.27,224.99 L145.62,226.79 L148.12,228.72 L150.76,230.77 L153.54,232.90 L156.47,235.08 L159.55,237.27 L162.80,239.45 L166.24,241.58 L169.88,243.62 L173.74,245.53 L177.84,247.25 L182.18,248.73 L186.75,249.91 L191.50,250.71 L196.38,251.10 L201.30,251.04 L206.19,250.53 L210.96,249.59 L215.56,248.26 L219.93,246.62 L224.06,244.71 L227.97,242.60 L231.65,240.33 L235.14,237.94 L238.45,235.48 L241.59,232.96 L244.60,230.42 L247.48,227.90 L250.23,225.40 L252.88,222.98 L255.40,220.65 L257.81,218.45 L260.08,216.42 L262.21,214.58 L264.16,212.98 L265.90,211.64 L267.40,210.59 L268.59,209.84 L269.41,209.39 L269.81,209.19 L269.74,209.18 L269.22,209.23 L268.34,209.24 L267.30,209.11 L266.33,208.85 L265.67,208.56 L265.45,208.40 L265.73,208.56 L266.46,209.16 L267.58,210.30 L269.02,212.00 L270.71,214.29 L272.59,217.15 L274.61,220.57 L276.74,224.52 L278.97,228.98 L281.25,233.92 L283.59,239.30 L285.98,245.10 L288.39,251.28 L290.84,257.81 L293.30,264.65 L295.79,271.77 L298.29,279.12 L300.81,286.67 L303.34,294.38 L305.88,302.21 L308.44,310.12 L311.01,318.06 L313.59,326.00 L316.18,333.89 L318.79,341.70 L321.42,349.38 L324.07,356.90 L326.74,364.22 L329.45,371.32 L332.20,378.17 L335.01,384.74 L337.89,391.02 L340.87,397.00 L344.00,402.68 L347.35,408.09 L351.01,413.23 L355.15,418.12 L360.00,422.75 L365.88,426.95 L373.06,430.34 L381.45,432.26 L390.32,432.11 L398.59,429.94 L405.59,426.37 L411.30,422.06 L416.03,417.33 L420.07,412.32 L423.66,407.02 L426.96,401.41 L430.05,395.46 L433.01,389.14 L435.87,382.45 L438.66,375.40 L441.40,367.98 L444.10,360.23 L446.77,352.16 L449.41,343.81 L452.04,335.20 L454.66,326.37 L457.26,317.37 L459.85,308.24 L462.43,299.01 L465.00,289.74 L467.56,280.46 L470.11,271.23 L472.65,262.09 L475.19,253.08 L476.69,243.96 L478.18,235.05 L479.66,226.40 L481.14,218.04 L482.60,210.01 L484.06,202.34 L485.50,195.07 L486.94,188.22 L488.35,181.83 L489.75,175.91 L491.13,170.48 L492.48,165.57 L493.79,161.17 L495.06,157.30 L496.28,153.93 L497.45,151.06 L498.57,148.63 L499.69,146.58 L500.89,144.84 L502.30,143.37 L504.09,142.21 L506.33,141.47 L509.00,141.25 L512.00,141.62" fill="none" stroke="rgba(230,255,68,0.6066666666666667)" stroke-width="1.35" stroke-linecap="round" stroke-linejoin="round"/>
    <path d="M0.00,398.87 L1.45,402.86 L3.26,406.52 L5.65,409.85 L8.87,412.69 L13.04,414.74 L17.92,415.67 L23.09,415.39 L28.23,414.07 L33.19,411.91 L37.97,409.06 L42.60,405.63 L47.12,401.65 L51.56,397.19 L55.93,392.27 L60.25,386.93 L64.53,381.19 L68.78,375.10 L73.00,368.69 L77.21,362.01 L81.39,355.08 L85.55,347.97 L89.70,340.70 L93.84,333.33 L97.95,325.90 L100.53,317.96 L103.09,310.06 L105.63,302.24 L108.15,294.54 L110.65,287.00 L113.13,279.66 L115.59,272.56 L118.01,265.74 L120.41,259.24 L122.76,253.10 L125.07,247.37 L127.32,242.07 L129.49,237.24 L131.57,232.92 L133.52,229.15 L135.32,225.97 L136.92,223.39 L138.25,221.46 L139.23,220.19 L139.76,219.56 L139.74,219.53 L139.06,219.98 L137.65,220.76 L135.55,221.61 L132.93,222.28 L130.11,222.60 L127.44,222.53 L125.24,222.19 L123.69,221.74 L122.84,221.39 L122.64,221.28 L123.02,221.48 L123.87,222.03 L125.13,222.93 L126.70,224.17 L128.55,225.72 L130.63,227.53 L132.92,229.58 L135.38,231.83 L138.03,234.25 L140.85,236.79 L143.86,239.43 L147.05,242.15 L150.46,244.90 L154.10,247.66 L158.01,250.38 L162.21,253.03 L166.73,255.56 L171.61,257.89 L176.83,259.95 L182.40,261.66 L188.24,262.92 L194.27,263.67 L200.39,263.87 L206.44,263.50 L212.33,262.61 L217.94,261.27 L223.22,259.56 L228.15,257.57 L232.71,255.38 L236.95,253.07 L240.87,250.68 L244.50,248.28 L247.89,245.89 L251.04,243.55 L253.97,241.31 L256.69,239.18 L259.20,237.21 L261.49,235.42 L263.55,233.85 L265.35,232.53 L266.85,231.50 L268.00,230.76 L268.73,230.33 L268.96,230.19 L268.63,230.29 L267.68,230.55 L266.11,230.81 L264.02,230.92 L261.61,230.75 L259.17,230.25 L257.00,229.50 L255.35,228.68 L254.32,228.01 L253.94,227.67 L254.14,227.83 L254.83,228.55 L255.91,229.89 L257.31,231.84 L258.95,234.39 L260.78,237.53 L262.75,241.22 L264.84,245.44 L267.02,250.14 L269.28,255.29 L271.59,260.85 L273.94,266.80 L276.34,273.09 L278.77,279.69 L281.23,286.56 L283.71,293.65 L286.22,300.94 L288.74,308.37 L291.29,315.92 L293.86,323.53 L296.45,331.17 L299.06,338.81 L301.69,346.39 L304.35,353.90 L307.05,361.29 L309.79,368.53 L312.58,375.60 L315.43,382.48 L318.37,389.16 L321.43,395.62 L324.65,401.88 L328.10,407.95 L331.87,413.87 L336.14,419.68 L341.13,425.39 L347.21,430.98 L354.82,436.22 L364.35,440.50 L375.62,442.87 L387.52,442.49 L398.49,439.48 L407.58,434.75 L414.80,429.24 L420.57,423.43 L425.34,417.49 L429.44,411.42 L433.10,405.17 L436.45,398.69 L439.61,391.93 L442.62,384.86 L445.52,377.49 L448.35,369.79 L451.12,361.79 L453.85,353.50 L456.54,344.95 L459.21,336.16 L461.85,327.17 L464.47,318.01 L467.08,308.73 L469.67,299.35 L472.25,289.94 L474.81,280.54 L477.36,271.18 L479.90,261.92 L482.42,252.80 L484.93,243.88 L487.43,235.19 L488.37,226.34 L489.30,217.78 L490.21,209.57 L491.10,201.74 L491.98,194.31 L492.83,187.34 L493.66,180.83 L494.45,174.83 L495.20,169.35 L495.89,164.42 L496.51,160.04 L497.04,156.23 L497.45,152.97 L497.71,150.22 L497.82,147.92 L497.79,145.96 L497.73,144.17 L497.89,142.44 L498.58,140.77 L500.03,139.37 L502.26,138.46 L505.11,138.20 L508.41,138.65 L512.00,139.76" fill="none" stroke="rgba(230,255,68,0.5599999999999999)" stroke-width="1.275" stroke-linecap="round" stroke-linejoin="round"/>
    <path d="M0.00,405.61 L1.67,409.10 L4.26,412.25 L7.97,414.74 L12.65,416.16 L17.88,416.35 L23.26,415.40 L28.59,413.53 L33.81,410.88 L38.93,407.58 L43.95,403.69 L48.90,399.26 L53.79,394.34 L58.64,388.96 L63.45,383.18 L68.23,377.01 L72.98,370.51 L77.72,363.71 L82.43,356.66 L87.12,349.40 L91.80,341.98 L96.46,334.44 L101.10,326.84 L105.72,319.22 L110.32,311.63 L112.86,303.49 L115.38,295.48 L117.87,287.63 L120.34,279.99 L122.78,272.61 L125.19,265.52 L127.55,258.77 L129.87,252.40 L132.14,246.46 L134.33,240.99 L136.44,236.03 L138.43,231.62 L140.28,227.83 L141.94,224.68 L143.36,222.22 L144.45,220.50 L145.11,219.56 L145.21,219.39 L144.58,219.96 L143.03,221.17 L140.44,222.81 L136.75,224.53 L132.14,225.94 L127.04,226.71 L122.00,226.71 L117.57,226.07 L114.07,225.09 L111.63,224.08 L110.17,223.31 L109.57,222.91 L109.67,222.96 L110.33,223.48 L111.44,224.44 L112.92,225.82 L114.71,227.57 L116.74,229.65 L119.00,232.01 L121.47,234.62 L124.12,237.43 L126.97,240.41 L130.01,243.54 L133.26,246.77 L136.75,250.09 L140.49,253.47 L144.53,256.87 L148.90,260.25 L153.66,263.58 L158.83,266.78 L164.46,269.79 L170.55,272.50 L177.09,274.81 L183.99,276.61 L191.16,277.81 L198.42,278.35 L205.61,278.22 L212.57,277.48 L219.17,276.22 L225.33,274.53 L231.00,272.56 L236.19,270.39 L240.92,268.12 L245.22,265.82 L249.12,263.56 L252.66,261.39 L255.84,259.34 L258.70,257.46 L261.23,255.78 L263.43,254.34 L265.26,253.16 L266.70,252.27 L267.69,251.69 L268.18,251.42 L268.07,251.45 L267.29,251.72 L265.78,252.13 L263.53,252.55 L260.59,252.80 L257.15,252.70 L253.49,252.16 L249.97,251.18 L246.90,249.91 L244.50,248.58 L242.85,247.41 L241.95,246.63 L241.71,246.36 L242.03,246.69 L242.80,247.66 L243.94,249.27 L245.37,251.51 L247.02,254.35 L248.84,257.75 L250.81,261.68 L252.89,266.11 L255.06,270.99 L257.30,276.29 L259.60,281.97 L261.96,287.98 L264.35,294.31 L266.79,300.89 L269.26,307.70 L271.76,314.69 L274.29,321.82 L276.85,329.06 L279.44,336.37 L282.07,343.71 L284.73,351.04 L287.43,358.34 L290.17,365.57 L292.98,372.71 L295.85,379.73 L298.82,386.62 L301.91,393.38 L305.16,400.02 L308.63,406.54 L312.42,412.99 L316.66,419.41 L321.56,425.86 L327.46,432.37 L334.81,438.89 L344.19,445.08 L356.06,450.15 L370.12,452.86 L384.92,452.20 L398.46,448.35 L409.58,442.50 L418.27,435.84 L425.08,428.98 L430.57,422.14 L435.18,415.32 L439.20,408.44 L442.83,401.44 L446.19,394.25 L449.35,386.83 L452.38,379.15 L455.30,371.20 L458.15,362.97 L460.93,354.49 L463.67,345.76 L466.37,336.82 L469.05,327.69 L471.69,318.40 L474.31,308.99 L476.92,299.51 L479.50,289.99 L482.07,280.49 L484.62,271.04 L487.16,261.69 L489.68,252.49 L492.17,243.50 L494.65,234.75 L497.10,226.31 L499.52,218.21 L499.88,209.87 L500.21,201.92 L500.51,194.41 L500.77,187.36 L500.99,180.82 L501.16,174.81 L501.26,169.37 L501.26,164.51 L501.15,160.27 L500.88,156.65 L500.39,153.64 L499.63,151.21 L498.52,149.26 L497.06,147.61 L495.35,145.99 L493.75,144.13 L492.82,141.98 L493.00,139.80 L494.42,138.04 L496.87,136.98 L500.07,136.76 L503.77,137.35 L507.78,138.67 L512.00,140.65" fill="none" stroke="rgba(230,255,68,0.5133333333333333)" stroke-width="1.2000000000000002" stroke-linecap="round" stroke-linejoin="round"/>
    <path d="M0.00,409.06 L2.72,411.95 L6.70,413.97 L11.59,414.81 L16.93,414.45 L22.44,413.05 L27.97,410.77 L33.47,407.73 L38.93,404.04 L44.35,399.74 L49.73,394.91 L55.08,389.58 L60.40,383.80 L65.69,377.62 L70.97,371.07 L76.22,364.21 L81.46,357.07 L86.67,349.71 L91.87,342.17 L97.06,334.50 L102.22,326.75 L107.37,318.98 L112.49,311.23 L117.59,303.57 L122.66,296.03 L125.15,287.90 L127.61,279.99 L130.04,272.34 L132.43,265.00 L134.77,258.01 L137.07,251.43 L139.30,245.29 L141.45,239.65 L143.50,234.56 L145.43,230.07 L147.20,226.24 L148.75,223.12 L150.02,220.77 L150.92,219.25 L151.32,218.61 L151.05,218.90 L149.89,220.09 L147.58,222.09 L143.87,224.66 L138.62,227.39 L131.95,229.71 L124.38,231.07 L116.70,231.21 L109.75,230.26 L104.08,228.64 L99.88,226.84 L97.06,225.27 L95.43,224.15 L94.76,223.61 L94.83,223.65 L95.49,224.27 L96.61,225.42 L98.11,227.05 L99.90,229.10 L101.95,231.51 L104.23,234.25 L106.70,237.26 L109.38,240.51 L112.24,243.96 L115.31,247.58 L118.59,251.34 L122.10,255.22 L125.88,259.19 L129.97,263.23 L134.41,267.31 L139.25,271.39 L144.56,275.43 L150.38,279.35 L156.76,283.07 L163.72,286.47 L171.21,289.42 L179.15,291.79 L187.41,293.47 L195.78,294.39 L204.05,294.54 L212.02,294.00 L219.53,292.87 L226.49,291.28 L232.83,289.38 L238.57,287.30 L243.70,285.15 L248.28,283.02 L252.33,280.98 L255.89,279.08 L258.97,277.39 L261.59,275.93 L263.73,274.74 L265.37,273.85 L266.47,273.28 L266.97,273.03 L266.80,273.08 L265.89,273.39 L264.17,273.87 L261.59,274.40 L258.18,274.78 L254.09,274.85 L249.54,274.43 L244.89,273.46 L240.51,272.01 L236.70,270.25 L233.66,268.44 L231.46,266.82 L230.08,265.59 L229.43,264.90 L229.40,264.83 L229.87,265.42 L230.75,266.66 L231.96,268.54 L233.43,271.03 L235.10,274.10 L236.94,277.71 L238.92,281.83 L241.00,286.40 L243.17,291.39 L245.42,296.76 L247.74,302.47 L250.10,308.48 L252.52,314.75 L254.99,321.24 L257.49,327.92 L260.04,334.74 L262.63,341.67 L265.26,348.68 L267.94,355.72 L270.68,362.78 L273.47,369.82 L276.35,376.82 L279.32,383.77 L282.41,390.66 L285.66,397.49 L289.11,404.27 L292.86,411.05 L297.02,417.86 L301.75,424.77 L307.34,431.84 L314.18,439.12 L322.85,446.49 L334.02,453.54 L348.18,459.29 L364.92,462.25 L382.45,461.26 L398.43,456.61 L411.50,449.71 L421.63,441.94 L429.47,434.06 L435.70,426.34 L440.84,418.78 L445.25,411.30 L449.16,403.79 L452.73,396.19 L456.06,388.42 L459.21,380.45 L462.23,372.26 L465.15,363.84 L468.00,355.18 L470.79,346.31 L473.53,337.23 L476.23,327.99 L478.90,318.60 L481.54,309.10 L484.16,299.54 L486.76,289.95 L489.33,280.37 L491.89,270.86 L494.42,261.46 L496.93,252.22 L499.42,243.18 L501.88,234.41 L504.31,225.94 L506.71,217.84 L509.06,210.16 L511.36,202.95 L511.08,195.40 L510.75,188.34 L510.35,181.83 L509.88,175.89 L509.30,170.56 L508.59,165.88 L507.71,161.88 L506.57,158.58 L505.11,155.98 L503.19,154.05 L500.68,152.67 L497.49,151.58 L493.71,150.35 L489.82,148.49 L486.70,145.83 L485.13,142.76 L485.38,139.95 L487.18,137.90 L490.12,136.84 L493.81,136.76 L497.99,137.58 L502.48,139.20 L507.17,141.49 L512.00,144.37" fill="none" stroke="rgba(230,255,68,0.4666666666666666)" stroke-width="1.125" stroke-linecap="round" stroke-linejoin="round"/>
    <path d="M0.00,409.14 L4.16,410.81 L9.19,411.25 L14.68,410.51 L20.40,408.77 L26.20,406.14 L32.04,402.76 L37.88,398.70 L43.72,394.04 L49.55,388.83 L55.36,383.13 L61.15,376.99 L66.93,370.45 L72.70,363.57 L78.45,356.40 L84.19,348.97 L89.91,341.35 L95.62,333.59 L101.30,325.73 L106.97,317.83 L112.62,309.96 L118.24,302.15 L123.84,294.47 L129.40,286.97 L134.92,279.73 L137.34,271.83 L139.72,264.26 L142.05,257.06 L144.32,250.27 L146.52,243.96 L148.64,238.17 L150.65,232.96 L152.52,228.39 L154.22,224.53 L155.68,221.43 L156.84,219.18 L157.58,217.86 L157.75,217.53 L157.16,218.26 L155.53,220.06 L152.52,222.87 L147.76,226.44 L140.98,230.28 L132.19,233.64 L121.98,235.74 L111.42,236.08 L101.69,234.77 L93.65,232.40 L87.57,229.68 L83.35,227.19 L80.68,225.25 L79.25,224.02 L78.76,223.54 L79.00,223.77 L79.79,224.65 L81.02,226.12 L82.60,228.11 L84.46,230.55 L86.56,233.38 L88.88,236.56 L91.39,240.02 L94.09,243.74 L96.98,247.68 L100.06,251.81 L103.35,256.10 L106.88,260.53 L110.66,265.07 L114.76,269.72 L119.20,274.46 L124.07,279.24 L129.41,284.04 L135.30,288.81 L141.80,293.46 L148.97,297.90 L156.81,301.99 L165.28,305.57 L174.28,308.49 L183.61,310.62 L193.05,311.89 L202.33,312.31 L211.23,311.95 L219.55,310.95 L227.19,309.47 L234.08,307.68 L240.23,305.73 L245.64,303.74 L250.35,301.81 L254.41,300.03 L257.83,298.46 L260.63,297.14 L262.80,296.12 L264.32,295.42 L265.16,295.05 L265.26,295.00 L264.54,295.23 L262.94,295.69 L260.41,296.25 L256.93,296.76 L252.58,297.03 L247.54,296.86 L242.09,296.12 L236.60,294.77 L231.45,292.90 L226.95,290.71 L223.28,288.46 L220.53,286.39 L218.64,284.72 L217.55,283.58 L217.13,283.07 L217.27,283.23 L217.88,284.05 L218.85,285.53 L220.11,287.63 L221.62,290.32 L223.33,293.56 L225.19,297.31 L227.18,301.52 L229.28,306.16 L231.47,311.19 L233.74,316.56 L236.08,322.23 L238.49,328.17 L240.95,334.33 L243.47,340.68 L246.05,347.19 L248.69,353.82 L251.39,360.53 L254.16,367.31 L257.01,374.13 L259.96,380.97 L263.03,387.82 L266.25,394.68 L269.67,401.55 L273.36,408.48 L277.41,415.48 L281.96,422.64 L287.23,430.01 L293.54,437.68 L301.37,445.66 L311.37,453.81 L324.31,461.62 L340.68,467.91 L359.93,471.02 L380.01,469.72 L398.28,464.33 L413.23,456.45 L424.81,447.63 L433.70,438.78 L440.69,430.20 L446.38,421.91 L451.19,413.83 L455.40,405.82 L459.20,397.81 L462.70,389.71 L465.98,381.47 L469.11,373.06 L472.12,364.45 L475.03,355.64 L477.87,346.64 L480.66,337.47 L483.40,328.13 L486.09,318.67 L488.76,309.12 L491.39,299.50 L494.00,289.87 L496.58,280.26 L499.14,270.71 L501.67,261.29 L504.18,252.03 L506.66,242.99 L509.10,234.21 L511.52,225.76 L513.89,217.68 L516.21,210.04 L518.47,202.90 L520.66,196.31 L522.74,190.35 L521.72,183.92 L520.59,178.12 L519.32,172.99 L517.87,168.57 L516.16,164.92 L514.11,162.07 L511.58,160.04 L508.37,158.80 L504.26,158.21 L499.04,157.91 L492.75,157.28 L486.02,155.54 L480.12,152.36 L476.30,148.23 L475.02,144.14 L475.94,140.89 L478.47,138.81 L482.05,137.93 L486.33,138.13 L491.05,139.28 L496.06,141.24 L501.26,143.90 L506.58,147.15 L512.00,150.90" fill="none" stroke="rgba(230,255,68,0.42)" stroke-width="1.0499999999999998" stroke-linecap="round" stroke-linejoin="round"/>
    <path d="M0.00,405.83 L5.30,405.96 L11.08,404.91 L17.10,402.84 L23.26,399.89 L29.48,396.18 L35.75,391.77 L42.02,386.77 L48.31,381.21 L54.59,375.18 L60.87,368.71 L67.14,361.86 L73.41,354.69 L79.66,347.25 L85.90,339.60 L92.12,331.77 L98.33,323.84 L104.52,315.86 L110.69,307.88 L116.84,299.96 L122.96,292.16 L129.04,284.54 L135.09,277.16 L141.09,270.09 L147.03,263.39 L149.35,256.00 L151.60,249.03 L153.78,242.56 L155.87,236.64 L157.85,231.33 L159.67,226.70 L161.31,222.81 L162.69,219.75 L163.74,217.60 L164.34,216.47 L164.32,216.44 L163.44,217.61 L161.39,220.03 L157.72,223.66 L151.96,228.27 L143.65,233.30 L132.71,237.83 L119.71,240.76 L106.03,241.34 L93.31,239.61 L82.73,236.37 L74.71,232.60 L69.07,229.08 L65.40,226.24 L63.25,224.29 L62.25,223.24 L62.10,223.05 L62.60,223.65 L63.60,224.95 L64.99,226.87 L66.69,229.31 L68.65,232.23 L70.83,235.54 L73.21,239.20 L75.76,243.17 L78.50,247.39 L81.41,251.84 L84.51,256.49 L87.81,261.30 L91.34,266.28 L95.12,271.39 L99.21,276.62 L103.64,281.97 L108.49,287.40 L113.83,292.91 L119.73,298.45 L126.28,303.96 L133.55,309.35 L141.59,314.50 L150.42,319.23 L159.95,323.39 L170.05,326.78 L180.49,329.26 L190.97,330.79 L201.21,331.37 L210.93,331.11 L219.94,330.18 L228.11,328.77 L235.40,327.06 L241.79,325.23 L247.31,323.40 L251.99,321.70 L255.87,320.19 L258.97,318.94 L261.29,318.00 L262.82,317.39 L263.52,317.12 L263.34,317.17 L262.22,317.49 L260.10,318.01 L256.94,318.58 L252.76,319.05 L247.65,319.21 L241.82,318.86 L235.58,317.89 L229.31,316.25 L223.40,314.04 L218.16,311.48 L213.81,308.81 L210.41,306.29 L207.94,304.15 L206.33,302.53 L205.46,301.52 L205.21,301.19 L205.48,301.53 L206.17,302.54 L207.21,304.19 L208.52,306.44 L210.06,309.26 L211.79,312.59 L213.68,316.40 L215.70,320.65 L217.83,325.30 L220.06,330.30 L222.38,335.61 L224.78,341.19 L227.25,347.02 L229.80,353.05 L232.43,359.25 L235.14,365.59 L237.94,372.05 L240.85,378.61 L243.87,385.25 L247.05,391.97 L250.42,398.78 L254.03,405.68 L257.96,412.71 L262.33,419.93 L267.31,427.40 L273.15,435.21 L280.22,443.42 L289.07,452.04 L300.42,460.88 L315.08,469.30 L333.53,476.02 L355.08,479.21 L377.48,477.60 L397.91,471.56 L414.69,462.80 L427.70,453.02 L437.68,443.23 L445.47,433.82 L451.74,424.81 L456.99,416.12 L461.53,407.63 L465.57,399.21 L469.26,390.79 L472.69,382.29 L475.93,373.66 L479.03,364.88 L482.02,355.94 L484.92,346.84 L487.75,337.59 L490.53,328.19 L493.26,318.69 L495.95,309.10 L498.60,299.46 L501.22,289.81 L503.81,280.20 L506.37,270.66 L508.91,261.24 L511.41,252.00 L513.88,242.98 L516.31,234.24 L518.71,225.83 L521.06,217.81 L523.35,210.24 L525.57,203.19 L527.70,196.72 L529.72,190.90 L531.60,185.82 L533.28,181.57 L531.29,176.72 L529.06,172.67 L526.50,169.47 L523.46,167.20 L519.77,165.89 L515.14,165.52 L509.21,165.93 L501.64,166.66 L492.39,166.84 L482.23,165.33 L472.97,161.55 L466.41,156.17 L463.26,150.58 L463.09,145.91 L465.06,142.63 L468.45,140.79 L472.76,140.25 L477.67,140.84 L482.96,142.39 L488.51,144.76 L494.24,147.82 L500.08,151.46 L506.01,155.60 L512.00,160.15" fill="none" stroke="rgba(230,255,68,0.37333333333333324)" stroke-width="0.9749999999999999" stroke-linecap="round" stroke-linejoin="round"/>
    <path d="M0.00,399.22 L6.16,397.85 L12.58,395.46 L19.14,392.19 L25.80,388.14 L32.51,383.41 L39.25,378.08 L46.01,372.21 L52.77,365.87 L59.54,359.12 L66.31,352.01 L73.07,344.60 L79.82,336.95 L86.56,329.12 L93.29,321.15 L100.00,313.12 L106.69,305.07 L113.37,297.07 L120.01,289.18 L126.62,281.47 L133.20,273.99 L139.72,266.81 L146.19,260.00 L152.59,253.63 L158.91,247.79 L161.07,241.18 L163.13,235.15 L165.07,229.76 L166.85,225.07 L168.43,221.18 L169.75,218.17 L170.70,216.14 L171.17,215.20 L170.96,215.48 L169.82,217.10 L167.36,220.14 L163.08,224.61 L156.34,230.28 L146.52,236.56 L133.35,242.34 L117.43,246.19 L100.44,247.02 L84.53,244.81 L71.31,240.57 L61.32,235.63 L54.29,230.98 L49.66,227.19 L46.85,224.47 L45.38,222.84 L44.90,222.24 L45.16,222.55 L45.96,223.68 L47.19,225.52 L48.76,227.97 L50.60,230.96 L52.66,234.41 L54.93,238.25 L57.37,242.45 L59.98,246.94 L62.75,251.69 L65.69,256.67 L68.81,261.84 L72.13,267.19 L75.66,272.70 L79.45,278.36 L83.53,284.16 L87.96,290.09 L92.79,296.15 L98.12,302.32 L104.03,308.58 L110.60,314.88 L117.95,321.14 L126.15,327.26 L135.25,333.07 L145.23,338.39 L155.98,343.00 L167.30,346.71 L178.90,349.38 L190.43,350.96 L201.56,351.52 L211.99,351.21 L221.53,350.22 L230.07,348.79 L237.55,347.10 L244.00,345.35 L249.44,343.66 L253.91,342.15 L257.44,340.90 L260.04,339.96 L261.70,339.37 L262.40,339.12 L262.10,339.20 L260.75,339.56 L258.28,340.11 L254.68,340.70 L249.97,341.16 L244.25,341.29 L237.74,340.88 L230.76,339.79 L223.70,337.99 L216.96,335.56 L210.88,332.69 L205.70,329.64 L201.51,326.67 L198.33,324.02 L196.08,321.87 L194.64,320.31 L193.92,319.42 L193.78,319.21 L194.12,319.68 L194.87,320.80 L195.95,322.55 L197.29,324.88 L198.87,327.75 L200.63,331.11 L202.55,334.93 L204.61,339.16 L206.80,343.76 L209.09,348.70 L211.49,353.92 L213.99,359.41 L216.59,365.12 L219.30,371.04 L222.12,377.14 L225.08,383.39 L228.18,389.80 L231.47,396.36 L234.99,403.07 L238.81,409.97 L243.01,417.09 L247.73,424.48 L253.16,432.23 L259.60,440.42 L267.47,449.11 L277.34,458.28 L290.02,467.68 L306.32,476.60 L326.67,483.61 L350.28,486.83 L374.77,484.96 L397.19,478.39 L415.74,468.86 L430.21,458.20 L441.32,447.53 L449.96,437.29 L456.87,427.58 L462.59,418.29 L467.49,409.30 L471.80,400.49 L475.70,391.74 L479.30,382.98 L482.67,374.15 L485.87,365.22 L488.94,356.17 L491.91,346.98 L494.80,337.66 L497.62,328.23 L500.38,318.71 L503.10,309.11 L505.77,299.48 L508.41,289.85 L511.01,280.26 L513.58,270.76 L516.11,261.38 L518.61,252.19 L521.08,243.22 L523.50,234.55 L525.88,226.21 L528.20,218.28 L530.46,210.81 L532.64,203.88 L534.72,197.56 L536.68,191.91 L538.46,187.05 L540.03,183.06 L541.30,180.08 L542.15,178.23 L538.67,175.61 L534.59,174.04 L529.64,173.61 L523.43,174.30 L515.46,175.93 L505.21,177.92 L492.50,179.09 L478.34,177.88 L465.12,173.41 L455.36,166.55 L450.03,159.22 L448.55,152.91 L449.85,148.24 L452.97,145.30 L457.26,143.90 L462.32,143.84 L467.87,144.90 L473.75,146.91 L479.86,149.72 L486.12,153.20 L492.50,157.26 L498.95,161.80 L505.45,166.73 L512.00,171.98" fill="none" stroke="rgba(230,255,68,0.32666666666666666)" stroke-width="0.9000000000000001" stroke-linecap="round" stroke-linejoin="round"/>
    <path d="M0.00,389.47 L6.86,386.74 L13.88,383.14 L21.00,378.78 L28.17,373.74 L35.39,368.12 L42.63,361.97 L49.89,355.36 L57.15,348.37 L64.41,341.05 L71.67,333.46 L78.93,325.65 L86.17,317.70 L93.41,309.66 L100.62,301.58 L107.82,293.54 L114.98,285.60 L122.12,277.82 L129.22,270.26 L136.28,263.00 L143.28,256.10 L150.21,249.65 L157.06,243.72 L163.80,238.40 L170.40,233.77 L172.30,228.32 L174.05,223.61 L175.57,219.73 L176.82,216.78 L177.68,214.88 L178.02,214.16 L177.64,214.76 L176.24,216.83 L173.39,220.50 L168.50,225.82 L160.79,232.59 L149.45,240.17 L134.00,247.27 L115.03,252.09 L94.54,253.15 L75.30,250.36 L59.38,245.00 L47.42,238.77 L39.06,232.94 L33.54,228.16 L30.13,224.66 L28.25,222.46 L27.49,221.44 L27.53,221.47 L28.17,222.44 L29.28,224.20 L30.73,226.66 L32.47,229.73 L34.45,233.31 L36.62,237.34 L38.97,241.75 L41.48,246.50 L44.14,251.54 L46.96,256.83 L49.93,262.34 L53.08,268.05 L56.42,273.93 L59.97,279.98 L63.77,286.18 L67.86,292.53 L72.29,299.04 L77.14,305.69 L82.48,312.50 L88.42,319.44 L95.06,326.48 L102.51,333.56 L110.89,340.59 L120.28,347.41 L130.70,353.82 L142.10,359.59 L154.30,364.47 L167.00,368.25 L179.84,370.83 L192.41,372.20 L204.33,372.49 L215.32,371.90 L225.20,370.69 L233.90,369.10 L241.38,367.34 L247.68,365.60 L252.84,364.01 L256.91,362.68 L259.90,361.66 L261.83,361.01 L262.68,360.72 L262.41,360.79 L260.99,361.17 L258.35,361.75 L254.48,362.40 L249.40,362.94 L243.20,363.15 L236.09,362.83 L228.39,361.81 L220.48,360.01 L212.80,357.49 L205.72,354.43 L199.52,351.05 L194.36,347.66 L190.26,344.49 L187.19,341.75 L185.04,339.58 L183.69,338.05 L183.03,337.21 L182.93,337.06 L183.32,337.59 L184.09,338.76 L185.19,340.54 L186.57,342.89 L188.18,345.76 L189.98,349.11 L191.96,352.89 L194.09,357.07 L196.37,361.62 L198.78,366.48 L201.33,371.64 L204.01,377.07 L206.84,382.74 L209.83,388.64 L213.01,394.77 L216.41,401.11 L220.09,407.70 L224.11,414.55 L228.60,421.71 L233.69,429.24 L239.61,437.21 L246.67,445.72 L255.34,454.81 L266.24,464.42 L280.18,474.24 L297.99,483.49 L320.01,490.68 L345.40,493.90 L371.72,491.85 L395.98,484.88 L416.25,474.73 L432.21,463.29 L444.51,451.79 L454.08,440.76 L461.69,430.34 L467.94,420.45 L473.24,410.96 L477.86,401.74 L481.99,392.67 L485.78,383.65 L489.30,374.63 L492.61,365.55 L495.78,356.39 L498.83,347.13 L501.77,337.78 L504.64,328.33 L507.45,318.81 L510.20,309.23 L512.90,299.63 L515.55,290.05 L518.17,280.52 L520.74,271.07 L523.28,261.77 L525.78,252.65 L528.24,243.78 L530.65,235.20 L533.01,226.97 L535.31,219.16 L537.53,211.83 L539.67,205.04 L541.70,198.89 L543.59,193.46 L545.29,188.83 L546.74,185.14 L547.85,182.50 L548.50,181.08 L548.46,181.08 L547.44,182.70 L541.12,183.30 L533.18,185.23 L522.93,188.29 L509.62,191.75 L492.98,194.09 L474.21,193.21 L456.46,187.92 L443.06,179.36 L435.26,170.03 L432.31,161.86 L432.81,155.63 L435.58,151.44 L439.81,149.07 L444.98,148.25 L450.76,148.74 L456.95,150.32 L463.43,152.81 L470.10,156.09 L476.91,160.01 L483.82,164.49 L490.81,169.42 L497.84,174.72 L504.91,180.33 L512.00,186.15" fill="none" stroke="rgba(230,255,68,0.2799999999999999)" stroke-width="0.8250000000000001" stroke-linecap="round" stroke-linejoin="round"/>
    <path d="M0.00,376.79 L7.49,372.88 L15.09,368.22 L22.75,362.90 L30.45,357.01 L38.18,350.63 L45.94,343.81 L53.70,336.62 L61.46,329.14 L69.22,321.42 L76.98,313.52 L84.73,305.51 L92.47,297.46 L100.18,289.42 L107.88,281.45 L115.54,273.64 L123.17,266.04 L130.76,258.73 L138.29,251.78 L145.75,245.26 L153.14,239.26 L160.41,233.87 L167.55,229.18 L174.51,225.31 L181.24,222.38 L182.71,218.54 L183.89,215.69 L184.66,213.93 L184.87,213.44 L184.31,214.37 L182.65,216.92 L179.42,221.24 L173.92,227.42 L165.24,235.31 L152.35,244.23 L134.55,252.70 L112.39,258.50 L88.26,259.76 L65.58,256.27 L46.93,249.67 L33.06,242.07 L23.44,235.00 L17.11,229.22 L13.17,224.95 L10.94,222.17 L9.92,220.75 L9.79,220.53 L10.30,221.33 L11.30,223.04 L12.66,225.51 L14.33,228.65 L16.23,232.36 L18.33,236.57 L20.60,241.20 L23.03,246.21 L25.60,251.53 L28.32,257.13 L31.19,262.97 L34.20,269.02 L37.38,275.26 L40.75,281.67 L44.33,288.25 L48.16,294.98 L52.28,301.88 L56.74,308.95 L61.64,316.19 L67.04,323.62 L73.05,331.23 L79.81,338.99 L87.43,346.87 L96.07,354.78 L105.84,362.56 L116.80,370.02 L128.94,376.89 L142.12,382.87 L156.04,387.69 L170.30,391.17 L184.41,393.26 L197.93,394.04 L210.48,393.74 L221.80,392.64 L231.78,391.01 L240.38,389.14 L247.62,387.23 L253.55,385.45 L258.24,383.93 L261.72,382.75 L264.02,381.96 L265.14,381.58 L265.05,381.60 L263.70,381.97 L261.06,382.61 L257.09,383.38 L251.80,384.10 L245.25,384.55 L237.63,384.50 L229.22,383.75 L220.43,382.17 L211.68,379.77 L203.42,376.67 L195.98,373.10 L189.58,369.33 L184.32,365.66 L180.19,362.32 L177.10,359.47 L174.95,357.25 L173.60,355.70 L172.93,354.85 L172.83,354.70 L173.22,355.23 L174.00,356.39 L175.12,358.16 L176.53,360.48 L178.19,363.32 L180.06,366.63 L182.14,370.38 L184.40,374.53 L186.84,379.04 L189.45,383.90 L192.26,389.07 L195.26,394.55 L198.50,400.33 L202.01,406.40 L205.84,412.80 L210.09,419.55 L214.87,426.69 L220.34,434.29 L226.76,442.43 L234.45,451.17 L243.92,460.54 L255.80,470.45 L270.92,480.55 L290.04,489.98 L313.48,497.23 L340.34,500.44 L368.21,498.30 L394.14,491.10 L416.08,480.50 L433.56,468.41 L447.14,456.15 L457.71,444.36 L466.11,433.24 L472.95,422.74 L478.71,412.73 L483.68,403.09 L488.09,393.68 L492.09,384.40 L495.78,375.18 L499.23,365.96 L502.51,356.71 L505.64,347.39 L508.66,338.01 L511.59,328.56 L514.44,319.06 L517.23,309.53 L519.96,299.99 L522.64,290.48 L525.27,281.03 L527.86,271.68 L530.40,262.47 L532.90,253.47 L535.35,244.71 L537.75,236.26 L540.09,228.17 L542.37,220.50 L544.56,213.34 L546.66,206.74 L548.63,200.79 L550.44,195.59 L552.05,191.24 L553.38,187.86 L554.33,185.61 L554.76,184.64 L554.43,185.19 L552.99,187.50 L549.90,191.84 L544.29,198.42 L531.49,203.12 L514.76,208.25 L493.66,211.89 L469.70,211.34 L446.89,205.07 L429.46,194.56 L418.93,182.99 L414.34,172.74 L413.94,164.78 L416.30,159.20 L420.41,155.74 L425.65,154.07 L431.64,153.90 L438.13,154.97 L444.96,157.09 L452.02,160.09 L459.26,163.83 L466.62,168.20 L474.07,173.08 L481.59,178.40 L489.15,184.06 L496.75,189.99 L504.37,196.12 L512.00,202.37" fill="none" stroke="rgba(230,255,68,0.23333333333333325)" stroke-width="0.75" stroke-linecap="round" stroke-linejoin="round"/>
    <path d="M0.00,361.50 L8.08,356.57 L16.24,351.01 L24.44,344.91 L32.67,338.32 L40.92,331.34 L49.18,324.02 L57.45,316.43 L65.72,308.64 L73.98,300.72 L82.23,292.72 L90.47,284.72 L98.69,276.78 L106.88,268.98 L115.03,261.37 L123.15,254.04 L131.21,247.06 L139.21,240.50 L147.13,234.46 L154.94,229.02 L162.62,224.29 L170.12,220.38 L177.40,217.41 L184.37,215.54 L190.93,214.95 L191.61,213.38 L191.70,213.13 L190.96,214.42 L189.03,217.45 L185.40,222.44 L179.27,229.51 L169.60,238.55 L155.12,248.84 L134.90,258.70 L109.43,265.49 L81.52,266.86 L55.34,262.56 L34.00,254.60 L18.30,245.56 L7.50,237.22 L0.44,230.44 L-3.97,225.42 L-6.51,222.09 L-7.73,220.29 L-8.02,219.81 L-7.62,220.47 L-6.71,222.12 L-5.42,224.60 L-3.82,227.82 L-1.98,231.66 L0.06,236.05 L2.28,240.90 L4.64,246.15 L7.15,251.75 L9.79,257.64 L12.56,263.80 L15.48,270.19 L18.54,276.78 L21.76,283.54 L25.17,290.48 L28.79,297.59 L32.67,304.86 L36.84,312.30 L41.37,319.93 L46.35,327.76 L51.86,335.81 L58.02,344.09 L64.98,352.59 L72.88,361.27 L81.90,370.06 L92.20,378.80 L103.88,387.29 L116.97,395.21 L131.35,402.22 L146.71,407.98 L162.60,412.22 L178.47,414.85 L193.74,415.93 L207.97,415.70 L220.82,414.49 L232.14,412.63 L241.89,410.44 L250.09,408.20 L256.82,406.08 L262.17,404.25 L266.19,402.80 L268.93,401.79 L270.41,401.24 L270.60,401.17 L269.48,401.52 L266.99,402.23 L263.09,403.17 L257.76,404.16 L251.02,404.99 L243.02,405.40 L234.00,405.16 L224.32,404.08 L214.44,402.07 L204.83,399.20 L195.90,395.64 L187.99,391.67 L181.26,387.59 L175.76,383.67 L171.45,380.14 L168.23,377.17 L165.97,374.84 L164.54,373.22 L163.80,372.32 L163.67,372.12 L164.03,372.60 L164.81,373.73 L165.96,375.46 L167.43,377.75 L169.18,380.56 L171.18,383.86 L173.43,387.62 L175.91,391.79 L178.64,396.37 L181.62,401.33 L184.88,406.68 L188.47,412.42 L192.45,418.55 L196.90,425.12 L201.97,432.17 L207.83,439.76 L214.73,447.95 L223.05,456.81 L233.27,466.34 L246.06,476.40 L262.21,486.60 L282.43,496.05 L306.98,503.28 L334.95,506.48 L364.08,504.38 L391.48,497.14 L415.04,486.28 L434.09,473.67 L449.04,460.74 L460.73,448.23 L470.01,436.42 L477.54,425.29 L483.82,414.76 L489.21,404.67 L493.94,394.91 L498.19,385.36 L502.08,375.94 L505.69,366.57 L509.10,357.22 L512.34,347.85 L515.44,338.45 L518.44,329.02 L521.34,319.56 L524.18,310.09 L526.94,300.63 L529.65,291.21 L532.30,281.87 L534.90,272.64 L537.45,263.56 L539.95,254.70 L542.40,246.09 L544.79,237.79 L547.11,229.87 L549.36,222.39 L551.52,215.41 L553.57,209.03 L555.48,203.32 L557.22,198.38 L558.73,194.33 L559.93,191.30 L560.71,189.45 L560.91,188.98 L560.26,190.11 L558.38,193.13 L554.65,198.34 L548.10,205.98 L537.31,215.99 L520.47,227.51 L494.41,232.55 L464.69,232.27 L436.33,224.84 L414.51,212.13 L401.03,198.08 L394.64,185.56 L393.25,175.70 L395.11,168.59 L399.06,163.92 L404.35,161.30 L410.51,160.38 L417.27,160.87 L424.43,162.55 L431.89,165.21 L439.54,168.71 L447.34,172.91 L455.26,177.71 L463.25,182.99 L471.30,188.67 L479.40,194.66 L487.53,200.90 L495.68,207.30 L503.84,213.79 L512.00,220.30" fill="none" stroke="rgba(230,255,68,0.18666666666666662)" stroke-width="0.675" stroke-linecap="round" stroke-linejoin="round"/>
    <path d="M0.00,343.96 L8.65,338.20 L17.35,331.92 L26.08,325.19 L34.84,318.10 L43.60,310.70 L52.38,303.07 L61.15,295.28 L69.92,287.40 L78.67,279.48 L87.41,271.61 L96.13,263.85 L104.81,256.28 L113.45,248.96 L122.05,241.98 L130.58,235.42 L139.04,229.36 L147.39,223.90 L155.61,219.13 L163.66,215.19 L171.49,212.19 L179.02,210.30 L186.14,209.70 L192.70,210.61 L198.47,213.32 L197.54,214.99 L195.34,218.53 L191.29,224.21 L184.52,232.19 L173.82,242.39 L157.69,254.07 L134.96,265.34 L106.06,273.08 L74.28,274.48 L44.58,269.23 L20.61,259.81 L3.18,249.27 L-8.69,239.68 L-16.42,231.90 L-21.24,226.15 L-24.04,222.29 L-25.45,220.12 L-25.86,219.40 L-25.56,219.93 L-24.72,221.52 L-23.49,224.03 L-21.94,227.32 L-20.15,231.29 L-18.16,235.84 L-15.99,240.90 L-13.68,246.39 L-11.23,252.26 L-8.65,258.45 L-5.95,264.92 L-3.12,271.63 L-0.15,278.56 L2.96,285.67 L6.24,292.96 L9.70,300.42 L13.39,308.05 L17.33,315.85 L21.59,323.84 L26.23,332.04 L31.33,340.47 L37.02,349.17 L43.41,358.14 L50.67,367.41 L59.00,376.93 L68.58,386.63 L79.63,396.37 L92.30,405.89 L106.65,414.84 L122.56,422.81 L139.71,429.35 L157.57,434.14 L175.45,437.03 L192.69,438.09 L208.70,437.60 L223.13,435.96 L235.79,433.59 L246.64,430.85 L255.76,428.06 L263.25,425.44 L269.22,423.15 L273.77,421.31 L276.97,419.97 L278.85,419.19 L279.41,418.95 L278.62,419.25 L276.43,420.01 L272.77,421.13 L267.59,422.45 L260.89,423.77 L252.73,424.82 L243.28,425.33 L232.85,425.05 L221.86,423.79 L210.82,421.51 L200.24,418.31 L190.52,414.42 L181.98,410.14 L174.75,405.78 L168.86,401.64 L164.24,397.92 L160.77,394.80 L158.32,392.35 L156.74,390.62 L155.90,389.64 L155.69,389.37 L156.03,389.79 L156.83,390.88 L158.04,392.58 L159.62,394.87 L161.53,397.71 L163.77,401.07 L166.32,404.93 L169.20,409.26 L172.43,414.07 L176.05,419.35 L180.13,425.12 L184.77,431.41 L190.10,438.27 L196.32,445.73 L203.68,453.86 L212.57,462.69 L223.48,472.21 L237.05,482.25 L254.02,492.38 L275.07,501.71 L300.37,508.84 L329.10,512.05 L359.17,510.12 L387.84,503.05 L412.94,492.15 L433.59,479.21 L450.01,465.72 L462.96,452.54 L473.25,440.04 L481.57,428.28 L488.48,417.19 L494.35,406.65 L499.46,396.51 L504.01,386.66 L508.14,377.02 L511.95,367.49 L515.51,358.04 L518.87,348.62 L522.08,339.21 L525.16,329.80 L528.13,320.39 L531.01,311.00 L533.82,301.63 L536.56,292.33 L539.24,283.12 L541.86,274.03 L544.42,265.11 L546.93,256.41 L549.37,247.98 L551.75,239.87 L554.06,232.14 L556.28,224.87 L558.40,218.12 L560.40,211.98 L562.25,206.54 L563.90,201.89 L565.30,198.18 L566.37,195.53 L566.96,194.11 L566.91,194.16 L565.93,195.90 L563.57,199.67 L559.16,205.77 L551.61,214.47 L539.34,225.70 L520.36,238.44 L493.18,249.99 L459.07,256.01 L424.73,247.20 L398.22,232.07 L381.58,215.31 L373.25,200.33 L370.76,188.41 L372.06,179.63 L375.78,173.63 L381.07,169.95 L387.38,168.20 L394.39,168.03 L401.88,169.19 L409.70,171.46 L417.76,174.65 L425.99,178.64 L434.36,183.28 L442.83,188.48 L451.37,194.13 L459.96,200.14 L468.59,206.44 L477.25,212.94 L485.93,219.57 L494.62,226.26 L503.31,232.94 L512.00,239.53" fill="none" stroke="rgba(230,255,68,0.13999999999999996)" stroke-width="0.6000000000000001" stroke-linecap="round" stroke-linejoin="round"/>
  </g>
</svg>